<svg fill="none" height="256" viewBox="0 0 257 256" width="257" xmlns="http://www.w3.org/2000/svg">
    <path
        d="M0.500175 44C0.500189 28.536 13.0362 16 28.5002 16H78.0188C88.2209 16 97.8116 20.8646 103.838 29.0964L112.353 40.7259C113.86 42.7838 116.257 44 118.808 44H228.5C243.964 44 256.5 56.536 256.5 72V212C256.5 227.464 243.964 240 228.5 240H28.5C13.036 240 0.500011 227.464 0.500025 212L0.500175 44Z"
        fill="url(#paint0_linear)"/>
    <mask height="224" id="mask0" mask-type="alpha" maskUnits="userSpaceOnUse" width="257" x="0" y="16">
        <path
            d="M0.500175 44C0.500189 28.536 13.0362 16 28.5002 16H78.0188C88.2209 16 97.8116 20.8646 103.838 29.0964L112.353 40.7259C113.86 42.7838 116.257 44 118.808 44H228.5C243.964 44 256.5 56.536 256.5 72V212C256.5 227.464 243.964 240 228.5 240H28.5C13.036 240 0.500011 227.464 0.500025 212L0.500175 44Z"
            fill="white"/>
    </mask>
    <g mask="url(#mask0)">
        <g style="mix-blend-mode:color-burn" filter="url(#filter0_d)">
            <path
                d="M0.5 104C0.5 88.536 13.036 76 28.5 76H99.4363C101.558 76 103.593 75.1571 105.093 73.6569L106.549 72.201C111.8 66.95 118.922 64 126.348 64H228.5C243.964 64 256.5 76.536 256.5 92V212C256.5 225.255 245.755 236 232.5 236H24.5C11.2452 236 0.5 225.255 0.5 212V104Z"
                fill="white"/>
        </g>
    </g>
    <path
        d="M0.5 104C0.5 88.536 13.036 76 28.5 76H99.4363C101.558 76 103.593 75.1571 105.093 73.6569L106.549 72.201C111.8 66.95 118.922 64 126.348 64H228.5C243.964 64 256.5 76.536 256.5 92V212C256.5 225.255 245.755 236 232.5 236H24.5C11.2452 236 0.5 225.255 0.5 212V104Z"
        fill="url(#paint1_linear)"/>
    <path clip-rule="evenodd"
          d="M28.5 76C13.036 76 0.5 88.536 0.5 104C0.5 90.7452 11.2452 80 24.5 80H99.7794C102.962 80 106.014 78.7357 108.265 76.4853L109.721 75.0294C114.221 70.5286 120.326 68 126.691 68H232.5C245.755 68 256.5 78.7452 256.5 92C256.5 76.536 243.964 64 228.5 64H126.348C118.922 64 111.8 66.95 106.549 72.201L105.093 73.6569C103.593 75.1571 101.558 76 99.4363 76H28.5Z"
          fill="url(#paint2_linear)"
          fill-rule="evenodd"/>
    <mask height="172" id="mask1" mask-type="alpha" maskUnits="userSpaceOnUse" width="257" x="0" y="64">
        <path
            d="M0.5 104C0.5 88.536 13.036 76 28.5 76H99.4363C101.558 76 103.593 75.1571 105.093 73.6569L106.549 72.201C111.8 66.95 118.922 64 126.348 64H228.5C243.964 64 256.5 76.536 256.5 92V212C256.5 225.255 245.755 236 232.5 236H24.5C11.2452 236 0.5 225.255 0.5 212V104Z"
            fill="white"/>
    </mask>
    <g mask="url(#mask1)">
        <g style="mix-blend-mode:color-burn" filter="url(#filter1_d)">
            <path
                d="M0.5 212C0.5 227.464 13.036 240 28.5 240H228.5C243.964 240 256.5 227.464 256.5 212V132C256.5 116.536 243.964 104 228.5 104V104C157.135 104 156.506 206.174 4.58986 207.976C2.38088 208.002 0.5 209.791 0.5 212V212Z"
                fill="white"/>
        </g>
        <g style="mix-blend-mode:multiply" filter="url(#filter2_d)">
            <path
                d="M0.5 212C0.5 227.464 13.036 240 28.5 240H228.5C243.964 240 256.5 227.464 256.5 212V132C256.5 116.536 243.964 104 228.5 104V104C157.135 104 156.506 206.174 4.58986 207.976C2.38088 208.002 0.5 209.791 0.5 212V212Z"
                fill="white"/>
        </g>
    </g>
    <path
        d="M0.5 212C0.5 227.464 13.036 240 28.5 240H228.5C243.964 240 256.5 227.464 256.5 212V132C256.5 116.536 243.964 104 228.5 104V104C157.135 104 156.506 206.174 4.58986 207.976C2.38088 208.002 0.5 209.791 0.5 212V212Z"
        fill="url(#paint3_linear)"/>
    <path clip-rule="evenodd"
          d="M228.5 240C243.964 240 256.5 227.464 256.5 212C256.5 225.255 245.755 236 232.5 236H24.5C11.2452 236 0.5 225.255 0.5 212C0.5 227.464 13.036 240 28.5 240H228.5Z"
          fill="url(#paint4_linear)"
          fill-rule="evenodd"/>
    <path clip-rule="evenodd"
          d="M0.544403 213.59C0.514933 213.064 0.5 212.534 0.5 212C0.5 209.791 2.38088 208.002 4.58986 207.976C94.5034 206.91 131.421 170.682 161.374 141.289C182.029 121.02 199.373 104 228.5 104C243.964 104 256.5 116.536 256.5 132C256.5 118.745 245.755 108 232.5 108H228.5C199.373 108 182.029 125.02 161.374 145.289C131.196 174.903 93.9482 211.454 2.55398 211.994C1.58985 212 0.743912 212.682 0.544403 213.59Z"
          fill="url(#paint5_radial)"
          fill-rule="evenodd"/>
    <defs>
        <filter color-interpolation-filters="sRGB" filterUnits="userSpaceOnUse" height="204" id="filter0_d" width="288"
                x="-15.5"
                y="40">
            <feFlood flood-opacity="0" result="BackgroundImageFix"/>
            <feColorMatrix in="SourceAlpha" result="hardAlpha" type="matrix"
                           values="0 0 0 0 0 0 0 0 0 0 0 0 0 0 0 0 0 0 127 0"/>
            <feOffset dy="-8"/>
            <feGaussianBlur stdDeviation="8"/>
            <feColorMatrix type="matrix" values="0 0 0 0 0 0 0 0 0 0 0 0 0 0 0 0 0 0 0.16 0"/>
            <feBlend in2="BackgroundImageFix" mode="normal" result="effect1_dropShadow"/>
            <feBlend in="SourceGraphic" in2="effect1_dropShadow" mode="normal" result="shape"/>
        </filter>
        <filter color-interpolation-filters="sRGB" filterUnits="userSpaceOnUse" height="264" id="filter1_d" width="384"
                x="-63.5"
                y="24">
            <feFlood flood-opacity="0" result="BackgroundImageFix"/>
            <feColorMatrix in="SourceAlpha" result="hardAlpha" type="matrix"
                           values="0 0 0 0 0 0 0 0 0 0 0 0 0 0 0 0 0 0 127 0"/>
            <feOffset dy="-16"/>
            <feGaussianBlur stdDeviation="32"/>
            <feColorMatrix type="matrix" values="0 0 0 0 0.1 0 0 0 0 0 0 0 0 0 0 0 0 0 0.32 0"/>
            <feBlend in2="BackgroundImageFix" mode="normal" result="effect1_dropShadow"/>
            <feBlend in="SourceGraphic" in2="effect1_dropShadow" mode="normal" result="shape"/>
        </filter>
        <filter color-interpolation-filters="sRGB" filterUnits="userSpaceOnUse" height="152" id="filter2_d" width="272"
                x="-7.5"
                y="92">
            <feFlood flood-opacity="0" result="BackgroundImageFix"/>
            <feColorMatrix in="SourceAlpha" result="hardAlpha" type="matrix"
                           values="0 0 0 0 0 0 0 0 0 0 0 0 0 0 0 0 0 0 127 0"/>
            <feOffset dy="-4"/>
            <feGaussianBlur stdDeviation="4"/>
            <feColorMatrix type="matrix" values="0 0 0 0 0 0 0 0 0 0 0 0 0 0 0 0 0 0 0.16 0"/>
            <feBlend in2="BackgroundImageFix" mode="normal" result="effect1_dropShadow"/>
            <feBlend in="SourceGraphic" in2="effect1_dropShadow" mode="normal" result="shape"/>
        </filter>
        <linearGradient gradientUnits="userSpaceOnUse" id="paint0_linear" x1="0.500004" x2="303.933" y1="-8.62167e-06"
                        y2="172.624">
            <stop offset="0.25" stop-color="#E09D00"/>
            <stop offset="0.934027" stop-color="#E09D00"/>
        </linearGradient>
        <linearGradient gradientUnits="userSpaceOnUse" id="paint1_linear" x1="0.499996" x2="260.822" y1="-8.43632e-07"
                        y2="251.527">
            <stop offset="0.187317" stop-color="#FFD760"/>
            <stop offset="0.934027" stop-color="#F6B203"/>
        </linearGradient>
        <linearGradient gradientUnits="userSpaceOnUse" id="paint2_linear" x1="0.5" x2="256.5" y1="64" y2="64">
            <stop offset="0.105802" stop-color="#FFE38E"/>
            <stop offset="1" stop-color="#FFE38E" stop-opacity="0.2"/>
        </linearGradient>
        <linearGradient gradientUnits="userSpaceOnUse" id="paint3_linear" x1="0.499988" x2="256.5" y1="344" y2="88">
            <stop offset="0.442743" stop-color="#1391DF"/>
            <stop offset="0.930414" stop-color="#0060B2"/>
        </linearGradient>
        <linearGradient gradientUnits="userSpaceOnUse" id="paint4_linear" x1="0.5" x2="256.5" y1="240" y2="240">
            <stop stop-color="#114889" stop-opacity="0.7"/>
            <stop offset="1" stop-color="#114889"/>
        </linearGradient>
        <radialGradient cx="0" cy="0"
                        gradientTransform="translate(128.5 124.421) rotate(40.3939) scale(168.065 329.745)"
                        gradientUnits="userSpaceOnUse" id="paint5_radial"
                        r="1">
            <stop stop-color="#68D7F6" stop-opacity="0.88"/>
            <stop offset="0.661458" stop-color="#68D7F6" stop-opacity="0.1"/>
        </radialGradient>
    </defs>
</svg>