<svg fill="none" height="256" viewBox="0 0 256 256" width="256" xmlns="http://www.w3.org/2000/svg">
    <path clip-rule="evenodd"
          d="M94.8798 59.7045C95.4351 54.9916 92.635 51.5496 90.3676 49.9466C88.1668 48.3907 82.9544 46.3376 78.2973 50.1793C71.0541 56.1544 62.0693 64.8274 53.943 74.8709C45.8676 84.8512 38.2906 96.6126 34.3547 108.758C32.8241 113.481 32 118.515 32 123.727C32 150.336 53.4391 172 80 172C106.561 172 128 150.336 128 123.727C128 105.225 116.829 91.2058 104.452 82.2579C102.474 80.5553 99.7405 77.0809 97.6351 72.6283C95.4717 68.053 94.4402 63.435 94.8798 59.7045ZM66.3813 84.935C70.7678 79.5137 75.442 74.5214 79.8738 70.2393C80.6722 73.5371 81.8436 76.6612 83.1706 79.4678C86.0892 85.6402 90.2295 91.2659 94.4403 94.7433C94.5815 94.8599 94.7267 94.9717 94.8756 95.0783C104.995 102.327 112 112.16 112 123.727C112 141.602 97.6219 156 80 156C62.3781 156 48 141.602 48 123.727C48 120.21 48.5551 116.839 49.5754 113.69C52.6677 104.148 58.9355 94.1374 66.3813 84.935Z"
          fill="white"
          fill-rule="evenodd"/>
    <path clip-rule="evenodd"
          d="M0.000161171 44C0.000175953 28.536 12.5362 16 28.0002 16H85.5766C95.7787 16 105.369 20.8646 111.396 29.0964L122.308 44H228C243.464 44 256 56.536 256 72V212C256 227.464 243.464 240 228 240H28C12.536 240 -1.47819e-05 227.464 0 212V120L8.83333e-05 119.924L0.000161171 44ZM96.6159 179.413C78.7087 186.334 53.4507 191.316 16 191.935L16.0002 44C16.0002 37.3726 21.3728 32 28.0002 32H85.5766C90.6776 32 95.473 34.4323 98.4864 38.5482L109.398 53.4518C112.411 57.5677 117.207 60 122.308 60H228C234.627 60 240 65.3726 240 72V80.281C235.293 77.5583 229.829 76 224 76H122.534C122.355 76 122.177 76.0017 121.998 76.0051C126.817 80.4984 131.383 85.8344 135.093 92H224C232.829 92 239.988 99.1514 240 107.978V117.373C231.846 111.665 221.46 108 212 108C188.985 108 174.27 113.693 162.762 122.87C157.199 127.307 152.607 132.383 148.363 137.428C146.885 139.184 145.48 140.897 144.091 142.592C141.34 145.946 138.648 149.228 135.568 152.633C126.698 162.437 115.566 172.089 96.6159 179.413ZM16 212L16 207.937C54.8156 207.317 82.1506 202.157 102.384 194.337C124.184 185.911 137.302 174.563 147.432 163.367C150.766 159.683 153.896 155.868 156.786 152.347L156.786 152.346L156.788 152.345C158.113 150.73 159.387 149.178 160.606 147.728C164.643 142.93 168.426 138.818 172.738 135.38C180.98 128.807 192.015 124 212 124C217.825 124 225.225 126.463 231.138 130.703C237.153 135.015 239.98 139.89 240 143.956V212C240 218.627 234.627 224 228 224H28C21.3726 224 16 218.627 16 212Z"
          fill="white"
          fill-rule="evenodd"/>
</svg>