<svg width="256" height="256" viewBox="0 0 256 256" fill="none" xmlns="http://www.w3.org/2000/svg">
<g clip-path="url(#clip0_5579_5070)">
<path fill-rule="evenodd" clip-rule="evenodd" d="M59.0678 16C73.6271 16 86.7531 24.7696 92.326 38.2201L96.3782 48H232C245.255 48 256 58.7452 256 72V192C256 217.589 234.458 240.186 208.569 239.997C155.062 240.618 101.511 240 48 240C21.4903 240 0 218.51 0 192V40C0 26.7452 10.7452 16 24 16H59.0678ZM244 167.5V72C244 65.3726 238.627 60 232 60H166.438C172.52 65.3268 177.357 72.322 180.572 80.773L215.93 164.934C219.53 171.793 222.239 180 231.5 180C239.024 180 244 175.009 244 167.5ZM133 60C150.031 60 163.28 68.9802 169.388 85.1234L169.427 85.2244L205.072 170.071L205.197 170.307C211.069 181.399 216.724 192 231.5 192C236.485 192 240.629 190.923 244 189.118V192C244 211.705 228.169 227.712 208.532 227.996C181.143 227.772 166.699 218.027 160.53 203.673L101.259 60H133ZM81.24 42.8134L149.469 208.326L149.485 208.364C152.915 216.367 158.108 222.951 165.014 228H48C28.1178 228 12 211.882 12 192V40C12 33.3726 17.3726 28 24 28H59.0678C68.774 28 77.5246 33.8464 81.24 42.8134Z" fill="white"/>
</g>
<defs>
<clipPath id="clip0_5579_5070">
<rect width="256" height="256" fill="white"/>
</clipPath>
</defs>
</svg>
