<svg width="128" height="128" viewBox="0 0 128 128" fill="none" xmlns="http://www.w3.org/2000/svg">
<mask id="mask0_2974_12313" style="mask-type:luminance" maskUnits="userSpaceOnUse" x="0" y="8" width="128" height="112">
<path d="M0 20C0 13.3726 5.37258 8 12 8H41.3726C45.616 8 49.6857 9.68571 52.6863 12.6863L61.6569 21.6569C63.1571 23.1571 65.192 24 67.3137 24H116C122.627 24 128 29.3726 128 36V108C128 114.627 122.627 120 116 120H12C5.37258 120 0 114.627 0 108V20Z" fill="white"/>
</mask>
<g mask="url(#mask0_2974_12313)">
<path d="M0 36C0 29.3726 5.37258 24 12 24H116C122.627 24 128 29.3726 128 36V108C128 114.627 122.627 120 116 120H12C5.37258 120 0 114.627 0 108V36Z" fill="url(#paint0_linear_2974_12313)"/>
<mask id="mask1_2974_12313" style="mask-type:luminance" maskUnits="userSpaceOnUse" x="0" y="24" width="128" height="96">
<path d="M0 36C0 29.3726 5.37258 24 12 24H116C122.627 24 128 29.3726 128 36V108C128 114.627 122.627 120 116 120H12C5.37258 120 0 114.627 0 108V36Z" fill="white"/>
</mask>
<g mask="url(#mask1_2974_12313)">
<g filter="url(#filter0_f_2974_12313)">
<path d="M0 20C0 13.3726 5.37258 8 12 8H41.3726C45.616 8 49.6857 9.68571 52.6863 12.6863L125.657 85.6569C127.157 87.1572 128 89.192 128 91.3137V108C128 114.627 122.627 120 116 120H12C5.37258 120 0 114.627 0 108V20Z" fill="black" fill-opacity="0.24"/>
</g>
<g filter="url(#filter1_f_2974_12313)">
<path d="M0 20C0 13.3726 5.37258 8 12 8H41.3726C45.616 8 49.6857 9.68571 52.6863 12.6863L125.657 85.6569C127.157 87.1572 128 89.192 128 91.3137V108C128 114.627 122.627 120 116 120H12C5.37258 120 0 114.627 0 108V20Z" fill="black" fill-opacity="0.32"/>
</g>
</g>
<path d="M0 20C0 13.3726 5.37258 8 12 8H41.3726C45.616 8 49.6857 9.68571 52.6863 12.6863L125.657 85.6569C127.157 87.1572 128 89.192 128 91.3137V108C128 114.627 122.627 120 116 120H12C5.37258 120 0 114.627 0 108V20Z" fill="url(#paint1_linear_2974_12313)"/>
<mask id="mask2_2974_12313" style="mask-type:luminance" maskUnits="userSpaceOnUse" x="0" y="8" width="128" height="112">
<path d="M0 20C0 13.3726 5.37258 8 12 8H41.3726C45.616 8 49.6857 9.68571 52.6863 12.6863L125.657 85.6569C127.157 87.1572 128 89.192 128 91.3137V108C128 114.627 122.627 120 116 120H12C5.37258 120 0 114.627 0 108V20Z" fill="white"/>
</mask>
<g mask="url(#mask2_2974_12313)">
<g filter="url(#filter2_f_2974_12313)">
<path d="M7.51472 64.4853C12.201 59.799 19.799 59.799 24.4853 64.4853L80 120H12C5.37258 120 0 114.627 0 108V72L7.51472 64.4853Z" fill="black" fill-opacity="0.24"/>
</g>
<g filter="url(#filter3_f_2974_12313)">
<path d="M7.51472 64.4853C12.201 59.799 19.799 59.799 24.4853 64.4853L80 120H12C5.37258 120 0 114.627 0 108V72L7.51472 64.4853Z" fill="black" fill-opacity="0.32"/>
</g>
</g>
<path d="M7.51472 64.4853C12.201 59.799 19.799 59.799 24.4853 64.4853L80 120H12C5.37258 120 0 114.627 0 108V72L7.51472 64.4853Z" fill="url(#paint2_linear_2974_12313)"/>
</g>
<defs>
<filter id="filter0_f_2974_12313" x="-2" y="6" width="132" height="116" filterUnits="userSpaceOnUse" color-interpolation-filters="sRGB">
<feFlood flood-opacity="0" result="BackgroundImageFix"/>
<feBlend mode="normal" in="SourceGraphic" in2="BackgroundImageFix" result="shape"/>
<feGaussianBlur stdDeviation="1" result="effect1_foregroundBlur_2974_12313"/>
</filter>
<filter id="filter1_f_2974_12313" x="-8" y="0" width="144" height="128" filterUnits="userSpaceOnUse" color-interpolation-filters="sRGB">
<feFlood flood-opacity="0" result="BackgroundImageFix"/>
<feBlend mode="normal" in="SourceGraphic" in2="BackgroundImageFix" result="shape"/>
<feGaussianBlur stdDeviation="4" result="effect1_foregroundBlur_2974_12313"/>
</filter>
<filter id="filter2_f_2974_12313" x="-2" y="58.9707" width="84" height="63.0293" filterUnits="userSpaceOnUse" color-interpolation-filters="sRGB">
<feFlood flood-opacity="0" result="BackgroundImageFix"/>
<feBlend mode="normal" in="SourceGraphic" in2="BackgroundImageFix" result="shape"/>
<feGaussianBlur stdDeviation="1" result="effect1_foregroundBlur_2974_12313"/>
</filter>
<filter id="filter3_f_2974_12313" x="-8" y="52.9707" width="96" height="75.0293" filterUnits="userSpaceOnUse" color-interpolation-filters="sRGB">
<feFlood flood-opacity="0" result="BackgroundImageFix"/>
<feBlend mode="normal" in="SourceGraphic" in2="BackgroundImageFix" result="shape"/>
<feGaussianBlur stdDeviation="4" result="effect1_foregroundBlur_2974_12313"/>
</filter>
<linearGradient id="paint0_linear_2974_12313" x1="27.0625" y1="-1.09078e-06" x2="100.875" y2="127.875" gradientUnits="userSpaceOnUse">
<stop offset="0.325174" stop-color="#D57D01"/>
<stop offset="0.842552" stop-color="#AB5D01"/>
</linearGradient>
<linearGradient id="paint1_linear_2974_12313" x1="27.125" y1="0.125" x2="100.937" y2="127.937" gradientUnits="userSpaceOnUse">
<stop stop-color="#FAC240"/>
<stop offset="0.935639" stop-color="#F9AE00"/>
</linearGradient>
<linearGradient id="paint2_linear_2974_12313" x1="27.125" y1="0.124999" x2="100.937" y2="127.938" gradientUnits="userSpaceOnUse">
<stop offset="0.552083" stop-color="#FFDA55"/>
<stop offset="0.932292" stop-color="#FAC240"/>
</linearGradient>
</defs>
</svg>
