<svg fill="none" height="256" viewBox="0 0 256 256" width="256" xmlns="http://www.w3.org/2000/svg">
    <path clip-rule="evenodd"
          d="M0.000161171 44C0.000175953 28.536 12.5362 16 28.0002 16H85.5766C95.7787 16 105.369 20.8646 111.396 29.0964L122.308 44H228C243.464 44 256 56.536 256 72V107.968C256 107.979 256 107.989 256 108L256 212C256 227.464 243.464 240 228 240H28C12.536 240 -1.47819e-05 227.464 0 212V120C0 119.975 2.94552e-05 119.949 8.83332e-05 119.924L0.000161171 44ZM16.0001 119.946L16 191.935C53.4507 191.316 78.7087 186.334 96.6159 179.413C115.566 172.089 126.698 162.437 135.568 152.633C138.648 149.228 141.34 145.946 144.091 142.592C145.48 140.897 146.885 139.184 148.363 137.428C152.607 132.383 157.199 127.307 162.762 122.87C174.27 113.693 188.985 108 212 108C221.46 108 231.846 111.665 240 117.373L240 108C240 107.993 240 107.985 240 107.978C239.988 99.1514 232.829 92 224 92H122.534C119.352 92 116.299 93.2643 114.049 95.5147L110.25 99.3137C107.249 102.314 103.18 104 98.9363 104H32C23.1814 104 16.0291 111.134 16.0001 119.946ZM240 80.281C235.293 77.5583 229.829 76 224 76H122.534C115.108 76 107.986 78.95 102.735 84.201L98.9363 88H32C26.1715 88 20.7069 89.5583 16.0001 92.281L16.0002 44C16.0002 37.3726 21.3728 32 28.0002 32H85.5766C90.6776 32 95.473 34.4323 98.4864 38.5482L109.398 53.4518C112.411 57.5677 117.207 60 122.308 60H228C234.627 60 240 65.3726 240 72V80.281ZM16 212L16 207.937C54.8156 207.317 82.1506 202.157 102.384 194.337C124.184 185.911 137.302 174.563 147.432 163.367C150.766 159.683 153.896 155.868 156.786 152.347L156.786 152.346L156.788 152.345C158.113 150.73 159.387 149.178 160.606 147.728C164.643 142.93 168.426 138.818 172.738 135.38C180.98 128.807 192.015 124 212 124C217.825 124 225.225 126.463 231.138 130.703C237.153 135.015 239.98 139.89 240 143.956V212C240 218.627 234.627 224 228 224H28C21.3726 224 16 218.627 16 212Z"
          fill="white"
          fill-rule="evenodd"/>
</svg>