<svg xmlns="http://www.w3.org/2000/svg" viewBox="0 0 16 16"><style>.icon-canvas-transparent{opacity:0;fill:#f6f6f6}.icon-vs-out{fill:#f6f6f6}.icon-vs-bg{fill:#424242}.icon-vs-fg{fill:#f0eff1}.icon-cpp-purple{fill:#9b4f96}</style><path class="icon-canvas-transparent" d="M0 0h16v16H0z" id="canvas"/><path class="icon-vs-out" d="M2 16V0h8.621L15 4.379V16H2z" id="outline"/><g id="iconBg"><path class="icon-cpp-purple" d="M8 6H5V5h3v1zm4 1H5v1h7V7zm0 2H5v1h7V9zm0 2H5v1h7v-1z"/><path class="icon-vs-bg" d="M10.207 1H3v14h11V4.793L10.207 1zM10 2.207L12.793 5H10V2.207zM13 14H4V2h5v4h4v8z"/></g><path class="icon-vs-fg" d="M9 6V2H4v12h9V6H9zM5 5h3v1H5V5zm7 7H5v-1h7v1zm0-2H5V9h7v1zm0-2H5V7h7v1zm1-3h-3V2l3 3z" id="iconFg"/></svg>