<svg class="CalendarView" width="300" height="348" viewBox="0 0 300 348" fill="none" xmlns="http://www.w3.org/2000/svg" xmlns:xlink="http://www.w3.org/1999/xlink">
<g filter="url(#filter0_b)">
<rect x="1" y="1" width="298" height="346" rx="7" fill="#FCFCFC" fill-opacity="0.85" style="mix-blend-mode:luminosity"/>
<rect x="1" y="1" width="298" height="346" rx="7" fill="url(#pattern0)" fill-opacity="0.02"/>
</g>
<g style="mix-blend-mode:multiply">
<rect x="1" y="1" width="298" height="346" rx="7" fill="white"/>
</g>
<rect x="0.5" y="0.5" width="299" height="347" rx="7.5" stroke="black" stroke-opacity="0.0578"/>
<g clip-path="url(#clip0)">
<path d="M1 49H299V340C299 343.866 295.866 347 292 347H8.00001C4.13401 347 1 343.866 1 340V49Z" fill="white" fill-opacity="0.25"/>
<path d="M1 48.5H0.5V49V340C0.5 344.142 3.85787 347.5 8.00001 347.5H292C296.142 347.5 299.5 344.142 299.5 340V49V48.5H299H1Z" stroke="black" stroke-opacity="0.0578"/>
</g>
<path d="M16.4805 77.2959L17.2051 76.0449C17.6471 76.3184 18.0596 76.512 18.4424 76.626C18.8252 76.7354 19.2536 76.79 19.7275 76.79C20.2926 76.79 20.737 76.6693 21.0605 76.4277C21.3887 76.1816 21.5527 75.8307 21.5527 75.375C21.5527 74.9603 21.416 74.6344 21.1426 74.3975C20.8737 74.1559 20.4157 73.9349 19.7686 73.7344C18.7705 73.4382 18.0368 73.0713 17.5674 72.6338C17.098 72.1963 16.8633 71.6038 16.8633 70.8564C16.8633 70.0452 17.1663 69.373 17.7725 68.8398C18.3786 68.3021 19.2012 68.0332 20.2402 68.0332C20.696 68.0332 21.1449 68.0833 21.5869 68.1836C22.029 68.2839 22.4665 68.4388 22.8994 68.6484L22.291 69.9473C21.9128 69.7513 21.5505 69.6123 21.2041 69.5303C20.8623 69.4482 20.5137 69.4072 20.1582 69.4072C19.6387 69.4072 19.2285 69.5212 18.9277 69.749C18.6315 69.9769 18.4834 70.2982 18.4834 70.7129C18.4834 71.082 18.6201 71.3737 18.8936 71.5879C19.167 71.7975 19.6364 72.0049 20.3018 72.21C21.3226 72.5153 22.0563 72.8958 22.5029 73.3516C22.9541 73.8073 23.1797 74.4339 23.1797 75.2314C23.1797 76.0882 22.8743 76.7923 22.2637 77.3438C21.653 77.8906 20.7826 78.1641 19.6523 78.1641C19.0872 78.1641 18.5358 78.0934 17.998 77.9521C17.4603 77.8063 16.9544 77.5876 16.4805 77.2959ZM30.8701 78H29.2773V76.9131H29.25C29.0039 77.3278 28.7008 77.64 28.3408 77.8496C27.9808 78.0592 27.5661 78.1641 27.0967 78.1641C26.2764 78.1641 25.6589 77.918 25.2441 77.4258C24.834 76.929 24.6289 76.1885 24.6289 75.2041V71H26.208V75.0195C26.208 75.6439 26.3288 76.1133 26.5703 76.4277C26.8164 76.7422 27.1833 76.8994 27.6709 76.8994C28.1449 76.8994 28.5299 76.7285 28.8262 76.3867C29.127 76.0449 29.2773 75.5892 29.2773 75.0195V71H30.8701V78Z" fill="black" fill-opacity="0.8956"/>
<path d="M67.0869 78H65.4736V71.7451C65.4736 71.4626 65.4805 71.1549 65.4941 70.8223C65.5124 70.485 65.5352 70.1273 65.5625 69.749H65.5215C65.4668 70.0088 65.4144 70.2321 65.3643 70.4189C65.3187 70.6012 65.2731 70.7471 65.2275 70.8564L62.3496 78H61.2285L58.3369 70.918C58.3005 70.8177 58.2549 70.6696 58.2002 70.4736C58.1501 70.2777 58.0954 70.0361 58.0361 69.749H57.9951C58.0225 70.0771 58.0407 70.4258 58.0498 70.7949C58.0589 71.1595 58.0635 71.5446 58.0635 71.9502V78H56.5596V68.1973H58.8564L61.4062 74.5684C61.5065 74.8099 61.5885 75.0332 61.6523 75.2383C61.7207 75.4388 61.7731 75.6257 61.8096 75.7988H61.8506C61.9326 75.5391 62.0101 75.3044 62.083 75.0947C62.1559 74.8851 62.2243 74.7028 62.2881 74.5479L64.8721 68.1973H67.0869V78ZM72.4326 78.1641C71.3389 78.1641 70.4707 77.8382 69.8281 77.1865C69.1901 76.5303 68.8711 75.653 68.8711 74.5547C68.8757 73.3926 69.2083 72.4834 69.8691 71.8271C70.5299 71.1663 71.43 70.8359 72.5693 70.8359C73.6676 70.8314 74.5244 71.1549 75.1396 71.8066C75.7594 72.4538 76.0693 73.3311 76.0693 74.4385C76.0693 75.5778 75.7412 76.4847 75.085 77.1592C74.4333 77.8291 73.5492 78.1641 72.4326 78.1641ZM72.5078 76.8994C73.1413 76.8994 73.6221 76.6921 73.9502 76.2773C74.2829 75.8626 74.4492 75.2633 74.4492 74.4795C74.4492 73.7048 74.2829 73.1146 73.9502 72.709C73.6175 72.3034 73.1344 72.1006 72.501 72.1006C71.8766 72.1006 71.3844 72.3148 71.0244 72.7432C70.6689 73.1715 70.4912 73.764 70.4912 74.5205C70.4912 75.2816 70.6689 75.8695 71.0244 76.2842C71.3799 76.6943 71.8743 76.8994 72.5078 76.8994Z" fill="black" fill-opacity="0.8956"/>
<path d="M108.089 69.5781H105.279V78H103.646V69.5781H100.843V68.1973H108.089V69.5781ZM114.364 78H112.771V76.9131H112.744C112.498 77.3278 112.195 77.64 111.835 77.8496C111.475 78.0592 111.06 78.1641 110.591 78.1641C109.771 78.1641 109.153 77.918 108.738 77.4258C108.328 76.929 108.123 76.1885 108.123 75.2041V71H109.702V75.0195C109.702 75.6439 109.823 76.1133 110.064 76.4277C110.311 76.7422 110.677 76.8994 111.165 76.8994C111.639 76.8994 112.024 76.7285 112.32 76.3867C112.621 76.0449 112.771 75.5892 112.771 75.0195V71H114.364V78Z" fill="black" fill-opacity="0.8956"/>
<path d="M153.056 68.1973L150.369 78H148.523L146.685 71.2324C146.644 71.0729 146.609 70.9066 146.582 70.7334C146.555 70.5557 146.536 70.3734 146.527 70.1865H146.5C146.486 70.3779 146.464 70.5602 146.432 70.7334C146.404 70.9066 146.368 71.0706 146.322 71.2256L144.456 78H142.576L139.835 68.1973H141.619L143.39 75.2725C143.426 75.4183 143.456 75.5778 143.479 75.751C143.506 75.9242 143.524 76.1133 143.533 76.3184H143.574C143.583 76.168 143.604 76.0062 143.636 75.833C143.672 75.6553 143.72 75.4639 143.779 75.2588L145.769 68.1973H147.443L149.303 75.3271C149.339 75.4502 149.371 75.5938 149.398 75.7578C149.426 75.9219 149.449 76.1042 149.467 76.3047H149.494C149.503 76.1543 149.521 75.9971 149.549 75.833C149.581 75.6644 149.617 75.4844 149.658 75.293L151.367 68.1973H153.056ZM159.823 74.917H155.045C155.072 75.5778 155.264 76.0814 155.619 76.4277C155.975 76.7695 156.471 76.9404 157.109 76.9404C157.369 76.9404 157.665 76.888 157.998 76.7832C158.331 76.6784 158.659 76.5098 158.982 76.2773L159.7 77.2686C159.267 77.583 158.827 77.8109 158.381 77.9521C157.934 78.0934 157.442 78.1641 156.904 78.1641C155.815 78.1641 154.967 77.8519 154.361 77.2275C153.755 76.5986 153.45 75.7214 153.445 74.5957C153.445 73.4746 153.757 72.5677 154.382 71.875C155.011 71.1823 155.815 70.8359 156.795 70.8359C157.734 70.8359 158.472 71.1322 159.01 71.7246C159.552 72.3125 159.823 73.1465 159.823 74.2266V74.917ZM158.285 73.8164C158.285 73.2148 158.153 72.7637 157.889 72.4629C157.629 72.1576 157.26 72.0049 156.781 72.0049C156.33 72.0049 155.945 72.1689 155.626 72.4971C155.312 72.8206 155.118 73.2604 155.045 73.8164H158.285Z" fill="black" fill-opacity="0.8956"/>
<path d="M191.549 69.5781H188.739V78H187.105V69.5781H184.303V68.1973H191.549V69.5781ZM199.041 78H197.455V73.9941C197.455 73.3607 197.339 72.8867 197.106 72.5723C196.874 72.2578 196.523 72.1006 196.054 72.1006C195.584 72.1006 195.192 72.2806 194.878 72.6406C194.568 73.0007 194.413 73.4609 194.413 74.0215V78H192.82V67.6367H194.413V72.1074H194.44C194.705 71.679 195.024 71.36 195.397 71.1504C195.771 70.9408 196.195 70.8359 196.669 70.8359C197.462 70.8359 198.054 71.0752 198.446 71.5537C198.843 72.0277 199.041 72.7409 199.041 73.6934V78Z" fill="black" fill-opacity="0.8956"/>
<path d="M234.39 69.5781H230.726V72.5244H234.103V73.8984H230.726V78H229.099V68.1973H234.39V69.5781ZM239.858 72.333C239.772 72.3102 239.688 72.2943 239.605 72.2852C239.528 72.2715 239.437 72.2646 239.332 72.2646C238.762 72.2646 238.325 72.4743 238.02 72.8936C237.714 73.3128 237.562 73.8597 237.562 74.5342V78H235.969V71H237.562V72.3467H237.589C237.753 71.8636 237.994 71.499 238.313 71.2529C238.632 71.0023 239.008 70.877 239.441 70.877C239.564 70.877 239.674 70.8838 239.77 70.8975C239.87 70.9111 239.965 70.9316 240.057 70.959L239.858 72.333Z" fill="black" fill-opacity="0.8956"/>
<path d="M268.911 77.2959L269.636 76.0449C270.078 76.3184 270.49 76.512 270.873 76.626C271.256 76.7354 271.684 76.79 272.158 76.79C272.723 76.79 273.168 76.6693 273.491 76.4277C273.819 76.1816 273.983 75.8307 273.983 75.375C273.983 74.9603 273.847 74.6344 273.573 74.3975C273.304 74.1559 272.846 73.9349 272.199 73.7344C271.201 73.4382 270.467 73.0713 269.998 72.6338C269.529 72.1963 269.294 71.6038 269.294 70.8564C269.294 70.0452 269.597 69.373 270.203 68.8398C270.809 68.3021 271.632 68.0332 272.671 68.0332C273.127 68.0332 273.576 68.0833 274.018 68.1836C274.46 68.2839 274.897 68.4388 275.33 68.6484L274.722 69.9473C274.343 69.7513 273.981 69.6123 273.635 69.5303C273.293 69.4482 272.944 69.4072 272.589 69.4072C272.069 69.4072 271.659 69.5212 271.358 69.749C271.062 69.9769 270.914 70.2982 270.914 70.7129C270.914 71.082 271.051 71.3737 271.324 71.5879C271.598 71.7975 272.067 72.0049 272.732 72.21C273.753 72.5153 274.487 72.8958 274.934 73.3516C275.385 73.8073 275.61 74.4339 275.61 75.2314C275.61 76.0882 275.305 76.7923 274.694 77.3438C274.084 77.8906 273.213 78.1641 272.083 78.1641C271.518 78.1641 270.966 78.0934 270.429 77.9521C269.891 77.8063 269.385 77.5876 268.911 77.2959ZM282.535 78H280.997V76.9473H280.97C280.733 77.3529 280.439 77.6582 280.088 77.8633C279.737 78.0638 279.334 78.1641 278.878 78.1641C278.244 78.1641 277.718 77.9772 277.299 77.6035C276.88 77.2253 276.67 76.7103 276.67 76.0586C276.67 75.4388 276.88 74.9307 277.299 74.5342C277.718 74.1331 278.34 73.8734 279.165 73.7549L281.004 73.5088V73.3652C281.004 72.8913 280.881 72.5472 280.635 72.333C280.389 72.1188 280.056 72.0117 279.637 72.0117C279.304 72.0117 278.965 72.071 278.618 72.1895C278.276 72.3079 277.944 72.4925 277.62 72.7432L276.93 71.793C277.358 71.4648 277.8 71.2233 278.256 71.0684C278.712 70.9134 279.213 70.8359 279.76 70.8359C280.699 70.8359 281.396 71.0684 281.852 71.5332C282.307 71.9935 282.535 72.6862 282.535 73.6113V78ZM281.004 75.1562V74.5615L279.507 74.7598C279.065 74.8236 278.732 74.9443 278.509 75.1221C278.29 75.2952 278.181 75.5505 278.181 75.8877C278.181 76.2295 278.285 76.4961 278.495 76.6875C278.705 76.8789 278.974 76.9746 279.302 76.9746C279.817 76.9746 280.229 76.8037 280.539 76.4619C280.849 76.1156 281.004 75.6803 281.004 75.1562Z" fill="black" fill-opacity="0.8956"/>
<path d="M272 22C272 21.8646 272.026 21.7357 272.078 21.6133C272.13 21.4909 272.201 21.3854 272.289 21.2969C272.38 21.2057 272.486 21.1341 272.605 21.082C272.725 21.0273 272.854 21 272.992 21H279.012C279.147 21 279.275 21.026 279.395 21.0781C279.517 21.1302 279.622 21.2018 279.711 21.293C279.799 21.3841 279.87 21.4909 279.922 21.6133C279.974 21.7331 280 21.8607 280 21.9961C280 22.1055 279.984 22.2057 279.953 22.2969C279.924 22.388 279.88 22.4792 279.82 22.5703L277.219 26.3555C277.081 26.556 276.904 26.7135 276.688 26.8281C276.474 26.9427 276.245 27 276 27C275.755 27 275.525 26.9427 275.309 26.8281C275.095 26.7135 274.919 26.556 274.781 26.3555L272.18 22.5703C272.12 22.4818 272.074 22.3919 272.043 22.3008C272.014 22.2096 272 22.1094 272 22Z" fill="black" fill-opacity="0.4458"/>
<path d="M232.992 27C232.854 27 232.725 26.974 232.605 26.9219C232.486 26.8672 232.38 26.7956 232.289 26.707C232.201 26.6159 232.13 26.5104 232.078 26.3906C232.026 26.2682 232 26.138 232 26C232 25.8906 232.014 25.7904 232.043 25.6992C232.074 25.6081 232.12 25.5182 232.18 25.4297L234.781 21.6445C234.849 21.5456 234.928 21.4583 235.02 21.3828C235.111 21.3073 235.208 21.2448 235.312 21.1953C235.419 21.1432 235.531 21.1042 235.648 21.0781C235.766 21.0521 235.883 21.0391 236 21.0391C236.117 21.0391 236.234 21.0521 236.352 21.0781C236.469 21.1042 236.579 21.1432 236.684 21.1953C236.79 21.2448 236.889 21.3073 236.98 21.3828C237.072 21.4583 237.151 21.5456 237.219 21.6445L239.82 25.4297C239.88 25.5182 239.924 25.6081 239.953 25.6992C239.984 25.7904 240 25.8906 240 26C240 26.138 239.974 26.2682 239.922 26.3906C239.87 26.5104 239.799 26.6159 239.711 26.707C239.622 26.7956 239.517 26.8672 239.395 26.9219C239.275 26.974 239.147 27 239.012 27H232.992Z" fill="black" fill-opacity="0.4458"/>
<path d="M63.0742 119V118.515C63.0742 118.095 63.1198 117.726 63.2109 117.407C63.3021 117.088 63.4525 116.785 63.6621 116.498C63.8717 116.211 64.1452 115.924 64.4824 115.637C64.8242 115.35 65.2412 115.026 65.7334 114.666C66.0889 114.411 66.3851 114.167 66.6221 113.935C66.8636 113.702 67.0573 113.47 67.2031 113.237C67.3307 113.046 67.4287 112.825 67.4971 112.574C67.57 112.324 67.6064 112.066 67.6064 111.802C67.6064 111.264 67.4515 110.826 67.1416 110.489C66.8317 110.152 66.4056 109.983 65.8633 109.983C65.4258 109.983 65.0133 110.065 64.626 110.229C64.2432 110.394 63.8854 110.646 63.5527 110.988L62.8691 110.332C63.2975 109.89 63.7601 109.564 64.2568 109.354C64.7536 109.14 65.3096 109.033 65.9248 109.033C66.8454 109.033 67.5449 109.302 68.0234 109.84C68.5065 110.378 68.748 111 68.748 111.706C68.748 112.066 68.6979 112.415 68.5977 112.752C68.502 113.085 68.3652 113.381 68.1875 113.641C68.0052 113.923 67.7819 114.194 67.5176 114.454C67.2533 114.714 66.9388 114.978 66.5742 115.247C66.1139 115.566 65.7334 115.84 65.4326 116.067C65.1364 116.295 64.9017 116.507 64.7285 116.703C64.5508 116.904 64.4255 117.104 64.3525 117.305C64.2796 117.505 64.2432 117.735 64.2432 117.995H69.124V119H63.0742Z" fill="black" fill-opacity="0.8956"/>
<path d="M24.9844 119H23.8633V110.605C23.6947 110.756 23.3939 110.934 22.9609 111.139C22.5326 111.344 22.152 111.49 21.8193 111.576L21.498 110.592C22.0221 110.455 22.5781 110.232 23.166 109.922C23.7585 109.612 24.2233 109.298 24.5605 108.979H24.9844V119Z" fill="black" fill-opacity="0.8956"/>
<path d="M69.1377 155.511C69.1377 157.375 68.8232 158.785 68.1943 159.742C67.57 160.695 66.597 161.171 65.2754 161.171C64.7969 161.171 64.3617 161.096 63.9697 160.945C63.5824 160.795 63.2109 160.56 62.8555 160.241L63.5117 159.51C63.7715 159.742 64.0426 159.913 64.3252 160.022C64.6123 160.132 64.9495 160.187 65.3369 160.187C66.1937 160.187 66.8522 159.863 67.3125 159.216C67.7728 158.569 68.0029 157.53 68.0029 156.099H67.9756C67.766 156.522 67.4788 156.839 67.1143 157.049C66.7497 157.258 66.3076 157.363 65.7881 157.363C64.945 157.363 64.2546 157.078 63.7168 156.509C63.1836 155.939 62.917 155.205 62.917 154.308C62.917 153.337 63.2155 152.549 63.8125 151.942C64.4095 151.336 65.1615 151.033 66.0684 151.033C67.0573 151.033 67.8161 151.423 68.3447 152.202C68.8734 152.981 69.1377 154.084 69.1377 155.511ZM67.9277 154.506C67.9277 153.754 67.7432 153.146 67.374 152.681C67.0094 152.216 66.5423 151.983 65.9727 151.983C65.4349 151.983 64.9814 152.188 64.6123 152.599C64.2477 153.009 64.0654 153.528 64.0654 154.157C64.0654 154.854 64.2477 155.397 64.6123 155.784C64.9769 156.172 65.4531 156.365 66.041 156.365C66.5605 156.365 67.0049 156.185 67.374 155.825C67.7432 155.465 67.9277 155.025 67.9277 154.506Z" fill="black" fill-opacity="0.8956"/>
<path d="M63.7109 203H62.5898V194.605C62.4212 194.756 62.1204 194.934 61.6875 195.139C61.2591 195.344 60.8786 195.49 60.5459 195.576L60.2246 194.592C60.7487 194.455 61.3047 194.232 61.8926 193.922C62.485 193.612 62.9499 193.298 63.2871 192.979H63.7109V203ZM72.2627 199.89C72.2627 200.883 71.9688 201.678 71.3809 202.275C70.7975 202.872 70.0638 203.171 69.1797 203.171C68.1999 203.171 67.4297 202.784 66.8691 202.009C66.3132 201.234 66.0352 200.127 66.0352 198.687C66.0352 197.985 66.1012 197.271 66.2334 196.547C66.3701 195.822 66.6504 195.159 67.0742 194.558C67.4525 194.024 67.8786 193.637 68.3525 193.396C68.8311 193.154 69.3916 193.033 70.0342 193.033C70.3805 193.033 70.7178 193.088 71.0459 193.197C71.374 193.302 71.6953 193.468 72.0098 193.696L71.4492 194.469C71.2214 194.3 70.9867 194.177 70.7451 194.1C70.5081 194.022 70.2484 193.983 69.9658 193.983C69.5602 193.983 69.1956 194.07 68.8721 194.243C68.5485 194.412 68.2432 194.692 67.9561 195.084C67.71 195.421 67.5208 195.838 67.3887 196.335C67.2611 196.832 67.1973 197.381 67.1973 197.982H67.2246C67.5026 197.609 67.8376 197.331 68.2295 197.148C68.626 196.962 69.0361 196.868 69.46 196.868C70.3076 196.868 70.9867 197.151 71.4971 197.716C72.0075 198.281 72.2627 199.006 72.2627 199.89ZM71.1143 199.972C71.1143 199.256 70.9479 198.718 70.6152 198.358C70.2826 197.998 69.8519 197.818 69.3232 197.818C68.6943 197.818 68.193 198.012 67.8193 198.399C67.4502 198.787 67.2656 199.252 67.2656 199.794C67.2656 200.505 67.4456 201.086 67.8057 201.537C68.1702 201.988 68.6442 202.214 69.2275 202.214C69.7926 202.214 70.2484 202.022 70.5947 201.64C70.9411 201.252 71.1143 200.696 71.1143 199.972Z" fill="black" fill-opacity="0.8956"/>
<path d="M59.3008 245V244.515C59.3008 244.095 59.3464 243.726 59.4375 243.407C59.5286 243.088 59.679 242.785 59.8887 242.498C60.0983 242.211 60.3717 241.924 60.709 241.637C61.0508 241.35 61.4678 241.026 61.96 240.666C62.3154 240.411 62.6117 240.167 62.8486 239.935C63.0902 239.702 63.2839 239.47 63.4297 239.237C63.5573 239.046 63.6553 238.825 63.7236 238.574C63.7965 238.324 63.833 238.066 63.833 237.802C63.833 237.264 63.6781 236.826 63.3682 236.489C63.0583 236.152 62.6322 235.983 62.0898 235.983C61.6523 235.983 61.2399 236.065 60.8525 236.229C60.4697 236.394 60.112 236.646 59.7793 236.988L59.0957 236.332C59.5241 235.89 59.9867 235.564 60.4834 235.354C60.9801 235.14 61.5361 235.033 62.1514 235.033C63.0719 235.033 63.7715 235.302 64.25 235.84C64.7331 236.378 64.9746 237 64.9746 237.706C64.9746 238.066 64.9245 238.415 64.8242 238.752C64.7285 239.085 64.5918 239.381 64.4141 239.641C64.2318 239.923 64.0085 240.194 63.7441 240.454C63.4798 240.714 63.1654 240.978 62.8008 241.247C62.3405 241.566 61.96 241.84 61.6592 242.067C61.363 242.295 61.1283 242.507 60.9551 242.703C60.7773 242.904 60.652 243.104 60.5791 243.305C60.5062 243.505 60.4697 243.735 60.4697 243.995H65.3506V245H59.3008ZM66.7383 244.337L67.2578 243.53C67.6224 243.767 67.987 243.94 68.3516 244.05C68.7207 244.159 69.0944 244.214 69.4727 244.214C70.2018 244.214 70.7464 244.041 71.1064 243.694C71.471 243.348 71.6533 242.906 71.6533 242.368C71.6533 241.703 71.4255 241.211 70.9697 240.892C70.514 240.568 69.8304 240.406 68.9189 240.406H68.1055V239.456H68.8779C69.6846 239.456 70.2884 239.306 70.6895 239.005C71.0951 238.704 71.2979 238.235 71.2979 237.597C71.2979 237.077 71.1383 236.678 70.8193 236.4C70.5049 236.122 70.1266 235.983 69.6846 235.983C69.3063 235.983 68.944 236.043 68.5977 236.161C68.2559 236.28 67.9232 236.464 67.5996 236.715L67.0117 235.97C67.4264 235.646 67.8525 235.409 68.29 235.259C68.7275 235.108 69.2083 235.033 69.7324 235.033C70.5527 235.033 71.209 235.25 71.7012 235.683C72.1979 236.116 72.4463 236.708 72.4463 237.46C72.4463 238.043 72.2822 238.545 71.9541 238.964C71.6305 239.379 71.1429 239.677 70.4912 239.859V239.887C71.1566 239.96 71.708 240.206 72.1455 240.625C72.583 241.04 72.8018 241.589 72.8018 242.272C72.8018 243.175 72.501 243.883 71.8994 244.398C71.3024 244.913 70.5231 245.171 69.5615 245.171C69.0283 245.171 68.5361 245.105 68.085 244.973C67.6338 244.84 67.1849 244.629 66.7383 244.337Z" fill="black" fill-opacity="0.8956"/>
<path d="M59.1914 286.337L59.7109 285.53C60.0755 285.767 60.4401 285.94 60.8047 286.05C61.1738 286.159 61.5475 286.214 61.9258 286.214C62.6549 286.214 63.1995 286.041 63.5596 285.694C63.9242 285.348 64.1064 284.906 64.1064 284.368C64.1064 283.703 63.8786 283.211 63.4229 282.892C62.9671 282.568 62.2835 282.406 61.3721 282.406H60.5586V281.456H61.3311C62.1377 281.456 62.7415 281.306 63.1426 281.005C63.5482 280.704 63.751 280.235 63.751 279.597C63.751 279.077 63.5915 278.678 63.2725 278.4C62.958 278.122 62.5798 277.983 62.1377 277.983C61.7594 277.983 61.3971 278.043 61.0508 278.161C60.709 278.28 60.3763 278.464 60.0527 278.715L59.4648 277.97C59.8796 277.646 60.3057 277.409 60.7432 277.259C61.1807 277.108 61.6615 277.033 62.1855 277.033C63.0059 277.033 63.6621 277.25 64.1543 277.683C64.651 278.116 64.8994 278.708 64.8994 279.46C64.8994 280.043 64.7354 280.545 64.4072 280.964C64.0837 281.379 63.596 281.677 62.9443 281.859V281.887C63.6097 281.96 64.1611 282.206 64.5986 282.625C65.0361 283.04 65.2549 283.589 65.2549 284.272C65.2549 285.175 64.9541 285.883 64.3525 286.398C63.7555 286.913 62.9762 287.171 62.0146 287.171C61.4814 287.171 60.9893 287.105 60.5381 286.973C60.0869 286.84 59.638 286.629 59.1914 286.337ZM69.6777 287.171C68.6934 287.171 67.93 286.749 67.3877 285.906C66.8499 285.059 66.5811 283.855 66.5811 282.297C66.5811 280.588 66.8636 279.285 67.4287 278.387C67.9938 277.484 68.8118 277.033 69.8828 277.033C70.9128 277.033 71.6829 277.452 72.1934 278.291C72.7083 279.125 72.9658 280.381 72.9658 282.058C72.9658 283.707 72.6764 284.972 72.0977 285.852C71.5189 286.731 70.7122 287.171 69.6777 287.171ZM69.8281 277.983C69.1309 277.983 68.6068 278.339 68.2559 279.05C67.9049 279.756 67.7295 280.82 67.7295 282.242C67.7295 283.564 67.9004 284.557 68.2422 285.223C68.584 285.883 69.099 286.214 69.7871 286.214C70.4661 286.214 70.9743 285.877 71.3115 285.202C71.6488 284.528 71.8174 283.516 71.8174 282.167C71.8174 280.772 71.651 279.727 71.3184 279.029C70.9857 278.332 70.4889 277.983 69.8281 277.983Z" fill="black" fill-opacity="0.8956"/>
<path d="M69.1172 319.847C68.3242 321.237 67.5996 322.674 66.9434 324.16C66.2917 325.646 65.8337 327.259 65.5693 329H64.3662C64.6169 327.359 65.0863 325.771 65.7744 324.235C66.4626 322.7 67.137 321.357 67.7979 320.209H62.8828V319.197H69.1172V319.847Z" fill="black" fill-opacity="0.6063"/>
<path d="M20.8213 158.266C20.8213 157.751 20.9785 157.247 21.293 156.755C21.6074 156.258 22.054 155.9 22.6328 155.682C22.209 155.445 21.8717 155.142 21.6211 154.772C21.3704 154.399 21.2451 153.986 21.2451 153.535C21.2451 152.815 21.5072 152.218 22.0312 151.744C22.5599 151.27 23.2161 151.033 24 151.033C24.793 151.033 25.4492 151.272 25.9688 151.751C26.4928 152.229 26.7549 152.824 26.7549 153.535C26.7549 153.986 26.6296 154.399 26.3789 154.772C26.1283 155.142 25.7956 155.445 25.3809 155.682C25.9505 155.9 26.3926 156.258 26.707 156.755C27.0215 157.247 27.1787 157.751 27.1787 158.266C27.1787 159.113 26.8848 159.808 26.2969 160.351C25.7135 160.888 24.9479 161.157 24 161.157C23.0658 161.157 22.3024 160.888 21.71 160.351C21.1175 159.813 20.8213 159.118 20.8213 158.266ZM22.0381 158.17C22.0381 158.785 22.2181 159.273 22.5781 159.633C22.9427 159.988 23.4189 160.166 24.0068 160.166C24.5765 160.166 25.0482 159.986 25.4219 159.626C25.7956 159.261 25.9824 158.776 25.9824 158.17C25.9824 157.623 25.8024 157.156 25.4424 156.769C25.0869 156.377 24.6084 156.181 24.0068 156.181C23.4417 156.181 22.9723 156.368 22.5986 156.741C22.2249 157.11 22.0381 157.587 22.0381 158.17ZM22.3867 153.624C22.3867 154.089 22.5439 154.479 22.8584 154.793C23.1774 155.107 23.5602 155.265 24.0068 155.265C24.4489 155.265 24.8294 155.107 25.1484 154.793C25.472 154.474 25.6338 154.084 25.6338 153.624C25.6338 153.15 25.4766 152.758 25.1621 152.448C24.8477 152.134 24.4626 151.977 24.0068 151.977C23.5238 151.977 23.1318 152.138 22.8311 152.462C22.5348 152.781 22.3867 153.168 22.3867 153.624Z" fill="black" fill-opacity="0.8956"/>
<line y1="-0.5" x2="26" y2="-0.5" transform="matrix(-0.707107 -0.707107 -0.707107 0.707107 33.3848 166)" stroke="black" stroke-opacity="0.4458"/>
<path d="M21.7109 203H20.5898V194.605C20.4212 194.756 20.1204 194.934 19.6875 195.139C19.2591 195.344 18.8786 195.49 18.5459 195.576L18.2246 194.592C18.7487 194.455 19.3047 194.232 19.8926 193.922C20.485 193.612 20.9499 193.298 21.2871 192.979H21.7109V203ZM24.0693 202.2L24.6572 201.441C24.999 201.71 25.3477 201.906 25.7031 202.029C26.0632 202.152 26.4551 202.214 26.8789 202.214C27.5215 202.214 28.0501 202.016 28.4648 201.619C28.8796 201.218 29.0869 200.703 29.0869 200.074C29.0869 199.436 28.8727 198.937 28.4443 198.577C28.016 198.213 27.3939 198.03 26.5781 198.03C26.3138 198.03 26.0267 198.037 25.7168 198.051C25.4115 198.064 25.1449 198.085 24.917 198.112L25.252 193.197H29.7842V194.209H26.2227L26.0244 197.087C26.1702 197.078 26.3252 197.071 26.4893 197.066C26.6533 197.057 26.7992 197.053 26.9268 197.053C27.9567 197.053 28.7656 197.317 29.3535 197.846C29.9414 198.37 30.2354 199.09 30.2354 200.006C30.2354 200.958 29.9209 201.724 29.292 202.303C28.6631 202.882 27.8633 203.171 26.8926 203.171C26.3457 203.171 25.8444 203.093 25.3887 202.938C24.9375 202.779 24.4977 202.533 24.0693 202.2Z" fill="black" fill-opacity="0.8956"/>
<line y1="-0.5" x2="26" y2="-0.5" transform="matrix(-0.707107 -0.707107 -0.707107 0.707107 33.3848 208)" stroke="black" stroke-opacity="0.4458"/>
<path d="M17.3008 245V244.515C17.3008 244.095 17.3464 243.726 17.4375 243.407C17.5286 243.088 17.679 242.785 17.8887 242.498C18.0983 242.211 18.3717 241.924 18.709 241.637C19.0508 241.35 19.4678 241.026 19.96 240.666C20.3154 240.411 20.6117 240.167 20.8486 239.935C21.0902 239.702 21.2839 239.47 21.4297 239.237C21.5573 239.046 21.6553 238.825 21.7236 238.574C21.7965 238.324 21.833 238.066 21.833 237.802C21.833 237.264 21.6781 236.826 21.3682 236.489C21.0583 236.152 20.6322 235.983 20.0898 235.983C19.6523 235.983 19.2399 236.065 18.8525 236.229C18.4697 236.394 18.112 236.646 17.7793 236.988L17.0957 236.332C17.5241 235.89 17.9867 235.564 18.4834 235.354C18.9801 235.14 19.5361 235.033 20.1514 235.033C21.0719 235.033 21.7715 235.302 22.25 235.84C22.7331 236.378 22.9746 237 22.9746 237.706C22.9746 238.066 22.9245 238.415 22.8242 238.752C22.7285 239.085 22.5918 239.381 22.4141 239.641C22.2318 239.923 22.0085 240.194 21.7441 240.454C21.4798 240.714 21.1654 240.978 20.8008 241.247C20.3405 241.566 19.96 241.84 19.6592 242.067C19.363 242.295 19.1283 242.507 18.9551 242.703C18.7773 242.904 18.652 243.104 18.5791 243.305C18.5062 243.505 18.4697 243.735 18.4697 243.995H23.3506V245H17.3008ZM24.8477 245V244.515C24.8477 244.095 24.8932 243.726 24.9844 243.407C25.0755 243.088 25.2259 242.785 25.4355 242.498C25.6452 242.211 25.9186 241.924 26.2559 241.637C26.5977 241.35 27.0146 241.026 27.5068 240.666C27.8623 240.411 28.1585 240.167 28.3955 239.935C28.637 239.702 28.8307 239.47 28.9766 239.237C29.1042 239.046 29.2021 238.825 29.2705 238.574C29.3434 238.324 29.3799 238.066 29.3799 237.802C29.3799 237.264 29.2249 236.826 28.915 236.489C28.6051 236.152 28.179 235.983 27.6367 235.983C27.1992 235.983 26.7868 236.065 26.3994 236.229C26.0166 236.394 25.6589 236.646 25.3262 236.988L24.6426 236.332C25.071 235.89 25.5335 235.564 26.0303 235.354C26.527 235.14 27.083 235.033 27.6982 235.033C28.6188 235.033 29.3184 235.302 29.7969 235.84C30.2799 236.378 30.5215 237 30.5215 237.706C30.5215 238.066 30.4714 238.415 30.3711 238.752C30.2754 239.085 30.1387 239.381 29.9609 239.641C29.7786 239.923 29.5553 240.194 29.291 240.454C29.0267 240.714 28.7122 240.978 28.3477 241.247C27.8874 241.566 27.5068 241.84 27.2061 242.067C26.9098 242.295 26.6751 242.507 26.502 242.703C26.3242 242.904 26.1989 243.104 26.126 243.305C26.0531 243.505 26.0166 243.735 26.0166 243.995H30.8975V245H24.8477Z" fill="black" fill-opacity="0.8956"/>
<line y1="-0.5" x2="26" y2="-0.5" transform="matrix(-0.707107 -0.707107 -0.707107 0.707107 33.3848 250)" stroke="black" stroke-opacity="0.4458"/>
<path d="M17.3008 287V286.515C17.3008 286.095 17.3464 285.726 17.4375 285.407C17.5286 285.088 17.679 284.785 17.8887 284.498C18.0983 284.211 18.3717 283.924 18.709 283.637C19.0508 283.35 19.4678 283.026 19.96 282.666C20.3154 282.411 20.6117 282.167 20.8486 281.935C21.0902 281.702 21.2839 281.47 21.4297 281.237C21.5573 281.046 21.6553 280.825 21.7236 280.574C21.7965 280.324 21.833 280.066 21.833 279.802C21.833 279.264 21.6781 278.826 21.3682 278.489C21.0583 278.152 20.6322 277.983 20.0898 277.983C19.6523 277.983 19.2399 278.065 18.8525 278.229C18.4697 278.394 18.112 278.646 17.7793 278.988L17.0957 278.332C17.5241 277.89 17.9867 277.564 18.4834 277.354C18.9801 277.14 19.5361 277.033 20.1514 277.033C21.0719 277.033 21.7715 277.302 22.25 277.84C22.7331 278.378 22.9746 279 22.9746 279.706C22.9746 280.066 22.9245 280.415 22.8242 280.752C22.7285 281.085 22.5918 281.381 22.4141 281.641C22.2318 281.923 22.0085 282.194 21.7441 282.454C21.4798 282.714 21.1654 282.978 20.8008 283.247C20.3405 283.566 19.96 283.84 19.6592 284.067C19.363 284.295 19.1283 284.507 18.9551 284.703C18.7773 284.904 18.652 285.104 18.5791 285.305C18.5062 285.505 18.4697 285.735 18.4697 285.995H23.3506V287H17.3008ZM24.5947 284.266C24.5947 283.751 24.752 283.247 25.0664 282.755C25.3809 282.258 25.8275 281.9 26.4062 281.682C25.9824 281.445 25.6452 281.142 25.3945 280.772C25.1439 280.399 25.0186 279.986 25.0186 279.535C25.0186 278.815 25.2806 278.218 25.8047 277.744C26.3333 277.27 26.9896 277.033 27.7734 277.033C28.5664 277.033 29.2227 277.272 29.7422 277.751C30.2663 278.229 30.5283 278.824 30.5283 279.535C30.5283 279.986 30.403 280.399 30.1523 280.772C29.9017 281.142 29.569 281.445 29.1543 281.682C29.724 281.9 30.166 282.258 30.4805 282.755C30.7949 283.247 30.9521 283.751 30.9521 284.266C30.9521 285.113 30.6582 285.808 30.0703 286.351C29.487 286.888 28.7214 287.157 27.7734 287.157C26.8392 287.157 26.0758 286.888 25.4834 286.351C24.891 285.813 24.5947 285.118 24.5947 284.266ZM25.8115 284.17C25.8115 284.785 25.9915 285.273 26.3516 285.633C26.7161 285.988 27.1924 286.166 27.7803 286.166C28.3499 286.166 28.8216 285.986 29.1953 285.626C29.569 285.261 29.7559 284.776 29.7559 284.17C29.7559 283.623 29.5758 283.156 29.2158 282.769C28.8604 282.377 28.3818 282.181 27.7803 282.181C27.2152 282.181 26.7458 282.368 26.3721 282.741C25.9984 283.11 25.8115 283.587 25.8115 284.17ZM26.1602 279.624C26.1602 280.089 26.3174 280.479 26.6318 280.793C26.9508 281.107 27.3337 281.265 27.7803 281.265C28.2223 281.265 28.6029 281.107 28.9219 280.793C29.2454 280.474 29.4072 280.084 29.4072 279.624C29.4072 279.15 29.25 278.758 28.9355 278.448C28.6211 278.134 28.236 277.977 27.7803 277.977C27.2972 277.977 26.9053 278.138 26.6045 278.462C26.3083 278.781 26.1602 279.168 26.1602 279.624Z" fill="black" fill-opacity="0.8956"/>
<path d="M27.1104 325.89C27.1104 326.883 26.8164 327.678 26.2285 328.275C25.6452 328.872 24.9115 329.171 24.0273 329.171C23.0475 329.171 22.2773 328.784 21.7168 328.009C21.1608 327.234 20.8828 326.127 20.8828 324.687C20.8828 323.985 20.9489 323.271 21.0811 322.547C21.2178 321.822 21.498 321.159 21.9219 320.558C22.3001 320.024 22.7262 319.637 23.2002 319.396C23.6787 319.154 24.2393 319.033 24.8818 319.033C25.2282 319.033 25.5654 319.088 25.8936 319.197C26.2217 319.302 26.543 319.468 26.8574 319.696L26.2969 320.469C26.069 320.3 25.8343 320.177 25.5928 320.1C25.3558 320.022 25.096 319.983 24.8135 319.983C24.4079 319.983 24.0433 320.07 23.7197 320.243C23.3962 320.412 23.0908 320.692 22.8037 321.084C22.5576 321.421 22.3685 321.838 22.2363 322.335C22.1087 322.832 22.0449 323.381 22.0449 323.982H22.0723C22.3503 323.609 22.6852 323.331 23.0771 323.148C23.4736 322.962 23.8838 322.868 24.3076 322.868C25.1553 322.868 25.8343 323.151 26.3447 323.716C26.8551 324.281 27.1104 325.006 27.1104 325.89ZM25.9619 325.972C25.9619 325.256 25.7956 324.718 25.4629 324.358C25.1302 323.998 24.6995 323.818 24.1709 323.818C23.542 323.818 23.0407 324.012 22.667 324.399C22.2979 324.787 22.1133 325.252 22.1133 325.794C22.1133 326.505 22.2933 327.086 22.6533 327.537C23.0179 327.988 23.4919 328.214 24.0752 328.214C24.6403 328.214 25.096 328.022 25.4424 327.64C25.7887 327.252 25.9619 326.696 25.9619 325.972Z" fill="black" fill-opacity="0.6063"/>
<path d="M104.965 118.337L105.484 117.53C105.849 117.767 106.214 117.94 106.578 118.05C106.947 118.159 107.321 118.214 107.699 118.214C108.428 118.214 108.973 118.041 109.333 117.694C109.698 117.348 109.88 116.906 109.88 116.368C109.88 115.703 109.652 115.211 109.196 114.892C108.741 114.568 108.057 114.406 107.146 114.406H106.332V113.456H107.104C107.911 113.456 108.515 113.306 108.916 113.005C109.322 112.704 109.524 112.235 109.524 111.597C109.524 111.077 109.365 110.678 109.046 110.4C108.731 110.122 108.353 109.983 107.911 109.983C107.533 109.983 107.171 110.043 106.824 110.161C106.482 110.28 106.15 110.464 105.826 110.715L105.238 109.97C105.653 109.646 106.079 109.409 106.517 109.259C106.954 109.108 107.435 109.033 107.959 109.033C108.779 109.033 109.436 109.25 109.928 109.683C110.424 110.116 110.673 110.708 110.673 111.46C110.673 112.043 110.509 112.545 110.181 112.964C109.857 113.379 109.369 113.677 108.718 113.859V113.887C109.383 113.96 109.935 114.206 110.372 114.625C110.81 115.04 111.028 115.589 111.028 116.272C111.028 117.175 110.728 117.883 110.126 118.398C109.529 118.913 108.75 119.171 107.788 119.171C107.255 119.171 106.763 119.105 106.312 118.973C105.86 118.84 105.411 118.629 104.965 118.337Z" fill="black" fill-opacity="0.8956"/>
<path d="M105.711 161H104.59V152.605C104.421 152.756 104.12 152.934 103.688 153.139C103.259 153.344 102.879 153.49 102.546 153.576L102.225 152.592C102.749 152.455 103.305 152.232 103.893 151.922C104.485 151.612 104.95 151.298 105.287 150.979H105.711V161ZM111.057 161.171C110.072 161.171 109.309 160.749 108.767 159.906C108.229 159.059 107.96 157.855 107.96 156.297C107.96 154.588 108.243 153.285 108.808 152.387C109.373 151.484 110.191 151.033 111.262 151.033C112.292 151.033 113.062 151.452 113.572 152.291C114.087 153.125 114.345 154.381 114.345 156.058C114.345 157.707 114.055 158.972 113.477 159.852C112.898 160.731 112.091 161.171 111.057 161.171ZM111.207 151.983C110.51 151.983 109.986 152.339 109.635 153.05C109.284 153.756 109.108 154.82 109.108 156.242C109.108 157.564 109.279 158.557 109.621 159.223C109.963 159.883 110.478 160.214 111.166 160.214C111.845 160.214 112.353 159.877 112.69 159.202C113.028 158.528 113.196 157.516 113.196 156.167C113.196 154.772 113.03 153.727 112.697 153.029C112.365 152.332 111.868 151.983 111.207 151.983Z" fill="black" fill-opacity="0.8956"/>
<path d="M105.711 203H104.59V194.605C104.421 194.756 104.12 194.934 103.688 195.139C103.259 195.344 102.879 195.49 102.546 195.576L102.225 194.592C102.749 194.455 103.305 194.232 103.893 193.922C104.485 193.612 104.95 193.298 105.287 192.979H105.711V203ZM114.27 193.847C113.477 195.237 112.752 196.674 112.096 198.16C111.444 199.646 110.986 201.259 110.722 203H109.519C109.769 201.359 110.239 199.771 110.927 198.235C111.615 196.7 112.289 195.357 112.95 194.209H108.035V193.197H114.27V193.847Z" fill="black" fill-opacity="0.8956"/>
<path d="M101.301 245V244.515C101.301 244.095 101.346 243.726 101.438 243.407C101.529 243.088 101.679 242.785 101.889 242.498C102.098 242.211 102.372 241.924 102.709 241.637C103.051 241.35 103.468 241.026 103.96 240.666C104.315 240.411 104.612 240.167 104.849 239.935C105.09 239.702 105.284 239.47 105.43 239.237C105.557 239.046 105.655 238.825 105.724 238.574C105.797 238.324 105.833 238.066 105.833 237.802C105.833 237.264 105.678 236.826 105.368 236.489C105.058 236.152 104.632 235.983 104.09 235.983C103.652 235.983 103.24 236.065 102.853 236.229C102.47 236.394 102.112 236.646 101.779 236.988L101.096 236.332C101.524 235.89 101.987 235.564 102.483 235.354C102.98 235.14 103.536 235.033 104.151 235.033C105.072 235.033 105.771 235.302 106.25 235.84C106.733 236.378 106.975 237 106.975 237.706C106.975 238.066 106.924 238.415 106.824 238.752C106.729 239.085 106.592 239.381 106.414 239.641C106.232 239.923 106.008 240.194 105.744 240.454C105.48 240.714 105.165 240.978 104.801 241.247C104.34 241.566 103.96 241.84 103.659 242.067C103.363 242.295 103.128 242.507 102.955 242.703C102.777 242.904 102.652 243.104 102.579 243.305C102.506 243.505 102.47 243.735 102.47 243.995H107.351V245H101.301ZM114.132 235.115V241.705H115.185V242.751H114.132V245.096H113.018V242.751H108.362V241.76C108.795 241.268 109.233 240.743 109.675 240.188C110.117 239.627 110.541 239.06 110.946 238.485C111.347 237.911 111.719 237.337 112.061 236.763C112.402 236.188 112.692 235.639 112.929 235.115H114.132ZM109.641 241.705H113.018V236.824C112.671 237.43 112.343 237.973 112.033 238.451C111.728 238.93 111.436 239.363 111.158 239.75C110.876 240.142 110.607 240.495 110.352 240.81C110.101 241.124 109.864 241.423 109.641 241.705Z" fill="black" fill-opacity="0.8956"/>
<path d="M108.984 287H107.863V278.605C107.695 278.756 107.394 278.934 106.961 279.139C106.533 279.344 106.152 279.49 105.819 279.576L105.498 278.592C106.022 278.455 106.578 278.232 107.166 277.922C107.758 277.612 108.223 277.298 108.561 276.979H108.984V287Z" fill="black" fill-opacity="0.6063"/>
<path d="M104.821 326.266C104.821 325.751 104.979 325.247 105.293 324.755C105.607 324.258 106.054 323.9 106.633 323.682C106.209 323.445 105.872 323.142 105.621 322.772C105.37 322.399 105.245 321.986 105.245 321.535C105.245 320.815 105.507 320.218 106.031 319.744C106.56 319.27 107.216 319.033 108 319.033C108.793 319.033 109.449 319.272 109.969 319.751C110.493 320.229 110.755 320.824 110.755 321.535C110.755 321.986 110.63 322.399 110.379 322.772C110.128 323.142 109.796 323.445 109.381 323.682C109.951 323.9 110.393 324.258 110.707 324.755C111.021 325.247 111.179 325.751 111.179 326.266C111.179 327.113 110.885 327.808 110.297 328.351C109.714 328.888 108.948 329.157 108 329.157C107.066 329.157 106.302 328.888 105.71 328.351C105.118 327.813 104.821 327.118 104.821 326.266ZM106.038 326.17C106.038 326.785 106.218 327.273 106.578 327.633C106.943 327.988 107.419 328.166 108.007 328.166C108.576 328.166 109.048 327.986 109.422 327.626C109.796 327.261 109.982 326.776 109.982 326.17C109.982 325.623 109.802 325.156 109.442 324.769C109.087 324.377 108.608 324.181 108.007 324.181C107.442 324.181 106.972 324.368 106.599 324.741C106.225 325.11 106.038 325.587 106.038 326.17ZM106.387 321.624C106.387 322.089 106.544 322.479 106.858 322.793C107.177 323.107 107.56 323.265 108.007 323.265C108.449 323.265 108.829 323.107 109.148 322.793C109.472 322.474 109.634 322.084 109.634 321.624C109.634 321.15 109.477 320.758 109.162 320.448C108.848 320.134 108.463 319.977 108.007 319.977C107.524 319.977 107.132 320.138 106.831 320.462C106.535 320.781 106.387 321.168 106.387 321.624Z" fill="black" fill-opacity="0.6063"/>
<path d="M152.358 109.115V115.705H153.411V116.751H152.358V119.096H151.244V116.751H146.589V115.76C147.022 115.268 147.459 114.743 147.901 114.188C148.343 113.627 148.767 113.06 149.173 112.485C149.574 111.911 149.945 111.337 150.287 110.763C150.629 110.188 150.918 109.639 151.155 109.115H152.358ZM147.867 115.705H151.244V110.824C150.898 111.43 150.57 111.973 150.26 112.451C149.954 112.93 149.663 113.363 149.385 113.75C149.102 114.142 148.833 114.495 148.578 114.81C148.327 115.124 148.09 115.423 147.867 115.705Z" fill="black" fill-opacity="0.8956"/>
<rect x="130.5" y="136.5" width="39" height="39" rx="19.5" fill="#005FB8" stroke="#005FB8"/>
<path d="M148.832 161H147.711V152.605C147.542 152.756 147.242 152.934 146.809 153.139C146.38 153.344 146 153.49 145.667 153.576L145.346 152.592C145.87 152.455 146.426 152.232 147.014 151.922C147.606 151.612 148.071 151.298 148.408 150.979H148.832V161ZM154.137 161H153.016V152.605C152.847 152.756 152.546 152.934 152.113 153.139C151.685 153.344 151.304 153.49 150.972 153.576L150.65 152.592C151.174 152.455 151.73 152.232 152.318 151.922C152.911 151.612 153.376 151.298 153.713 150.979H154.137V161Z" fill="white"/>
<line x1="159.031" y1="166.354" x2="140.646" y2="147.969" stroke="white"/>
<path d="M147.711 203H146.59V194.605C146.421 194.756 146.12 194.934 145.688 195.139C145.259 195.344 144.879 195.49 144.546 195.576L144.225 194.592C144.749 194.455 145.305 194.232 145.893 193.922C146.485 193.612 146.95 193.298 147.287 192.979H147.711V203ZM149.974 200.266C149.974 199.751 150.131 199.247 150.445 198.755C150.76 198.258 151.206 197.9 151.785 197.682C151.361 197.445 151.024 197.142 150.773 196.772C150.523 196.399 150.397 195.986 150.397 195.535C150.397 194.815 150.66 194.218 151.184 193.744C151.712 193.27 152.368 193.033 153.152 193.033C153.945 193.033 154.602 193.272 155.121 193.751C155.645 194.229 155.907 194.824 155.907 195.535C155.907 195.986 155.782 196.399 155.531 196.772C155.281 197.142 154.948 197.445 154.533 197.682C155.103 197.9 155.545 198.258 155.859 198.755C156.174 199.247 156.331 199.751 156.331 200.266C156.331 201.113 156.037 201.808 155.449 202.351C154.866 202.888 154.1 203.157 153.152 203.157C152.218 203.157 151.455 202.888 150.862 202.351C150.27 201.813 149.974 201.118 149.974 200.266ZM151.19 200.17C151.19 200.785 151.37 201.273 151.73 201.633C152.095 201.988 152.571 202.166 153.159 202.166C153.729 202.166 154.201 201.986 154.574 201.626C154.948 201.261 155.135 200.776 155.135 200.17C155.135 199.623 154.955 199.156 154.595 198.769C154.239 198.377 153.761 198.181 153.159 198.181C152.594 198.181 152.125 198.368 151.751 198.741C151.377 199.11 151.19 199.587 151.19 200.17ZM151.539 195.624C151.539 196.089 151.696 196.479 152.011 196.793C152.33 197.107 152.713 197.265 153.159 197.265C153.601 197.265 153.982 197.107 154.301 196.793C154.624 196.474 154.786 196.084 154.786 195.624C154.786 195.15 154.629 194.758 154.314 194.448C154 194.134 153.615 193.977 153.159 193.977C152.676 193.977 152.284 194.138 151.983 194.462C151.687 194.781 151.539 195.168 151.539 195.624Z" fill="black" fill-opacity="0.8956"/>
<path d="M143.301 245V244.515C143.301 244.095 143.346 243.726 143.438 243.407C143.529 243.088 143.679 242.785 143.889 242.498C144.098 242.211 144.372 241.924 144.709 241.637C145.051 241.35 145.468 241.026 145.96 240.666C146.315 240.411 146.612 240.167 146.849 239.935C147.09 239.702 147.284 239.47 147.43 239.237C147.557 239.046 147.655 238.825 147.724 238.574C147.797 238.324 147.833 238.066 147.833 237.802C147.833 237.264 147.678 236.826 147.368 236.489C147.058 236.152 146.632 235.983 146.09 235.983C145.652 235.983 145.24 236.065 144.853 236.229C144.47 236.394 144.112 236.646 143.779 236.988L143.096 236.332C143.524 235.89 143.987 235.564 144.483 235.354C144.98 235.14 145.536 235.033 146.151 235.033C147.072 235.033 147.771 235.302 148.25 235.84C148.733 236.378 148.975 237 148.975 237.706C148.975 238.066 148.924 238.415 148.824 238.752C148.729 239.085 148.592 239.381 148.414 239.641C148.232 239.923 148.008 240.194 147.744 240.454C147.48 240.714 147.165 240.978 146.801 241.247C146.34 241.566 145.96 241.84 145.659 242.067C145.363 242.295 145.128 242.507 144.955 242.703C144.777 242.904 144.652 243.104 144.579 243.305C144.506 243.505 144.47 243.735 144.47 243.995H149.351V245H143.301ZM150.69 244.2L151.278 243.441C151.62 243.71 151.969 243.906 152.324 244.029C152.684 244.152 153.076 244.214 153.5 244.214C154.143 244.214 154.671 244.016 155.086 243.619C155.501 243.218 155.708 242.703 155.708 242.074C155.708 241.436 155.494 240.937 155.065 240.577C154.637 240.213 154.015 240.03 153.199 240.03C152.935 240.03 152.648 240.037 152.338 240.051C152.033 240.064 151.766 240.085 151.538 240.112L151.873 235.197H156.405V236.209H152.844L152.646 239.087C152.791 239.078 152.946 239.071 153.11 239.066C153.274 239.057 153.42 239.053 153.548 239.053C154.578 239.053 155.387 239.317 155.975 239.846C156.562 240.37 156.856 241.09 156.856 242.006C156.856 242.958 156.542 243.724 155.913 244.303C155.284 244.882 154.484 245.171 153.514 245.171C152.967 245.171 152.465 245.093 152.01 244.938C151.559 244.779 151.119 244.533 150.69 244.2Z" fill="black" fill-opacity="0.8956"/>
<path d="M147.074 287V286.515C147.074 286.095 147.12 285.726 147.211 285.407C147.302 285.088 147.452 284.785 147.662 284.498C147.872 284.211 148.145 283.924 148.482 283.637C148.824 283.35 149.241 283.026 149.733 282.666C150.089 282.411 150.385 282.167 150.622 281.935C150.864 281.702 151.057 281.47 151.203 281.237C151.331 281.046 151.429 280.825 151.497 280.574C151.57 280.324 151.606 280.066 151.606 279.802C151.606 279.264 151.451 278.826 151.142 278.489C150.832 278.152 150.406 277.983 149.863 277.983C149.426 277.983 149.013 278.065 148.626 278.229C148.243 278.394 147.885 278.646 147.553 278.988L146.869 278.332C147.298 277.89 147.76 277.564 148.257 277.354C148.754 277.14 149.31 277.033 149.925 277.033C150.845 277.033 151.545 277.302 152.023 277.84C152.507 278.378 152.748 279 152.748 279.706C152.748 280.066 152.698 280.415 152.598 280.752C152.502 281.085 152.365 281.381 152.188 281.641C152.005 281.923 151.782 282.194 151.518 282.454C151.253 282.714 150.939 282.978 150.574 283.247C150.114 283.566 149.733 283.84 149.433 284.067C149.136 284.295 148.902 284.507 148.729 284.703C148.551 284.904 148.425 285.104 148.353 285.305C148.28 285.505 148.243 285.735 148.243 285.995H153.124V287H147.074Z" fill="black" fill-opacity="0.6063"/>
<path d="M153.138 323.511C153.138 325.375 152.823 326.785 152.194 327.742C151.57 328.695 150.597 329.171 149.275 329.171C148.797 329.171 148.362 329.096 147.97 328.945C147.582 328.795 147.211 328.56 146.855 328.241L147.512 327.51C147.771 327.742 148.043 327.913 148.325 328.022C148.612 328.132 148.95 328.187 149.337 328.187C150.194 328.187 150.852 327.863 151.312 327.216C151.773 326.569 152.003 325.53 152.003 324.099H151.976C151.766 324.522 151.479 324.839 151.114 325.049C150.75 325.258 150.308 325.363 149.788 325.363C148.945 325.363 148.255 325.078 147.717 324.509C147.184 323.939 146.917 323.205 146.917 322.308C146.917 321.337 147.215 320.549 147.812 319.942C148.41 319.336 149.161 319.033 150.068 319.033C151.057 319.033 151.816 319.423 152.345 320.202C152.873 320.981 153.138 322.084 153.138 323.511ZM151.928 322.506C151.928 321.754 151.743 321.146 151.374 320.681C151.009 320.216 150.542 319.983 149.973 319.983C149.435 319.983 148.981 320.188 148.612 320.599C148.248 321.009 148.065 321.528 148.065 322.157C148.065 322.854 148.248 323.397 148.612 323.784C148.977 324.172 149.453 324.365 150.041 324.365C150.561 324.365 151.005 324.185 151.374 323.825C151.743 323.465 151.928 323.025 151.928 322.506Z" fill="black" fill-opacity="0.6063"/>
<path d="M188.917 118.2L189.505 117.441C189.847 117.71 190.195 117.906 190.551 118.029C190.911 118.152 191.303 118.214 191.727 118.214C192.369 118.214 192.898 118.016 193.312 117.619C193.727 117.218 193.935 116.703 193.935 116.074C193.935 115.436 193.72 114.937 193.292 114.577C192.864 114.213 192.242 114.03 191.426 114.03C191.161 114.03 190.874 114.037 190.564 114.051C190.259 114.064 189.993 114.085 189.765 114.112L190.1 109.197H194.632V110.209H191.07L190.872 113.087C191.018 113.078 191.173 113.071 191.337 113.066C191.501 113.057 191.647 113.053 191.774 113.053C192.804 113.053 193.613 113.317 194.201 113.846C194.789 114.37 195.083 115.09 195.083 116.006C195.083 116.958 194.769 117.724 194.14 118.303C193.511 118.882 192.711 119.171 191.74 119.171C191.193 119.171 190.692 119.093 190.236 118.938C189.785 118.779 189.345 118.533 188.917 118.2Z" fill="black" fill-opacity="0.8956"/>
<path d="M189.711 161H188.59V152.605C188.421 152.756 188.12 152.934 187.688 153.139C187.259 153.344 186.879 153.49 186.546 153.576L186.225 152.592C186.749 152.455 187.305 152.232 187.893 151.922C188.485 151.612 188.95 151.298 189.287 150.979H189.711V161ZM192.227 161V160.515C192.227 160.095 192.272 159.726 192.363 159.407C192.454 159.088 192.605 158.785 192.814 158.498C193.024 158.211 193.298 157.924 193.635 157.637C193.977 157.35 194.394 157.026 194.886 156.666C195.241 156.411 195.537 156.167 195.774 155.935C196.016 155.702 196.21 155.47 196.355 155.237C196.483 155.046 196.581 154.825 196.649 154.574C196.722 154.324 196.759 154.066 196.759 153.802C196.759 153.264 196.604 152.826 196.294 152.489C195.984 152.152 195.558 151.983 195.016 151.983C194.578 151.983 194.166 152.065 193.778 152.229C193.396 152.394 193.038 152.646 192.705 152.988L192.021 152.332C192.45 151.89 192.912 151.564 193.409 151.354C193.906 151.14 194.462 151.033 195.077 151.033C195.998 151.033 196.697 151.302 197.176 151.84C197.659 152.378 197.9 153 197.9 153.706C197.9 154.066 197.85 154.415 197.75 154.752C197.654 155.085 197.518 155.381 197.34 155.641C197.158 155.923 196.934 156.194 196.67 156.454C196.406 156.714 196.091 156.978 195.727 157.247C195.266 157.566 194.886 157.84 194.585 158.067C194.289 158.295 194.054 158.507 193.881 158.703C193.703 158.904 193.578 159.104 193.505 159.305C193.432 159.505 193.396 159.735 193.396 159.995H198.276V161H192.227Z" fill="black" fill-opacity="0.8956"/>
<path d="M189.711 203H188.59V194.605C188.421 194.756 188.12 194.934 187.688 195.139C187.259 195.344 186.879 195.49 186.546 195.576L186.225 194.592C186.749 194.455 187.305 194.232 187.893 193.922C188.485 193.612 188.95 193.298 189.287 192.979H189.711V203ZM198.29 197.511C198.29 199.375 197.976 200.785 197.347 201.742C196.722 202.695 195.749 203.171 194.428 203.171C193.949 203.171 193.514 203.096 193.122 202.945C192.735 202.795 192.363 202.56 192.008 202.241L192.664 201.51C192.924 201.742 193.195 201.913 193.478 202.022C193.765 202.132 194.102 202.187 194.489 202.187C195.346 202.187 196.005 201.863 196.465 201.216C196.925 200.569 197.155 199.53 197.155 198.099H197.128C196.918 198.522 196.631 198.839 196.267 199.049C195.902 199.258 195.46 199.363 194.94 199.363C194.097 199.363 193.407 199.078 192.869 198.509C192.336 197.939 192.069 197.205 192.069 196.308C192.069 195.337 192.368 194.549 192.965 193.942C193.562 193.336 194.314 193.033 195.221 193.033C196.21 193.033 196.968 193.423 197.497 194.202C198.026 194.981 198.29 196.084 198.29 197.511ZM197.08 196.506C197.08 195.754 196.896 195.146 196.526 194.681C196.162 194.216 195.695 193.983 195.125 193.983C194.587 193.983 194.134 194.188 193.765 194.599C193.4 195.009 193.218 195.528 193.218 196.157C193.218 196.854 193.4 197.397 193.765 197.784C194.129 198.172 194.605 198.365 195.193 198.365C195.713 198.365 196.157 198.185 196.526 197.825C196.896 197.465 197.08 197.025 197.08 196.506Z" fill="black" fill-opacity="0.8956"/>
<rect x="172.5" y="220.5" width="39" height="39" rx="19.5" stroke="#005FB8"/>
<path d="M185.301 245V244.515C185.301 244.095 185.346 243.726 185.438 243.407C185.529 243.088 185.679 242.785 185.889 242.498C186.098 242.211 186.372 241.924 186.709 241.637C187.051 241.35 187.468 241.026 187.96 240.666C188.315 240.411 188.612 240.167 188.849 239.935C189.09 239.702 189.284 239.47 189.43 239.237C189.557 239.046 189.655 238.825 189.724 238.574C189.797 238.324 189.833 238.066 189.833 237.802C189.833 237.264 189.678 236.826 189.368 236.489C189.058 236.152 188.632 235.983 188.09 235.983C187.652 235.983 187.24 236.065 186.853 236.229C186.47 236.394 186.112 236.646 185.779 236.988L185.096 236.332C185.524 235.89 185.987 235.564 186.483 235.354C186.98 235.14 187.536 235.033 188.151 235.033C189.072 235.033 189.771 235.302 190.25 235.84C190.733 236.378 190.975 237 190.975 237.706C190.975 238.066 190.924 238.415 190.824 238.752C190.729 239.085 190.592 239.381 190.414 239.641C190.232 239.923 190.008 240.194 189.744 240.454C189.48 240.714 189.165 240.978 188.801 241.247C188.34 241.566 187.96 241.84 187.659 242.067C187.363 242.295 187.128 242.507 186.955 242.703C186.777 242.904 186.652 243.104 186.579 243.305C186.506 243.505 186.47 243.735 186.47 243.995H191.351V245H185.301ZM198.884 241.89C198.884 242.883 198.59 243.678 198.002 244.275C197.419 244.872 196.685 245.171 195.801 245.171C194.821 245.171 194.051 244.784 193.49 244.009C192.934 243.234 192.656 242.127 192.656 240.687C192.656 239.985 192.722 239.271 192.854 238.547C192.991 237.822 193.271 237.159 193.695 236.558C194.074 236.024 194.5 235.637 194.974 235.396C195.452 235.154 196.013 235.033 196.655 235.033C197.002 235.033 197.339 235.088 197.667 235.197C197.995 235.302 198.316 235.468 198.631 235.696L198.07 236.469C197.842 236.3 197.608 236.177 197.366 236.1C197.129 236.022 196.869 235.983 196.587 235.983C196.181 235.983 195.817 236.07 195.493 236.243C195.17 236.412 194.864 236.692 194.577 237.084C194.331 237.421 194.142 237.838 194.01 238.335C193.882 238.832 193.818 239.381 193.818 239.982H193.846C194.124 239.609 194.459 239.331 194.851 239.148C195.247 238.962 195.657 238.868 196.081 238.868C196.929 238.868 197.608 239.151 198.118 239.716C198.629 240.281 198.884 241.006 198.884 241.89ZM197.735 241.972C197.735 241.256 197.569 240.718 197.236 240.358C196.904 239.998 196.473 239.818 195.944 239.818C195.315 239.818 194.814 240.012 194.44 240.399C194.071 240.787 193.887 241.252 193.887 241.794C193.887 242.505 194.067 243.086 194.427 243.537C194.791 243.988 195.265 244.214 195.849 244.214C196.414 244.214 196.869 244.022 197.216 243.64C197.562 243.252 197.735 242.696 197.735 241.972Z" fill="#003E92"/>
<path d="M188.965 286.337L189.484 285.53C189.849 285.767 190.214 285.94 190.578 286.05C190.947 286.159 191.321 286.214 191.699 286.214C192.428 286.214 192.973 286.041 193.333 285.694C193.698 285.348 193.88 284.906 193.88 284.368C193.88 283.703 193.652 283.211 193.196 282.892C192.741 282.568 192.057 282.406 191.146 282.406H190.332V281.456H191.104C191.911 281.456 192.515 281.306 192.916 281.005C193.322 280.704 193.524 280.235 193.524 279.597C193.524 279.077 193.365 278.678 193.046 278.4C192.731 278.122 192.353 277.983 191.911 277.983C191.533 277.983 191.171 278.043 190.824 278.161C190.482 278.28 190.15 278.464 189.826 278.715L189.238 277.97C189.653 277.646 190.079 277.409 190.517 277.259C190.954 277.108 191.435 277.033 191.959 277.033C192.779 277.033 193.436 277.25 193.928 277.683C194.424 278.116 194.673 278.708 194.673 279.46C194.673 280.043 194.509 280.545 194.181 280.964C193.857 281.379 193.369 281.677 192.718 281.859V281.887C193.383 281.96 193.935 282.206 194.372 282.625C194.81 283.04 195.028 283.589 195.028 284.272C195.028 285.175 194.728 285.883 194.126 286.398C193.529 286.913 192.75 287.171 191.788 287.171C191.255 287.171 190.763 287.105 190.312 286.973C189.86 286.84 189.411 286.629 188.965 286.337Z" fill="black" fill-opacity="0.6063"/>
<path d="M189.711 329H188.59V320.605C188.421 320.756 188.12 320.934 187.688 321.139C187.259 321.344 186.879 321.49 186.546 321.576L186.225 320.592C186.749 320.455 187.305 320.232 187.893 319.922C188.485 319.612 188.95 319.298 189.287 318.979H189.711V329ZM195.057 329.171C194.072 329.171 193.309 328.749 192.767 327.906C192.229 327.059 191.96 325.855 191.96 324.297C191.96 322.588 192.243 321.285 192.808 320.387C193.373 319.484 194.191 319.033 195.262 319.033C196.292 319.033 197.062 319.452 197.572 320.291C198.087 321.125 198.345 322.381 198.345 324.058C198.345 325.707 198.055 326.972 197.477 327.852C196.898 328.731 196.091 329.171 195.057 329.171ZM195.207 319.983C194.51 319.983 193.986 320.339 193.635 321.05C193.284 321.756 193.108 322.82 193.108 324.242C193.108 325.564 193.279 326.557 193.621 327.223C193.963 327.883 194.478 328.214 195.166 328.214C195.845 328.214 196.353 327.877 196.69 327.202C197.028 326.528 197.196 325.516 197.196 324.167C197.196 322.772 197.03 321.727 196.697 321.029C196.365 320.332 195.868 319.983 195.207 319.983Z" fill="black" fill-opacity="0.6063"/>
<path d="M237.11 115.89C237.11 116.883 236.816 117.678 236.229 118.275C235.645 118.872 234.911 119.171 234.027 119.171C233.048 119.171 232.277 118.784 231.717 118.009C231.161 117.234 230.883 116.127 230.883 114.687C230.883 113.985 230.949 113.271 231.081 112.547C231.218 111.822 231.498 111.159 231.922 110.558C232.3 110.024 232.726 109.637 233.2 109.396C233.679 109.154 234.239 109.033 234.882 109.033C235.228 109.033 235.565 109.088 235.894 109.197C236.222 109.302 236.543 109.468 236.857 109.696L236.297 110.469C236.069 110.3 235.834 110.177 235.593 110.1C235.356 110.022 235.096 109.983 234.813 109.983C234.408 109.983 234.043 110.07 233.72 110.243C233.396 110.412 233.091 110.692 232.804 111.084C232.558 111.421 232.368 111.838 232.236 112.335C232.109 112.832 232.045 113.381 232.045 113.982H232.072C232.35 113.609 232.685 113.331 233.077 113.148C233.474 112.962 233.884 112.868 234.308 112.868C235.155 112.868 235.834 113.151 236.345 113.716C236.855 114.281 237.11 115.006 237.11 115.89ZM235.962 115.972C235.962 115.256 235.796 114.718 235.463 114.358C235.13 113.998 234.7 113.818 234.171 113.818C233.542 113.818 233.041 114.012 232.667 114.399C232.298 114.787 232.113 115.252 232.113 115.794C232.113 116.505 232.293 117.086 232.653 117.537C233.018 117.988 233.492 118.214 234.075 118.214C234.64 118.214 235.096 118.022 235.442 117.64C235.789 117.252 235.962 116.696 235.962 115.972Z" fill="black" fill-opacity="0.8956"/>
<path d="M231.711 161H230.59V152.605C230.421 152.756 230.12 152.934 229.688 153.139C229.259 153.344 228.879 153.49 228.546 153.576L228.225 152.592C228.749 152.455 229.305 152.232 229.893 151.922C230.485 151.612 230.95 151.298 231.287 150.979H231.711V161ZM234.117 160.337L234.637 159.53C235.001 159.767 235.366 159.94 235.73 160.05C236.1 160.159 236.473 160.214 236.852 160.214C237.581 160.214 238.125 160.041 238.485 159.694C238.85 159.348 239.032 158.906 239.032 158.368C239.032 157.703 238.804 157.211 238.349 156.892C237.893 156.568 237.209 156.406 236.298 156.406H235.484V155.456H236.257C237.063 155.456 237.667 155.306 238.068 155.005C238.474 154.704 238.677 154.235 238.677 153.597C238.677 153.077 238.517 152.678 238.198 152.4C237.884 152.122 237.506 151.983 237.063 151.983C236.685 151.983 236.323 152.043 235.977 152.161C235.635 152.28 235.302 152.464 234.979 152.715L234.391 151.97C234.805 151.646 235.231 151.409 235.669 151.259C236.106 151.108 236.587 151.033 237.111 151.033C237.932 151.033 238.588 151.25 239.08 151.683C239.577 152.116 239.825 152.708 239.825 153.46C239.825 154.043 239.661 154.545 239.333 154.964C239.009 155.379 238.522 155.677 237.87 155.859V155.887C238.535 155.96 239.087 156.206 239.524 156.625C239.962 157.04 240.181 157.589 240.181 158.272C240.181 159.175 239.88 159.883 239.278 160.398C238.681 160.913 237.902 161.171 236.94 161.171C236.407 161.171 235.915 161.105 235.464 160.973C235.013 160.84 234.564 160.629 234.117 160.337Z" fill="black" fill-opacity="0.8956"/>
<path d="M227.301 203V202.515C227.301 202.095 227.346 201.726 227.438 201.407C227.529 201.088 227.679 200.785 227.889 200.498C228.098 200.211 228.372 199.924 228.709 199.637C229.051 199.35 229.468 199.026 229.96 198.666C230.315 198.411 230.612 198.167 230.849 197.935C231.09 197.702 231.284 197.47 231.43 197.237C231.557 197.046 231.655 196.825 231.724 196.574C231.797 196.324 231.833 196.066 231.833 195.802C231.833 195.264 231.678 194.826 231.368 194.489C231.058 194.152 230.632 193.983 230.09 193.983C229.652 193.983 229.24 194.065 228.853 194.229C228.47 194.394 228.112 194.646 227.779 194.988L227.096 194.332C227.524 193.89 227.987 193.564 228.483 193.354C228.98 193.14 229.536 193.033 230.151 193.033C231.072 193.033 231.771 193.302 232.25 193.84C232.733 194.378 232.975 195 232.975 195.706C232.975 196.066 232.924 196.415 232.824 196.752C232.729 197.085 232.592 197.381 232.414 197.641C232.232 197.923 232.008 198.194 231.744 198.454C231.48 198.714 231.165 198.978 230.801 199.247C230.34 199.566 229.96 199.84 229.659 200.067C229.363 200.295 229.128 200.507 228.955 200.703C228.777 200.904 228.652 201.104 228.579 201.305C228.506 201.505 228.47 201.735 228.47 201.995H233.351V203H227.301ZM237.678 203.171C236.693 203.171 235.93 202.749 235.388 201.906C234.85 201.059 234.581 199.855 234.581 198.297C234.581 196.588 234.864 195.285 235.429 194.387C235.994 193.484 236.812 193.033 237.883 193.033C238.913 193.033 239.683 193.452 240.193 194.291C240.708 195.125 240.966 196.381 240.966 198.058C240.966 199.707 240.676 200.972 240.098 201.852C239.519 202.731 238.712 203.171 237.678 203.171ZM237.828 193.983C237.131 193.983 236.607 194.339 236.256 195.05C235.905 195.756 235.729 196.82 235.729 198.242C235.729 199.564 235.9 200.557 236.242 201.223C236.584 201.883 237.099 202.214 237.787 202.214C238.466 202.214 238.974 201.877 239.312 201.202C239.649 200.528 239.817 199.516 239.817 198.167C239.817 196.772 239.651 195.727 239.318 195.029C238.986 194.332 238.489 193.983 237.828 193.983Z" fill="black" fill-opacity="0.8956"/>
<path d="M227.301 245V244.515C227.301 244.095 227.346 243.726 227.438 243.407C227.529 243.088 227.679 242.785 227.889 242.498C228.098 242.211 228.372 241.924 228.709 241.637C229.051 241.35 229.468 241.026 229.96 240.666C230.315 240.411 230.612 240.167 230.849 239.935C231.09 239.702 231.284 239.47 231.43 239.237C231.557 239.046 231.655 238.825 231.724 238.574C231.797 238.324 231.833 238.066 231.833 237.802C231.833 237.264 231.678 236.826 231.368 236.489C231.058 236.152 230.632 235.983 230.09 235.983C229.652 235.983 229.24 236.065 228.853 236.229C228.47 236.394 228.112 236.646 227.779 236.988L227.096 236.332C227.524 235.89 227.987 235.564 228.483 235.354C228.98 235.14 229.536 235.033 230.151 235.033C231.072 235.033 231.771 235.302 232.25 235.84C232.733 236.378 232.975 237 232.975 237.706C232.975 238.066 232.924 238.415 232.824 238.752C232.729 239.085 232.592 239.381 232.414 239.641C232.232 239.923 232.008 240.194 231.744 240.454C231.48 240.714 231.165 240.978 230.801 241.247C230.34 241.566 229.96 241.84 229.659 242.067C229.363 242.295 229.128 242.507 228.955 242.703C228.777 242.904 228.652 243.104 228.579 243.305C228.506 243.505 228.47 243.735 228.47 243.995H233.351V245H227.301ZM240.891 235.847C240.098 237.237 239.373 238.674 238.717 240.16C238.065 241.646 237.607 243.259 237.343 245H236.14C236.39 243.359 236.86 241.771 237.548 240.235C238.236 238.7 238.91 237.357 239.571 236.209H234.656V235.197H240.891V235.847Z" fill="black" fill-opacity="0.8956"/>
<path d="M236.358 277.115V283.705H237.411V284.751H236.358V287.096H235.244V284.751H230.589V283.76C231.022 283.268 231.459 282.743 231.901 282.188C232.343 281.627 232.767 281.06 233.173 280.485C233.574 279.911 233.945 279.337 234.287 278.763C234.629 278.188 234.918 277.639 235.155 277.115H236.358ZM231.867 283.705H235.244V278.824C234.898 279.43 234.57 279.973 234.26 280.451C233.954 280.93 233.663 281.363 233.385 281.75C233.102 282.142 232.833 282.495 232.578 282.81C232.327 283.124 232.09 283.423 231.867 283.705Z" fill="black" fill-opacity="0.8956"/>
<line y1="-0.5" x2="26" y2="-0.5" transform="matrix(-0.707107 -0.707107 -0.707107 0.707107 243.385 292)" stroke="black" stroke-opacity="0.4458"/>
<path d="M232.832 329H231.711V320.605C231.542 320.756 231.242 320.934 230.809 321.139C230.38 321.344 230 321.49 229.667 321.576L229.346 320.592C229.87 320.455 230.426 320.232 231.014 319.922C231.606 319.612 232.071 319.298 232.408 318.979H232.832V329ZM238.137 329H237.016V320.605C236.847 320.756 236.546 320.934 236.113 321.139C235.685 321.344 235.304 321.49 234.972 321.576L234.65 320.592C235.174 320.455 235.73 320.232 236.318 319.922C236.911 319.612 237.376 319.298 237.713 318.979H238.137V329Z" fill="black" fill-opacity="0.6063"/>
<path d="M279.117 109.847C278.324 111.237 277.6 112.674 276.943 114.16C276.292 115.646 275.834 117.259 275.569 119H274.366C274.617 117.359 275.086 115.771 275.774 114.235C276.463 112.7 277.137 111.357 277.798 110.209H272.883V109.197H279.117V109.847Z" fill="black" fill-opacity="0.8956"/>
<path d="M273.711 161H272.59V152.605C272.421 152.756 272.12 152.934 271.688 153.139C271.259 153.344 270.879 153.49 270.546 153.576L270.225 152.592C270.749 152.455 271.305 152.232 271.893 151.922C272.485 151.612 272.95 151.298 273.287 150.979H273.711V161ZM281.511 151.115V157.705H282.563V158.751H281.511V161.096H280.396V158.751H275.741V157.76C276.174 157.268 276.612 156.743 277.054 156.188C277.496 155.627 277.92 155.06 278.325 154.485C278.726 153.911 279.098 153.337 279.439 152.763C279.781 152.188 280.071 151.639 280.308 151.115H281.511ZM277.02 157.705H280.396V152.824C280.05 153.43 279.722 153.973 279.412 154.451C279.107 154.93 278.815 155.363 278.537 155.75C278.255 156.142 277.986 156.495 277.73 156.81C277.48 157.124 277.243 157.423 277.02 157.705Z" fill="black" fill-opacity="0.8956"/>
<path d="M270.922 203V202.515C270.922 202.095 270.967 201.726 271.059 201.407C271.15 201.088 271.3 200.785 271.51 200.498C271.719 200.211 271.993 199.924 272.33 199.637C272.672 199.35 273.089 199.026 273.581 198.666C273.937 198.411 274.233 198.167 274.47 197.935C274.711 197.702 274.905 197.47 275.051 197.237C275.178 197.046 275.276 196.825 275.345 196.574C275.418 196.324 275.454 196.066 275.454 195.802C275.454 195.264 275.299 194.826 274.989 194.489C274.679 194.152 274.253 193.983 273.711 193.983C273.273 193.983 272.861 194.065 272.474 194.229C272.091 194.394 271.733 194.646 271.4 194.988L270.717 194.332C271.145 193.89 271.608 193.564 272.104 193.354C272.601 193.14 273.157 193.033 273.772 193.033C274.693 193.033 275.393 193.302 275.871 193.84C276.354 194.378 276.596 195 276.596 195.706C276.596 196.066 276.546 196.415 276.445 196.752C276.35 197.085 276.213 197.381 276.035 197.641C275.853 197.923 275.63 198.194 275.365 198.454C275.101 198.714 274.786 198.978 274.422 199.247C273.962 199.566 273.581 199.84 273.28 200.067C272.984 200.295 272.749 200.507 272.576 200.703C272.398 200.904 272.273 201.104 272.2 201.305C272.127 201.505 272.091 201.735 272.091 201.995H276.972V203H270.922ZM281.258 203H280.137V194.605C279.968 194.756 279.667 194.934 279.234 195.139C278.806 195.344 278.425 195.49 278.093 195.576L277.771 194.592C278.296 194.455 278.852 194.232 279.439 193.922C280.032 193.612 280.497 193.298 280.834 192.979H281.258V203Z" fill="black" fill-opacity="0.8956"/>
<path d="M269.301 245V244.515C269.301 244.095 269.346 243.726 269.438 243.407C269.529 243.088 269.679 242.785 269.889 242.498C270.098 242.211 270.372 241.924 270.709 241.637C271.051 241.35 271.468 241.026 271.96 240.666C272.315 240.411 272.612 240.167 272.849 239.935C273.09 239.702 273.284 239.47 273.43 239.237C273.557 239.046 273.655 238.825 273.724 238.574C273.797 238.324 273.833 238.066 273.833 237.802C273.833 237.264 273.678 236.826 273.368 236.489C273.058 236.152 272.632 235.983 272.09 235.983C271.652 235.983 271.24 236.065 270.853 236.229C270.47 236.394 270.112 236.646 269.779 236.988L269.096 236.332C269.524 235.89 269.987 235.564 270.483 235.354C270.98 235.14 271.536 235.033 272.151 235.033C273.072 235.033 273.771 235.302 274.25 235.84C274.733 236.378 274.975 237 274.975 237.706C274.975 238.066 274.924 238.415 274.824 238.752C274.729 239.085 274.592 239.381 274.414 239.641C274.232 239.923 274.008 240.194 273.744 240.454C273.48 240.714 273.165 240.978 272.801 241.247C272.34 241.566 271.96 241.84 271.659 242.067C271.363 242.295 271.128 242.507 270.955 242.703C270.777 242.904 270.652 243.104 270.579 243.305C270.506 243.505 270.47 243.735 270.47 243.995H275.351V245H269.301ZM276.595 242.266C276.595 241.751 276.752 241.247 277.066 240.755C277.381 240.258 277.827 239.9 278.406 239.682C277.982 239.445 277.645 239.142 277.395 238.772C277.144 238.399 277.019 237.986 277.019 237.535C277.019 236.815 277.281 236.218 277.805 235.744C278.333 235.27 278.99 235.033 279.773 235.033C280.566 235.033 281.223 235.272 281.742 235.751C282.266 236.229 282.528 236.824 282.528 237.535C282.528 237.986 282.403 238.399 282.152 238.772C281.902 239.142 281.569 239.445 281.154 239.682C281.724 239.9 282.166 240.258 282.48 240.755C282.795 241.247 282.952 241.751 282.952 242.266C282.952 243.113 282.658 243.808 282.07 244.351C281.487 244.888 280.721 245.157 279.773 245.157C278.839 245.157 278.076 244.888 277.483 244.351C276.891 243.813 276.595 243.118 276.595 242.266ZM277.812 242.17C277.812 242.785 277.992 243.273 278.352 243.633C278.716 243.988 279.192 244.166 279.78 244.166C280.35 244.166 280.822 243.986 281.195 243.626C281.569 243.261 281.756 242.776 281.756 242.17C281.756 241.623 281.576 241.156 281.216 240.769C280.86 240.377 280.382 240.181 279.78 240.181C279.215 240.181 278.746 240.368 278.372 240.741C277.998 241.11 277.812 241.587 277.812 242.17ZM278.16 237.624C278.16 238.089 278.317 238.479 278.632 238.793C278.951 239.107 279.334 239.265 279.78 239.265C280.222 239.265 280.603 239.107 280.922 238.793C281.245 238.474 281.407 238.084 281.407 237.624C281.407 237.15 281.25 236.758 280.936 236.448C280.621 236.134 280.236 235.977 279.78 235.977C279.297 235.977 278.905 236.138 278.604 236.462C278.308 236.781 278.16 237.168 278.16 237.624Z" fill="black" fill-opacity="0.8956"/>
<path d="M272.917 286.2L273.505 285.441C273.847 285.71 274.195 285.906 274.551 286.029C274.911 286.152 275.303 286.214 275.727 286.214C276.369 286.214 276.898 286.016 277.312 285.619C277.727 285.218 277.935 284.703 277.935 284.074C277.935 283.436 277.72 282.937 277.292 282.577C276.864 282.213 276.242 282.03 275.426 282.03C275.161 282.03 274.874 282.037 274.564 282.051C274.259 282.064 273.993 282.085 273.765 282.112L274.1 277.197H278.632V278.209H275.07L274.872 281.087C275.018 281.078 275.173 281.071 275.337 281.066C275.501 281.057 275.647 281.053 275.774 281.053C276.804 281.053 277.613 281.317 278.201 281.846C278.789 282.37 279.083 283.09 279.083 284.006C279.083 284.958 278.769 285.724 278.14 286.303C277.511 286.882 276.711 287.171 275.74 287.171C275.193 287.171 274.692 287.093 274.236 286.938C273.785 286.779 273.345 286.533 272.917 286.2Z" fill="black" fill-opacity="0.6063"/>
<path d="M273.711 329H272.59V320.605C272.421 320.756 272.12 320.934 271.688 321.139C271.259 321.344 270.879 321.49 270.546 321.576L270.225 320.592C270.749 320.455 271.305 320.232 271.893 319.922C272.485 319.612 272.95 319.298 273.287 318.979H273.711V329ZM276.227 329V328.515C276.227 328.095 276.272 327.726 276.363 327.407C276.454 327.088 276.605 326.785 276.814 326.498C277.024 326.211 277.298 325.924 277.635 325.637C277.977 325.35 278.394 325.026 278.886 324.666C279.241 324.411 279.537 324.167 279.774 323.935C280.016 323.702 280.21 323.47 280.355 323.237C280.483 323.046 280.581 322.825 280.649 322.574C280.722 322.324 280.759 322.066 280.759 321.802C280.759 321.264 280.604 320.826 280.294 320.489C279.984 320.152 279.558 319.983 279.016 319.983C278.578 319.983 278.166 320.065 277.778 320.229C277.396 320.394 277.038 320.646 276.705 320.988L276.021 320.332C276.45 319.89 276.912 319.564 277.409 319.354C277.906 319.14 278.462 319.033 279.077 319.033C279.998 319.033 280.697 319.302 281.176 319.84C281.659 320.378 281.9 321 281.9 321.706C281.9 322.066 281.85 322.415 281.75 322.752C281.654 323.085 281.518 323.381 281.34 323.641C281.158 323.923 280.934 324.194 280.67 324.454C280.406 324.714 280.091 324.978 279.727 325.247C279.266 325.566 278.886 325.84 278.585 326.067C278.289 326.295 278.054 326.507 277.881 326.703C277.703 326.904 277.578 327.104 277.505 327.305C277.432 327.505 277.396 327.735 277.396 327.995H282.276V329H276.227Z" fill="black" fill-opacity="0.6063"/>
<path d="M26.5293 29H24.7451L20.1582 21.9316C20.0671 21.7949 19.9896 21.6696 19.9258 21.5557C19.862 21.4372 19.8073 21.3278 19.7617 21.2275H19.7275C19.7458 21.3643 19.7594 21.5534 19.7686 21.7949C19.7777 22.0365 19.7822 22.3327 19.7822 22.6836V29H18.21V19.1973H20.1035L24.5537 26.1084C24.6494 26.2542 24.7337 26.3887 24.8066 26.5117C24.8796 26.6302 24.9411 26.7373 24.9912 26.833H25.0186C24.9958 26.7008 24.9798 26.5186 24.9707 26.2861C24.9616 26.0537 24.957 25.7689 24.957 25.4316V19.1973H26.5293V29ZM31.8887 29.1641C30.7949 29.1641 29.9268 28.8382 29.2842 28.1865C28.6462 27.5303 28.3271 26.653 28.3271 25.5547C28.3317 24.3926 28.6644 23.4834 29.3252 22.8271C29.986 22.1663 30.8861 21.8359 32.0254 21.8359C33.1237 21.8314 33.9805 22.1549 34.5957 22.8066C35.2155 23.4538 35.5254 24.3311 35.5254 25.4385C35.5254 26.5778 35.1973 27.4847 34.541 28.1592C33.8893 28.8291 33.0052 29.1641 31.8887 29.1641ZM31.9639 27.8994C32.5973 27.8994 33.0781 27.6921 33.4062 27.2773C33.7389 26.8626 33.9053 26.2633 33.9053 25.4795C33.9053 24.7048 33.7389 24.1146 33.4062 23.709C33.0736 23.3034 32.5905 23.1006 31.957 23.1006C31.3327 23.1006 30.8405 23.3148 30.4805 23.7432C30.125 24.1715 29.9473 24.764 29.9473 25.5205C29.9473 26.2816 30.125 26.8695 30.4805 27.2842C30.8359 27.6943 31.3304 27.8994 31.9639 27.8994ZM43.1748 22L40.4678 29H38.752L36.1748 22H37.8975L39.4219 26.7373C39.4857 26.9515 39.5381 27.1497 39.5791 27.332C39.6201 27.5143 39.6475 27.6829 39.6611 27.8379H39.6885C39.7067 27.6647 39.7363 27.4915 39.7773 27.3184C39.8184 27.1406 39.8685 26.9583 39.9277 26.7715L41.5068 22H43.1748ZM50.0723 25.917H45.2939C45.3213 26.5778 45.5127 27.0814 45.8682 27.4277C46.2236 27.7695 46.7204 27.9404 47.3584 27.9404C47.6182 27.9404 47.9144 27.888 48.2471 27.7832C48.5798 27.6784 48.9079 27.5098 49.2314 27.2773L49.9492 28.2686C49.5163 28.583 49.0765 28.8109 48.6299 28.9521C48.1833 29.0934 47.6911 29.1641 47.1533 29.1641C46.0641 29.1641 45.2165 28.8519 44.6104 28.2275C44.0042 27.5986 43.6989 26.7214 43.6943 25.5957C43.6943 24.4746 44.0065 23.5677 44.6309 22.875C45.2598 22.1823 46.0641 21.8359 47.0439 21.8359C47.9827 21.8359 48.721 22.1322 49.2588 22.7246C49.8011 23.3125 50.0723 24.1465 50.0723 25.2266V25.917ZM48.5342 24.8164C48.5342 24.2148 48.402 23.7637 48.1377 23.4629C47.8779 23.1576 47.5088 23.0049 47.0303 23.0049C46.5791 23.0049 46.194 23.1689 45.875 23.4971C45.5605 23.8206 45.3669 24.2604 45.2939 24.8164H48.5342ZM62.0625 29H60.4766V24.9941C60.4766 24.3379 60.3672 23.8594 60.1484 23.5586C59.9342 23.2533 59.5879 23.1006 59.1094 23.1006C58.6855 23.1006 58.3301 23.2897 58.043 23.668C57.7604 24.0417 57.6191 24.4997 57.6191 25.042V29H56.0332V24.8984C56.0332 24.2969 55.917 23.848 55.6846 23.5518C55.4567 23.251 55.1149 23.1006 54.6592 23.1006C54.2217 23.1006 53.8662 23.2806 53.5928 23.6406C53.3193 23.9961 53.1826 24.4678 53.1826 25.0557V29H51.5898V22H53.1826V23.1006H53.21C53.4469 22.6995 53.7546 22.3896 54.1328 22.1709C54.5156 21.9476 54.9463 21.8359 55.4248 21.8359C55.9079 21.8359 56.3226 21.9567 56.6689 22.1982C57.0199 22.4398 57.2728 22.7793 57.4277 23.2168C57.6921 22.7565 58.0179 22.4124 58.4053 22.1846C58.7926 21.9521 59.2461 21.8359 59.7656 21.8359C60.5312 21.8359 61.1055 22.0729 61.4883 22.5469C61.8711 23.0163 62.0625 23.7227 62.0625 24.666V29ZM65.6035 28.1387H65.5762V29H63.9834V18.6367H65.5762V23.1484H65.6035C65.8724 22.7109 66.2028 22.3828 66.5947 22.1641C66.9867 21.9453 67.4401 21.8359 67.9551 21.8359C68.8574 21.8359 69.557 22.1481 70.0537 22.7725C70.555 23.3923 70.8057 24.2331 70.8057 25.2949C70.8057 26.4661 70.5186 27.4049 69.9443 28.1113C69.3747 28.8132 68.6045 29.1641 67.6338 29.1641C67.1872 29.1641 66.793 29.0798 66.4512 28.9111C66.1139 28.738 65.8314 28.4805 65.6035 28.1387ZM65.5557 25.1992V26.0537C65.5557 26.5778 65.7174 27.0176 66.041 27.373C66.3646 27.724 66.777 27.8994 67.2783 27.8994C67.8753 27.8994 68.3402 27.6715 68.6729 27.2158C69.0055 26.7601 69.1719 26.1221 69.1719 25.3018C69.1719 24.609 69.0169 24.069 68.707 23.6816C68.3971 23.2943 67.971 23.1006 67.4287 23.1006C66.8727 23.1006 66.4215 23.2988 66.0752 23.6953C65.7288 24.0872 65.5557 24.5885 65.5557 25.1992ZM78.3457 25.917H73.5674C73.5947 26.5778 73.7861 27.0814 74.1416 27.4277C74.4971 27.7695 74.9938 27.9404 75.6318 27.9404C75.8916 27.9404 76.1878 27.888 76.5205 27.7832C76.8532 27.6784 77.1813 27.5098 77.5049 27.2773L78.2227 28.2686C77.7897 28.583 77.3499 28.8109 76.9033 28.9521C76.4567 29.0934 75.9645 29.1641 75.4268 29.1641C74.3376 29.1641 73.4899 28.8519 72.8838 28.2275C72.2777 27.5986 71.9723 26.7214 71.9678 25.5957C71.9678 24.4746 72.2799 23.5677 72.9043 22.875C73.5332 22.1823 74.3376 21.8359 75.3174 21.8359C76.2562 21.8359 76.9945 22.1322 77.5322 22.7246C78.0745 23.3125 78.3457 24.1465 78.3457 25.2266V25.917ZM76.8076 24.8164C76.8076 24.2148 76.6755 23.7637 76.4111 23.4629C76.1514 23.1576 75.7822 23.0049 75.3037 23.0049C74.8525 23.0049 74.4674 23.1689 74.1484 23.4971C73.834 23.8206 73.6403 24.2604 73.5674 24.8164H76.8076ZM83.7529 23.333C83.6663 23.3102 83.582 23.2943 83.5 23.2852C83.4225 23.2715 83.3314 23.2646 83.2266 23.2646C82.6569 23.2646 82.2194 23.4743 81.9141 23.8936C81.6087 24.3128 81.4561 24.8597 81.4561 25.5342V29H79.8633V22H81.4561V23.3467H81.4834C81.6475 22.8636 81.889 22.499 82.208 22.2529C82.527 22.0023 82.903 21.877 83.3359 21.877C83.459 21.877 83.5684 21.8838 83.6641 21.8975C83.7643 21.9111 83.86 21.9316 83.9512 21.959L83.7529 23.333Z" fill="black" fill-opacity="0.8956"/>
<defs>
<filter id="filter0_b" x="-59" y="-59" width="418" height="466" filterUnits="userSpaceOnUse" color-interpolation-filters="sRGB">
<feFlood flood-opacity="0" result="BackgroundImageFix"/>
<feGaussianBlur in="BackgroundImage" stdDeviation="30"/>
<feComposite in2="SourceAlpha" operator="in" result="effect1_backgroundBlur"/>
<feBlend mode="normal" in="SourceGraphic" in2="effect1_backgroundBlur" result="shape"/>
</filter>
<pattern id="pattern0" patternContentUnits="objectBoundingBox" width="0.85906" height="0.739884">
<use xlink:href="#image0" transform="scale(0.0033557 0.00289017)"/>
</pattern>
<clipPath id="clip0">
<path d="M1 48H299V340C299 343.866 295.866 347 292 347H8.00001C4.13401 347 1 343.866 1 340V48Z" fill="white"/>
</clipPath>
<image id="image0" width="256" height="256" xlink:href="https://i.imgur.com/5hRlbaM.png"/>
</defs>
</svg>
