<svg class="ContentDialog" width="322" height="189" viewBox="0 0 322 189" fill="none" xmlns="http://www.w3.org/2000/svg">
<rect x="1" y="1" width="320" height="187" rx="7" fill="#202020"/>
<g style="mix-blend-mode:multiply">
<rect x="1" y="1" width="320" height="187" rx="7" fill="white"/>
</g>
<rect x="0.5" y="0.5" width="321" height="188" rx="7.5" stroke="white" stroke-opacity="0.0837"/>
<path d="M1 8C1 4.13401 4.13401 1 8 1H314C317.866 1 321 4.13401 321 8V108H1V8Z" fill="white" fill-opacity="0.0538"/>
<line x1="1" y1="108.5" x2="321" y2="108.5" stroke="black" stroke-opacity="0.1"/>
<path d="M35.4004 33.9688H31.4844V46H29.1602V33.9688H25.2539V31.9961H35.4004V33.9688ZM38.3594 34.1738C37.9297 34.1738 37.5781 34.0371 37.3047 33.7637C37.0378 33.4837 36.9043 33.1484 36.9043 32.7578C36.9043 32.3607 37.0378 32.0254 37.3047 31.752C37.5781 31.4785 37.9297 31.3418 38.3594 31.3418C38.7956 31.3418 39.1471 31.4785 39.4141 31.752C39.6875 32.0254 39.8242 32.3607 39.8242 32.7578C39.8242 33.1615 39.6875 33.5 39.4141 33.7734C39.1471 34.0404 38.7956 34.1738 38.3594 34.1738ZM39.4922 46H37.2168V36H39.4922V46ZM48.1348 45.3262C47.8353 45.6126 47.487 45.834 47.0898 45.9902C46.6927 46.1465 46.2467 46.2246 45.752 46.2246C44.8014 46.2246 44.082 45.987 43.5938 45.5117C43.112 45.0299 42.8711 44.3268 42.8711 43.4023V37.7773H41.1914V36H42.8711V33.5488L45.1367 33.1484V36H47.6855V37.7773H45.1367V43.3242C45.1367 43.7214 45.2148 44.0143 45.3711 44.2031C45.5339 44.3919 45.778 44.4863 46.1035 44.4863C46.2728 44.4863 46.4388 44.4538 46.6016 44.3887C46.7643 44.3236 46.9368 44.1966 47.1191 44.0078L48.1348 45.3262ZM49.8926 46V31.1953H52.168V46H49.8926ZM63.4863 41.5566H56.582C56.6016 42.5202 56.862 43.2461 57.3633 43.7344C57.8711 44.2161 58.4928 44.457 59.2285 44.457C59.7493 44.457 60.2116 44.3366 60.6152 44.0957C61.0189 43.8483 61.3607 43.4837 61.6406 43.002L63.3887 43.9492C62.9329 44.6784 62.3503 45.2415 61.6406 45.6387C60.9375 46.0358 60.1074 46.2344 59.1504 46.2344C57.679 46.2344 56.5007 45.7917 55.6152 44.9062C54.7298 44.0208 54.2871 42.748 54.2871 41.0879C54.2871 39.5059 54.7396 38.2233 55.6445 37.2402C56.556 36.2572 57.6953 35.7656 59.0625 35.7656C60.4688 35.7656 61.556 36.1855 62.3242 37.0254C63.099 37.8652 63.4863 39.0827 63.4863 40.6777V41.5566ZM61.2891 39.9355C61.2891 39.1543 61.0938 38.5488 60.7031 38.1191C60.3125 37.6895 59.7786 37.4746 59.1016 37.4746C58.3919 37.4746 57.8158 37.7122 57.373 38.1875C56.9303 38.6562 56.6634 39.2389 56.5723 39.9355H61.2891Z" fill="white"/>
<path d="M31.3711 80H26.2852V70.1973H27.4336V78.9609H31.3711V80ZM35.6504 80.1641C34.6159 80.1641 33.7887 79.8382 33.1689 79.1865C32.5537 78.5303 32.2461 77.6621 32.2461 76.582C32.2461 75.4108 32.5651 74.4948 33.2031 73.834C33.8411 73.1732 34.7116 72.8405 35.8145 72.8359C36.8581 72.8314 37.6715 73.1527 38.2549 73.7998C38.8428 74.4469 39.1367 75.3379 39.1367 76.4727C39.1367 77.5938 38.82 78.4893 38.1865 79.1592C37.5576 79.8291 36.7122 80.1641 35.6504 80.1641ZM35.7324 79.2207C36.457 79.2207 37.013 78.986 37.4004 78.5166C37.7923 78.0426 37.9883 77.375 37.9883 76.5137C37.9883 75.6341 37.7923 74.9596 37.4004 74.4902C37.0085 74.0163 36.4525 73.7793 35.7324 73.7793C35.0124 73.7793 34.4427 74.0254 34.0234 74.5176C33.6042 75.0098 33.3945 75.6842 33.3945 76.541C33.3945 77.3704 33.6064 78.0244 34.0303 78.5029C34.4541 78.9814 35.0215 79.2207 35.7324 79.2207ZM44.3799 73.957C44.2933 73.9297 44.2158 73.9115 44.1475 73.9023C44.0791 73.8887 43.9925 73.8818 43.8877 73.8818C43.318 73.8818 42.8691 74.1257 42.541 74.6133C42.2129 75.0964 42.0488 75.7025 42.0488 76.4316V80H40.9277V73H42.0488V74.3877H42.0762C42.2357 73.8955 42.4795 73.5218 42.8076 73.2666C43.1357 73.0068 43.514 72.877 43.9424 72.877C44.0837 72.877 44.2021 72.8838 44.2979 72.8975C44.3981 72.9111 44.487 72.9316 44.5645 72.959L44.3799 73.957ZM51.4209 76.7529H46.4717C46.4899 77.5413 46.6973 78.1497 47.0938 78.5781C47.4948 79.002 48.0553 79.2139 48.7754 79.2139C49.0898 79.2139 49.4043 79.1683 49.7188 79.0771C50.0378 78.9814 50.3522 78.8311 50.6621 78.626L51.1816 79.4258C50.7852 79.681 50.3887 79.8678 49.9922 79.9863C49.5957 80.1048 49.1605 80.1641 48.6865 80.1641C47.6292 80.1641 46.8044 79.8496 46.2119 79.2207C45.6195 78.5918 45.321 77.7145 45.3164 76.5889C45.3118 75.4632 45.6081 74.5563 46.2051 73.8682C46.8066 73.18 47.5859 72.8359 48.543 72.8359C49.4544 72.8359 50.1608 73.1344 50.6621 73.7314C51.168 74.3239 51.4209 75.1465 51.4209 76.1992V76.7529ZM50.2725 75.8369C50.2679 75.1898 50.1107 74.6862 49.8008 74.3262C49.4909 73.9616 49.0648 73.7793 48.5225 73.7793C47.9893 73.7793 47.5358 73.9661 47.1621 74.3398C46.793 74.709 46.5674 75.208 46.4854 75.8369H50.2725ZM63.0625 80H61.9414V75.9805C61.9414 75.2057 61.8206 74.6452 61.5791 74.2988C61.3421 73.9525 60.9411 73.7793 60.376 73.7793C59.8975 73.7793 59.4896 73.998 59.1523 74.4355C58.8197 74.873 58.6533 75.3971 58.6533 76.0078V80H57.5322V75.8438C57.5322 75.1556 57.4001 74.6406 57.1357 74.2988C56.8714 73.9525 56.4727 73.7793 55.9395 73.7793C55.4473 73.7793 55.0417 73.9867 54.7227 74.4014C54.4036 74.8115 54.2441 75.347 54.2441 76.0078V80H53.123V73H54.2441V74.1074H54.2715C54.5221 73.6836 54.8275 73.3669 55.1875 73.1572C55.5521 72.943 55.9714 72.8359 56.4453 72.8359C56.9238 72.8359 57.3408 72.9704 57.6963 73.2393C58.0518 73.5036 58.2956 73.8522 58.4277 74.2852C58.6875 73.8021 59.0111 73.4398 59.3984 73.1982C59.7858 72.9567 60.237 72.8359 60.752 72.8359C61.5221 72.8359 62.0986 73.0729 62.4814 73.5469C62.8688 74.0208 63.0625 74.734 63.0625 75.6865V80ZM69.5977 71.3252C69.3698 71.3252 69.1784 71.25 69.0234 71.0996C68.8685 70.9447 68.791 70.7555 68.791 70.5322C68.791 70.3089 68.8685 70.1221 69.0234 69.9717C69.1784 69.8167 69.3698 69.7393 69.5977 69.7393C69.8255 69.7393 70.0169 69.8167 70.1719 69.9717C70.3268 70.1221 70.4043 70.3089 70.4043 70.5322C70.4043 70.7555 70.3268 70.9447 70.1719 71.0996C70.0169 71.25 69.8255 71.3252 69.5977 71.3252ZM70.1445 80H69.0234V73H70.1445V80ZM73.5625 78.9883H73.5352V83.2197H72.4141V73H73.5352V74.2305H73.5625C73.8405 73.7656 74.18 73.417 74.5811 73.1846C74.9867 72.9521 75.4538 72.8359 75.9824 72.8359C76.8848 72.8359 77.5889 73.1504 78.0947 73.7793C78.6006 74.4036 78.8535 75.2422 78.8535 76.2949C78.8535 77.4661 78.5687 78.4049 77.999 79.1113C77.4294 79.8132 76.6501 80.1641 75.6611 80.1641C75.21 80.1641 74.8089 80.0661 74.458 79.8701C74.1071 79.6742 73.8086 79.3802 73.5625 78.9883ZM73.5352 76.165V77.1426C73.5352 77.7214 73.722 78.2135 74.0957 78.6191C74.474 79.0202 74.9525 79.2207 75.5312 79.2207C76.2103 79.2207 76.7412 78.9609 77.124 78.4414C77.5114 77.9219 77.7051 77.1995 77.7051 76.2744C77.7051 75.4951 77.5251 74.8844 77.165 74.4424C76.805 74.0003 76.3174 73.7793 75.7021 73.7793C75.0505 73.7793 74.5264 74.0072 74.1299 74.4629C73.7334 74.9141 73.5352 75.4814 73.5352 76.165ZM79.9883 79.4736L80.5215 78.6123C80.8268 78.8128 81.1253 78.9655 81.417 79.0703C81.7087 79.1706 82.0231 79.2207 82.3604 79.2207C82.8389 79.2207 83.2012 79.1318 83.4473 78.9541C83.6979 78.7764 83.8232 78.5098 83.8232 78.1543C83.8232 77.8672 83.7116 77.6257 83.4883 77.4297C83.2695 77.2292 82.9255 77.0697 82.4561 76.9512C81.5811 76.7279 80.9818 76.4476 80.6582 76.1104C80.3346 75.7686 80.1729 75.3493 80.1729 74.8525C80.1729 74.2783 80.3893 73.7998 80.8223 73.417C81.2552 73.0296 81.859 72.8359 82.6338 72.8359C83.0075 72.8359 83.363 72.8838 83.7002 72.9795C84.0374 73.0752 84.3815 73.2393 84.7324 73.4717L84.2334 74.3193C83.9144 74.1188 83.6273 73.9798 83.3721 73.9023C83.1214 73.8203 82.8662 73.7793 82.6064 73.7793C82.1553 73.7793 81.8112 73.8636 81.5742 74.0322C81.3372 74.1963 81.2188 74.4355 81.2188 74.75C81.2188 75.0645 81.3395 75.3014 81.5811 75.4609C81.8271 75.6204 82.2214 75.7708 82.7637 75.9121C83.4746 76.1035 84.0055 76.3724 84.3564 76.7188C84.7119 77.0605 84.8896 77.5094 84.8896 78.0654C84.8896 78.7126 84.6595 79.2253 84.1992 79.6035C83.7435 79.9772 83.1169 80.1641 82.3193 80.1641C81.891 80.1641 81.4785 80.1048 81.082 79.9863C80.6901 79.8678 80.3255 79.6969 79.9883 79.4736ZM92.252 80H91.1309V78.8926H91.1035C90.8711 79.3164 90.5749 79.6354 90.2148 79.8496C89.8548 80.0592 89.431 80.1641 88.9434 80.1641C88.1094 80.1641 87.4827 79.9157 87.0635 79.4189C86.6488 78.9222 86.4414 78.1771 86.4414 77.1836V73H87.5557V77.0059C87.5557 77.7441 87.6969 78.2979 87.9795 78.667C88.262 79.0361 88.6859 79.2207 89.251 79.2207C89.7979 79.2207 90.2467 79.0202 90.5977 78.6191C90.9531 78.2135 91.1309 77.6849 91.1309 77.0332V73H92.252V80ZM104.461 80H103.34V75.9805C103.34 75.2057 103.219 74.6452 102.978 74.2988C102.741 73.9525 102.34 73.7793 101.774 73.7793C101.296 73.7793 100.888 73.998 100.551 74.4355C100.218 74.873 100.052 75.3971 100.052 76.0078V80H98.9307V75.8438C98.9307 75.1556 98.7985 74.6406 98.5342 74.2988C98.2699 73.9525 97.8711 73.7793 97.3379 73.7793C96.8457 73.7793 96.4401 73.9867 96.1211 74.4014C95.8021 74.8115 95.6426 75.347 95.6426 76.0078V80H94.5215V73H95.6426V74.1074H95.6699C95.9206 73.6836 96.2259 73.3669 96.5859 73.1572C96.9505 72.943 97.3698 72.8359 97.8438 72.8359C98.3223 72.8359 98.7393 72.9704 99.0947 73.2393C99.4502 73.5036 99.694 73.8522 99.8262 74.2852C100.086 73.8021 100.41 73.4398 100.797 73.1982C101.184 72.9567 101.635 72.8359 102.15 72.8359C102.921 72.8359 103.497 73.0729 103.88 73.5469C104.267 74.0208 104.461 74.734 104.461 75.6865V80ZM115.248 78.8105C114.988 79.2617 114.658 79.6012 114.257 79.8291C113.86 80.0524 113.389 80.1641 112.842 80.1641C111.962 80.1641 111.258 79.8519 110.729 79.2275C110.205 78.5986 109.943 77.7441 109.943 76.6641C109.943 75.5065 110.235 74.5791 110.818 73.8818C111.402 73.1846 112.179 72.8359 113.149 72.8359C113.632 72.8359 114.047 72.9316 114.394 73.123C114.744 73.3099 115.029 73.5924 115.248 73.9707H115.275V69.6367H116.396V80H115.275V78.8105H115.248ZM111.092 76.6094C111.092 77.416 111.279 78.054 111.652 78.5234C112.031 78.9883 112.536 79.2207 113.17 79.2207C113.799 79.2207 114.307 78.9951 114.694 78.5439C115.082 78.0928 115.275 77.5231 115.275 76.835V75.8027C115.275 75.2376 115.086 74.7591 114.708 74.3672C114.334 73.9753 113.863 73.7793 113.293 73.7793C112.609 73.7793 112.072 74.0299 111.68 74.5312C111.288 75.0326 111.092 75.7253 111.092 76.6094ZM124.326 80H123.205V78.8926H123.178C122.945 79.3164 122.649 79.6354 122.289 79.8496C121.929 80.0592 121.505 80.1641 121.018 80.1641C120.184 80.1641 119.557 79.9157 119.138 79.4189C118.723 78.9222 118.516 78.1771 118.516 77.1836V73H119.63V77.0059C119.63 77.7441 119.771 78.2979 120.054 78.667C120.336 79.0361 120.76 79.2207 121.325 79.2207C121.872 79.2207 122.321 79.0202 122.672 78.6191C123.027 78.2135 123.205 77.6849 123.205 77.0332V73H124.326V80ZM127.17 71.3252C126.942 71.3252 126.751 71.25 126.596 71.0996C126.441 70.9447 126.363 70.7555 126.363 70.5322C126.363 70.3089 126.441 70.1221 126.596 69.9717C126.751 69.8167 126.942 69.7393 127.17 69.7393C127.398 69.7393 127.589 69.8167 127.744 69.9717C127.899 70.1221 127.977 70.3089 127.977 70.5322C127.977 70.7555 127.899 70.9447 127.744 71.0996C127.589 71.25 127.398 71.3252 127.17 71.3252ZM127.717 80H126.596V73H127.717V80ZM129.33 79.4736L129.863 78.6123C130.169 78.8128 130.467 78.9655 130.759 79.0703C131.05 79.1706 131.365 79.2207 131.702 79.2207C132.181 79.2207 132.543 79.1318 132.789 78.9541C133.04 78.7764 133.165 78.5098 133.165 78.1543C133.165 77.8672 133.053 77.6257 132.83 77.4297C132.611 77.2292 132.267 77.0697 131.798 76.9512C130.923 76.7279 130.324 76.4476 130 76.1104C129.676 75.7686 129.515 75.3493 129.515 74.8525C129.515 74.2783 129.731 73.7998 130.164 73.417C130.597 73.0296 131.201 72.8359 131.976 72.8359C132.349 72.8359 132.705 72.8838 133.042 72.9795C133.379 73.0752 133.723 73.2393 134.074 73.4717L133.575 74.3193C133.256 74.1188 132.969 73.9798 132.714 73.9023C132.463 73.8203 132.208 73.7793 131.948 73.7793C131.497 73.7793 131.153 73.8636 130.916 74.0322C130.679 74.1963 130.561 74.4355 130.561 74.75C130.561 75.0645 130.681 75.3014 130.923 75.4609C131.169 75.6204 131.563 75.7708 132.105 75.9121C132.816 76.1035 133.347 76.3724 133.698 76.7188C134.054 77.0605 134.231 77.5094 134.231 78.0654C134.231 78.7126 134.001 79.2253 133.541 79.6035C133.085 79.9772 132.459 80.1641 131.661 80.1641C131.233 80.1641 130.82 80.1048 130.424 79.9863C130.032 79.8678 129.667 79.6969 129.33 79.4736ZM149.715 80H148.594V75.9805C148.594 75.2057 148.473 74.6452 148.231 74.2988C147.994 73.9525 147.593 73.7793 147.028 73.7793C146.55 73.7793 146.142 73.998 145.805 74.4355C145.472 74.873 145.306 75.3971 145.306 76.0078V80H144.185V75.8438C144.185 75.1556 144.052 74.6406 143.788 74.2988C143.524 73.9525 143.125 73.7793 142.592 73.7793C142.1 73.7793 141.694 73.9867 141.375 74.4014C141.056 74.8115 140.896 75.347 140.896 76.0078V80H139.775V73H140.896V74.1074H140.924C141.174 73.6836 141.48 73.3669 141.84 73.1572C142.204 72.943 142.624 72.8359 143.098 72.8359C143.576 72.8359 143.993 72.9704 144.349 73.2393C144.704 73.5036 144.948 73.8522 145.08 74.2852C145.34 73.8021 145.663 73.4398 146.051 73.1982C146.438 72.9567 146.889 72.8359 147.404 72.8359C148.174 72.8359 148.751 73.0729 149.134 73.5469C149.521 74.0208 149.715 74.734 149.715 75.6865V80ZM154.76 80.1641C153.725 80.1641 152.898 79.8382 152.278 79.1865C151.663 78.5303 151.355 77.6621 151.355 76.582C151.355 75.4108 151.674 74.4948 152.312 73.834C152.951 73.1732 153.821 72.8405 154.924 72.8359C155.967 72.8314 156.781 73.1527 157.364 73.7998C157.952 74.4469 158.246 75.3379 158.246 76.4727C158.246 77.5938 157.929 78.4893 157.296 79.1592C156.667 79.8291 155.822 80.1641 154.76 80.1641ZM154.842 79.2207C155.566 79.2207 156.122 78.986 156.51 78.5166C156.902 78.0426 157.098 77.375 157.098 76.5137C157.098 75.6341 156.902 74.9596 156.51 74.4902C156.118 74.0163 155.562 73.7793 154.842 73.7793C154.122 73.7793 153.552 74.0254 153.133 74.5176C152.714 75.0098 152.504 75.6842 152.504 76.541C152.504 77.3704 152.716 78.0244 153.14 78.5029C153.563 78.9814 154.131 79.2207 154.842 79.2207ZM160.037 80V69.6367H161.158V80H160.037ZM163.428 80V69.6367H164.549V80H163.428ZM167.393 71.3252C167.165 71.3252 166.973 71.25 166.818 71.0996C166.663 70.9447 166.586 70.7555 166.586 70.5322C166.586 70.3089 166.663 70.1221 166.818 69.9717C166.973 69.8167 167.165 69.7393 167.393 69.7393C167.62 69.7393 167.812 69.8167 167.967 69.9717C168.122 70.1221 168.199 70.3089 168.199 70.5322C168.199 70.7555 168.122 70.9447 167.967 71.0996C167.812 71.25 167.62 71.3252 167.393 71.3252ZM167.939 80H166.818V73H167.939V80ZM169.553 79.4736L170.086 78.6123C170.391 78.8128 170.69 78.9655 170.981 79.0703C171.273 79.1706 171.588 79.2207 171.925 79.2207C172.403 79.2207 172.766 79.1318 173.012 78.9541C173.262 78.7764 173.388 78.5098 173.388 78.1543C173.388 77.8672 173.276 77.6257 173.053 77.4297C172.834 77.2292 172.49 77.0697 172.021 76.9512C171.146 76.7279 170.546 76.4476 170.223 76.1104C169.899 75.7686 169.737 75.3493 169.737 74.8525C169.737 74.2783 169.954 73.7998 170.387 73.417C170.82 73.0296 171.424 72.8359 172.198 72.8359C172.572 72.8359 172.927 72.8838 173.265 72.9795C173.602 73.0752 173.946 73.2393 174.297 73.4717L173.798 74.3193C173.479 74.1188 173.192 73.9798 172.937 73.9023C172.686 73.8203 172.431 73.7793 172.171 73.7793C171.72 73.7793 171.376 73.8636 171.139 74.0322C170.902 74.1963 170.783 74.4355 170.783 74.75C170.783 75.0645 170.904 75.3014 171.146 75.4609C171.392 75.6204 171.786 75.7708 172.328 75.9121C173.039 76.1035 173.57 76.3724 173.921 76.7188C174.276 77.0605 174.454 77.5094 174.454 78.0654C174.454 78.7126 174.224 79.2253 173.764 79.6035C173.308 79.9772 172.681 80.1641 171.884 80.1641C171.455 80.1641 171.043 80.1048 170.646 79.9863C170.255 79.8678 169.89 79.6969 169.553 79.4736ZM177.175 78.4414L176.088 81.8047H175.288L176.088 78.4414H177.175ZM188.659 76.7529H183.71C183.728 77.5413 183.936 78.1497 184.332 78.5781C184.733 79.002 185.294 79.2139 186.014 79.2139C186.328 79.2139 186.643 79.1683 186.957 79.0771C187.276 78.9814 187.59 78.8311 187.9 78.626L188.42 79.4258C188.023 79.681 187.627 79.8678 187.23 79.9863C186.834 80.1048 186.399 80.1641 185.925 80.1641C184.868 80.1641 184.043 79.8496 183.45 79.2207C182.858 78.5918 182.559 77.7145 182.555 76.5889C182.55 75.4632 182.846 74.5563 183.443 73.8682C184.045 73.18 184.824 72.8359 185.781 72.8359C186.693 72.8359 187.399 73.1344 187.9 73.7314C188.406 74.3239 188.659 75.1465 188.659 76.1992V76.7529ZM187.511 75.8369C187.506 75.1898 187.349 74.6862 187.039 74.3262C186.729 73.9616 186.303 73.7793 185.761 73.7793C185.228 73.7793 184.774 73.9661 184.4 74.3398C184.031 74.709 183.806 75.208 183.724 75.8369H187.511ZM189.705 79.4736L190.238 78.6123C190.544 78.8128 190.842 78.9655 191.134 79.0703C191.425 79.1706 191.74 79.2207 192.077 79.2207C192.556 79.2207 192.918 79.1318 193.164 78.9541C193.415 78.7764 193.54 78.5098 193.54 78.1543C193.54 77.8672 193.428 77.6257 193.205 77.4297C192.986 77.2292 192.642 77.0697 192.173 76.9512C191.298 76.7279 190.699 76.4476 190.375 76.1104C190.051 75.7686 189.89 75.3493 189.89 74.8525C189.89 74.2783 190.106 73.7998 190.539 73.417C190.972 73.0296 191.576 72.8359 192.351 72.8359C192.724 72.8359 193.08 72.8838 193.417 72.9795C193.754 73.0752 194.098 73.2393 194.449 73.4717L193.95 74.3193C193.631 74.1188 193.344 73.9798 193.089 73.9023C192.838 73.8203 192.583 73.7793 192.323 73.7793C191.872 73.7793 191.528 73.8636 191.291 74.0322C191.054 74.1963 190.936 74.4355 190.936 74.75C190.936 75.0645 191.056 75.3014 191.298 75.4609C191.544 75.6204 191.938 75.7708 192.48 75.9121C193.191 76.1035 193.722 76.3724 194.073 76.7188C194.429 77.0605 194.606 77.5094 194.606 78.0654C194.606 78.7126 194.376 79.2253 193.916 79.6035C193.46 79.9772 192.834 80.1641 192.036 80.1641C191.608 80.1641 191.195 80.1048 190.799 79.9863C190.407 79.8678 190.042 79.6969 189.705 79.4736ZM199.645 79.918C199.453 79.9954 199.264 80.0524 199.077 80.0889C198.895 80.1299 198.688 80.1504 198.455 80.1504C197.899 80.1504 197.462 79.9886 197.143 79.665C196.828 79.3369 196.671 78.8538 196.671 78.2158V73.957H195.468V73H196.671V71.291L197.792 70.9287V73H199.556V73.957H197.792V78.0859C197.792 78.487 197.863 78.7764 198.004 78.9541C198.15 79.1318 198.366 79.2207 198.653 79.2207C198.79 79.2207 198.922 79.2048 199.05 79.1729C199.177 79.141 199.285 79.1045 199.371 79.0635L199.645 79.918ZM209.816 79.583C209.493 79.7835 209.169 79.9294 208.846 80.0205C208.522 80.1162 208.169 80.1641 207.786 80.1641C206.802 80.1641 205.993 79.8587 205.359 79.248C204.73 78.6374 204.416 77.7715 204.416 76.6504C204.416 75.5111 204.733 74.5905 205.366 73.8887C206.004 73.1868 206.879 72.8359 207.991 72.8359C208.351 72.8359 208.693 72.8792 209.017 72.9658C209.345 73.0524 209.675 73.1937 210.008 73.3896L209.536 74.21C209.276 74.0641 209.021 73.957 208.771 73.8887C208.52 73.8203 208.246 73.7861 207.95 73.7861C207.18 73.7861 206.59 74.0436 206.18 74.5586C205.77 75.0736 205.564 75.7275 205.564 76.5205C205.564 77.3955 205.779 78.0632 206.207 78.5234C206.64 78.9837 207.198 79.2139 207.882 79.2139C208.105 79.2139 208.338 79.1797 208.579 79.1113C208.825 79.0384 209.071 78.9268 209.317 78.7764L209.816 79.583ZM214.287 80.1641C213.253 80.1641 212.425 79.8382 211.806 79.1865C211.19 78.5303 210.883 77.6621 210.883 76.582C210.883 75.4108 211.202 74.4948 211.84 73.834C212.478 73.1732 213.348 72.8405 214.451 72.8359C215.495 72.8314 216.308 73.1527 216.892 73.7998C217.479 74.4469 217.773 75.3379 217.773 76.4727C217.773 77.5938 217.457 78.4893 216.823 79.1592C216.194 79.8291 215.349 80.1641 214.287 80.1641ZM214.369 79.2207C215.094 79.2207 215.65 78.986 216.037 78.5166C216.429 78.0426 216.625 77.375 216.625 76.5137C216.625 75.6341 216.429 74.9596 216.037 74.4902C215.645 74.0163 215.089 73.7793 214.369 73.7793C213.649 73.7793 213.079 74.0254 212.66 74.5176C212.241 75.0098 212.031 75.6842 212.031 76.541C212.031 77.3704 212.243 78.0244 212.667 78.5029C213.091 78.9814 213.658 79.2207 214.369 79.2207ZM229.504 80H228.383V75.9805C228.383 75.2057 228.262 74.6452 228.021 74.2988C227.784 73.9525 227.382 73.7793 226.817 73.7793C226.339 73.7793 225.931 73.998 225.594 74.4355C225.261 74.873 225.095 75.3971 225.095 76.0078V80H223.974V75.8438C223.974 75.1556 223.841 74.6406 223.577 74.2988C223.313 73.9525 222.914 73.7793 222.381 73.7793C221.889 73.7793 221.483 73.9867 221.164 74.4014C220.845 74.8115 220.686 75.347 220.686 76.0078V80H219.564V73H220.686V74.1074H220.713C220.964 73.6836 221.269 73.3669 221.629 73.1572C221.993 72.943 222.413 72.8359 222.887 72.8359C223.365 72.8359 223.782 72.9704 224.138 73.2393C224.493 73.5036 224.737 73.8522 224.869 74.2852C225.129 73.8021 225.452 73.4398 225.84 73.1982C226.227 72.9567 226.678 72.8359 227.193 72.8359C227.964 72.8359 228.54 73.0729 228.923 73.5469C229.31 74.0208 229.504 74.734 229.504 75.6865V80ZM241.562 80H240.441V75.9805C240.441 75.2057 240.321 74.6452 240.079 74.2988C239.842 73.9525 239.441 73.7793 238.876 73.7793C238.397 73.7793 237.99 73.998 237.652 74.4355C237.32 74.873 237.153 75.3971 237.153 76.0078V80H236.032V75.8438C236.032 75.1556 235.9 74.6406 235.636 74.2988C235.371 73.9525 234.973 73.7793 234.439 73.7793C233.947 73.7793 233.542 73.9867 233.223 74.4014C232.904 74.8115 232.744 75.347 232.744 76.0078V80H231.623V73H232.744V74.1074H232.771C233.022 73.6836 233.327 73.3669 233.688 73.1572C234.052 72.943 234.471 72.8359 234.945 72.8359C235.424 72.8359 235.841 72.9704 236.196 73.2393C236.552 73.5036 236.796 73.8522 236.928 74.2852C237.188 73.8021 237.511 73.4398 237.898 73.1982C238.286 72.9567 238.737 72.8359 239.252 72.8359C240.022 72.8359 240.599 73.0729 240.981 73.5469C241.369 74.0208 241.562 74.734 241.562 75.6865V80ZM246.607 80.1641C245.573 80.1641 244.746 79.8382 244.126 79.1865C243.511 78.5303 243.203 77.6621 243.203 76.582C243.203 75.4108 243.522 74.4948 244.16 73.834C244.798 73.1732 245.669 72.8405 246.771 72.8359C247.815 72.8314 248.629 73.1527 249.212 73.7998C249.8 74.4469 250.094 75.3379 250.094 76.4727C250.094 77.5938 249.777 78.4893 249.144 79.1592C248.515 79.8291 247.669 80.1641 246.607 80.1641ZM246.689 79.2207C247.414 79.2207 247.97 78.986 248.357 78.5166C248.749 78.0426 248.945 77.375 248.945 76.5137C248.945 75.6341 248.749 74.9596 248.357 74.4902C247.965 74.0163 247.41 73.7793 246.689 73.7793C245.969 73.7793 245.4 74.0254 244.98 74.5176C244.561 75.0098 244.352 75.6842 244.352 76.541C244.352 77.3704 244.563 78.0244 244.987 78.5029C245.411 78.9814 245.979 79.2207 246.689 79.2207ZM256.711 78.8105C256.451 79.2617 256.121 79.6012 255.72 79.8291C255.323 80.0524 254.852 80.1641 254.305 80.1641C253.425 80.1641 252.721 79.8519 252.192 79.2275C251.668 78.5986 251.406 77.7441 251.406 76.6641C251.406 75.5065 251.698 74.5791 252.281 73.8818C252.865 73.1846 253.642 72.8359 254.612 72.8359C255.095 72.8359 255.51 72.9316 255.856 73.123C256.207 73.3099 256.492 73.5924 256.711 73.9707H256.738V69.6367H257.859V80H256.738V78.8105H256.711ZM252.555 76.6094C252.555 77.416 252.742 78.054 253.115 78.5234C253.493 78.9883 253.999 79.2207 254.633 79.2207C255.262 79.2207 255.77 78.9951 256.157 78.5439C256.545 78.0928 256.738 77.5231 256.738 76.835V75.8027C256.738 75.2376 256.549 74.7591 256.171 74.3672C255.797 73.9753 255.326 73.7793 254.756 73.7793C254.072 73.7793 253.535 74.0299 253.143 74.5312C252.751 75.0326 252.555 75.7253 252.555 76.6094ZM263.055 80.1641C262.02 80.1641 261.193 79.8382 260.573 79.1865C259.958 78.5303 259.65 77.6621 259.65 76.582C259.65 75.4108 259.969 74.4948 260.607 73.834C261.245 73.1732 262.116 72.8405 263.219 72.8359C264.262 72.8314 265.076 73.1527 265.659 73.7998C266.247 74.4469 266.541 75.3379 266.541 76.4727C266.541 77.5938 266.224 78.4893 265.591 79.1592C264.962 79.8291 264.117 80.1641 263.055 80.1641ZM263.137 79.2207C263.861 79.2207 264.417 78.986 264.805 78.5166C265.197 78.0426 265.393 77.375 265.393 76.5137C265.393 75.6341 265.197 74.9596 264.805 74.4902C264.413 74.0163 263.857 73.7793 263.137 73.7793C262.417 73.7793 261.847 74.0254 261.428 74.5176C261.008 75.0098 260.799 75.6842 260.799 76.541C260.799 77.3704 261.011 78.0244 261.435 78.5029C261.858 78.9814 262.426 79.2207 263.137 79.2207ZM268.715 80.1504C268.496 80.1504 268.309 80.0752 268.154 79.9248C267.999 79.7699 267.922 79.5853 267.922 79.3711C267.922 79.1615 267.999 78.9792 268.154 78.8242C268.309 78.6693 268.496 78.5918 268.715 78.5918C268.934 78.5918 269.12 78.6693 269.275 78.8242C269.43 78.9792 269.508 79.1615 269.508 79.3711C269.508 79.5853 269.43 79.7699 269.275 79.9248C269.12 80.0752 268.934 80.1504 268.715 80.1504Z" fill="white"/>
<path d="M25 137C25 134.791 26.7909 133 29 133H153C155.209 133 157 134.791 157 137V161C157 163.209 155.209 165 153 165H29C26.7909 165 25 163.209 25 161V137Z" fill="#60CDFF"/>
<path d="M85.832 145.236H83.002V154H81.8535V145.236H79.0303V144.197H85.832V145.236ZM91.499 150.753H86.5498C86.568 151.541 86.7754 152.15 87.1719 152.578C87.5729 153.002 88.1335 153.214 88.8535 153.214C89.168 153.214 89.4824 153.168 89.7969 153.077C90.1159 152.981 90.4303 152.831 90.7402 152.626L91.2598 153.426C90.8633 153.681 90.4668 153.868 90.0703 153.986C89.6738 154.105 89.2386 154.164 88.7646 154.164C87.7074 154.164 86.8825 153.85 86.29 153.221C85.6976 152.592 85.3991 151.715 85.3945 150.589C85.39 149.463 85.6862 148.556 86.2832 147.868C86.8848 147.18 87.6641 146.836 88.6211 146.836C89.5326 146.836 90.2389 147.134 90.7402 147.731C91.2461 148.324 91.499 149.146 91.499 150.199V150.753ZM90.3506 149.837C90.346 149.19 90.1888 148.686 89.8789 148.326C89.569 147.962 89.1429 147.779 88.6006 147.779C88.0674 147.779 87.6139 147.966 87.2402 148.34C86.8711 148.709 86.6455 149.208 86.5635 149.837H90.3506ZM98.3145 147L95.9629 150.541L98.2734 154H96.9678L95.5938 151.73C95.5482 151.658 95.5003 151.578 95.4502 151.491C95.4001 151.405 95.3454 151.307 95.2861 151.197H95.2588C95.2451 151.215 95.2109 151.27 95.1562 151.361C95.1061 151.452 95.0332 151.576 94.9375 151.73L93.5361 154H92.2441L94.6299 150.568L92.3467 147H93.6523L95.0059 149.393C95.056 149.484 95.1038 149.575 95.1494 149.666C95.1995 149.757 95.2497 149.848 95.2998 149.939H95.3271C95.3818 149.848 95.4365 149.757 95.4912 149.666C95.5459 149.575 95.6006 149.484 95.6553 149.393L97.0771 147H98.3145ZM102.963 153.918C102.771 153.995 102.582 154.052 102.396 154.089C102.213 154.13 102.006 154.15 101.773 154.15C101.217 154.15 100.78 153.989 100.461 153.665C100.146 153.337 99.9893 152.854 99.9893 152.216V147.957H98.7861V147H99.9893V145.291L101.11 144.929V147H102.874V147.957H101.11V152.086C101.11 152.487 101.181 152.776 101.322 152.954C101.468 153.132 101.685 153.221 101.972 153.221C102.108 153.221 102.241 153.205 102.368 153.173C102.496 153.141 102.603 153.104 102.689 153.063L102.963 153.918Z" fill="black"/>
<path d="M29 134H153V132H29V134ZM156 137V161H158V137H156ZM153 164H29V166H153V164ZM26 161V137H24V161H26ZM29 164C27.3431 164 26 162.657 26 161H24C24 163.761 26.2386 166 29 166V164ZM156 161C156 162.657 154.657 164 153 164V166C155.761 166 158 163.761 158 161H156ZM153 134C154.657 134 156 135.343 156 137H158C158 134.239 155.761 132 153 132V134ZM29 132C26.2386 132 24 134.239 24 137H26C26 135.343 27.3431 134 29 134V132Z" fill="url(#paint0_linear)"/>
<rect x="165.5" y="133.5" width="131" height="31" rx="3.5" fill="white" fill-opacity="0.0605"/>
<path d="M225.832 145.236H223.002V154H221.854V145.236H219.03V144.197H225.832V145.236ZM231.499 150.753H226.55C226.568 151.541 226.775 152.15 227.172 152.578C227.573 153.002 228.133 153.214 228.854 153.214C229.168 153.214 229.482 153.168 229.797 153.077C230.116 152.981 230.43 152.831 230.74 152.626L231.26 153.426C230.863 153.681 230.467 153.868 230.07 153.986C229.674 154.105 229.239 154.164 228.765 154.164C227.707 154.164 226.882 153.85 226.29 153.221C225.698 152.592 225.399 151.715 225.395 150.589C225.39 149.463 225.686 148.556 226.283 147.868C226.885 147.18 227.664 146.836 228.621 146.836C229.533 146.836 230.239 147.134 230.74 147.731C231.246 148.324 231.499 149.146 231.499 150.199V150.753ZM230.351 149.837C230.346 149.19 230.189 148.686 229.879 148.326C229.569 147.962 229.143 147.779 228.601 147.779C228.067 147.779 227.614 147.966 227.24 148.34C226.871 148.709 226.646 149.208 226.563 149.837H230.351ZM238.314 147L235.963 150.541L238.273 154H236.968L235.594 151.73C235.548 151.658 235.5 151.578 235.45 151.491C235.4 151.405 235.345 151.307 235.286 151.197H235.259C235.245 151.215 235.211 151.27 235.156 151.361C235.106 151.452 235.033 151.576 234.938 151.73L233.536 154H232.244L234.63 150.568L232.347 147H233.652L235.006 149.393C235.056 149.484 235.104 149.575 235.149 149.666C235.2 149.757 235.25 149.848 235.3 149.939H235.327C235.382 149.848 235.437 149.757 235.491 149.666C235.546 149.575 235.601 149.484 235.655 149.393L237.077 147H238.314ZM242.963 153.918C242.771 153.995 242.582 154.052 242.396 154.089C242.213 154.13 242.006 154.15 241.773 154.15C241.217 154.15 240.78 153.989 240.461 153.665C240.146 153.337 239.989 152.854 239.989 152.216V147.957H238.786V147H239.989V145.291L241.11 144.929V147H242.874V147.957H241.11V152.086C241.11 152.487 241.181 152.776 241.322 152.954C241.468 153.132 241.685 153.221 241.972 153.221C242.108 153.221 242.241 153.205 242.368 153.173C242.496 153.141 242.603 153.104 242.689 153.063L242.963 153.918Z" fill="white"/>
<rect x="165.5" y="133.5" width="131" height="31" rx="3.5" stroke="url(#paint1_linear)"/>
<defs>
<linearGradient id="paint0_linear" x1="91" y1="133" x2="91" y2="165" gradientUnits="userSpaceOnUse">
<stop offset="0.906738" stop-color="white" stop-opacity="0.08"/>
<stop offset="1" stop-opacity="0.14"/>
</linearGradient>
<linearGradient id="paint1_linear" x1="231" y1="134" x2="231" y2="164" gradientUnits="userSpaceOnUse">
<stop stop-color="white" stop-opacity="0.093"/>
<stop offset="0.0957031" stop-color="white" stop-opacity="0.0698"/>
</linearGradient>
</defs>
</svg>
