<svg class="ContentDialog" width="322" height="190" viewBox="0 0 322 190" fill="none" xmlns="http://www.w3.org/2000/svg">
<rect x="1" y="1" width="320" height="188" rx="7" fill="#F3F3F3"/>
<g style="mix-blend-mode:multiply">
<rect x="1" y="1" width="320" height="188" rx="7" fill="white"/>
</g>
<rect x="0.5" y="0.5" width="321" height="189" rx="7.5" stroke="black" stroke-opacity="0.0578"/>
<path d="M1 8C1 4.13401 4.13401 1 8 1H314C317.866 1 321 4.13401 321 8V108H1V8Z" fill="white"/>
<line x1="1" y1="108.5" x2="321" y2="108.5" stroke="black" stroke-opacity="0.0578"/>
<path d="M35.4004 34.9688H31.4844V47H29.1602V34.9688H25.2539V32.9961H35.4004V34.9688ZM38.3594 35.1738C37.9297 35.1738 37.5781 35.0371 37.3047 34.7637C37.0378 34.4837 36.9043 34.1484 36.9043 33.7578C36.9043 33.3607 37.0378 33.0254 37.3047 32.752C37.5781 32.4785 37.9297 32.3418 38.3594 32.3418C38.7956 32.3418 39.1471 32.4785 39.4141 32.752C39.6875 33.0254 39.8242 33.3607 39.8242 33.7578C39.8242 34.1615 39.6875 34.5 39.4141 34.7734C39.1471 35.0404 38.7956 35.1738 38.3594 35.1738ZM39.4922 47H37.2168V37H39.4922V47ZM48.1348 46.3262C47.8353 46.6126 47.487 46.834 47.0898 46.9902C46.6927 47.1465 46.2467 47.2246 45.752 47.2246C44.8014 47.2246 44.082 46.987 43.5938 46.5117C43.112 46.0299 42.8711 45.3268 42.8711 44.4023V38.7773H41.1914V37H42.8711V34.5488L45.1367 34.1484V37H47.6855V38.7773H45.1367V44.3242C45.1367 44.7214 45.2148 45.0143 45.3711 45.2031C45.5339 45.3919 45.778 45.4863 46.1035 45.4863C46.2728 45.4863 46.4388 45.4538 46.6016 45.3887C46.7643 45.3236 46.9368 45.1966 47.1191 45.0078L48.1348 46.3262ZM49.8926 47V32.1953H52.168V47H49.8926ZM63.4863 42.5566H56.582C56.6016 43.5202 56.862 44.2461 57.3633 44.7344C57.8711 45.2161 58.4928 45.457 59.2285 45.457C59.7493 45.457 60.2116 45.3366 60.6152 45.0957C61.0189 44.8483 61.3607 44.4837 61.6406 44.002L63.3887 44.9492C62.9329 45.6784 62.3503 46.2415 61.6406 46.6387C60.9375 47.0358 60.1074 47.2344 59.1504 47.2344C57.679 47.2344 56.5007 46.7917 55.6152 45.9062C54.7298 45.0208 54.2871 43.748 54.2871 42.0879C54.2871 40.5059 54.7396 39.2233 55.6445 38.2402C56.556 37.2572 57.6953 36.7656 59.0625 36.7656C60.4688 36.7656 61.556 37.1855 62.3242 38.0254C63.099 38.8652 63.4863 40.0827 63.4863 41.6777V42.5566ZM61.2891 40.9355C61.2891 40.1543 61.0938 39.5488 60.7031 39.1191C60.3125 38.6895 59.7786 38.4746 59.1016 38.4746C58.3919 38.4746 57.8158 38.7122 57.373 39.1875C56.9303 39.6562 56.6634 40.2389 56.5723 40.9355H61.2891Z" fill="black" fill-opacity="0.8956"/>
<path d="M31.3711 81H26.2852V71.1973H27.4336V79.9609H31.3711V81ZM35.6504 81.1641C34.6159 81.1641 33.7887 80.8382 33.1689 80.1865C32.5537 79.5303 32.2461 78.6621 32.2461 77.582C32.2461 76.4108 32.5651 75.4948 33.2031 74.834C33.8411 74.1732 34.7116 73.8405 35.8145 73.8359C36.8581 73.8314 37.6715 74.1527 38.2549 74.7998C38.8428 75.4469 39.1367 76.3379 39.1367 77.4727C39.1367 78.5938 38.82 79.4893 38.1865 80.1592C37.5576 80.8291 36.7122 81.1641 35.6504 81.1641ZM35.7324 80.2207C36.457 80.2207 37.013 79.986 37.4004 79.5166C37.7923 79.0426 37.9883 78.375 37.9883 77.5137C37.9883 76.6341 37.7923 75.9596 37.4004 75.4902C37.0085 75.0163 36.4525 74.7793 35.7324 74.7793C35.0124 74.7793 34.4427 75.0254 34.0234 75.5176C33.6042 76.0098 33.3945 76.6842 33.3945 77.541C33.3945 78.3704 33.6064 79.0244 34.0303 79.5029C34.4541 79.9814 35.0215 80.2207 35.7324 80.2207ZM44.3799 74.957C44.2933 74.9297 44.2158 74.9115 44.1475 74.9023C44.0791 74.8887 43.9925 74.8818 43.8877 74.8818C43.318 74.8818 42.8691 75.1257 42.541 75.6133C42.2129 76.0964 42.0488 76.7025 42.0488 77.4316V81H40.9277V74H42.0488V75.3877H42.0762C42.2357 74.8955 42.4795 74.5218 42.8076 74.2666C43.1357 74.0068 43.514 73.877 43.9424 73.877C44.0837 73.877 44.2021 73.8838 44.2979 73.8975C44.3981 73.9111 44.487 73.9316 44.5645 73.959L44.3799 74.957ZM51.4209 77.7529H46.4717C46.4899 78.5413 46.6973 79.1497 47.0938 79.5781C47.4948 80.002 48.0553 80.2139 48.7754 80.2139C49.0898 80.2139 49.4043 80.1683 49.7188 80.0771C50.0378 79.9814 50.3522 79.8311 50.6621 79.626L51.1816 80.4258C50.7852 80.681 50.3887 80.8678 49.9922 80.9863C49.5957 81.1048 49.1605 81.1641 48.6865 81.1641C47.6292 81.1641 46.8044 80.8496 46.2119 80.2207C45.6195 79.5918 45.321 78.7145 45.3164 77.5889C45.3118 76.4632 45.6081 75.5563 46.2051 74.8682C46.8066 74.18 47.5859 73.8359 48.543 73.8359C49.4544 73.8359 50.1608 74.1344 50.6621 74.7314C51.168 75.3239 51.4209 76.1465 51.4209 77.1992V77.7529ZM50.2725 76.8369C50.2679 76.1898 50.1107 75.6862 49.8008 75.3262C49.4909 74.9616 49.0648 74.7793 48.5225 74.7793C47.9893 74.7793 47.5358 74.9661 47.1621 75.3398C46.793 75.709 46.5674 76.208 46.4854 76.8369H50.2725ZM63.0625 81H61.9414V76.9805C61.9414 76.2057 61.8206 75.6452 61.5791 75.2988C61.3421 74.9525 60.9411 74.7793 60.376 74.7793C59.8975 74.7793 59.4896 74.998 59.1523 75.4355C58.8197 75.873 58.6533 76.3971 58.6533 77.0078V81H57.5322V76.8438C57.5322 76.1556 57.4001 75.6406 57.1357 75.2988C56.8714 74.9525 56.4727 74.7793 55.9395 74.7793C55.4473 74.7793 55.0417 74.9867 54.7227 75.4014C54.4036 75.8115 54.2441 76.347 54.2441 77.0078V81H53.123V74H54.2441V75.1074H54.2715C54.5221 74.6836 54.8275 74.3669 55.1875 74.1572C55.5521 73.943 55.9714 73.8359 56.4453 73.8359C56.9238 73.8359 57.3408 73.9704 57.6963 74.2393C58.0518 74.5036 58.2956 74.8522 58.4277 75.2852C58.6875 74.8021 59.0111 74.4398 59.3984 74.1982C59.7858 73.9567 60.237 73.8359 60.752 73.8359C61.5221 73.8359 62.0986 74.0729 62.4814 74.5469C62.8688 75.0208 63.0625 75.734 63.0625 76.6865V81ZM69.5977 72.3252C69.3698 72.3252 69.1784 72.25 69.0234 72.0996C68.8685 71.9447 68.791 71.7555 68.791 71.5322C68.791 71.3089 68.8685 71.1221 69.0234 70.9717C69.1784 70.8167 69.3698 70.7393 69.5977 70.7393C69.8255 70.7393 70.0169 70.8167 70.1719 70.9717C70.3268 71.1221 70.4043 71.3089 70.4043 71.5322C70.4043 71.7555 70.3268 71.9447 70.1719 72.0996C70.0169 72.25 69.8255 72.3252 69.5977 72.3252ZM70.1445 81H69.0234V74H70.1445V81ZM73.5625 79.9883H73.5352V84.2197H72.4141V74H73.5352V75.2305H73.5625C73.8405 74.7656 74.18 74.417 74.5811 74.1846C74.9867 73.9521 75.4538 73.8359 75.9824 73.8359C76.8848 73.8359 77.5889 74.1504 78.0947 74.7793C78.6006 75.4036 78.8535 76.2422 78.8535 77.2949C78.8535 78.4661 78.5687 79.4049 77.999 80.1113C77.4294 80.8132 76.6501 81.1641 75.6611 81.1641C75.21 81.1641 74.8089 81.0661 74.458 80.8701C74.1071 80.6742 73.8086 80.3802 73.5625 79.9883ZM73.5352 77.165V78.1426C73.5352 78.7214 73.722 79.2135 74.0957 79.6191C74.474 80.0202 74.9525 80.2207 75.5312 80.2207C76.2103 80.2207 76.7412 79.9609 77.124 79.4414C77.5114 78.9219 77.7051 78.1995 77.7051 77.2744C77.7051 76.4951 77.5251 75.8844 77.165 75.4424C76.805 75.0003 76.3174 74.7793 75.7021 74.7793C75.0505 74.7793 74.5264 75.0072 74.1299 75.4629C73.7334 75.9141 73.5352 76.4814 73.5352 77.165ZM79.9883 80.4736L80.5215 79.6123C80.8268 79.8128 81.1253 79.9655 81.417 80.0703C81.7087 80.1706 82.0231 80.2207 82.3604 80.2207C82.8389 80.2207 83.2012 80.1318 83.4473 79.9541C83.6979 79.7764 83.8232 79.5098 83.8232 79.1543C83.8232 78.8672 83.7116 78.6257 83.4883 78.4297C83.2695 78.2292 82.9255 78.0697 82.4561 77.9512C81.5811 77.7279 80.9818 77.4476 80.6582 77.1104C80.3346 76.7686 80.1729 76.3493 80.1729 75.8525C80.1729 75.2783 80.3893 74.7998 80.8223 74.417C81.2552 74.0296 81.859 73.8359 82.6338 73.8359C83.0075 73.8359 83.363 73.8838 83.7002 73.9795C84.0374 74.0752 84.3815 74.2393 84.7324 74.4717L84.2334 75.3193C83.9144 75.1188 83.6273 74.9798 83.3721 74.9023C83.1214 74.8203 82.8662 74.7793 82.6064 74.7793C82.1553 74.7793 81.8112 74.8636 81.5742 75.0322C81.3372 75.1963 81.2188 75.4355 81.2188 75.75C81.2188 76.0645 81.3395 76.3014 81.5811 76.4609C81.8271 76.6204 82.2214 76.7708 82.7637 76.9121C83.4746 77.1035 84.0055 77.3724 84.3564 77.7188C84.7119 78.0605 84.8896 78.5094 84.8896 79.0654C84.8896 79.7126 84.6595 80.2253 84.1992 80.6035C83.7435 80.9772 83.1169 81.1641 82.3193 81.1641C81.891 81.1641 81.4785 81.1048 81.082 80.9863C80.6901 80.8678 80.3255 80.6969 79.9883 80.4736ZM92.252 81H91.1309V79.8926H91.1035C90.8711 80.3164 90.5749 80.6354 90.2148 80.8496C89.8548 81.0592 89.431 81.1641 88.9434 81.1641C88.1094 81.1641 87.4827 80.9157 87.0635 80.4189C86.6488 79.9222 86.4414 79.1771 86.4414 78.1836V74H87.5557V78.0059C87.5557 78.7441 87.6969 79.2979 87.9795 79.667C88.262 80.0361 88.6859 80.2207 89.251 80.2207C89.7979 80.2207 90.2467 80.0202 90.5977 79.6191C90.9531 79.2135 91.1309 78.6849 91.1309 78.0332V74H92.252V81ZM104.461 81H103.34V76.9805C103.34 76.2057 103.219 75.6452 102.978 75.2988C102.741 74.9525 102.34 74.7793 101.774 74.7793C101.296 74.7793 100.888 74.998 100.551 75.4355C100.218 75.873 100.052 76.3971 100.052 77.0078V81H98.9307V76.8438C98.9307 76.1556 98.7985 75.6406 98.5342 75.2988C98.2699 74.9525 97.8711 74.7793 97.3379 74.7793C96.8457 74.7793 96.4401 74.9867 96.1211 75.4014C95.8021 75.8115 95.6426 76.347 95.6426 77.0078V81H94.5215V74H95.6426V75.1074H95.6699C95.9206 74.6836 96.2259 74.3669 96.5859 74.1572C96.9505 73.943 97.3698 73.8359 97.8438 73.8359C98.3223 73.8359 98.7393 73.9704 99.0947 74.2393C99.4502 74.5036 99.694 74.8522 99.8262 75.2852C100.086 74.8021 100.41 74.4398 100.797 74.1982C101.184 73.9567 101.635 73.8359 102.15 73.8359C102.921 73.8359 103.497 74.0729 103.88 74.5469C104.267 75.0208 104.461 75.734 104.461 76.6865V81ZM115.248 79.8105C114.988 80.2617 114.658 80.6012 114.257 80.8291C113.86 81.0524 113.389 81.1641 112.842 81.1641C111.962 81.1641 111.258 80.8519 110.729 80.2275C110.205 79.5986 109.943 78.7441 109.943 77.6641C109.943 76.5065 110.235 75.5791 110.818 74.8818C111.402 74.1846 112.179 73.8359 113.149 73.8359C113.632 73.8359 114.047 73.9316 114.394 74.123C114.744 74.3099 115.029 74.5924 115.248 74.9707H115.275V70.6367H116.396V81H115.275V79.8105H115.248ZM111.092 77.6094C111.092 78.416 111.279 79.054 111.652 79.5234C112.031 79.9883 112.536 80.2207 113.17 80.2207C113.799 80.2207 114.307 79.9951 114.694 79.5439C115.082 79.0928 115.275 78.5231 115.275 77.835V76.8027C115.275 76.2376 115.086 75.7591 114.708 75.3672C114.334 74.9753 113.863 74.7793 113.293 74.7793C112.609 74.7793 112.072 75.0299 111.68 75.5312C111.288 76.0326 111.092 76.7253 111.092 77.6094ZM124.326 81H123.205V79.8926H123.178C122.945 80.3164 122.649 80.6354 122.289 80.8496C121.929 81.0592 121.505 81.1641 121.018 81.1641C120.184 81.1641 119.557 80.9157 119.138 80.4189C118.723 79.9222 118.516 79.1771 118.516 78.1836V74H119.63V78.0059C119.63 78.7441 119.771 79.2979 120.054 79.667C120.336 80.0361 120.76 80.2207 121.325 80.2207C121.872 80.2207 122.321 80.0202 122.672 79.6191C123.027 79.2135 123.205 78.6849 123.205 78.0332V74H124.326V81ZM127.17 72.3252C126.942 72.3252 126.751 72.25 126.596 72.0996C126.441 71.9447 126.363 71.7555 126.363 71.5322C126.363 71.3089 126.441 71.1221 126.596 70.9717C126.751 70.8167 126.942 70.7393 127.17 70.7393C127.398 70.7393 127.589 70.8167 127.744 70.9717C127.899 71.1221 127.977 71.3089 127.977 71.5322C127.977 71.7555 127.899 71.9447 127.744 72.0996C127.589 72.25 127.398 72.3252 127.17 72.3252ZM127.717 81H126.596V74H127.717V81ZM129.33 80.4736L129.863 79.6123C130.169 79.8128 130.467 79.9655 130.759 80.0703C131.05 80.1706 131.365 80.2207 131.702 80.2207C132.181 80.2207 132.543 80.1318 132.789 79.9541C133.04 79.7764 133.165 79.5098 133.165 79.1543C133.165 78.8672 133.053 78.6257 132.83 78.4297C132.611 78.2292 132.267 78.0697 131.798 77.9512C130.923 77.7279 130.324 77.4476 130 77.1104C129.676 76.7686 129.515 76.3493 129.515 75.8525C129.515 75.2783 129.731 74.7998 130.164 74.417C130.597 74.0296 131.201 73.8359 131.976 73.8359C132.349 73.8359 132.705 73.8838 133.042 73.9795C133.379 74.0752 133.723 74.2393 134.074 74.4717L133.575 75.3193C133.256 75.1188 132.969 74.9798 132.714 74.9023C132.463 74.8203 132.208 74.7793 131.948 74.7793C131.497 74.7793 131.153 74.8636 130.916 75.0322C130.679 75.1963 130.561 75.4355 130.561 75.75C130.561 76.0645 130.681 76.3014 130.923 76.4609C131.169 76.6204 131.563 76.7708 132.105 76.9121C132.816 77.1035 133.347 77.3724 133.698 77.7188C134.054 78.0605 134.231 78.5094 134.231 79.0654C134.231 79.7126 134.001 80.2253 133.541 80.6035C133.085 80.9772 132.459 81.1641 131.661 81.1641C131.233 81.1641 130.82 81.1048 130.424 80.9863C130.032 80.8678 129.667 80.6969 129.33 80.4736ZM149.715 81H148.594V76.9805C148.594 76.2057 148.473 75.6452 148.231 75.2988C147.994 74.9525 147.593 74.7793 147.028 74.7793C146.55 74.7793 146.142 74.998 145.805 75.4355C145.472 75.873 145.306 76.3971 145.306 77.0078V81H144.185V76.8438C144.185 76.1556 144.052 75.6406 143.788 75.2988C143.524 74.9525 143.125 74.7793 142.592 74.7793C142.1 74.7793 141.694 74.9867 141.375 75.4014C141.056 75.8115 140.896 76.347 140.896 77.0078V81H139.775V74H140.896V75.1074H140.924C141.174 74.6836 141.48 74.3669 141.84 74.1572C142.204 73.943 142.624 73.8359 143.098 73.8359C143.576 73.8359 143.993 73.9704 144.349 74.2393C144.704 74.5036 144.948 74.8522 145.08 75.2852C145.34 74.8021 145.663 74.4398 146.051 74.1982C146.438 73.9567 146.889 73.8359 147.404 73.8359C148.174 73.8359 148.751 74.0729 149.134 74.5469C149.521 75.0208 149.715 75.734 149.715 76.6865V81ZM154.76 81.1641C153.725 81.1641 152.898 80.8382 152.278 80.1865C151.663 79.5303 151.355 78.6621 151.355 77.582C151.355 76.4108 151.674 75.4948 152.312 74.834C152.951 74.1732 153.821 73.8405 154.924 73.8359C155.967 73.8314 156.781 74.1527 157.364 74.7998C157.952 75.4469 158.246 76.3379 158.246 77.4727C158.246 78.5938 157.929 79.4893 157.296 80.1592C156.667 80.8291 155.822 81.1641 154.76 81.1641ZM154.842 80.2207C155.566 80.2207 156.122 79.986 156.51 79.5166C156.902 79.0426 157.098 78.375 157.098 77.5137C157.098 76.6341 156.902 75.9596 156.51 75.4902C156.118 75.0163 155.562 74.7793 154.842 74.7793C154.122 74.7793 153.552 75.0254 153.133 75.5176C152.714 76.0098 152.504 76.6842 152.504 77.541C152.504 78.3704 152.716 79.0244 153.14 79.5029C153.563 79.9814 154.131 80.2207 154.842 80.2207ZM160.037 81V70.6367H161.158V81H160.037ZM163.428 81V70.6367H164.549V81H163.428ZM167.393 72.3252C167.165 72.3252 166.973 72.25 166.818 72.0996C166.663 71.9447 166.586 71.7555 166.586 71.5322C166.586 71.3089 166.663 71.1221 166.818 70.9717C166.973 70.8167 167.165 70.7393 167.393 70.7393C167.62 70.7393 167.812 70.8167 167.967 70.9717C168.122 71.1221 168.199 71.3089 168.199 71.5322C168.199 71.7555 168.122 71.9447 167.967 72.0996C167.812 72.25 167.62 72.3252 167.393 72.3252ZM167.939 81H166.818V74H167.939V81ZM169.553 80.4736L170.086 79.6123C170.391 79.8128 170.69 79.9655 170.981 80.0703C171.273 80.1706 171.588 80.2207 171.925 80.2207C172.403 80.2207 172.766 80.1318 173.012 79.9541C173.262 79.7764 173.388 79.5098 173.388 79.1543C173.388 78.8672 173.276 78.6257 173.053 78.4297C172.834 78.2292 172.49 78.0697 172.021 77.9512C171.146 77.7279 170.546 77.4476 170.223 77.1104C169.899 76.7686 169.737 76.3493 169.737 75.8525C169.737 75.2783 169.954 74.7998 170.387 74.417C170.82 74.0296 171.424 73.8359 172.198 73.8359C172.572 73.8359 172.927 73.8838 173.265 73.9795C173.602 74.0752 173.946 74.2393 174.297 74.4717L173.798 75.3193C173.479 75.1188 173.192 74.9798 172.937 74.9023C172.686 74.8203 172.431 74.7793 172.171 74.7793C171.72 74.7793 171.376 74.8636 171.139 75.0322C170.902 75.1963 170.783 75.4355 170.783 75.75C170.783 76.0645 170.904 76.3014 171.146 76.4609C171.392 76.6204 171.786 76.7708 172.328 76.9121C173.039 77.1035 173.57 77.3724 173.921 77.7188C174.276 78.0605 174.454 78.5094 174.454 79.0654C174.454 79.7126 174.224 80.2253 173.764 80.6035C173.308 80.9772 172.681 81.1641 171.884 81.1641C171.455 81.1641 171.043 81.1048 170.646 80.9863C170.255 80.8678 169.89 80.6969 169.553 80.4736ZM177.175 79.4414L176.088 82.8047H175.288L176.088 79.4414H177.175ZM188.659 77.7529H183.71C183.728 78.5413 183.936 79.1497 184.332 79.5781C184.733 80.002 185.294 80.2139 186.014 80.2139C186.328 80.2139 186.643 80.1683 186.957 80.0771C187.276 79.9814 187.59 79.8311 187.9 79.626L188.42 80.4258C188.023 80.681 187.627 80.8678 187.23 80.9863C186.834 81.1048 186.399 81.1641 185.925 81.1641C184.868 81.1641 184.043 80.8496 183.45 80.2207C182.858 79.5918 182.559 78.7145 182.555 77.5889C182.55 76.4632 182.846 75.5563 183.443 74.8682C184.045 74.18 184.824 73.8359 185.781 73.8359C186.693 73.8359 187.399 74.1344 187.9 74.7314C188.406 75.3239 188.659 76.1465 188.659 77.1992V77.7529ZM187.511 76.8369C187.506 76.1898 187.349 75.6862 187.039 75.3262C186.729 74.9616 186.303 74.7793 185.761 74.7793C185.228 74.7793 184.774 74.9661 184.4 75.3398C184.031 75.709 183.806 76.208 183.724 76.8369H187.511ZM189.705 80.4736L190.238 79.6123C190.544 79.8128 190.842 79.9655 191.134 80.0703C191.425 80.1706 191.74 80.2207 192.077 80.2207C192.556 80.2207 192.918 80.1318 193.164 79.9541C193.415 79.7764 193.54 79.5098 193.54 79.1543C193.54 78.8672 193.428 78.6257 193.205 78.4297C192.986 78.2292 192.642 78.0697 192.173 77.9512C191.298 77.7279 190.699 77.4476 190.375 77.1104C190.051 76.7686 189.89 76.3493 189.89 75.8525C189.89 75.2783 190.106 74.7998 190.539 74.417C190.972 74.0296 191.576 73.8359 192.351 73.8359C192.724 73.8359 193.08 73.8838 193.417 73.9795C193.754 74.0752 194.098 74.2393 194.449 74.4717L193.95 75.3193C193.631 75.1188 193.344 74.9798 193.089 74.9023C192.838 74.8203 192.583 74.7793 192.323 74.7793C191.872 74.7793 191.528 74.8636 191.291 75.0322C191.054 75.1963 190.936 75.4355 190.936 75.75C190.936 76.0645 191.056 76.3014 191.298 76.4609C191.544 76.6204 191.938 76.7708 192.48 76.9121C193.191 77.1035 193.722 77.3724 194.073 77.7188C194.429 78.0605 194.606 78.5094 194.606 79.0654C194.606 79.7126 194.376 80.2253 193.916 80.6035C193.46 80.9772 192.834 81.1641 192.036 81.1641C191.608 81.1641 191.195 81.1048 190.799 80.9863C190.407 80.8678 190.042 80.6969 189.705 80.4736ZM199.645 80.918C199.453 80.9954 199.264 81.0524 199.077 81.0889C198.895 81.1299 198.688 81.1504 198.455 81.1504C197.899 81.1504 197.462 80.9886 197.143 80.665C196.828 80.3369 196.671 79.8538 196.671 79.2158V74.957H195.468V74H196.671V72.291L197.792 71.9287V74H199.556V74.957H197.792V79.0859C197.792 79.487 197.863 79.7764 198.004 79.9541C198.15 80.1318 198.366 80.2207 198.653 80.2207C198.79 80.2207 198.922 80.2048 199.05 80.1729C199.177 80.141 199.285 80.1045 199.371 80.0635L199.645 80.918ZM209.816 80.583C209.493 80.7835 209.169 80.9294 208.846 81.0205C208.522 81.1162 208.169 81.1641 207.786 81.1641C206.802 81.1641 205.993 80.8587 205.359 80.248C204.73 79.6374 204.416 78.7715 204.416 77.6504C204.416 76.5111 204.733 75.5905 205.366 74.8887C206.004 74.1868 206.879 73.8359 207.991 73.8359C208.351 73.8359 208.693 73.8792 209.017 73.9658C209.345 74.0524 209.675 74.1937 210.008 74.3896L209.536 75.21C209.276 75.0641 209.021 74.957 208.771 74.8887C208.52 74.8203 208.246 74.7861 207.95 74.7861C207.18 74.7861 206.59 75.0436 206.18 75.5586C205.77 76.0736 205.564 76.7275 205.564 77.5205C205.564 78.3955 205.779 79.0632 206.207 79.5234C206.64 79.9837 207.198 80.2139 207.882 80.2139C208.105 80.2139 208.338 80.1797 208.579 80.1113C208.825 80.0384 209.071 79.9268 209.317 79.7764L209.816 80.583ZM214.287 81.1641C213.253 81.1641 212.425 80.8382 211.806 80.1865C211.19 79.5303 210.883 78.6621 210.883 77.582C210.883 76.4108 211.202 75.4948 211.84 74.834C212.478 74.1732 213.348 73.8405 214.451 73.8359C215.495 73.8314 216.308 74.1527 216.892 74.7998C217.479 75.4469 217.773 76.3379 217.773 77.4727C217.773 78.5938 217.457 79.4893 216.823 80.1592C216.194 80.8291 215.349 81.1641 214.287 81.1641ZM214.369 80.2207C215.094 80.2207 215.65 79.986 216.037 79.5166C216.429 79.0426 216.625 78.375 216.625 77.5137C216.625 76.6341 216.429 75.9596 216.037 75.4902C215.645 75.0163 215.089 74.7793 214.369 74.7793C213.649 74.7793 213.079 75.0254 212.66 75.5176C212.241 76.0098 212.031 76.6842 212.031 77.541C212.031 78.3704 212.243 79.0244 212.667 79.5029C213.091 79.9814 213.658 80.2207 214.369 80.2207ZM229.504 81H228.383V76.9805C228.383 76.2057 228.262 75.6452 228.021 75.2988C227.784 74.9525 227.382 74.7793 226.817 74.7793C226.339 74.7793 225.931 74.998 225.594 75.4355C225.261 75.873 225.095 76.3971 225.095 77.0078V81H223.974V76.8438C223.974 76.1556 223.841 75.6406 223.577 75.2988C223.313 74.9525 222.914 74.7793 222.381 74.7793C221.889 74.7793 221.483 74.9867 221.164 75.4014C220.845 75.8115 220.686 76.347 220.686 77.0078V81H219.564V74H220.686V75.1074H220.713C220.964 74.6836 221.269 74.3669 221.629 74.1572C221.993 73.943 222.413 73.8359 222.887 73.8359C223.365 73.8359 223.782 73.9704 224.138 74.2393C224.493 74.5036 224.737 74.8522 224.869 75.2852C225.129 74.8021 225.452 74.4398 225.84 74.1982C226.227 73.9567 226.678 73.8359 227.193 73.8359C227.964 73.8359 228.54 74.0729 228.923 74.5469C229.31 75.0208 229.504 75.734 229.504 76.6865V81ZM241.562 81H240.441V76.9805C240.441 76.2057 240.321 75.6452 240.079 75.2988C239.842 74.9525 239.441 74.7793 238.876 74.7793C238.397 74.7793 237.99 74.998 237.652 75.4355C237.32 75.873 237.153 76.3971 237.153 77.0078V81H236.032V76.8438C236.032 76.1556 235.9 75.6406 235.636 75.2988C235.371 74.9525 234.973 74.7793 234.439 74.7793C233.947 74.7793 233.542 74.9867 233.223 75.4014C232.904 75.8115 232.744 76.347 232.744 77.0078V81H231.623V74H232.744V75.1074H232.771C233.022 74.6836 233.327 74.3669 233.688 74.1572C234.052 73.943 234.471 73.8359 234.945 73.8359C235.424 73.8359 235.841 73.9704 236.196 74.2393C236.552 74.5036 236.796 74.8522 236.928 75.2852C237.188 74.8021 237.511 74.4398 237.898 74.1982C238.286 73.9567 238.737 73.8359 239.252 73.8359C240.022 73.8359 240.599 74.0729 240.981 74.5469C241.369 75.0208 241.562 75.734 241.562 76.6865V81ZM246.607 81.1641C245.573 81.1641 244.746 80.8382 244.126 80.1865C243.511 79.5303 243.203 78.6621 243.203 77.582C243.203 76.4108 243.522 75.4948 244.16 74.834C244.798 74.1732 245.669 73.8405 246.771 73.8359C247.815 73.8314 248.629 74.1527 249.212 74.7998C249.8 75.4469 250.094 76.3379 250.094 77.4727C250.094 78.5938 249.777 79.4893 249.144 80.1592C248.515 80.8291 247.669 81.1641 246.607 81.1641ZM246.689 80.2207C247.414 80.2207 247.97 79.986 248.357 79.5166C248.749 79.0426 248.945 78.375 248.945 77.5137C248.945 76.6341 248.749 75.9596 248.357 75.4902C247.965 75.0163 247.41 74.7793 246.689 74.7793C245.969 74.7793 245.4 75.0254 244.98 75.5176C244.561 76.0098 244.352 76.6842 244.352 77.541C244.352 78.3704 244.563 79.0244 244.987 79.5029C245.411 79.9814 245.979 80.2207 246.689 80.2207ZM256.711 79.8105C256.451 80.2617 256.121 80.6012 255.72 80.8291C255.323 81.0524 254.852 81.1641 254.305 81.1641C253.425 81.1641 252.721 80.8519 252.192 80.2275C251.668 79.5986 251.406 78.7441 251.406 77.6641C251.406 76.5065 251.698 75.5791 252.281 74.8818C252.865 74.1846 253.642 73.8359 254.612 73.8359C255.095 73.8359 255.51 73.9316 255.856 74.123C256.207 74.3099 256.492 74.5924 256.711 74.9707H256.738V70.6367H257.859V81H256.738V79.8105H256.711ZM252.555 77.6094C252.555 78.416 252.742 79.054 253.115 79.5234C253.493 79.9883 253.999 80.2207 254.633 80.2207C255.262 80.2207 255.77 79.9951 256.157 79.5439C256.545 79.0928 256.738 78.5231 256.738 77.835V76.8027C256.738 76.2376 256.549 75.7591 256.171 75.3672C255.797 74.9753 255.326 74.7793 254.756 74.7793C254.072 74.7793 253.535 75.0299 253.143 75.5312C252.751 76.0326 252.555 76.7253 252.555 77.6094ZM263.055 81.1641C262.02 81.1641 261.193 80.8382 260.573 80.1865C259.958 79.5303 259.65 78.6621 259.65 77.582C259.65 76.4108 259.969 75.4948 260.607 74.834C261.245 74.1732 262.116 73.8405 263.219 73.8359C264.262 73.8314 265.076 74.1527 265.659 74.7998C266.247 75.4469 266.541 76.3379 266.541 77.4727C266.541 78.5938 266.224 79.4893 265.591 80.1592C264.962 80.8291 264.117 81.1641 263.055 81.1641ZM263.137 80.2207C263.861 80.2207 264.417 79.986 264.805 79.5166C265.197 79.0426 265.393 78.375 265.393 77.5137C265.393 76.6341 265.197 75.9596 264.805 75.4902C264.413 75.0163 263.857 74.7793 263.137 74.7793C262.417 74.7793 261.847 75.0254 261.428 75.5176C261.008 76.0098 260.799 76.6842 260.799 77.541C260.799 78.3704 261.011 79.0244 261.435 79.5029C261.858 79.9814 262.426 80.2207 263.137 80.2207ZM268.715 81.1504C268.496 81.1504 268.309 81.0752 268.154 80.9248C267.999 80.7699 267.922 80.5853 267.922 80.3711C267.922 80.1615 267.999 79.9792 268.154 79.8242C268.309 79.6693 268.496 79.5918 268.715 79.5918C268.934 79.5918 269.12 79.6693 269.275 79.8242C269.43 79.9792 269.508 80.1615 269.508 80.3711C269.508 80.5853 269.43 80.7699 269.275 80.9248C269.12 81.0752 268.934 81.1504 268.715 81.1504Z" fill="black" fill-opacity="0.8956"/>
<path d="M25 137C25 134.791 26.7909 133 29 133H153C155.209 133 157 134.791 157 137V161C157 163.209 155.209 165 153 165H29C26.7909 165 25 163.209 25 161V137Z" fill="#005FB8"/>
<path d="M85.832 145.236H83.002V154H81.8535V145.236H79.0303V144.197H85.832V145.236ZM91.499 150.753H86.5498C86.568 151.541 86.7754 152.15 87.1719 152.578C87.5729 153.002 88.1335 153.214 88.8535 153.214C89.168 153.214 89.4824 153.168 89.7969 153.077C90.1159 152.981 90.4303 152.831 90.7402 152.626L91.2598 153.426C90.8633 153.681 90.4668 153.868 90.0703 153.986C89.6738 154.105 89.2386 154.164 88.7646 154.164C87.7074 154.164 86.8825 153.85 86.29 153.221C85.6976 152.592 85.3991 151.715 85.3945 150.589C85.39 149.463 85.6862 148.556 86.2832 147.868C86.8848 147.18 87.6641 146.836 88.6211 146.836C89.5326 146.836 90.2389 147.134 90.7402 147.731C91.2461 148.324 91.499 149.146 91.499 150.199V150.753ZM90.3506 149.837C90.346 149.19 90.1888 148.686 89.8789 148.326C89.569 147.962 89.1429 147.779 88.6006 147.779C88.0674 147.779 87.6139 147.966 87.2402 148.34C86.8711 148.709 86.6455 149.208 86.5635 149.837H90.3506ZM98.3145 147L95.9629 150.541L98.2734 154H96.9678L95.5938 151.73C95.5482 151.658 95.5003 151.578 95.4502 151.491C95.4001 151.405 95.3454 151.307 95.2861 151.197H95.2588C95.2451 151.215 95.2109 151.27 95.1562 151.361C95.1061 151.452 95.0332 151.576 94.9375 151.73L93.5361 154H92.2441L94.6299 150.568L92.3467 147H93.6523L95.0059 149.393C95.056 149.484 95.1038 149.575 95.1494 149.666C95.1995 149.757 95.2497 149.848 95.2998 149.939H95.3271C95.3818 149.848 95.4365 149.757 95.4912 149.666C95.5459 149.575 95.6006 149.484 95.6553 149.393L97.0771 147H98.3145ZM102.963 153.918C102.771 153.995 102.582 154.052 102.396 154.089C102.213 154.13 102.006 154.15 101.773 154.15C101.217 154.15 100.78 153.989 100.461 153.665C100.146 153.337 99.9893 152.854 99.9893 152.216V147.957H98.7861V147H99.9893V145.291L101.11 144.929V147H102.874V147.957H101.11V152.086C101.11 152.487 101.181 152.776 101.322 152.954C101.468 153.132 101.685 153.221 101.972 153.221C102.108 153.221 102.241 153.205 102.368 153.173C102.496 153.141 102.603 153.104 102.689 153.063L102.963 153.918Z" fill="white"/>
<path d="M29 134H153V132H29V134ZM156 137V161H158V137H156ZM153 164H29V166H153V164ZM26 161V137H24V161H26ZM29 164C27.3431 164 26 162.657 26 161H24C24 163.761 26.2386 166 29 166V164ZM156 161C156 162.657 154.657 164 153 164V166C155.761 166 158 163.761 158 161H156ZM153 134C154.657 134 156 135.343 156 137H158C158 134.239 155.761 132 153 132V134ZM29 132C26.2386 132 24 134.239 24 137H26C26 135.343 27.3431 134 29 134V132Z" fill="url(#paint0_linear)"/>
<rect x="165.5" y="133.5" width="131" height="31" rx="3.5" fill="white" fill-opacity="0.7"/>
<path d="M225.832 145.236H223.002V154H221.854V145.236H219.03V144.197H225.832V145.236ZM231.499 150.753H226.55C226.568 151.541 226.775 152.15 227.172 152.578C227.573 153.002 228.133 153.214 228.854 153.214C229.168 153.214 229.482 153.168 229.797 153.077C230.116 152.981 230.43 152.831 230.74 152.626L231.26 153.426C230.863 153.681 230.467 153.868 230.07 153.986C229.674 154.105 229.239 154.164 228.765 154.164C227.707 154.164 226.882 153.85 226.29 153.221C225.698 152.592 225.399 151.715 225.395 150.589C225.39 149.463 225.686 148.556 226.283 147.868C226.885 147.18 227.664 146.836 228.621 146.836C229.533 146.836 230.239 147.134 230.74 147.731C231.246 148.324 231.499 149.146 231.499 150.199V150.753ZM230.351 149.837C230.346 149.19 230.189 148.686 229.879 148.326C229.569 147.962 229.143 147.779 228.601 147.779C228.067 147.779 227.614 147.966 227.24 148.34C226.871 148.709 226.646 149.208 226.563 149.837H230.351ZM238.314 147L235.963 150.541L238.273 154H236.968L235.594 151.73C235.548 151.658 235.5 151.578 235.45 151.491C235.4 151.405 235.345 151.307 235.286 151.197H235.259C235.245 151.215 235.211 151.27 235.156 151.361C235.106 151.452 235.033 151.576 234.938 151.73L233.536 154H232.244L234.63 150.568L232.347 147H233.652L235.006 149.393C235.056 149.484 235.104 149.575 235.149 149.666C235.2 149.757 235.25 149.848 235.3 149.939H235.327C235.382 149.848 235.437 149.757 235.491 149.666C235.546 149.575 235.601 149.484 235.655 149.393L237.077 147H238.314ZM242.963 153.918C242.771 153.995 242.582 154.052 242.396 154.089C242.213 154.13 242.006 154.15 241.773 154.15C241.217 154.15 240.78 153.989 240.461 153.665C240.146 153.337 239.989 152.854 239.989 152.216V147.957H238.786V147H239.989V145.291L241.11 144.929V147H242.874V147.957H241.11V152.086C241.11 152.487 241.181 152.776 241.322 152.954C241.468 153.132 241.685 153.221 241.972 153.221C242.108 153.221 242.241 153.205 242.368 153.173C242.496 153.141 242.603 153.104 242.689 153.063L242.963 153.918Z" fill="black" fill-opacity="0.8956"/>
<rect x="165.5" y="133.5" width="131" height="31" rx="3.5" stroke="url(#paint1_linear)"/>
<defs>
<linearGradient id="paint0_linear" x1="91" y1="133" x2="91" y2="165" gradientUnits="userSpaceOnUse">
<stop offset="0.906738" stop-color="white" stop-opacity="0.08"/>
<stop offset="1" stop-opacity="0.4"/>
</linearGradient>
<linearGradient id="paint1_linear" x1="231" y1="134" x2="231" y2="164" gradientUnits="userSpaceOnUse">
<stop offset="0.905762" stop-opacity="0.0578"/>
<stop offset="1" stop-opacity="0.1622"/>
</linearGradient>
</defs>
</svg>