<svg class="DatePicker" width="296" height="326" viewBox="0 0 296 326" fill="none" xmlns="http://www.w3.org/2000/svg" xmlns:xlink="http://www.w3.org/1999/xlink">
<g filter="url(#filter0_b)">
<rect x="1" y="1" width="294" height="324" rx="7" fill="#2C2C2C" fill-opacity="0.96" style="mix-blend-mode:luminosity"/>
<rect x="1" y="1" width="294" height="324" rx="7" fill="#2C2C2C" fill-opacity="0.15" style="mix-blend-mode:color"/>
<rect x="1" y="1" width="294" height="324" rx="7" fill="url(#pattern0)" fill-opacity="0.02"/>
</g>
<g style="mix-blend-mode:multiply">
<rect x="1" y="1" width="294" height="324" rx="7" fill="white"/>
</g>
<rect x="0.5" y="0.5" width="295" height="325" rx="7.5" stroke="black" stroke-opacity="0.2"/>
<rect x="5.5" y="124.5" width="285" height="35" rx="4.5" fill="#60CDFF" stroke="#60CDFF"/>
<line x1="135.5" y1="284" x2="135.5" y2="1" stroke="white" stroke-opacity="0.0837"/>
<line x1="215.5" y1="284" x2="215.5" y2="1" stroke="white" stroke-opacity="0.0837"/>
<path d="M16.1504 27L19.9102 17.1973H21.0996L24.873 27H23.6016L22.6104 24.375H18.3652L17.4287 27H16.1504ZM18.748 23.3428H22.2344L20.6484 19.043C20.6211 18.9746 20.596 18.8857 20.5732 18.7764C20.5505 18.667 20.5254 18.5371 20.498 18.3867H20.4707C20.4479 18.5234 20.4229 18.6465 20.3955 18.7559C20.3727 18.8652 20.3454 18.9609 20.3135 19.043L18.748 23.3428ZM31.832 27H30.7109V25.8926H30.6836C30.4512 26.3164 30.1549 26.6354 29.7949 26.8496C29.4349 27.0592 29.0111 27.1641 28.5234 27.1641C27.6895 27.1641 27.0628 26.9157 26.6436 26.4189C26.2288 25.9222 26.0215 25.1771 26.0215 24.1836V20H27.1357V24.0059C27.1357 24.7441 27.277 25.2979 27.5596 25.667C27.8421 26.0361 28.266 26.2207 28.8311 26.2207C29.3779 26.2207 29.8268 26.0202 30.1777 25.6191C30.5332 25.2135 30.7109 24.6849 30.7109 24.0332V20H31.832V27ZM40.0762 26.624C40.0762 27.8499 39.7617 28.7682 39.1328 29.3789C38.5085 29.9896 37.6517 30.2949 36.5625 30.2949C36.084 30.2949 35.6374 30.2493 35.2227 30.1582C34.8125 30.0671 34.3887 29.9189 33.9512 29.7139L34.3613 28.8525C34.7259 29.0212 35.0814 29.1442 35.4277 29.2217C35.7786 29.2992 36.1523 29.3379 36.5488 29.3379C37.2962 29.3379 37.8841 29.126 38.3125 28.7021C38.7409 28.2783 38.9551 27.6357 38.9551 26.7744V25.8242H38.9277C38.6634 26.2708 38.3307 26.6058 37.9297 26.8291C37.5286 27.0524 37.0592 27.1641 36.5215 27.1641C35.651 27.1641 34.9492 26.8542 34.416 26.2344C33.8874 25.61 33.623 24.7738 33.623 23.7256C33.623 22.5771 33.9147 21.6429 34.498 20.9229C35.0859 20.1982 35.863 19.8359 36.8291 19.8359C37.3031 19.8359 37.7132 19.9316 38.0596 20.123C38.4105 20.3099 38.6999 20.5924 38.9277 20.9707H38.9551V20H40.0762V26.624ZM38.9551 23.835V22.8027C38.9551 22.2467 38.766 21.7705 38.3877 21.374C38.014 20.9775 37.5469 20.7793 36.9863 20.7793C36.2982 20.7793 35.7559 21.0163 35.3594 21.4902C34.9674 21.9642 34.7715 22.6842 34.7715 23.6504C34.7715 24.4798 34.9538 25.1156 35.3184 25.5576C35.6829 25.9997 36.1865 26.2207 36.8291 26.2207C37.458 26.2207 37.9684 25.9974 38.3604 25.5508C38.7568 25.1042 38.9551 24.5322 38.9551 23.835ZM48.0059 27H46.8848V25.8926H46.8574C46.625 26.3164 46.3288 26.6354 45.9688 26.8496C45.6087 27.0592 45.1849 27.1641 44.6973 27.1641C43.8633 27.1641 43.2367 26.9157 42.8174 26.4189C42.4027 25.9222 42.1953 25.1771 42.1953 24.1836V20H43.3096V24.0059C43.3096 24.7441 43.4508 25.2979 43.7334 25.667C44.016 26.0361 44.4398 26.2207 45.0049 26.2207C45.5518 26.2207 46.0007 26.0202 46.3516 25.6191C46.707 25.2135 46.8848 24.6849 46.8848 24.0332V20H48.0059V27ZM49.6191 26.4736L50.1523 25.6123C50.4577 25.8128 50.7562 25.9655 51.0479 26.0703C51.3395 26.1706 51.654 26.2207 51.9912 26.2207C52.4697 26.2207 52.832 26.1318 53.0781 25.9541C53.3288 25.7764 53.4541 25.5098 53.4541 25.1543C53.4541 24.8672 53.3424 24.6257 53.1191 24.4297C52.9004 24.2292 52.5563 24.0697 52.0869 23.9512C51.2119 23.7279 50.6126 23.4476 50.2891 23.1104C49.9655 22.7686 49.8037 22.3493 49.8037 21.8525C49.8037 21.2783 50.0202 20.7998 50.4531 20.417C50.8861 20.0296 51.4899 19.8359 52.2646 19.8359C52.6383 19.8359 52.9938 19.8838 53.3311 19.9795C53.6683 20.0752 54.0124 20.2393 54.3633 20.4717L53.8643 21.3193C53.5452 21.1188 53.2581 20.9798 53.0029 20.9023C52.7523 20.8203 52.4971 20.7793 52.2373 20.7793C51.7861 20.7793 51.4421 20.8636 51.2051 21.0322C50.9681 21.1963 50.8496 21.4355 50.8496 21.75C50.8496 22.0645 50.9704 22.3014 51.2119 22.4609C51.458 22.6204 51.8522 22.7708 52.3945 22.9121C53.1055 23.1035 53.6364 23.3724 53.9873 23.7188C54.3428 24.0605 54.5205 24.5094 54.5205 25.0654C54.5205 25.7126 54.2904 26.2253 53.8301 26.6035C53.3743 26.9772 52.7477 27.1641 51.9502 27.1641C51.5218 27.1641 51.1094 27.1048 50.7129 26.9863C50.321 26.8678 49.9564 26.6969 49.6191 26.4736ZM59.5586 26.918C59.3672 26.9954 59.1781 27.0524 58.9912 27.0889C58.8089 27.1299 58.6016 27.1504 58.3691 27.1504C57.8132 27.1504 57.3757 26.9886 57.0566 26.665C56.7422 26.3369 56.585 25.8538 56.585 25.2158V20.957H55.3818V20H56.585V18.291L57.7061 17.9287V20H59.4697V20.957H57.7061V25.0859C57.7061 25.487 57.7767 25.7764 57.918 25.9541C58.0638 26.1318 58.2803 26.2207 58.5674 26.2207C58.7041 26.2207 58.8363 26.2048 58.9639 26.1729C59.0915 26.141 59.1986 26.1045 59.2852 26.0635L59.5586 26.918Z" fill="white"/>
<path d="M16.4375 66.248L16.998 65.3867C17.3991 65.6465 17.8001 65.8356 18.2012 65.9541C18.6022 66.0726 19.0693 66.1318 19.6025 66.1318C20.1995 66.1318 20.6895 65.9928 21.0723 65.7148C21.4596 65.4323 21.6533 65.0221 21.6533 64.4844C21.6533 64.0059 21.4893 63.623 21.1611 63.3359C20.8376 63.0488 20.3044 62.7708 19.5615 62.502C18.641 62.1693 17.9574 61.7956 17.5107 61.3809C17.0687 60.9616 16.8477 60.4102 16.8477 59.7266C16.8477 58.9245 17.1348 58.2751 17.709 57.7783C18.2878 57.2816 19.0465 57.0332 19.9854 57.0332C20.4229 57.0332 20.8512 57.0811 21.2705 57.1768C21.6898 57.2679 22.1227 57.4183 22.5693 57.6279L22.1387 58.5508C21.765 58.3776 21.4004 58.2523 21.0449 58.1748C20.694 58.0973 20.3135 58.0586 19.9033 58.0586C19.3154 58.0586 18.8506 58.1976 18.5088 58.4756C18.167 58.749 17.9961 59.1296 17.9961 59.6172C17.9961 60.0456 18.1533 60.3874 18.4678 60.6426C18.7822 60.8978 19.3063 61.1576 20.04 61.4219C21.0244 61.7773 21.7308 62.1738 22.1592 62.6113C22.5876 63.0488 22.8018 63.639 22.8018 64.3818C22.8018 65.1748 22.5146 65.8379 21.9404 66.3711C21.3662 66.8997 20.5596 67.1641 19.5205 67.1641C18.9372 67.1641 18.3994 67.0911 17.9072 66.9453C17.415 66.7995 16.9251 66.5671 16.4375 66.248ZM30.1982 63.7529H25.249C25.2673 64.5413 25.4746 65.1497 25.8711 65.5781C26.2721 66.002 26.8327 66.2139 27.5527 66.2139C27.8672 66.2139 28.1816 66.1683 28.4961 66.0771C28.8151 65.9814 29.1296 65.8311 29.4395 65.626L29.959 66.4258C29.5625 66.681 29.166 66.8678 28.7695 66.9863C28.373 67.1048 27.9378 67.1641 27.4639 67.1641C26.4066 67.1641 25.5817 66.8496 24.9893 66.2207C24.3968 65.5918 24.0983 64.7145 24.0938 63.5889C24.0892 62.4632 24.3854 61.5563 24.9824 60.8682C25.584 60.18 26.3633 59.8359 27.3203 59.8359C28.2318 59.8359 28.9382 60.1344 29.4395 60.7314C29.9453 61.3239 30.1982 62.1465 30.1982 63.1992V63.7529ZM29.0498 62.8369C29.0452 62.1898 28.888 61.6862 28.5781 61.3262C28.2682 60.9616 27.8421 60.7793 27.2998 60.7793C26.7666 60.7793 26.3132 60.9661 25.9395 61.3398C25.5703 61.709 25.3447 62.208 25.2627 62.8369H29.0498ZM33.0488 65.9883H33.0215V70.2197H31.9004V60H33.0215V61.2305H33.0488C33.3268 60.7656 33.6663 60.417 34.0674 60.1846C34.473 59.9521 34.9401 59.8359 35.4688 59.8359C36.3711 59.8359 37.0752 60.1504 37.5811 60.7793C38.0869 61.4036 38.3398 62.2422 38.3398 63.2949C38.3398 64.4661 38.055 65.4049 37.4854 66.1113C36.9157 66.8132 36.1364 67.1641 35.1475 67.1641C34.6963 67.1641 34.2952 67.0661 33.9443 66.8701C33.5934 66.6742 33.2949 66.3802 33.0488 65.9883ZM33.0215 63.165V64.1426C33.0215 64.7214 33.2083 65.2135 33.582 65.6191C33.9603 66.0202 34.4388 66.2207 35.0176 66.2207C35.6966 66.2207 36.2275 65.9609 36.6104 65.4414C36.9977 64.9219 37.1914 64.1995 37.1914 63.2744C37.1914 62.4951 37.0114 61.8844 36.6514 61.4424C36.2913 61.0003 35.8037 60.7793 35.1885 60.7793C34.5368 60.7793 34.0127 61.0072 33.6162 61.4629C33.2197 61.9141 33.0215 62.4814 33.0215 63.165ZM43.4668 66.918C43.2754 66.9954 43.0863 67.0524 42.8994 67.0889C42.7171 67.1299 42.5098 67.1504 42.2773 67.1504C41.7214 67.1504 41.2839 66.9886 40.9648 66.665C40.6504 66.3369 40.4932 65.8538 40.4932 65.2158V60.957H39.29V60H40.4932V58.291L41.6143 57.9287V60H43.3779V60.957H41.6143V65.0859C41.6143 65.487 41.6849 65.7764 41.8262 65.9541C41.972 66.1318 42.1885 66.2207 42.4756 66.2207C42.6123 66.2207 42.7445 66.2048 42.8721 66.1729C42.9997 66.141 43.1068 66.1045 43.1934 66.0635L43.4668 66.918ZM50.501 63.7529H45.5518C45.57 64.5413 45.7773 65.1497 46.1738 65.5781C46.5749 66.002 47.1354 66.2139 47.8555 66.2139C48.1699 66.2139 48.4844 66.1683 48.7988 66.0771C49.1178 65.9814 49.4323 65.8311 49.7422 65.626L50.2617 66.4258C49.8652 66.681 49.4688 66.8678 49.0723 66.9863C48.6758 67.1048 48.2406 67.1641 47.7666 67.1641C46.7093 67.1641 45.8844 66.8496 45.292 66.2207C44.6995 65.5918 44.401 64.7145 44.3965 63.5889C44.3919 62.4632 44.6882 61.5563 45.2852 60.8682C45.8867 60.18 46.666 59.8359 47.623 59.8359C48.5345 59.8359 49.2409 60.1344 49.7422 60.7314C50.248 61.3239 50.501 62.1465 50.501 63.1992V63.7529ZM49.3525 62.8369C49.348 62.1898 49.1908 61.6862 48.8809 61.3262C48.571 60.9616 48.1449 60.7793 47.6025 60.7793C47.0693 60.7793 46.6159 60.9661 46.2422 61.3398C45.873 61.709 45.6475 62.208 45.5654 62.8369H49.3525ZM62.1426 67H61.0215V62.9805C61.0215 62.2057 60.9007 61.6452 60.6592 61.2988C60.4222 60.9525 60.0212 60.7793 59.4561 60.7793C58.9775 60.7793 58.5697 60.998 58.2324 61.4355C57.8997 61.873 57.7334 62.3971 57.7334 63.0078V67H56.6123V62.8438C56.6123 62.1556 56.4801 61.6406 56.2158 61.2988C55.9515 60.9525 55.5527 60.7793 55.0195 60.7793C54.5273 60.7793 54.1217 60.9867 53.8027 61.4014C53.4837 61.8115 53.3242 62.347 53.3242 63.0078V67H52.2031V60H53.3242V61.1074H53.3516C53.6022 60.6836 53.9076 60.3669 54.2676 60.1572C54.6322 59.943 55.0514 59.8359 55.5254 59.8359C56.0039 59.8359 56.4209 59.9704 56.7764 60.2393C57.1318 60.5036 57.3757 60.8522 57.5078 61.2852C57.7676 60.8021 58.0911 60.4398 58.4785 60.1982C58.8659 59.9567 59.3171 59.8359 59.832 59.8359C60.6022 59.8359 61.1787 60.0729 61.5615 60.5469C61.9489 61.0208 62.1426 61.734 62.1426 62.6865V67ZM65.4102 66.0977H65.3828V67H64.2617V56.6367H65.3828V61.2305H65.4102C65.6882 60.7656 66.0277 60.417 66.4287 60.1846C66.8343 59.9521 67.3014 59.8359 67.8301 59.8359C68.7279 59.8359 69.4297 60.1504 69.9355 60.7793C70.446 61.4036 70.7012 62.2422 70.7012 63.2949C70.7012 64.4661 70.4163 65.4049 69.8467 66.1113C69.277 66.8132 68.4977 67.1641 67.5088 67.1641C67.0485 67.1641 66.6429 67.0752 66.292 66.8975C65.9411 66.7197 65.6471 66.4531 65.4102 66.0977ZM65.3828 63.165V64.1426C65.3828 64.7214 65.5697 65.2135 65.9434 65.6191C66.3216 66.0202 66.8001 66.2207 67.3789 66.2207C68.0579 66.2207 68.5889 65.9609 68.9717 65.4414C69.359 64.9219 69.5527 64.1995 69.5527 63.2744C69.5527 62.4951 69.3727 61.8844 69.0127 61.4424C68.6527 61.0003 68.165 60.7793 67.5498 60.7793C66.8981 60.7793 66.374 61.0072 65.9775 61.4629C65.5811 61.9141 65.3828 62.4814 65.3828 63.165ZM78.1182 63.7529H73.1689C73.1872 64.5413 73.3945 65.1497 73.791 65.5781C74.1921 66.002 74.7526 66.2139 75.4727 66.2139C75.7871 66.2139 76.1016 66.1683 76.416 66.0771C76.735 65.9814 77.0495 65.8311 77.3594 65.626L77.8789 66.4258C77.4824 66.681 77.0859 66.8678 76.6895 66.9863C76.293 67.1048 75.8577 67.1641 75.3838 67.1641C74.3265 67.1641 73.5016 66.8496 72.9092 66.2207C72.3167 65.5918 72.0182 64.7145 72.0137 63.5889C72.0091 62.4632 72.3053 61.5563 72.9023 60.8682C73.5039 60.18 74.2832 59.8359 75.2402 59.8359C76.1517 59.8359 76.8581 60.1344 77.3594 60.7314C77.8652 61.3239 78.1182 62.1465 78.1182 63.1992V63.7529ZM76.9697 62.8369C76.9652 62.1898 76.8079 61.6862 76.498 61.3262C76.1882 60.9616 75.762 60.7793 75.2197 60.7793C74.6865 60.7793 74.2331 60.9661 73.8594 61.3398C73.4902 61.709 73.2646 62.208 73.1826 62.8369H76.9697ZM83.2725 60.957C83.1859 60.9297 83.1084 60.9115 83.04 60.9023C82.9717 60.8887 82.8851 60.8818 82.7803 60.8818C82.2106 60.8818 81.7617 61.1257 81.4336 61.6133C81.1055 62.0964 80.9414 62.7025 80.9414 63.4316V67H79.8203V60H80.9414V61.3877H80.9688C81.1283 60.8955 81.3721 60.5218 81.7002 60.2666C82.0283 60.0068 82.4066 59.877 82.835 59.877C82.9762 59.877 83.0947 59.8838 83.1904 59.8975C83.2907 59.9111 83.3796 59.9316 83.457 59.959L83.2725 60.957Z" fill="white"/>
<path d="M21.2363 107.164C19.8464 107.164 18.7321 106.706 17.8936 105.79C17.0596 104.874 16.6426 103.682 16.6426 102.215C16.6426 100.638 17.0687 99.3802 17.9209 98.4414C18.7731 97.5026 19.9329 97.0332 21.4004 97.0332C22.7539 97.0332 23.8431 97.4889 24.668 98.4004C25.4974 99.3118 25.9121 100.504 25.9121 101.976C25.9121 103.575 25.4883 104.84 24.6406 105.77C23.793 106.699 22.6582 107.164 21.2363 107.164ZM21.2363 106.132C22.3118 106.132 23.1595 105.781 23.7793 105.079C24.3991 104.377 24.709 103.395 24.709 102.133C24.709 100.839 24.4082 99.8382 23.8066 99.1318C23.2051 98.4255 22.3757 98.0723 21.3184 98.0723C20.2884 98.0723 19.4521 98.4437 18.8096 99.1865C18.167 99.9294 17.8457 100.905 17.8457 102.112C17.8457 103.32 18.1579 104.293 18.7822 105.031C19.4111 105.765 20.2292 106.132 21.2363 106.132ZM32.6113 106.583C32.2878 106.784 31.9642 106.929 31.6406 107.021C31.3171 107.116 30.9639 107.164 30.5811 107.164C29.5967 107.164 28.7878 106.859 28.1543 106.248C27.5254 105.637 27.2109 104.771 27.2109 103.65C27.2109 102.511 27.5277 101.59 28.1611 100.889C28.7992 100.187 29.6742 99.8359 30.7861 99.8359C31.1462 99.8359 31.488 99.8792 31.8115 99.9658C32.1396 100.052 32.4701 100.194 32.8027 100.39L32.3311 101.21C32.0713 101.064 31.8161 100.957 31.5654 100.889C31.3148 100.82 31.0413 100.786 30.7451 100.786C29.9749 100.786 29.3848 101.044 28.9746 101.559C28.5645 102.074 28.3594 102.728 28.3594 103.521C28.3594 104.396 28.5736 105.063 29.002 105.523C29.4349 105.984 29.9932 106.214 30.6768 106.214C30.9001 106.214 31.1325 106.18 31.374 106.111C31.6201 106.038 31.8662 105.927 32.1123 105.776L32.6113 106.583ZM37.4922 106.918C37.3008 106.995 37.1117 107.052 36.9248 107.089C36.7425 107.13 36.5352 107.15 36.3027 107.15C35.7467 107.15 35.3092 106.989 34.9902 106.665C34.6758 106.337 34.5186 105.854 34.5186 105.216V100.957H33.3154V100H34.5186V98.291L35.6396 97.9287V100H37.4033V100.957H35.6396V105.086C35.6396 105.487 35.7103 105.776 35.8516 105.954C35.9974 106.132 36.2139 106.221 36.501 106.221C36.6377 106.221 36.7699 106.205 36.8975 106.173C37.0251 106.141 37.1322 106.104 37.2188 106.063L37.4922 106.918ZM41.8262 107.164C40.7917 107.164 39.9645 106.838 39.3447 106.187C38.7295 105.53 38.4219 104.662 38.4219 103.582C38.4219 102.411 38.7409 101.495 39.3789 100.834C40.0169 100.173 40.8874 99.8405 41.9902 99.8359C43.0339 99.8314 43.8473 100.153 44.4307 100.8C45.0186 101.447 45.3125 102.338 45.3125 103.473C45.3125 104.594 44.9958 105.489 44.3623 106.159C43.7334 106.829 42.888 107.164 41.8262 107.164ZM41.9082 106.221C42.6328 106.221 43.1888 105.986 43.5762 105.517C43.9681 105.043 44.1641 104.375 44.1641 103.514C44.1641 102.634 43.9681 101.96 43.5762 101.49C43.1842 101.016 42.6283 100.779 41.9082 100.779C41.1882 100.779 40.6185 101.025 40.1992 101.518C39.7799 102.01 39.5703 102.684 39.5703 103.541C39.5703 104.37 39.7822 105.024 40.2061 105.503C40.6299 105.981 41.1973 106.221 41.9082 106.221ZM48.252 106.098H48.2246V107H47.1035V96.6367H48.2246V101.23H48.252C48.5299 100.766 48.8695 100.417 49.2705 100.185C49.6761 99.9521 50.1432 99.8359 50.6719 99.8359C51.5697 99.8359 52.2715 100.15 52.7773 100.779C53.2878 101.404 53.543 102.242 53.543 103.295C53.543 104.466 53.2581 105.405 52.6885 106.111C52.1188 106.813 51.3395 107.164 50.3506 107.164C49.8903 107.164 49.4847 107.075 49.1338 106.897C48.7829 106.72 48.4889 106.453 48.252 106.098ZM48.2246 103.165V104.143C48.2246 104.721 48.4115 105.214 48.7852 105.619C49.1634 106.02 49.6419 106.221 50.2207 106.221C50.8997 106.221 51.4307 105.961 51.8135 105.441C52.2008 104.922 52.3945 104.2 52.3945 103.274C52.3945 102.495 52.2145 101.884 51.8545 101.442C51.4945 101 51.0068 100.779 50.3916 100.779C49.7399 100.779 49.2158 101.007 48.8193 101.463C48.4229 101.914 48.2246 102.481 48.2246 103.165ZM60.96 103.753H56.0107C56.029 104.541 56.2363 105.15 56.6328 105.578C57.0339 106.002 57.5944 106.214 58.3145 106.214C58.6289 106.214 58.9434 106.168 59.2578 106.077C59.5768 105.981 59.8913 105.831 60.2012 105.626L60.7207 106.426C60.3242 106.681 59.9277 106.868 59.5312 106.986C59.1348 107.105 58.6995 107.164 58.2256 107.164C57.1683 107.164 56.3434 106.85 55.751 106.221C55.1585 105.592 54.86 104.715 54.8555 103.589C54.8509 102.463 55.1471 101.556 55.7441 100.868C56.3457 100.18 57.125 99.8359 58.082 99.8359C58.9935 99.8359 59.6999 100.134 60.2012 100.731C60.707 101.324 60.96 102.146 60.96 103.199V103.753ZM59.8115 102.837C59.807 102.19 59.6497 101.686 59.3398 101.326C59.0299 100.962 58.6038 100.779 58.0615 100.779C57.5283 100.779 57.0749 100.966 56.7012 101.34C56.332 101.709 56.1064 102.208 56.0244 102.837H59.8115ZM66.1143 100.957C66.0277 100.93 65.9502 100.911 65.8818 100.902C65.8135 100.889 65.7269 100.882 65.6221 100.882C65.0524 100.882 64.6035 101.126 64.2754 101.613C63.9473 102.096 63.7832 102.702 63.7832 103.432V107H62.6621V100H63.7832V101.388H63.8105C63.9701 100.896 64.2139 100.522 64.542 100.267C64.8701 100.007 65.2484 99.877 65.6768 99.877C65.818 99.877 65.9365 99.8838 66.0322 99.8975C66.1325 99.9111 66.2214 99.9316 66.2988 99.959L66.1143 100.957Z" fill="white"/>
<path d="M25.1875 147H23.7793L18.7344 139.187C18.6706 139.086 18.6113 138.986 18.5566 138.886C18.5065 138.781 18.4609 138.676 18.4199 138.571H18.3789C18.3971 138.676 18.4108 138.84 18.4199 139.063C18.429 139.287 18.4336 139.572 18.4336 139.918V147H17.2852V137.197H18.7754L23.6836 144.888C23.7884 145.047 23.8727 145.182 23.9365 145.291C24.0049 145.4 24.0527 145.485 24.0801 145.544H24.1074C24.0846 145.403 24.0664 145.211 24.0527 144.97C24.0436 144.728 24.0391 144.439 24.0391 144.102V137.197H25.1875V147ZM30.5332 147.164C29.4987 147.164 28.6715 146.838 28.0518 146.187C27.4365 145.53 27.1289 144.662 27.1289 143.582C27.1289 142.411 27.4479 141.495 28.0859 140.834C28.724 140.173 29.5944 139.84 30.6973 139.836C31.7409 139.831 32.5544 140.153 33.1377 140.8C33.7256 141.447 34.0195 142.338 34.0195 143.473C34.0195 144.594 33.7028 145.489 33.0693 146.159C32.4404 146.829 31.5951 147.164 30.5332 147.164ZM30.6152 146.221C31.3398 146.221 31.8958 145.986 32.2832 145.517C32.6751 145.043 32.8711 144.375 32.8711 143.514C32.8711 142.634 32.6751 141.96 32.2832 141.49C31.8913 141.016 31.3353 140.779 30.6152 140.779C29.8952 140.779 29.3255 141.025 28.9062 141.518C28.487 142.01 28.2773 142.684 28.2773 143.541C28.2773 144.37 28.4893 145.024 28.9131 145.503C29.3369 145.981 29.9043 146.221 30.6152 146.221ZM41.3135 140L38.5244 147H37.4238L34.7715 140H36.002L37.7793 145.086C37.8431 145.273 37.8955 145.448 37.9365 145.612C37.9775 145.772 38.0072 145.922 38.0254 146.063H38.0527C38.0755 145.886 38.1051 145.719 38.1416 145.564C38.1781 145.405 38.2214 145.255 38.2715 145.113L40.1309 140H41.3135ZM48.1494 143.753H43.2002C43.2184 144.541 43.4258 145.15 43.8223 145.578C44.2233 146.002 44.7839 146.214 45.5039 146.214C45.8184 146.214 46.1328 146.168 46.4473 146.077C46.7663 145.981 47.0807 145.831 47.3906 145.626L47.9102 146.426C47.5137 146.681 47.1172 146.868 46.7207 146.986C46.3242 147.105 45.889 147.164 45.415 147.164C44.3577 147.164 43.5329 146.85 42.9404 146.221C42.348 145.592 42.0495 144.715 42.0449 143.589C42.0404 142.463 42.3366 141.556 42.9336 140.868C43.5352 140.18 44.3145 139.836 45.2715 139.836C46.1829 139.836 46.8893 140.134 47.3906 140.731C47.8965 141.324 48.1494 142.146 48.1494 143.199V143.753ZM47.001 142.837C46.9964 142.19 46.8392 141.686 46.5293 141.326C46.2194 140.962 45.7933 140.779 45.251 140.779C44.7178 140.779 44.2643 140.966 43.8906 141.34C43.5215 141.709 43.2959 142.208 43.2139 142.837H47.001ZM59.791 147H58.6699V142.98C58.6699 142.206 58.5492 141.645 58.3076 141.299C58.0706 140.952 57.6696 140.779 57.1045 140.779C56.626 140.779 56.2181 140.998 55.8809 141.436C55.5482 141.873 55.3818 142.397 55.3818 143.008V147H54.2607V142.844C54.2607 142.156 54.1286 141.641 53.8643 141.299C53.5999 140.952 53.2012 140.779 52.668 140.779C52.1758 140.779 51.7702 140.987 51.4512 141.401C51.1322 141.812 50.9727 142.347 50.9727 143.008V147H49.8516V140H50.9727V141.107H51C51.2507 140.684 51.556 140.367 51.916 140.157C52.2806 139.943 52.6999 139.836 53.1738 139.836C53.6523 139.836 54.0693 139.97 54.4248 140.239C54.7803 140.504 55.0241 140.852 55.1562 141.285C55.416 140.802 55.7396 140.44 56.127 140.198C56.5143 139.957 56.9655 139.836 57.4805 139.836C58.2507 139.836 58.8271 140.073 59.21 140.547C59.5973 141.021 59.791 141.734 59.791 142.687V147ZM63.0586 146.098H63.0312V147H61.9102V136.637H63.0312V141.23H63.0586C63.3366 140.766 63.6761 140.417 64.0771 140.185C64.4827 139.952 64.9499 139.836 65.4785 139.836C66.3763 139.836 67.0781 140.15 67.584 140.779C68.0944 141.404 68.3496 142.242 68.3496 143.295C68.3496 144.466 68.0648 145.405 67.4951 146.111C66.9255 146.813 66.1462 147.164 65.1572 147.164C64.6969 147.164 64.2913 147.075 63.9404 146.897C63.5895 146.72 63.2956 146.453 63.0586 146.098ZM63.0312 143.165V144.143C63.0312 144.721 63.2181 145.214 63.5918 145.619C63.9701 146.02 64.4486 146.221 65.0273 146.221C65.7064 146.221 66.2373 145.961 66.6201 145.441C67.0075 144.922 67.2012 144.2 67.2012 143.274C67.2012 142.495 67.0212 141.884 66.6611 141.442C66.3011 141 65.8135 140.779 65.1982 140.779C64.5465 140.779 64.0225 141.007 63.626 141.463C63.2295 141.914 63.0312 142.481 63.0312 143.165ZM75.7666 143.753H70.8174C70.8356 144.541 71.043 145.15 71.4395 145.578C71.8405 146.002 72.401 146.214 73.1211 146.214C73.4355 146.214 73.75 146.168 74.0645 146.077C74.3835 145.981 74.6979 145.831 75.0078 145.626L75.5273 146.426C75.1309 146.681 74.7344 146.868 74.3379 146.986C73.9414 147.105 73.5062 147.164 73.0322 147.164C71.9749 147.164 71.1501 146.85 70.5576 146.221C69.9652 145.592 69.6667 144.715 69.6621 143.589C69.6576 142.463 69.9538 141.556 70.5508 140.868C71.1523 140.18 71.9316 139.836 72.8887 139.836C73.8001 139.836 74.5065 140.134 75.0078 140.731C75.5137 141.324 75.7666 142.146 75.7666 143.199V143.753ZM74.6182 142.837C74.6136 142.19 74.4564 141.686 74.1465 141.326C73.8366 140.962 73.4105 140.779 72.8682 140.779C72.335 140.779 71.8815 140.966 71.5078 141.34C71.1387 141.709 70.9131 142.208 70.8311 142.837H74.6182ZM80.9209 140.957C80.8343 140.93 80.7568 140.911 80.6885 140.902C80.6201 140.889 80.5335 140.882 80.4287 140.882C79.859 140.882 79.4102 141.126 79.082 141.613C78.7539 142.096 78.5898 142.702 78.5898 143.432V147H77.4688V140H78.5898V141.388H78.6172C78.7767 140.896 79.0205 140.522 79.3486 140.267C79.6768 140.007 80.055 139.877 80.4834 139.877C80.6247 139.877 80.7432 139.884 80.8389 139.897C80.9391 139.911 81.028 139.932 81.1055 139.959L80.9209 140.957Z" fill="black"/>
<path d="M17.2852 187V177.197H19.9922C21.7194 177.197 23.0137 177.596 23.875 178.394C24.7409 179.187 25.1738 180.381 25.1738 181.976C25.1738 183.489 24.693 184.705 23.7314 185.626C22.7744 186.542 21.4915 187 19.8828 187H17.2852ZM18.4336 178.236V185.961H19.8965C21.1816 185.961 22.182 185.617 22.8975 184.929C23.613 184.241 23.9707 183.265 23.9707 182.003C23.9707 180.745 23.6357 179.804 22.9658 179.18C22.3005 178.551 21.3001 178.236 19.9648 178.236H18.4336ZM32.5771 183.753H27.6279C27.6462 184.541 27.8535 185.15 28.25 185.578C28.651 186.002 29.2116 186.214 29.9316 186.214C30.2461 186.214 30.5605 186.168 30.875 186.077C31.194 185.981 31.5085 185.831 31.8184 185.626L32.3379 186.426C31.9414 186.681 31.5449 186.868 31.1484 186.986C30.752 187.105 30.3167 187.164 29.8428 187.164C28.7855 187.164 27.9606 186.85 27.3682 186.221C26.7757 185.592 26.4772 184.715 26.4727 183.589C26.4681 182.463 26.7643 181.556 27.3613 180.868C27.9629 180.18 28.7422 179.836 29.6992 179.836C30.6107 179.836 31.3171 180.134 31.8184 180.731C32.3242 181.324 32.5771 182.146 32.5771 183.199V183.753ZM31.4287 182.837C31.4242 182.19 31.2669 181.686 30.957 181.326C30.6471 180.962 30.221 180.779 29.6787 180.779C29.1455 180.779 28.6921 180.966 28.3184 181.34C27.9492 181.709 27.7236 182.208 27.6416 182.837H31.4287ZM39.2012 186.583C38.8776 186.784 38.554 186.929 38.2305 187.021C37.9069 187.116 37.5537 187.164 37.1709 187.164C36.1865 187.164 35.3776 186.859 34.7441 186.248C34.1152 185.637 33.8008 184.771 33.8008 183.65C33.8008 182.511 34.1175 181.59 34.751 180.889C35.389 180.187 36.264 179.836 37.376 179.836C37.736 179.836 38.0778 179.879 38.4014 179.966C38.7295 180.052 39.0599 180.194 39.3926 180.39L38.9209 181.21C38.6611 181.064 38.4059 180.957 38.1553 180.889C37.9046 180.82 37.6312 180.786 37.335 180.786C36.5648 180.786 35.9746 181.044 35.5645 181.559C35.1543 182.074 34.9492 182.728 34.9492 183.521C34.9492 184.396 35.1634 185.063 35.5918 185.523C36.0247 185.984 36.583 186.214 37.2666 186.214C37.4899 186.214 37.7223 186.18 37.9639 186.111C38.21 186.038 38.4561 185.927 38.7021 185.776L39.2012 186.583ZM46.3721 183.753H41.4229C41.4411 184.541 41.6484 185.15 42.0449 185.578C42.446 186.002 43.0065 186.214 43.7266 186.214C44.041 186.214 44.3555 186.168 44.6699 186.077C44.9889 185.981 45.3034 185.831 45.6133 185.626L46.1328 186.426C45.7363 186.681 45.3398 186.868 44.9434 186.986C44.5469 187.105 44.1117 187.164 43.6377 187.164C42.5804 187.164 41.7555 186.85 41.1631 186.221C40.5706 185.592 40.2721 184.715 40.2676 183.589C40.263 182.463 40.5592 181.556 41.1562 180.868C41.7578 180.18 42.5371 179.836 43.4941 179.836C44.4056 179.836 45.112 180.134 45.6133 180.731C46.1191 181.324 46.3721 182.146 46.3721 183.199V183.753ZM45.2236 182.837C45.2191 182.19 45.0618 181.686 44.752 181.326C44.4421 180.962 44.016 180.779 43.4736 180.779C42.9404 180.779 42.487 180.966 42.1133 181.34C41.7441 181.709 41.5186 182.208 41.4365 182.837H45.2236ZM58.0137 187H56.8926V182.98C56.8926 182.206 56.7718 181.645 56.5303 181.299C56.2933 180.952 55.8923 180.779 55.3271 180.779C54.8486 180.779 54.4408 180.998 54.1035 181.436C53.7708 181.873 53.6045 182.397 53.6045 183.008V187H52.4834V182.844C52.4834 182.156 52.3512 181.641 52.0869 181.299C51.8226 180.952 51.4238 180.779 50.8906 180.779C50.3984 180.779 49.9928 180.987 49.6738 181.401C49.3548 181.812 49.1953 182.347 49.1953 183.008V187H48.0742V180H49.1953V181.107H49.2227C49.4733 180.684 49.7786 180.367 50.1387 180.157C50.5033 179.943 50.9225 179.836 51.3965 179.836C51.875 179.836 52.292 179.97 52.6475 180.239C53.0029 180.504 53.2467 180.852 53.3789 181.285C53.6387 180.802 53.9622 180.44 54.3496 180.198C54.737 179.957 55.1882 179.836 55.7031 179.836C56.4733 179.836 57.0498 180.073 57.4326 180.547C57.82 181.021 58.0137 181.734 58.0137 182.687V187ZM61.2812 186.098H61.2539V187H60.1328V176.637H61.2539V181.23H61.2812C61.5592 180.766 61.8988 180.417 62.2998 180.185C62.7054 179.952 63.1725 179.836 63.7012 179.836C64.599 179.836 65.3008 180.15 65.8066 180.779C66.3171 181.404 66.5723 182.242 66.5723 183.295C66.5723 184.466 66.2874 185.405 65.7178 186.111C65.1481 186.813 64.3688 187.164 63.3799 187.164C62.9196 187.164 62.514 187.075 62.1631 186.897C61.8122 186.72 61.5182 186.453 61.2812 186.098ZM61.2539 183.165V184.143C61.2539 184.721 61.4408 185.214 61.8145 185.619C62.1927 186.02 62.6712 186.221 63.25 186.221C63.929 186.221 64.46 185.961 64.8428 185.441C65.2301 184.922 65.4238 184.2 65.4238 183.274C65.4238 182.495 65.2438 181.884 64.8838 181.442C64.5238 181 64.0361 180.779 63.4209 180.779C62.7692 180.779 62.2451 181.007 61.8486 181.463C61.4521 181.914 61.2539 182.481 61.2539 183.165ZM73.9893 183.753H69.04C69.0583 184.541 69.2656 185.15 69.6621 185.578C70.0632 186.002 70.6237 186.214 71.3438 186.214C71.6582 186.214 71.9727 186.168 72.2871 186.077C72.6061 185.981 72.9206 185.831 73.2305 185.626L73.75 186.426C73.3535 186.681 72.957 186.868 72.5605 186.986C72.1641 187.105 71.7288 187.164 71.2549 187.164C70.1976 187.164 69.3727 186.85 68.7803 186.221C68.1878 185.592 67.8893 184.715 67.8848 183.589C67.8802 182.463 68.1764 181.556 68.7734 180.868C69.375 180.18 70.1543 179.836 71.1113 179.836C72.0228 179.836 72.7292 180.134 73.2305 180.731C73.7363 181.324 73.9893 182.146 73.9893 183.199V183.753ZM72.8408 182.837C72.8363 182.19 72.679 181.686 72.3691 181.326C72.0592 180.962 71.6331 180.779 71.0908 180.779C70.5576 180.779 70.1042 180.966 69.7305 181.34C69.3613 181.709 69.1357 182.208 69.0537 182.837H72.8408ZM79.1436 180.957C79.057 180.93 78.9795 180.911 78.9111 180.902C78.8428 180.889 78.7562 180.882 78.6514 180.882C78.0817 180.882 77.6328 181.126 77.3047 181.613C76.9766 182.096 76.8125 182.702 76.8125 183.432V187H75.6914V180H76.8125V181.388H76.8398C76.9993 180.896 77.2432 180.522 77.5713 180.267C77.8994 180.007 78.2777 179.877 78.7061 179.877C78.8473 179.877 78.9658 179.884 79.0615 179.897C79.1618 179.911 79.2507 179.932 79.3281 179.959L79.1436 180.957Z" fill="white"/>
<path d="M19.7939 224.197C19.7939 225.132 19.5889 225.861 19.1787 226.385C18.7686 226.904 18.1305 227.164 17.2646 227.164C17.0459 227.164 16.8431 227.15 16.6562 227.123C16.4694 227.096 16.2734 227.05 16.0684 226.986L16.3691 225.995C16.5241 226.045 16.6699 226.082 16.8066 226.104C16.9479 226.123 17.0892 226.132 17.2305 226.132C17.6862 226.132 18.0348 225.986 18.2764 225.694C18.5225 225.403 18.6455 224.908 18.6455 224.211V217.197H19.7939V224.197ZM27.0947 227H25.9736V225.906H25.9463C25.7048 226.326 25.4062 226.64 25.0508 226.85C24.6999 227.059 24.2897 227.164 23.8203 227.164C23.1641 227.164 22.6331 226.973 22.2275 226.59C21.8219 226.207 21.6191 225.699 21.6191 225.065C21.6191 224.468 21.8242 223.974 22.2344 223.582C22.6445 223.19 23.2256 222.939 23.9775 222.83L25.9736 222.563V222.406C25.9736 221.818 25.8369 221.401 25.5635 221.155C25.29 220.905 24.9255 220.779 24.4697 220.779C24.1051 220.779 23.7542 220.848 23.417 220.984C23.0798 221.121 22.763 221.331 22.4668 221.613L21.8105 220.937C22.2025 220.558 22.6195 220.28 23.0615 220.103C23.5036 219.925 23.9958 219.836 24.5381 219.836C25.3857 219.836 26.0238 220.055 26.4521 220.492C26.8805 220.925 27.0947 221.577 27.0947 222.447V227ZM25.9736 224.156V223.459L24.2852 223.691C23.7702 223.764 23.3828 223.894 23.123 224.081C22.8633 224.268 22.7334 224.562 22.7334 224.963C22.7334 225.382 22.8542 225.703 23.0957 225.927C23.3418 226.146 23.6403 226.255 23.9912 226.255C24.5973 226.255 25.0781 226.057 25.4336 225.66C25.7936 225.264 25.9736 224.762 25.9736 224.156ZM35.0723 227H33.9512V223.008C33.9512 222.265 33.8145 221.709 33.541 221.34C33.2721 220.966 32.8665 220.779 32.3242 220.779C31.7637 220.779 31.2988 220.991 30.9297 221.415C30.5651 221.834 30.3828 222.365 30.3828 223.008V227H29.2617V220H30.3828V221.162H30.4102C30.6745 220.72 30.998 220.39 31.3809 220.171C31.7637 219.948 32.2057 219.836 32.707 219.836C33.4727 219.836 34.0583 220.084 34.4639 220.581C34.8695 221.073 35.0723 221.786 35.0723 222.721V227ZM42.8516 227H41.7305V225.893H41.7031C41.4707 226.316 41.1745 226.635 40.8145 226.85C40.4544 227.059 40.0306 227.164 39.543 227.164C38.709 227.164 38.0824 226.916 37.6631 226.419C37.2484 225.922 37.041 225.177 37.041 224.184V220H38.1553V224.006C38.1553 224.744 38.2965 225.298 38.5791 225.667C38.8617 226.036 39.2855 226.221 39.8506 226.221C40.3975 226.221 40.8464 226.02 41.1973 225.619C41.5527 225.214 41.7305 224.685 41.7305 224.033V220H42.8516V227ZM50.0771 227H48.9561V225.906H48.9287C48.6872 226.326 48.3887 226.64 48.0332 226.85C47.6823 227.059 47.2721 227.164 46.8027 227.164C46.1465 227.164 45.6156 226.973 45.21 226.59C44.8044 226.207 44.6016 225.699 44.6016 225.065C44.6016 224.468 44.8066 223.974 45.2168 223.582C45.627 223.19 46.208 222.939 46.96 222.83L48.9561 222.563V222.406C48.9561 221.818 48.8193 221.401 48.5459 221.155C48.2725 220.905 47.9079 220.779 47.4521 220.779C47.0876 220.779 46.7367 220.848 46.3994 220.984C46.0622 221.121 45.7454 221.331 45.4492 221.613L44.793 220.937C45.1849 220.558 45.6019 220.28 46.0439 220.103C46.486 219.925 46.9782 219.836 47.5205 219.836C48.3682 219.836 49.0062 220.055 49.4346 220.492C49.863 220.925 50.0771 221.577 50.0771 222.447V227ZM48.9561 224.156V223.459L47.2676 223.691C46.7526 223.764 46.3652 223.894 46.1055 224.081C45.8457 224.268 45.7158 224.562 45.7158 224.963C45.7158 225.382 45.8366 225.703 46.0781 225.927C46.3242 226.146 46.6227 226.255 46.9736 226.255C47.5798 226.255 48.0605 226.057 48.416 225.66C48.776 225.264 48.9561 224.762 48.9561 224.156ZM55.6963 220.957C55.6097 220.93 55.5322 220.911 55.4639 220.902C55.3955 220.889 55.3089 220.882 55.2041 220.882C54.6344 220.882 54.1855 221.126 53.8574 221.613C53.5293 222.096 53.3652 222.702 53.3652 223.432V227H52.2441V220H53.3652V221.388H53.3926C53.5521 220.896 53.7959 220.522 54.124 220.267C54.4521 220.007 54.8304 219.877 55.2588 219.877C55.4001 219.877 55.5186 219.884 55.6143 219.897C55.7145 219.911 55.8034 219.932 55.8809 219.959L55.6963 220.957ZM62.6826 220L59.3809 228.333C59.1211 228.989 58.7952 229.479 58.4033 229.803C58.0114 230.131 57.5511 230.295 57.0225 230.295C56.8857 230.295 56.7604 230.286 56.6465 230.268C56.5326 230.254 56.4232 230.233 56.3184 230.206L56.5371 229.249C56.6191 229.276 56.6943 229.295 56.7627 229.304C56.8356 229.317 56.9062 229.324 56.9746 229.324C57.2754 229.324 57.5238 229.247 57.7197 229.092C57.9202 228.937 58.0798 228.718 58.1982 228.436L58.8066 226.986L56.0723 220H57.3164L59.21 225.387C59.2191 225.419 59.235 225.48 59.2578 225.571C59.2852 225.662 59.3171 225.779 59.3535 225.92H59.3945C59.4082 225.865 59.4242 225.795 59.4424 225.708C59.4652 225.621 59.4948 225.519 59.5312 225.4L61.5205 220H62.6826Z" fill="white"/>
<path d="M22.2617 258.236H18.4336V261.627H21.9746V262.659H18.4336V267H17.2852V257.197H22.2617V258.236ZM29.5967 263.753H24.6475C24.6657 264.541 24.873 265.15 25.2695 265.578C25.6706 266.002 26.2311 266.214 26.9512 266.214C27.2656 266.214 27.5801 266.168 27.8945 266.077C28.2135 265.981 28.528 265.831 28.8379 265.626L29.3574 266.426C28.9609 266.681 28.5645 266.868 28.168 266.986C27.7715 267.105 27.3363 267.164 26.8623 267.164C25.805 267.164 24.9801 266.85 24.3877 266.221C23.7952 265.592 23.4967 264.715 23.4922 263.589C23.4876 262.463 23.7839 261.556 24.3809 260.868C24.9824 260.18 25.7617 259.836 26.7188 259.836C27.6302 259.836 28.3366 260.134 28.8379 260.731C29.3438 261.324 29.5967 262.146 29.5967 263.199V263.753ZM28.4482 262.837C28.4437 262.19 28.2865 261.686 27.9766 261.326C27.6667 260.962 27.2406 260.779 26.6982 260.779C26.165 260.779 25.7116 260.966 25.3379 261.34C24.9688 261.709 24.7432 262.208 24.6611 262.837H28.4482ZM32.4473 266.098H32.4199V267H31.2988V256.637H32.4199V261.23H32.4473C32.7253 260.766 33.0648 260.417 33.4658 260.185C33.8714 259.952 34.3385 259.836 34.8672 259.836C35.765 259.836 36.4668 260.15 36.9727 260.779C37.4831 261.404 37.7383 262.242 37.7383 263.295C37.7383 264.466 37.4535 265.405 36.8838 266.111C36.3141 266.813 35.5348 267.164 34.5459 267.164C34.0856 267.164 33.68 267.075 33.3291 266.897C32.9782 266.72 32.6842 266.453 32.4473 266.098ZM32.4199 263.165V264.143C32.4199 264.721 32.6068 265.214 32.9805 265.619C33.3587 266.02 33.8372 266.221 34.416 266.221C35.0951 266.221 35.626 265.961 36.0088 265.441C36.3962 264.922 36.5898 264.2 36.5898 263.274C36.5898 262.495 36.4098 261.884 36.0498 261.442C35.6898 261 35.2021 260.779 34.5869 260.779C33.9352 260.779 33.4111 261.007 33.0146 261.463C32.6182 261.914 32.4199 262.481 32.4199 263.165ZM42.9814 260.957C42.8949 260.93 42.8174 260.911 42.749 260.902C42.6807 260.889 42.5941 260.882 42.4893 260.882C41.9196 260.882 41.4707 261.126 41.1426 261.613C40.8145 262.096 40.6504 262.702 40.6504 263.432V267H39.5293V260H40.6504V261.388H40.6777C40.8372 260.896 41.0811 260.522 41.4092 260.267C41.7373 260.007 42.1156 259.877 42.5439 259.877C42.6852 259.877 42.8037 259.884 42.8994 259.897C42.9997 259.911 43.0885 259.932 43.166 259.959L42.9814 260.957ZM50.0566 267H48.9355V265.893H48.9082C48.6758 266.316 48.3796 266.635 48.0195 266.85C47.6595 267.059 47.2357 267.164 46.748 267.164C45.9141 267.164 45.2874 266.916 44.8682 266.419C44.4535 265.922 44.2461 265.177 44.2461 264.184V260H45.3604V264.006C45.3604 264.744 45.5016 265.298 45.7842 265.667C46.0667 266.036 46.4906 266.221 47.0557 266.221C47.6025 266.221 48.0514 266.02 48.4023 265.619C48.7578 265.214 48.9355 264.685 48.9355 264.033V260H50.0566V267ZM57.2822 267H56.1611V265.906H56.1338C55.8923 266.326 55.5938 266.64 55.2383 266.85C54.8874 267.059 54.4772 267.164 54.0078 267.164C53.3516 267.164 52.8206 266.973 52.415 266.59C52.0094 266.207 51.8066 265.699 51.8066 265.065C51.8066 264.468 52.0117 263.974 52.4219 263.582C52.832 263.19 53.4131 262.939 54.165 262.83L56.1611 262.563V262.406C56.1611 261.818 56.0244 261.401 55.751 261.155C55.4775 260.905 55.113 260.779 54.6572 260.779C54.2926 260.779 53.9417 260.848 53.6045 260.984C53.2673 261.121 52.9505 261.331 52.6543 261.613L51.998 260.937C52.39 260.558 52.807 260.28 53.249 260.103C53.6911 259.925 54.1833 259.836 54.7256 259.836C55.5732 259.836 56.2113 260.055 56.6396 260.492C57.068 260.925 57.2822 261.577 57.2822 262.447V267ZM56.1611 264.156V263.459L54.4727 263.691C53.9577 263.764 53.5703 263.894 53.3105 264.081C53.0508 264.268 52.9209 264.562 52.9209 264.963C52.9209 265.382 53.0417 265.703 53.2832 265.927C53.5293 266.146 53.8278 266.255 54.1787 266.255C54.7848 266.255 55.2656 266.057 55.6211 265.66C55.9811 265.264 56.1611 264.762 56.1611 264.156ZM62.9014 260.957C62.8148 260.93 62.7373 260.911 62.6689 260.902C62.6006 260.889 62.514 260.882 62.4092 260.882C61.8395 260.882 61.3906 261.126 61.0625 261.613C60.7344 262.096 60.5703 262.702 60.5703 263.432V267H59.4492V260H60.5703V261.388H60.5977C60.7572 260.896 61.001 260.522 61.3291 260.267C61.6572 260.007 62.0355 259.877 62.4639 259.877C62.6051 259.877 62.7236 259.884 62.8193 259.897C62.9196 259.911 63.0085 259.932 63.0859 259.959L62.9014 260.957ZM69.8877 260L66.5859 268.333C66.3262 268.989 66.0003 269.479 65.6084 269.803C65.2165 270.131 64.7562 270.295 64.2275 270.295C64.0908 270.295 63.9655 270.286 63.8516 270.268C63.7376 270.254 63.6283 270.233 63.5234 270.206L63.7422 269.249C63.8242 269.276 63.8994 269.295 63.9678 269.304C64.0407 269.317 64.1113 269.324 64.1797 269.324C64.4805 269.324 64.7288 269.247 64.9248 269.092C65.1253 268.937 65.2848 268.718 65.4033 268.436L66.0117 266.986L63.2773 260H64.5215L66.415 265.387C66.4242 265.419 66.4401 265.48 66.4629 265.571C66.4902 265.662 66.5221 265.779 66.5586 265.92H66.5996C66.6133 265.865 66.6292 265.795 66.6475 265.708C66.6702 265.621 66.6999 265.519 66.7363 265.4L68.7256 260H69.8877Z" fill="white"/>
<path d="M172.821 24.2656C172.821 23.7507 172.979 23.2471 173.293 22.7549C173.607 22.2581 174.054 21.9004 174.633 21.6816C174.209 21.4447 173.872 21.1416 173.621 20.7725C173.37 20.3988 173.245 19.9863 173.245 19.5352C173.245 18.8151 173.507 18.2181 174.031 17.7441C174.56 17.2702 175.216 17.0332 176 17.0332C176.793 17.0332 177.449 17.2725 177.969 17.751C178.493 18.2295 178.755 18.8242 178.755 19.5352C178.755 19.9863 178.63 20.3988 178.379 20.7725C178.128 21.1416 177.796 21.4447 177.381 21.6816C177.951 21.9004 178.393 22.2581 178.707 22.7549C179.021 23.2471 179.179 23.7507 179.179 24.2656C179.179 25.1133 178.885 25.8083 178.297 26.3506C177.714 26.8883 176.948 27.1572 176 27.1572C175.066 27.1572 174.302 26.8883 173.71 26.3506C173.118 25.8128 172.821 25.1178 172.821 24.2656ZM174.038 24.1699C174.038 24.7852 174.218 25.2728 174.578 25.6328C174.943 25.9883 175.419 26.166 176.007 26.166C176.576 26.166 177.048 25.986 177.422 25.626C177.796 25.2614 177.982 24.776 177.982 24.1699C177.982 23.623 177.802 23.1559 177.442 22.7686C177.087 22.3766 176.608 22.1807 176.007 22.1807C175.442 22.1807 174.972 22.3675 174.599 22.7412C174.225 23.1104 174.038 23.5866 174.038 24.1699ZM174.387 19.624C174.387 20.0889 174.544 20.4785 174.858 20.793C175.177 21.1074 175.56 21.2646 176.007 21.2646C176.449 21.2646 176.829 21.1074 177.148 20.793C177.472 20.474 177.634 20.0843 177.634 19.624C177.634 19.1501 177.477 18.7581 177.162 18.4482C176.848 18.1338 176.463 17.9766 176.007 17.9766C175.524 17.9766 175.132 18.1383 174.831 18.4619C174.535 18.7809 174.387 19.1683 174.387 19.624Z" fill="white"/>
<path d="M179.138 61.5107C179.138 63.3747 178.823 64.7852 178.194 65.7422C177.57 66.6947 176.597 67.1709 175.275 67.1709C174.797 67.1709 174.362 67.0957 173.97 66.9453C173.582 66.7949 173.211 66.5602 172.855 66.2412L173.512 65.5098C173.771 65.7422 174.043 65.9131 174.325 66.0225C174.612 66.1318 174.95 66.1865 175.337 66.1865C176.194 66.1865 176.852 65.863 177.312 65.2158C177.773 64.5687 178.003 63.5296 178.003 62.0986H177.976C177.766 62.5225 177.479 62.8392 177.114 63.0488C176.75 63.2585 176.308 63.3633 175.788 63.3633C174.945 63.3633 174.255 63.0785 173.717 62.5088C173.184 61.9391 172.917 61.2054 172.917 60.3076C172.917 59.3369 173.215 58.5485 173.812 57.9424C174.41 57.3363 175.161 57.0332 176.068 57.0332C177.057 57.0332 177.816 57.4229 178.345 58.2021C178.873 58.9814 179.138 60.0843 179.138 61.5107ZM177.928 60.5059C177.928 59.7539 177.743 59.1455 177.374 58.6807C177.009 58.2158 176.542 57.9834 175.973 57.9834C175.435 57.9834 174.981 58.1885 174.612 58.5986C174.248 59.0088 174.065 59.5283 174.065 60.1572C174.065 60.8545 174.248 61.3968 174.612 61.7842C174.977 62.1715 175.453 62.3652 176.041 62.3652C176.561 62.3652 177.005 62.1852 177.374 61.8252C177.743 61.4652 177.928 61.0254 177.928 60.5059Z" fill="white"/>
<path d="M173.211 107H172.09V98.6055C171.921 98.7559 171.62 98.9336 171.188 99.1387C170.759 99.3438 170.379 99.4896 170.046 99.5762L169.725 98.5918C170.249 98.4551 170.805 98.2318 171.393 97.9219C171.985 97.612 172.45 97.2975 172.787 96.9785H173.211V107ZM178.557 107.171C177.572 107.171 176.809 106.749 176.267 105.906C175.729 105.059 175.46 103.855 175.46 102.297C175.46 100.588 175.743 99.2845 176.308 98.3867C176.873 97.4844 177.691 97.0332 178.762 97.0332C179.792 97.0332 180.562 97.4525 181.072 98.291C181.587 99.125 181.845 100.381 181.845 102.058C181.845 103.707 181.555 104.972 180.977 105.852C180.398 106.731 179.591 107.171 178.557 107.171ZM178.707 97.9834C178.01 97.9834 177.486 98.3389 177.135 99.0498C176.784 99.7562 176.608 100.82 176.608 102.242C176.608 103.564 176.779 104.557 177.121 105.223C177.463 105.883 177.978 106.214 178.666 106.214C179.345 106.214 179.853 105.877 180.19 105.202C180.528 104.528 180.696 103.516 180.696 102.167C180.696 100.772 180.53 99.7266 180.197 99.0293C179.865 98.332 179.368 97.9834 178.707 97.9834Z" fill="white"/>
<path d="M174.332 147H173.211V138.605C173.042 138.756 172.742 138.934 172.309 139.139C171.88 139.344 171.5 139.49 171.167 139.576L170.846 138.592C171.37 138.455 171.926 138.232 172.514 137.922C173.106 137.612 173.571 137.298 173.908 136.979H174.332V147ZM179.637 147H178.516V138.605C178.347 138.756 178.046 138.934 177.613 139.139C177.185 139.344 176.804 139.49 176.472 139.576L176.15 138.592C176.674 138.455 177.23 138.232 177.818 137.922C178.411 137.612 178.876 137.298 179.213 136.979H179.637V147Z" fill="black"/>
<path d="M173.211 187H172.09V178.605C171.921 178.756 171.62 178.934 171.188 179.139C170.759 179.344 170.379 179.49 170.046 179.576L169.725 178.592C170.249 178.455 170.805 178.232 171.393 177.922C171.985 177.612 172.45 177.298 172.787 176.979H173.211V187ZM175.727 187V186.515C175.727 186.095 175.772 185.726 175.863 185.407C175.954 185.088 176.105 184.785 176.314 184.498C176.524 184.211 176.798 183.924 177.135 183.637C177.477 183.35 177.894 183.026 178.386 182.666C178.741 182.411 179.037 182.167 179.274 181.935C179.516 181.702 179.71 181.47 179.855 181.237C179.983 181.046 180.081 180.825 180.149 180.574C180.222 180.324 180.259 180.066 180.259 179.802C180.259 179.264 180.104 178.826 179.794 178.489C179.484 178.152 179.058 177.983 178.516 177.983C178.078 177.983 177.666 178.065 177.278 178.229C176.896 178.394 176.538 178.646 176.205 178.988L175.521 178.332C175.95 177.89 176.412 177.564 176.909 177.354C177.406 177.14 177.962 177.033 178.577 177.033C179.498 177.033 180.197 177.302 180.676 177.84C181.159 178.378 181.4 179 181.4 179.706C181.4 180.066 181.35 180.415 181.25 180.752C181.154 181.085 181.018 181.381 180.84 181.641C180.658 181.923 180.434 182.194 180.17 182.454C179.906 182.714 179.591 182.978 179.227 183.247C178.766 183.566 178.386 183.84 178.085 184.067C177.789 184.295 177.554 184.507 177.381 184.703C177.203 184.904 177.078 185.104 177.005 185.305C176.932 185.505 176.896 185.735 176.896 185.995H181.776V187H175.727Z" fill="white"/>
<path d="M173.211 227H172.09V218.605C171.921 218.756 171.62 218.934 171.188 219.139C170.759 219.344 170.379 219.49 170.046 219.576L169.725 218.592C170.249 218.455 170.805 218.232 171.393 217.922C171.985 217.612 172.45 217.298 172.787 216.979H173.211V227ZM175.617 226.337L176.137 225.53C176.501 225.767 176.866 225.94 177.23 226.05C177.6 226.159 177.973 226.214 178.352 226.214C179.081 226.214 179.625 226.041 179.985 225.694C180.35 225.348 180.532 224.906 180.532 224.368C180.532 223.703 180.304 223.211 179.849 222.892C179.393 222.568 178.709 222.406 177.798 222.406H176.984V221.456H177.757C178.563 221.456 179.167 221.306 179.568 221.005C179.974 220.704 180.177 220.235 180.177 219.597C180.177 219.077 180.017 218.678 179.698 218.4C179.384 218.122 179.006 217.983 178.563 217.983C178.185 217.983 177.823 218.043 177.477 218.161C177.135 218.28 176.802 218.464 176.479 218.715L175.891 217.97C176.305 217.646 176.731 217.409 177.169 217.259C177.606 217.108 178.087 217.033 178.611 217.033C179.432 217.033 180.088 217.25 180.58 217.683C181.077 218.116 181.325 218.708 181.325 219.46C181.325 220.043 181.161 220.545 180.833 220.964C180.509 221.379 180.022 221.677 179.37 221.859V221.887C180.035 221.96 180.587 222.206 181.024 222.625C181.462 223.04 181.681 223.589 181.681 224.272C181.681 225.175 181.38 225.883 180.778 226.398C180.181 226.913 179.402 227.171 178.44 227.171C177.907 227.171 177.415 227.105 176.964 226.973C176.513 226.84 176.064 226.629 175.617 226.337Z" fill="white"/>
<path d="M173.211 267H172.09V258.605C171.921 258.756 171.62 258.934 171.188 259.139C170.759 259.344 170.379 259.49 170.046 259.576L169.725 258.592C170.249 258.455 170.805 258.232 171.393 257.922C171.985 257.612 172.45 257.298 172.787 256.979H173.211V267ZM181.011 257.115V263.705H182.063V264.751H181.011V267.096H179.896V264.751H175.241V263.76C175.674 263.268 176.112 262.743 176.554 262.188C176.996 261.627 177.42 261.06 177.825 260.485C178.226 259.911 178.598 259.337 178.939 258.763C179.281 258.188 179.571 257.639 179.808 257.115H181.011ZM176.52 263.705H179.896V258.824C179.55 259.43 179.222 259.973 178.912 260.451C178.607 260.93 178.315 261.363 178.037 261.75C177.755 262.142 177.486 262.495 177.23 262.81C176.98 263.124 176.743 263.423 176.52 263.705Z" fill="white"/>
<path d="M242.875 27V26.5146C242.875 26.0954 242.921 25.7262 243.012 25.4072C243.103 25.0882 243.253 24.7852 243.463 24.498C243.673 24.2109 243.946 23.9238 244.283 23.6367C244.625 23.3496 245.042 23.026 245.534 22.666C245.89 22.4108 246.186 22.167 246.423 21.9346C246.664 21.7021 246.858 21.4697 247.004 21.2373C247.132 21.0459 247.229 20.8249 247.298 20.5742C247.371 20.3236 247.407 20.0661 247.407 19.8018C247.407 19.264 247.252 18.8265 246.942 18.4893C246.632 18.152 246.206 17.9834 245.664 17.9834C245.227 17.9834 244.814 18.0654 244.427 18.2295C244.044 18.3936 243.686 18.6465 243.354 18.9883L242.67 18.332C243.098 17.89 243.561 17.5641 244.058 17.3545C244.554 17.1403 245.11 17.0332 245.726 17.0332C246.646 17.0332 247.346 17.3021 247.824 17.8398C248.307 18.3776 248.549 18.9997 248.549 19.7061C248.549 20.0661 248.499 20.4147 248.398 20.752C248.303 21.0846 248.166 21.3809 247.988 21.6406C247.806 21.9232 247.583 22.1943 247.318 22.4541C247.054 22.7139 246.74 22.9782 246.375 23.2471C245.915 23.5661 245.534 23.8395 245.233 24.0674C244.937 24.2952 244.702 24.5072 244.529 24.7031C244.352 24.9036 244.226 25.1042 244.153 25.3047C244.08 25.5052 244.044 25.7354 244.044 25.9951H248.925V27H242.875ZM253.252 27.1709C252.268 27.1709 251.504 26.7493 250.962 25.9062C250.424 25.0586 250.155 23.8555 250.155 22.2969C250.155 20.5879 250.438 19.2845 251.003 18.3867C251.568 17.4844 252.386 17.0332 253.457 17.0332C254.487 17.0332 255.257 17.4525 255.768 18.291C256.283 19.125 256.54 20.3805 256.54 22.0576C256.54 23.7074 256.251 24.972 255.672 25.8516C255.093 26.7311 254.286 27.1709 253.252 27.1709ZM253.402 17.9834C252.705 17.9834 252.181 18.3389 251.83 19.0498C251.479 19.7562 251.304 20.8203 251.304 22.2422C251.304 23.5638 251.475 24.5573 251.816 25.2227C252.158 25.8835 252.673 26.2139 253.361 26.2139C254.04 26.2139 254.549 25.8766 254.886 25.2021C255.223 24.5277 255.392 23.516 255.392 22.167C255.392 20.7725 255.225 19.7266 254.893 19.0293C254.56 18.332 254.063 17.9834 253.402 17.9834ZM260.758 27H259.637V18.6055C259.468 18.7559 259.167 18.9336 258.734 19.1387C258.306 19.3438 257.925 19.4896 257.593 19.5762L257.271 18.5918C257.796 18.4551 258.352 18.2318 258.939 17.9219C259.532 17.612 259.997 17.2975 260.334 16.9785H260.758V27ZM269.316 17.8467C268.523 19.2367 267.799 20.6745 267.143 22.1602C266.491 23.6458 266.033 25.2591 265.769 27H264.565C264.816 25.3594 265.285 23.7712 265.974 22.2354C266.662 20.6995 267.336 19.3574 267.997 18.209H263.082V17.1973H269.316V17.8467Z" fill="white"/>
<path d="M242.875 67V66.5146C242.875 66.0954 242.921 65.7262 243.012 65.4072C243.103 65.0882 243.253 64.7852 243.463 64.498C243.673 64.2109 243.946 63.9238 244.283 63.6367C244.625 63.3496 245.042 63.026 245.534 62.666C245.89 62.4108 246.186 62.167 246.423 61.9346C246.664 61.7021 246.858 61.4697 247.004 61.2373C247.132 61.0459 247.229 60.8249 247.298 60.5742C247.371 60.3236 247.407 60.0661 247.407 59.8018C247.407 59.264 247.252 58.8265 246.942 58.4893C246.632 58.152 246.206 57.9834 245.664 57.9834C245.227 57.9834 244.814 58.0654 244.427 58.2295C244.044 58.3936 243.686 58.6465 243.354 58.9883L242.67 58.332C243.098 57.89 243.561 57.5641 244.058 57.3545C244.554 57.1403 245.11 57.0332 245.726 57.0332C246.646 57.0332 247.346 57.3021 247.824 57.8398C248.307 58.3776 248.549 58.9997 248.549 59.7061C248.549 60.0661 248.499 60.4147 248.398 60.752C248.303 61.0846 248.166 61.3809 247.988 61.6406C247.806 61.9232 247.583 62.1943 247.318 62.4541C247.054 62.7139 246.74 62.9782 246.375 63.2471C245.915 63.5661 245.534 63.8395 245.233 64.0674C244.937 64.2952 244.702 64.5072 244.529 64.7031C244.352 64.9036 244.226 65.1042 244.153 65.3047C244.08 65.5052 244.044 65.7354 244.044 65.9951H248.925V67H242.875ZM253.252 67.1709C252.268 67.1709 251.504 66.7493 250.962 65.9062C250.424 65.0586 250.155 63.8555 250.155 62.2969C250.155 60.5879 250.438 59.2845 251.003 58.3867C251.568 57.4844 252.386 57.0332 253.457 57.0332C254.487 57.0332 255.257 57.4525 255.768 58.291C256.283 59.125 256.54 60.3805 256.54 62.0576C256.54 63.7074 256.251 64.972 255.672 65.8516C255.093 66.7311 254.286 67.1709 253.252 67.1709ZM253.402 57.9834C252.705 57.9834 252.181 58.3389 251.83 59.0498C251.479 59.7562 251.304 60.8203 251.304 62.2422C251.304 63.5638 251.475 64.5573 251.816 65.2227C252.158 65.8835 252.673 66.2139 253.361 66.2139C254.04 66.2139 254.549 65.8766 254.886 65.2021C255.223 64.5277 255.392 63.516 255.392 62.167C255.392 60.7725 255.225 59.7266 254.893 59.0293C254.56 58.332 254.063 57.9834 253.402 57.9834ZM260.758 67H259.637V58.6055C259.468 58.7559 259.167 58.9336 258.734 59.1387C258.306 59.3438 257.925 59.4896 257.593 59.5762L257.271 58.5918C257.796 58.4551 258.352 58.2318 258.939 57.9219C259.532 57.612 259.997 57.2975 260.334 56.9785H260.758V67ZM263.021 64.2656C263.021 63.7507 263.178 63.2471 263.492 62.7549C263.807 62.2581 264.253 61.9004 264.832 61.6816C264.408 61.4447 264.071 61.1416 263.82 60.7725C263.57 60.3988 263.444 59.9863 263.444 59.5352C263.444 58.8151 263.706 58.2181 264.23 57.7441C264.759 57.2702 265.415 57.0332 266.199 57.0332C266.992 57.0332 267.648 57.2725 268.168 57.751C268.692 58.2295 268.954 58.8242 268.954 59.5352C268.954 59.9863 268.829 60.3988 268.578 60.7725C268.327 61.1416 267.995 61.4447 267.58 61.6816C268.15 61.9004 268.592 62.2581 268.906 62.7549C269.221 63.2471 269.378 63.7507 269.378 64.2656C269.378 65.1133 269.084 65.8083 268.496 66.3506C267.913 66.8883 267.147 67.1572 266.199 67.1572C265.265 67.1572 264.502 66.8883 263.909 66.3506C263.317 65.8128 263.021 65.1178 263.021 64.2656ZM264.237 64.1699C264.237 64.7852 264.417 65.2728 264.777 65.6328C265.142 65.9883 265.618 66.166 266.206 66.166C266.776 66.166 267.247 65.986 267.621 65.626C267.995 65.2614 268.182 64.776 268.182 64.1699C268.182 63.623 268.002 63.1559 267.642 62.7686C267.286 62.3766 266.808 62.1807 266.206 62.1807C265.641 62.1807 265.172 62.3675 264.798 62.7412C264.424 63.1104 264.237 63.5866 264.237 64.1699ZM264.586 59.624C264.586 60.0889 264.743 60.4785 265.058 60.793C265.377 61.1074 265.759 61.2646 266.206 61.2646C266.648 61.2646 267.029 61.1074 267.348 60.793C267.671 60.474 267.833 60.0843 267.833 59.624C267.833 59.1501 267.676 58.7581 267.361 58.4482C267.047 58.1338 266.662 57.9766 266.206 57.9766C265.723 57.9766 265.331 58.1383 265.03 58.4619C264.734 58.7809 264.586 59.1683 264.586 59.624Z" fill="white"/>
<path d="M242.875 107V106.515C242.875 106.095 242.921 105.726 243.012 105.407C243.103 105.088 243.253 104.785 243.463 104.498C243.673 104.211 243.946 103.924 244.283 103.637C244.625 103.35 245.042 103.026 245.534 102.666C245.89 102.411 246.186 102.167 246.423 101.935C246.664 101.702 246.858 101.47 247.004 101.237C247.132 101.046 247.229 100.825 247.298 100.574C247.371 100.324 247.407 100.066 247.407 99.8018C247.407 99.264 247.252 98.8265 246.942 98.4893C246.632 98.152 246.206 97.9834 245.664 97.9834C245.227 97.9834 244.814 98.0654 244.427 98.2295C244.044 98.3936 243.686 98.6465 243.354 98.9883L242.67 98.332C243.098 97.89 243.561 97.5641 244.058 97.3545C244.554 97.1403 245.11 97.0332 245.726 97.0332C246.646 97.0332 247.346 97.3021 247.824 97.8398C248.307 98.3776 248.549 98.9997 248.549 99.7061C248.549 100.066 248.499 100.415 248.398 100.752C248.303 101.085 248.166 101.381 247.988 101.641C247.806 101.923 247.583 102.194 247.318 102.454C247.054 102.714 246.74 102.978 246.375 103.247C245.915 103.566 245.534 103.84 245.233 104.067C244.937 104.295 244.702 104.507 244.529 104.703C244.352 104.904 244.226 105.104 244.153 105.305C244.08 105.505 244.044 105.735 244.044 105.995H248.925V107H242.875ZM253.252 107.171C252.268 107.171 251.504 106.749 250.962 105.906C250.424 105.059 250.155 103.855 250.155 102.297C250.155 100.588 250.438 99.2845 251.003 98.3867C251.568 97.4844 252.386 97.0332 253.457 97.0332C254.487 97.0332 255.257 97.4525 255.768 98.291C256.283 99.125 256.54 100.381 256.54 102.058C256.54 103.707 256.251 104.972 255.672 105.852C255.093 106.731 254.286 107.171 253.252 107.171ZM253.402 97.9834C252.705 97.9834 252.181 98.3389 251.83 99.0498C251.479 99.7562 251.304 100.82 251.304 102.242C251.304 103.564 251.475 104.557 251.816 105.223C252.158 105.883 252.673 106.214 253.361 106.214C254.04 106.214 254.549 105.877 254.886 105.202C255.223 104.528 255.392 103.516 255.392 102.167C255.392 100.772 255.225 99.7266 254.893 99.0293C254.56 98.332 254.063 97.9834 253.402 97.9834ZM260.758 107H259.637V98.6055C259.468 98.7559 259.167 98.9336 258.734 99.1387C258.306 99.3438 257.925 99.4896 257.593 99.5762L257.271 98.5918C257.796 98.4551 258.352 98.2318 258.939 97.9219C259.532 97.612 259.997 97.2975 260.334 96.9785H260.758V107ZM269.337 101.511C269.337 103.375 269.022 104.785 268.394 105.742C267.769 106.695 266.796 107.171 265.475 107.171C264.996 107.171 264.561 107.096 264.169 106.945C263.782 106.795 263.41 106.56 263.055 106.241L263.711 105.51C263.971 105.742 264.242 105.913 264.524 106.022C264.812 106.132 265.149 106.187 265.536 106.187C266.393 106.187 267.051 105.863 267.512 105.216C267.972 104.569 268.202 103.53 268.202 102.099H268.175C267.965 102.522 267.678 102.839 267.313 103.049C266.949 103.258 266.507 103.363 265.987 103.363C265.144 103.363 264.454 103.078 263.916 102.509C263.383 101.939 263.116 101.205 263.116 100.308C263.116 99.3369 263.415 98.5485 264.012 97.9424C264.609 97.3363 265.361 97.0332 266.268 97.0332C267.257 97.0332 268.015 97.4229 268.544 98.2021C269.073 98.9814 269.337 100.084 269.337 101.511ZM268.127 100.506C268.127 99.7539 267.942 99.1455 267.573 98.6807C267.209 98.2158 266.742 97.9834 266.172 97.9834C265.634 97.9834 265.181 98.1885 264.812 98.5986C264.447 99.0088 264.265 99.5283 264.265 100.157C264.265 100.854 264.447 101.397 264.812 101.784C265.176 102.172 265.652 102.365 266.24 102.365C266.76 102.365 267.204 102.185 267.573 101.825C267.942 101.465 268.127 101.025 268.127 100.506Z" fill="white"/>
<path d="M241.754 147V146.515C241.754 146.095 241.799 145.726 241.891 145.407C241.982 145.088 242.132 144.785 242.342 144.498C242.551 144.211 242.825 143.924 243.162 143.637C243.504 143.35 243.921 143.026 244.413 142.666C244.769 142.411 245.065 142.167 245.302 141.935C245.543 141.702 245.737 141.47 245.883 141.237C246.01 141.046 246.108 140.825 246.177 140.574C246.25 140.324 246.286 140.066 246.286 139.802C246.286 139.264 246.131 138.826 245.821 138.489C245.511 138.152 245.085 137.983 244.543 137.983C244.105 137.983 243.693 138.065 243.306 138.229C242.923 138.394 242.565 138.646 242.232 138.988L241.549 138.332C241.977 137.89 242.44 137.564 242.937 137.354C243.433 137.14 243.989 137.033 244.604 137.033C245.525 137.033 246.225 137.302 246.703 137.84C247.186 138.378 247.428 139 247.428 139.706C247.428 140.066 247.378 140.415 247.277 140.752C247.182 141.085 247.045 141.381 246.867 141.641C246.685 141.923 246.462 142.194 246.197 142.454C245.933 142.714 245.618 142.978 245.254 143.247C244.794 143.566 244.413 143.84 244.112 144.067C243.816 144.295 243.581 144.507 243.408 144.703C243.23 144.904 243.105 145.104 243.032 145.305C242.959 145.505 242.923 145.735 242.923 145.995H247.804V147H241.754ZM252.131 147.171C251.146 147.171 250.383 146.749 249.841 145.906C249.303 145.059 249.034 143.855 249.034 142.297C249.034 140.588 249.317 139.285 249.882 138.387C250.447 137.484 251.265 137.033 252.336 137.033C253.366 137.033 254.136 137.452 254.646 138.291C255.161 139.125 255.419 140.381 255.419 142.058C255.419 143.707 255.13 144.972 254.551 145.852C253.972 146.731 253.165 147.171 252.131 147.171ZM252.281 137.983C251.584 137.983 251.06 138.339 250.709 139.05C250.358 139.756 250.183 140.82 250.183 142.242C250.183 143.564 250.354 144.557 250.695 145.223C251.037 145.883 251.552 146.214 252.24 146.214C252.919 146.214 253.427 145.877 253.765 145.202C254.102 144.528 254.271 143.516 254.271 142.167C254.271 140.772 254.104 139.727 253.771 139.029C253.439 138.332 252.942 137.983 252.281 137.983ZM256.848 147V146.515C256.848 146.095 256.893 145.726 256.984 145.407C257.076 145.088 257.226 144.785 257.436 144.498C257.645 144.211 257.919 143.924 258.256 143.637C258.598 143.35 259.015 143.026 259.507 142.666C259.862 142.411 260.159 142.167 260.396 141.935C260.637 141.702 260.831 141.47 260.977 141.237C261.104 141.046 261.202 140.825 261.271 140.574C261.343 140.324 261.38 140.066 261.38 139.802C261.38 139.264 261.225 138.826 260.915 138.489C260.605 138.152 260.179 137.983 259.637 137.983C259.199 137.983 258.787 138.065 258.399 138.229C258.017 138.394 257.659 138.646 257.326 138.988L256.643 138.332C257.071 137.89 257.534 137.564 258.03 137.354C258.527 137.14 259.083 137.033 259.698 137.033C260.619 137.033 261.318 137.302 261.797 137.84C262.28 138.378 262.521 139 262.521 139.706C262.521 140.066 262.471 140.415 262.371 140.752C262.275 141.085 262.139 141.381 261.961 141.641C261.779 141.923 261.555 142.194 261.291 142.454C261.027 142.714 260.712 142.978 260.348 143.247C259.887 143.566 259.507 143.84 259.206 144.067C258.91 144.295 258.675 144.507 258.502 144.703C258.324 144.904 258.199 145.104 258.126 145.305C258.053 145.505 258.017 145.735 258.017 145.995H262.897V147H256.848ZM267.225 147.171C266.24 147.171 265.477 146.749 264.935 145.906C264.397 145.059 264.128 143.855 264.128 142.297C264.128 140.588 264.41 139.285 264.976 138.387C265.541 137.484 266.359 137.033 267.43 137.033C268.46 137.033 269.23 137.452 269.74 138.291C270.255 139.125 270.513 140.381 270.513 142.058C270.513 143.707 270.223 144.972 269.645 145.852C269.066 146.731 268.259 147.171 267.225 147.171ZM267.375 137.983C266.678 137.983 266.154 138.339 265.803 139.05C265.452 139.756 265.276 140.82 265.276 142.242C265.276 143.564 265.447 144.557 265.789 145.223C266.131 145.883 266.646 146.214 267.334 146.214C268.013 146.214 268.521 145.877 268.858 145.202C269.196 144.528 269.364 143.516 269.364 142.167C269.364 140.772 269.198 139.727 268.865 139.029C268.533 138.332 268.036 137.983 267.375 137.983Z" fill="black"/>
<path d="M242.875 187V186.515C242.875 186.095 242.921 185.726 243.012 185.407C243.103 185.088 243.253 184.785 243.463 184.498C243.673 184.211 243.946 183.924 244.283 183.637C244.625 183.35 245.042 183.026 245.534 182.666C245.89 182.411 246.186 182.167 246.423 181.935C246.664 181.702 246.858 181.47 247.004 181.237C247.132 181.046 247.229 180.825 247.298 180.574C247.371 180.324 247.407 180.066 247.407 179.802C247.407 179.264 247.252 178.826 246.942 178.489C246.632 178.152 246.206 177.983 245.664 177.983C245.227 177.983 244.814 178.065 244.427 178.229C244.044 178.394 243.686 178.646 243.354 178.988L242.67 178.332C243.098 177.89 243.561 177.564 244.058 177.354C244.554 177.14 245.11 177.033 245.726 177.033C246.646 177.033 247.346 177.302 247.824 177.84C248.307 178.378 248.549 179 248.549 179.706C248.549 180.066 248.499 180.415 248.398 180.752C248.303 181.085 248.166 181.381 247.988 181.641C247.806 181.923 247.583 182.194 247.318 182.454C247.054 182.714 246.74 182.978 246.375 183.247C245.915 183.566 245.534 183.84 245.233 184.067C244.937 184.295 244.702 184.507 244.529 184.703C244.352 184.904 244.226 185.104 244.153 185.305C244.08 185.505 244.044 185.735 244.044 185.995H248.925V187H242.875ZM253.252 187.171C252.268 187.171 251.504 186.749 250.962 185.906C250.424 185.059 250.155 183.855 250.155 182.297C250.155 180.588 250.438 179.285 251.003 178.387C251.568 177.484 252.386 177.033 253.457 177.033C254.487 177.033 255.257 177.452 255.768 178.291C256.283 179.125 256.54 180.381 256.54 182.058C256.54 183.707 256.251 184.972 255.672 185.852C255.093 186.731 254.286 187.171 253.252 187.171ZM253.402 177.983C252.705 177.983 252.181 178.339 251.83 179.05C251.479 179.756 251.304 180.82 251.304 182.242C251.304 183.564 251.475 184.557 251.816 185.223C252.158 185.883 252.673 186.214 253.361 186.214C254.04 186.214 254.549 185.877 254.886 185.202C255.223 184.528 255.392 183.516 255.392 182.167C255.392 180.772 255.225 179.727 254.893 179.029C254.56 178.332 254.063 177.983 253.402 177.983ZM257.969 187V186.515C257.969 186.095 258.014 185.726 258.105 185.407C258.197 185.088 258.347 184.785 258.557 184.498C258.766 184.211 259.04 183.924 259.377 183.637C259.719 183.35 260.136 183.026 260.628 182.666C260.983 182.411 261.28 182.167 261.517 181.935C261.758 181.702 261.952 181.47 262.098 181.237C262.225 181.046 262.323 180.825 262.392 180.574C262.465 180.324 262.501 180.066 262.501 179.802C262.501 179.264 262.346 178.826 262.036 178.489C261.726 178.152 261.3 177.983 260.758 177.983C260.32 177.983 259.908 178.065 259.521 178.229C259.138 178.394 258.78 178.646 258.447 178.988L257.764 178.332C258.192 177.89 258.655 177.564 259.151 177.354C259.648 177.14 260.204 177.033 260.819 177.033C261.74 177.033 262.439 177.302 262.918 177.84C263.401 178.378 263.643 179 263.643 179.706C263.643 180.066 263.592 180.415 263.492 180.752C263.396 181.085 263.26 181.381 263.082 181.641C262.9 181.923 262.676 182.194 262.412 182.454C262.148 182.714 261.833 182.978 261.469 183.247C261.008 183.566 260.628 183.84 260.327 184.067C260.031 184.295 259.796 184.507 259.623 184.703C259.445 184.904 259.32 185.104 259.247 185.305C259.174 185.505 259.138 185.735 259.138 185.995H264.019V187H257.969ZM268.305 187H267.184V178.605C267.015 178.756 266.714 178.934 266.281 179.139C265.853 179.344 265.472 179.49 265.14 179.576L264.818 178.592C265.342 178.455 265.898 178.232 266.486 177.922C267.079 177.612 267.544 177.298 267.881 176.979H268.305V187Z" fill="white"/>
<path d="M241.754 227V226.515C241.754 226.095 241.799 225.726 241.891 225.407C241.982 225.088 242.132 224.785 242.342 224.498C242.551 224.211 242.825 223.924 243.162 223.637C243.504 223.35 243.921 223.026 244.413 222.666C244.769 222.411 245.065 222.167 245.302 221.935C245.543 221.702 245.737 221.47 245.883 221.237C246.01 221.046 246.108 220.825 246.177 220.574C246.25 220.324 246.286 220.066 246.286 219.802C246.286 219.264 246.131 218.826 245.821 218.489C245.511 218.152 245.085 217.983 244.543 217.983C244.105 217.983 243.693 218.065 243.306 218.229C242.923 218.394 242.565 218.646 242.232 218.988L241.549 218.332C241.977 217.89 242.44 217.564 242.937 217.354C243.433 217.14 243.989 217.033 244.604 217.033C245.525 217.033 246.225 217.302 246.703 217.84C247.186 218.378 247.428 219 247.428 219.706C247.428 220.066 247.378 220.415 247.277 220.752C247.182 221.085 247.045 221.381 246.867 221.641C246.685 221.923 246.462 222.194 246.197 222.454C245.933 222.714 245.618 222.978 245.254 223.247C244.794 223.566 244.413 223.84 244.112 224.067C243.816 224.295 243.581 224.507 243.408 224.703C243.23 224.904 243.105 225.104 243.032 225.305C242.959 225.505 242.923 225.735 242.923 225.995H247.804V227H241.754ZM252.131 227.171C251.146 227.171 250.383 226.749 249.841 225.906C249.303 225.059 249.034 223.855 249.034 222.297C249.034 220.588 249.317 219.285 249.882 218.387C250.447 217.484 251.265 217.033 252.336 217.033C253.366 217.033 254.136 217.452 254.646 218.291C255.161 219.125 255.419 220.381 255.419 222.058C255.419 223.707 255.13 224.972 254.551 225.852C253.972 226.731 253.165 227.171 252.131 227.171ZM252.281 217.983C251.584 217.983 251.06 218.339 250.709 219.05C250.358 219.756 250.183 220.82 250.183 222.242C250.183 223.564 250.354 224.557 250.695 225.223C251.037 225.883 251.552 226.214 252.24 226.214C252.919 226.214 253.427 225.877 253.765 225.202C254.102 224.528 254.271 223.516 254.271 222.167C254.271 220.772 254.104 219.727 253.771 219.029C253.439 218.332 252.942 217.983 252.281 217.983ZM256.848 227V226.515C256.848 226.095 256.893 225.726 256.984 225.407C257.076 225.088 257.226 224.785 257.436 224.498C257.645 224.211 257.919 223.924 258.256 223.637C258.598 223.35 259.015 223.026 259.507 222.666C259.862 222.411 260.159 222.167 260.396 221.935C260.637 221.702 260.831 221.47 260.977 221.237C261.104 221.046 261.202 220.825 261.271 220.574C261.343 220.324 261.38 220.066 261.38 219.802C261.38 219.264 261.225 218.826 260.915 218.489C260.605 218.152 260.179 217.983 259.637 217.983C259.199 217.983 258.787 218.065 258.399 218.229C258.017 218.394 257.659 218.646 257.326 218.988L256.643 218.332C257.071 217.89 257.534 217.564 258.03 217.354C258.527 217.14 259.083 217.033 259.698 217.033C260.619 217.033 261.318 217.302 261.797 217.84C262.28 218.378 262.521 219 262.521 219.706C262.521 220.066 262.471 220.415 262.371 220.752C262.275 221.085 262.139 221.381 261.961 221.641C261.779 221.923 261.555 222.194 261.291 222.454C261.027 222.714 260.712 222.978 260.348 223.247C259.887 223.566 259.507 223.84 259.206 224.067C258.91 224.295 258.675 224.507 258.502 224.703C258.324 224.904 258.199 225.104 258.126 225.305C258.053 225.505 258.017 225.735 258.017 225.995H262.897V227H256.848ZM264.395 227V226.515C264.395 226.095 264.44 225.726 264.531 225.407C264.622 225.088 264.773 224.785 264.982 224.498C265.192 224.211 265.465 223.924 265.803 223.637C266.145 223.35 266.562 223.026 267.054 222.666C267.409 222.411 267.705 222.167 267.942 221.935C268.184 221.702 268.378 221.47 268.523 221.237C268.651 221.046 268.749 220.825 268.817 220.574C268.89 220.324 268.927 220.066 268.927 219.802C268.927 219.264 268.772 218.826 268.462 218.489C268.152 218.152 267.726 217.983 267.184 217.983C266.746 217.983 266.334 218.065 265.946 218.229C265.563 218.394 265.206 218.646 264.873 218.988L264.189 218.332C264.618 217.89 265.08 217.564 265.577 217.354C266.074 217.14 266.63 217.033 267.245 217.033C268.166 217.033 268.865 217.302 269.344 217.84C269.827 218.378 270.068 219 270.068 219.706C270.068 220.066 270.018 220.415 269.918 220.752C269.822 221.085 269.686 221.381 269.508 221.641C269.326 221.923 269.102 222.194 268.838 222.454C268.574 222.714 268.259 222.978 267.895 223.247C267.434 223.566 267.054 223.84 266.753 224.067C266.457 224.295 266.222 224.507 266.049 224.703C265.871 224.904 265.746 225.104 265.673 225.305C265.6 225.505 265.563 225.735 265.563 225.995H270.444V227H264.395Z" fill="white"/>
<path d="M241.754 267V266.515C241.754 266.095 241.799 265.726 241.891 265.407C241.982 265.088 242.132 264.785 242.342 264.498C242.551 264.211 242.825 263.924 243.162 263.637C243.504 263.35 243.921 263.026 244.413 262.666C244.769 262.411 245.065 262.167 245.302 261.935C245.543 261.702 245.737 261.47 245.883 261.237C246.01 261.046 246.108 260.825 246.177 260.574C246.25 260.324 246.286 260.066 246.286 259.802C246.286 259.264 246.131 258.826 245.821 258.489C245.511 258.152 245.085 257.983 244.543 257.983C244.105 257.983 243.693 258.065 243.306 258.229C242.923 258.394 242.565 258.646 242.232 258.988L241.549 258.332C241.977 257.89 242.44 257.564 242.937 257.354C243.433 257.14 243.989 257.033 244.604 257.033C245.525 257.033 246.225 257.302 246.703 257.84C247.186 258.378 247.428 259 247.428 259.706C247.428 260.066 247.378 260.415 247.277 260.752C247.182 261.085 247.045 261.381 246.867 261.641C246.685 261.923 246.462 262.194 246.197 262.454C245.933 262.714 245.618 262.978 245.254 263.247C244.794 263.566 244.413 263.84 244.112 264.067C243.816 264.295 243.581 264.507 243.408 264.703C243.23 264.904 243.105 265.104 243.032 265.305C242.959 265.505 242.923 265.735 242.923 265.995H247.804V267H241.754ZM252.131 267.171C251.146 267.171 250.383 266.749 249.841 265.906C249.303 265.059 249.034 263.855 249.034 262.297C249.034 260.588 249.317 259.285 249.882 258.387C250.447 257.484 251.265 257.033 252.336 257.033C253.366 257.033 254.136 257.452 254.646 258.291C255.161 259.125 255.419 260.381 255.419 262.058C255.419 263.707 255.13 264.972 254.551 265.852C253.972 266.731 253.165 267.171 252.131 267.171ZM252.281 257.983C251.584 257.983 251.06 258.339 250.709 259.05C250.358 259.756 250.183 260.82 250.183 262.242C250.183 263.564 250.354 264.557 250.695 265.223C251.037 265.883 251.552 266.214 252.24 266.214C252.919 266.214 253.427 265.877 253.765 265.202C254.102 264.528 254.271 263.516 254.271 262.167C254.271 260.772 254.104 259.727 253.771 259.029C253.439 258.332 252.942 257.983 252.281 257.983ZM256.848 267V266.515C256.848 266.095 256.893 265.726 256.984 265.407C257.076 265.088 257.226 264.785 257.436 264.498C257.645 264.211 257.919 263.924 258.256 263.637C258.598 263.35 259.015 263.026 259.507 262.666C259.862 262.411 260.159 262.167 260.396 261.935C260.637 261.702 260.831 261.47 260.977 261.237C261.104 261.046 261.202 260.825 261.271 260.574C261.343 260.324 261.38 260.066 261.38 259.802C261.38 259.264 261.225 258.826 260.915 258.489C260.605 258.152 260.179 257.983 259.637 257.983C259.199 257.983 258.787 258.065 258.399 258.229C258.017 258.394 257.659 258.646 257.326 258.988L256.643 258.332C257.071 257.89 257.534 257.564 258.03 257.354C258.527 257.14 259.083 257.033 259.698 257.033C260.619 257.033 261.318 257.302 261.797 257.84C262.28 258.378 262.521 259 262.521 259.706C262.521 260.066 262.471 260.415 262.371 260.752C262.275 261.085 262.139 261.381 261.961 261.641C261.779 261.923 261.555 262.194 261.291 262.454C261.027 262.714 260.712 262.978 260.348 263.247C259.887 263.566 259.507 263.84 259.206 264.067C258.91 264.295 258.675 264.507 258.502 264.703C258.324 264.904 258.199 265.104 258.126 265.305C258.053 265.505 258.017 265.735 258.017 265.995H262.897V267H256.848ZM264.285 266.337L264.805 265.53C265.169 265.767 265.534 265.94 265.898 266.05C266.268 266.159 266.641 266.214 267.02 266.214C267.749 266.214 268.293 266.041 268.653 265.694C269.018 265.348 269.2 264.906 269.2 264.368C269.2 263.703 268.972 263.211 268.517 262.892C268.061 262.568 267.377 262.406 266.466 262.406H265.652V261.456H266.425C267.231 261.456 267.835 261.306 268.236 261.005C268.642 260.704 268.845 260.235 268.845 259.597C268.845 259.077 268.685 258.678 268.366 258.4C268.052 258.122 267.674 257.983 267.231 257.983C266.853 257.983 266.491 258.043 266.145 258.161C265.803 258.28 265.47 258.464 265.146 258.715L264.559 257.97C264.973 257.646 265.399 257.409 265.837 257.259C266.274 257.108 266.755 257.033 267.279 257.033C268.1 257.033 268.756 257.25 269.248 257.683C269.745 258.116 269.993 258.708 269.993 259.46C269.993 260.043 269.829 260.545 269.501 260.964C269.177 261.379 268.69 261.677 268.038 261.859V261.887C268.703 261.96 269.255 262.206 269.692 262.625C270.13 263.04 270.349 263.589 270.349 264.272C270.349 265.175 270.048 265.883 269.446 266.398C268.849 266.913 268.07 267.171 267.108 267.171C266.575 267.171 266.083 267.105 265.632 266.973C265.181 266.84 264.732 266.629 264.285 266.337Z" fill="white"/>
<line x1="135.5" y1="124" x2="135.5" y2="160" stroke="black" stroke-opacity="0.2169"/>
<line x1="215.5" y1="124" x2="215.5" y2="160" stroke="black" stroke-opacity="0.2169"/>
<line x1="295" y1="284.5" x2="1" y2="284.5" stroke="white" stroke-opacity="0.0837"/>
<path d="M67 304.5C67 304.365 67.0495 304.247 67.1484 304.148C67.2474 304.049 67.3646 304 67.5 304C67.6354 304 67.7526 304.049 67.8516 304.148L72.5 308.789L82.1484 299.148C82.2474 299.049 82.3646 299 82.5 299C82.6354 299 82.7526 299.049 82.8516 299.148C82.9505 299.247 83 299.365 83 299.5C83 299.635 82.9505 299.753 82.8516 299.852L72.8516 309.852C72.7526 309.951 72.6354 310 72.5 310C72.3646 310 72.2474 309.951 72.1484 309.852L67.1484 304.852C67.0495 304.753 67 304.635 67 304.5Z" fill="white"/>
<path d="M222.203 304.5L226.852 309.148C226.951 309.247 227 309.365 227 309.5C227 309.635 226.951 309.753 226.852 309.852C226.753 309.951 226.635 310 226.5 310C226.365 310 226.247 309.951 226.148 309.852L221.5 305.203L216.852 309.852C216.753 309.951 216.635 310 216.5 310C216.365 310 216.247 309.951 216.148 309.852C216.049 309.753 216 309.635 216 309.5C216 309.365 216.049 309.247 216.148 309.148L220.797 304.5L216.148 299.852C216.049 299.753 216 299.635 216 299.5C216 299.365 216.049 299.247 216.148 299.148C216.247 299.049 216.365 299 216.5 299C216.635 299 216.753 299.049 216.852 299.148L221.5 303.797L226.148 299.148C226.247 299.049 226.365 299 226.5 299C226.635 299 226.753 299.049 226.852 299.148C226.951 299.247 227 299.365 227 299.5C227 299.635 226.951 299.753 226.852 299.852L222.203 304.5Z" fill="white"/>
<defs>
<filter id="filter0_b" x="-59" y="-59" width="414" height="444" filterUnits="userSpaceOnUse" color-interpolation-filters="sRGB">
<feFlood flood-opacity="0" result="BackgroundImageFix"/>
<feGaussianBlur in="BackgroundImage" stdDeviation="30"/>
<feComposite in2="SourceAlpha" operator="in" result="effect1_backgroundBlur"/>
<feBlend mode="normal" in="SourceGraphic" in2="effect1_backgroundBlur" result="shape"/>
</filter>
<pattern id="pattern0" patternContentUnits="objectBoundingBox" width="0.870748" height="0.790123">
<use xlink:href="#image0" transform="scale(0.00340136 0.00308642)"/>
</pattern>
<image id="image0" width="256" height="256" xlink:href="https://i.imgur.com/5hRlbaM.png"/>
</defs>
</svg>
