<svg class="InkToolbar" width="328" height="260" viewBox="0 0 328 260" fill="none" xmlns="http://www.w3.org/2000/svg" xmlns:xlink="http://www.w3.org/1999/xlink">
<g filter="url(#filter0_b)">
<rect x="1" y="1" width="326" height="258" rx="7" fill="#2C2C2C" fill-opacity="0.96" style="mix-blend-mode:luminosity"/>
<rect x="1" y="1" width="326" height="258" rx="7" fill="#2C2C2C" fill-opacity="0.15" style="mix-blend-mode:color"/>
<rect x="1" y="1" width="326" height="258" rx="7" fill="url(#pattern0)" fill-opacity="0.02"/>
</g>
<g style="mix-blend-mode:multiply">
<rect x="1" y="1" width="326" height="258" rx="7" fill="white"/>
</g>
<rect x="0.5" y="0.5" width="327" height="259" rx="7.5" stroke="black" stroke-opacity="0.2"/>
<path d="M24.333 28.5146C23.8408 28.7425 23.3623 28.9066 22.8975 29.0068C22.4326 29.1117 21.9268 29.1641 21.3799 29.1641C19.8805 29.1641 18.707 28.7266 17.8594 27.8516C17.0117 26.972 16.5879 25.7734 16.5879 24.2559C16.5879 22.7064 17.055 21.4486 17.9893 20.4824C18.9281 19.5163 20.1562 19.0332 21.6738 19.0332C22.1615 19.0332 22.6081 19.0742 23.0137 19.1562C23.4238 19.2337 23.8477 19.3613 24.2852 19.5391L23.7588 20.8652C23.4124 20.724 23.0752 20.6214 22.7471 20.5576C22.4235 20.4938 22.0726 20.4619 21.6943 20.4619C20.7008 20.4619 19.8851 20.7923 19.2471 21.4531C18.6136 22.1139 18.2969 23.0117 18.2969 24.1465C18.2969 25.2539 18.5908 26.1289 19.1787 26.7715C19.7666 27.4095 20.555 27.7285 21.5439 27.7285C21.8675 27.7285 22.2139 27.6875 22.583 27.6055C22.9521 27.5234 23.3327 27.389 23.7246 27.2021L24.333 28.5146ZM28.8379 29.1641C27.7441 29.1641 26.876 28.8382 26.2334 28.1865C25.5954 27.5303 25.2764 26.653 25.2764 25.5547C25.2809 24.3926 25.6136 23.4834 26.2744 22.8271C26.9352 22.1663 27.8353 21.8359 28.9746 21.8359C30.0729 21.8314 30.9297 22.1549 31.5449 22.8066C32.1647 23.4538 32.4746 24.3311 32.4746 25.4385C32.4746 26.5778 32.1465 27.4847 31.4902 28.1592C30.8385 28.8291 29.9544 29.1641 28.8379 29.1641ZM28.9131 27.8994C29.5465 27.8994 30.0273 27.6921 30.3555 27.2773C30.6882 26.8626 30.8545 26.2633 30.8545 25.4795C30.8545 24.7048 30.6882 24.1146 30.3555 23.709C30.0228 23.3034 29.5397 23.1006 28.9062 23.1006C28.2819 23.1006 27.7897 23.3148 27.4297 23.7432C27.0742 24.1715 26.8965 24.764 26.8965 25.5205C26.8965 26.2816 27.0742 26.8695 27.4297 27.2842C27.7852 27.6943 28.2796 27.8994 28.9131 27.8994ZM34.0947 29V18.6367H35.6875V29H34.0947ZM40.8691 29.1641C39.7754 29.1641 38.9072 28.8382 38.2646 28.1865C37.6266 27.5303 37.3076 26.653 37.3076 25.5547C37.3122 24.3926 37.6449 23.4834 38.3057 22.8271C38.9665 22.1663 39.8665 21.8359 41.0059 21.8359C42.1042 21.8314 42.9609 22.1549 43.5762 22.8066C44.196 23.4538 44.5059 24.3311 44.5059 25.4385C44.5059 26.5778 44.1777 27.4847 43.5215 28.1592C42.8698 28.8291 41.9857 29.1641 40.8691 29.1641ZM40.9443 27.8994C41.5778 27.8994 42.0586 27.6921 42.3867 27.2773C42.7194 26.8626 42.8857 26.2633 42.8857 25.4795C42.8857 24.7048 42.7194 24.1146 42.3867 23.709C42.054 23.3034 41.571 23.1006 40.9375 23.1006C40.3132 23.1006 39.821 23.3148 39.4609 23.7432C39.1055 24.1715 38.9277 24.764 38.9277 25.5205C38.9277 26.2816 39.1055 26.8695 39.4609 27.2842C39.8164 27.6943 40.3109 27.8994 40.9443 27.8994ZM50.0225 23.333C49.9359 23.3102 49.8516 23.2943 49.7695 23.2852C49.6921 23.2715 49.6009 23.2646 49.4961 23.2646C48.9264 23.2646 48.4889 23.4743 48.1836 23.8936C47.8783 24.3128 47.7256 24.8597 47.7256 25.5342V29H46.1328V22H47.7256V23.3467H47.7529C47.917 22.8636 48.1585 22.499 48.4775 22.2529C48.7965 22.0023 49.1725 21.877 49.6055 21.877C49.7285 21.877 49.8379 21.8838 49.9336 21.8975C50.0339 21.9111 50.1296 21.9316 50.2207 21.959L50.0225 23.333ZM50.7266 28.4395L51.417 27.3184C51.6904 27.5098 51.9798 27.6647 52.2852 27.7832C52.5951 27.8971 52.93 27.9541 53.29 27.9541C53.682 27.9541 53.985 27.8835 54.1992 27.7422C54.418 27.5964 54.5273 27.3799 54.5273 27.0928C54.5273 26.8649 54.4362 26.6758 54.2539 26.5254C54.0762 26.3704 53.7708 26.2428 53.3379 26.1426C52.4629 25.9375 51.8477 25.6663 51.4922 25.3291C51.1413 24.9919 50.9658 24.5475 50.9658 23.9961C50.9658 23.3626 51.2119 22.8454 51.7041 22.4443C52.1963 22.0387 52.8411 21.8359 53.6387 21.8359C54.0352 21.8359 54.4134 21.8883 54.7734 21.9932C55.1335 22.0934 55.4844 22.2552 55.8262 22.4785L55.1836 23.5723C54.8828 23.3809 54.6071 23.2441 54.3564 23.1621C54.1058 23.0801 53.8483 23.0391 53.584 23.0391C53.2103 23.0391 52.9186 23.1097 52.709 23.251C52.5039 23.3877 52.4014 23.5791 52.4014 23.8252C52.4014 24.085 52.5062 24.2786 52.7158 24.4062C52.93 24.5293 53.2878 24.6501 53.7891 24.7686C54.5456 24.9508 55.0993 25.2152 55.4502 25.5615C55.8011 25.9033 55.9766 26.3613 55.9766 26.9355C55.9766 27.6146 55.7282 28.1569 55.2314 28.5625C54.7393 28.9635 54.0716 29.1641 53.2285 29.1641C52.7728 29.1641 52.3353 29.1048 51.916 28.9863C51.5013 28.8633 51.1048 28.681 50.7266 28.4395Z" fill="white"/>
<rect x="16" y="52" width="36" height="36" rx="18" fill="#FCDB4A"/>
<path d="M14.5 70C14.5 59.2304 23.2304 50.5 34 50.5C44.7696 50.5 53.5 59.2304 53.5 70C53.5 80.7696 44.7696 89.5 34 89.5C23.2304 89.5 14.5 80.7696 14.5 70Z" stroke="black" stroke-opacity="0.7" stroke-width="3"/>
<path d="M14 70C14 58.9543 22.9543 50 34 50C45.0457 50 54 58.9543 54 70C54 81.0457 45.0457 90 34 90C22.9543 90 14 81.0457 14 70Z" stroke="white" stroke-width="2"/>
<rect x="68" y="52" width="36" height="36" rx="18" fill="#61C339"/>
<rect x="120" y="52" width="36" height="36" rx="18" fill="#68BCF7"/>
<rect x="172" y="52" width="36" height="36" rx="18" fill="#E73E8D"/>
<rect x="224" y="52" width="36" height="36" rx="18" fill="#F96D2F"/>
<rect x="276" y="52" width="36" height="36" rx="18" fill="#6524CB"/>
<path d="M16.3828 128.296L17.1074 127.045C17.5495 127.318 17.9619 127.512 18.3447 127.626C18.7275 127.735 19.1559 127.79 19.6299 127.79C20.195 127.79 20.6393 127.669 20.9629 127.428C21.291 127.182 21.4551 126.831 21.4551 126.375C21.4551 125.96 21.3184 125.634 21.0449 125.397C20.776 125.156 20.318 124.935 19.6709 124.734C18.6729 124.438 17.9391 124.071 17.4697 123.634C17.0003 123.196 16.7656 122.604 16.7656 121.856C16.7656 121.045 17.0687 120.373 17.6748 119.84C18.2809 119.302 19.1035 119.033 20.1426 119.033C20.5983 119.033 21.0472 119.083 21.4893 119.184C21.9313 119.284 22.3688 119.439 22.8018 119.648L22.1934 120.947C21.8151 120.751 21.4528 120.612 21.1064 120.53C20.7646 120.448 20.416 120.407 20.0605 120.407C19.541 120.407 19.1309 120.521 18.8301 120.749C18.5339 120.977 18.3857 121.298 18.3857 121.713C18.3857 122.082 18.5225 122.374 18.7959 122.588C19.0693 122.798 19.5387 123.005 20.2041 123.21C21.2249 123.515 21.9587 123.896 22.4053 124.352C22.8564 124.807 23.082 125.434 23.082 126.231C23.082 127.088 22.7767 127.792 22.166 128.344C21.5553 128.891 20.6849 129.164 19.5547 129.164C18.9896 129.164 18.4382 129.093 17.9004 128.952C17.3626 128.806 16.8568 128.588 16.3828 128.296ZM25.4678 120.646C25.1761 120.646 24.9346 120.553 24.7432 120.366C24.5518 120.179 24.4561 119.949 24.4561 119.676C24.4561 119.393 24.5518 119.161 24.7432 118.979C24.9346 118.796 25.1761 118.705 25.4678 118.705C25.764 118.705 26.0078 118.796 26.1992 118.979C26.3906 119.161 26.4863 119.393 26.4863 119.676C26.4863 119.954 26.3906 120.186 26.1992 120.373C26.0078 120.555 25.764 120.646 25.4678 120.646ZM26.2539 129H24.6611V122H26.2539V129ZM33.4932 122.656L29.7197 127.756H33.4863V129H27.4912V128.405L31.3535 123.244H27.8672V122H33.4932V122.656ZM40.7598 125.917H35.9814C36.0088 126.578 36.2002 127.081 36.5557 127.428C36.9111 127.77 37.4079 127.94 38.0459 127.94C38.3057 127.94 38.6019 127.888 38.9346 127.783C39.2673 127.678 39.5954 127.51 39.9189 127.277L40.6367 128.269C40.2038 128.583 39.764 128.811 39.3174 128.952C38.8708 129.093 38.3786 129.164 37.8408 129.164C36.7516 129.164 35.904 128.852 35.2979 128.228C34.6917 127.599 34.3864 126.721 34.3818 125.596C34.3818 124.475 34.694 123.568 35.3184 122.875C35.9473 122.182 36.7516 121.836 37.7314 121.836C38.6702 121.836 39.4085 122.132 39.9463 122.725C40.4886 123.312 40.7598 124.146 40.7598 125.227V125.917ZM39.2217 124.816C39.2217 124.215 39.0895 123.764 38.8252 123.463C38.5654 123.158 38.1963 123.005 37.7178 123.005C37.2666 123.005 36.8815 123.169 36.5625 123.497C36.248 123.821 36.0544 124.26 35.9814 124.816H39.2217Z" fill="white"/>
<path d="M34 171.899C90 192.899 74 166.899 116 156.899C158 146.899 165 187.899 203 182.899C241 177.899 263 141.899 292 148.899" stroke="#FCDB4A" stroke-width="3"/>
<rect x="306.5" y="222.5" width="3.00001" height="286" rx="1.5" transform="rotate(90 306.5 222.5)" stroke="white" stroke-opacity="0.5442"/>
<path d="M305 223C305.552 223 306 223.448 306 224C306 224.552 305.552 225 305 225L22 225C21.4477 225 21 224.552 21 224C21 223.448 21.4477 223 22 223L305 223Z" fill="white" fill-opacity="0.5442"/>
<path d="M126 222L126 226L22 226C20.8954 226 20 225.105 20 224C20 222.895 20.8954 222 22 222L126 222Z"
      class="accent-color"/>
<path d="M126 213.5C120.201 213.5 115.5 218.201 115.5 224C115.5 229.799 120.201 234.5 126 234.5C131.799 234.5 136.5 229.799 136.5 224C136.5 218.201 131.799 213.5 126 213.5Z" fill="#454545" stroke="url(#paint0_linear)"/>
    <path d="M120 224C120 220.686 122.686 218 126 218C129.314 218 132 220.686 132 224C132 227.314 129.314 230 126 230C122.686 230 120 227.314 120 224Z"
          class="accent-color"/>
<defs>
<filter id="filter0_b" x="-59" y="-59" width="446" height="378" filterUnits="userSpaceOnUse" color-interpolation-filters="sRGB">
<feFlood flood-opacity="0" result="BackgroundImageFix"/>
<feGaussianBlur in="BackgroundImage" stdDeviation="30"/>
<feComposite in2="SourceAlpha" operator="in" result="effect1_backgroundBlur"/>
<feBlend mode="normal" in="SourceGraphic" in2="effect1_backgroundBlur" result="shape"/>
</filter>
<pattern id="pattern0" patternContentUnits="objectBoundingBox" width="0.785276" height="0.992248">
<use xlink:href="#image0" transform="scale(0.00306748 0.00387597)"/>
</pattern>
<linearGradient id="paint0_linear" x1="126" y1="214" x2="126" y2="234" gradientUnits="userSpaceOnUse">
<stop stop-color="white" stop-opacity="0.093"/>
<stop offset="0.5" stop-color="white" stop-opacity="0.0698"/>
</linearGradient>
<image id="image0" width="256" height="256" xlink:href="https://i.imgur.com/5hRlbaM.png"/>
</defs>
</svg>