<svg class="NavigationView" width="322" height="602" viewBox="0 0 322 602" fill="none" xmlns="http://www.w3.org/2000/svg">
<rect x="1" y="1" width="320" height="600" rx="7" fill="#202020"/>
<g style="mix-blend-mode:multiply">
<rect x="1" y="1" width="320" height="600" rx="7" fill="white"/>
</g>
<rect x="0.5" y="0.5" width="321" height="601" rx="7.5" stroke="white" stroke-opacity="0.0837"/>
<path d="M31 56.4023C31 56.4844 30.9844 56.5625 30.9531 56.6367C30.9219 56.707 30.8789 56.7695 30.8242 56.8242C30.7695 56.8789 30.7051 56.9219 30.6309 56.9531C30.5605 56.9844 30.4844 57 30.4023 57H21.0449L24.8242 60.7734C24.9414 60.8906 25 61.0312 25 61.1953C25 61.2773 24.9844 61.3555 24.9531 61.4297C24.9219 61.5039 24.8789 61.5684 24.8242 61.623C24.7734 61.6777 24.7109 61.7207 24.6367 61.752C24.5625 61.7832 24.4844 61.7988 24.4023 61.7988C24.2344 61.7988 24.0918 61.7402 23.9746 61.623L19.1758 56.8242L19.1582 56.8066V56.8008C19.0527 56.6953 19 56.5625 19 56.4023C19 56.2344 19.0586 56.0918 19.1758 55.9746L23.9746 51.1758C24.0918 51.0586 24.2344 51 24.4023 51C24.4844 51 24.5605 51.0156 24.6309 51.0469C24.7051 51.0781 24.7695 51.1211 24.8242 51.1758C24.8789 51.2305 24.9219 51.2949 24.9531 51.3691C24.9844 51.4395 25 51.5156 25 51.5977C25 51.7656 24.9414 51.9082 24.8242 52.0254L21.0508 55.7988H30.4023C30.4844 55.7988 30.5605 55.8145 30.6309 55.8457C30.7051 55.877 30.7695 55.9219 30.8242 55.9805C30.8789 56.0352 30.9219 56.0996 30.9531 56.1738C30.9844 56.2441 31 56.3203 31 56.4023Z" fill="white"/>
<path d="M17.5 92C17.3646 92 17.2474 91.9505 17.1484 91.8516C17.0495 91.7526 17 91.6354 17 91.5C17 91.3646 17.0495 91.2474 17.1484 91.1484C17.2474 91.0495 17.3646 91 17.5 91H32.5C32.6354 91 32.7526 91.0495 32.8516 91.1484C32.9505 91.2474 33 91.3646 33 91.5C33 91.6354 32.9505 91.7526 32.8516 91.8516C32.7526 91.9505 32.6354 92 32.5 92H17.5ZM17.5 97C17.3646 97 17.2474 96.9505 17.1484 96.8516C17.0495 96.7526 17 96.6354 17 96.5C17 96.3646 17.0495 96.2474 17.1484 96.1484C17.2474 96.0495 17.3646 96 17.5 96H32.5C32.6354 96 32.7526 96.0495 32.8516 96.1484C32.9505 96.2474 33 96.3646 33 96.5C33 96.6354 32.9505 96.7526 32.8516 96.8516C32.7526 96.9505 32.6354 97 32.5 97H17.5ZM17.5 102C17.3646 102 17.2474 101.951 17.1484 101.852C17.0495 101.753 17 101.635 17 101.5C17 101.365 17.0495 101.247 17.1484 101.148C17.2474 101.049 17.3646 101 17.5 101H32.5C32.6354 101 32.7526 101.049 32.8516 101.148C32.9505 101.247 33 101.365 33 101.5C33 101.635 32.9505 101.753 32.8516 101.852C32.7526 101.951 32.6354 102 32.5 102H17.5Z" fill="white"/>
<path d="M32 135.5C32 136.005 31.9349 136.492 31.8047 136.961C31.6745 137.43 31.4896 137.87 31.25 138.281C31.0104 138.688 30.724 139.057 30.3906 139.391C30.0573 139.724 29.6849 140.01 29.2734 140.25C28.8672 140.49 28.4297 140.674 27.9609 140.805C27.4922 140.935 27.0052 141 26.5 141C25.8542 141 25.2266 140.891 24.6172 140.672C24.013 140.453 23.4661 140.138 22.9766 139.727L18.8516 143.852C18.7526 143.951 18.6354 144 18.5 144C18.3646 144 18.2474 143.951 18.1484 143.852C18.0495 143.753 18 143.635 18 143.5C18 143.365 18.0495 143.247 18.1484 143.148L22.2734 139.023C21.862 138.534 21.5469 137.987 21.3281 137.383C21.1094 136.773 21 136.146 21 135.5C21 134.995 21.0651 134.508 21.1953 134.039C21.3255 133.565 21.5104 133.125 21.75 132.719C21.9896 132.312 22.276 131.943 22.6094 131.609C22.9427 131.276 23.3125 130.99 23.7188 130.75C24.125 130.51 24.5625 130.326 25.0312 130.195C25.5 130.065 25.9896 130 26.5 130C27.0052 130 27.4922 130.065 27.9609 130.195C28.4297 130.326 28.8672 130.51 29.2734 130.75C29.6849 130.99 30.0573 131.276 30.3906 131.609C30.724 131.943 31.0104 132.315 31.25 132.727C31.4896 133.133 31.6745 133.57 31.8047 134.039C31.9349 134.508 32 134.995 32 135.5ZM31 135.5C31 134.88 30.8802 134.297 30.6406 133.75C30.4062 133.203 30.0859 132.727 29.6797 132.32C29.2734 131.914 28.7969 131.594 28.25 131.359C27.7031 131.12 27.1198 131 26.5 131C25.8802 131 25.2969 131.12 24.75 131.359C24.2031 131.594 23.7266 131.914 23.3203 132.32C22.9141 132.727 22.5911 133.203 22.3516 133.75C22.1172 134.297 22 134.88 22 135.5C22 136.125 22.1172 136.711 22.3516 137.258C22.5859 137.805 22.9062 138.281 23.3125 138.688C23.7188 139.094 24.1953 139.414 24.7422 139.648C25.2891 139.883 25.875 140 26.5 140C27.125 140 27.7109 139.883 28.2578 139.648C28.8047 139.414 29.2812 139.094 29.6875 138.688C30.0938 138.281 30.4141 137.805 30.6484 137.258C30.8828 136.711 31 136.125 31 135.5Z" fill="white"/>
<rect x="6" y="160" width="38" height="34" rx="3" fill="white" fill-opacity="0.0605"/>
<rect x="5.5" y="159.5" width="39" height="35" rx="3.5" stroke="white" stroke-opacity="0.0605"/>
<path d="M17 177C17 176.266 17.0938 175.557 17.2812 174.875C17.474 174.193 17.7448 173.557 18.0938 172.969C18.4427 172.375 18.8594 171.836 19.3438 171.352C19.8333 170.862 20.3724 170.443 20.9609 170.094C21.5547 169.745 22.1927 169.477 22.875 169.289C23.5573 169.096 24.2656 169 25 169C25.7344 169 26.4427 169.096 27.125 169.289C27.8073 169.477 28.4427 169.745 29.0312 170.094C29.625 170.443 30.1641 170.862 30.6484 171.352C31.138 171.836 31.5573 172.375 31.9062 172.969C32.2552 173.557 32.5234 174.193 32.7109 174.875C32.9036 175.557 33 176.266 33 177C33 177.734 32.9036 178.443 32.7109 179.125C32.5234 179.807 32.2552 180.445 31.9062 181.039C31.5573 181.628 31.138 182.167 30.6484 182.656C30.1641 183.141 29.625 183.557 29.0312 183.906C28.4427 184.255 27.8073 184.526 27.125 184.719C26.4427 184.906 25.7344 185 25 185C24.2656 185 23.5573 184.906 22.875 184.719C22.1927 184.526 21.5547 184.255 20.9609 183.906C20.3724 183.557 19.8333 183.141 19.3438 182.656C18.8594 182.167 18.4427 181.628 18.0938 181.039C17.7448 180.445 17.474 179.807 17.2812 179.125C17.0938 178.443 17 177.734 17 177ZM32 177C32 176.359 31.9167 175.742 31.75 175.148C31.5833 174.549 31.3464 173.992 31.0391 173.477C30.737 172.956 30.3724 172.482 29.9453 172.055C29.5182 171.628 29.0443 171.263 28.5234 170.961C28.0078 170.654 27.4505 170.417 26.8516 170.25C26.2578 170.083 25.6406 170 25 170C24.3542 170 23.7318 170.083 23.1328 170.25C22.5391 170.417 21.9818 170.654 21.4609 170.961C20.9453 171.263 20.474 171.628 20.0469 172.055C19.625 172.477 19.2604 172.948 18.9531 173.469C18.651 173.984 18.4167 174.542 18.25 175.141C18.0833 175.734 18 176.354 18 177C18 177.646 18.0833 178.268 18.25 178.867C18.4167 179.461 18.651 180.018 18.9531 180.539C19.2604 181.055 19.625 181.526 20.0469 181.953C20.474 182.375 20.9453 182.74 21.4609 183.047C21.9818 183.349 22.5391 183.583 23.1328 183.75C23.7318 183.917 24.3542 184 25 184C25.6458 184 26.2656 183.917 26.8594 183.75C27.4583 183.583 28.0156 183.349 28.5312 183.047C29.0521 182.74 29.5234 182.375 29.9453 181.953C30.3724 181.526 30.737 181.055 31.0391 180.539C31.3464 180.018 31.5833 179.461 31.75 178.867C31.9167 178.268 32 177.646 32 177Z" fill="white"/>
<rect x="5" y="169" width="3" height="16" rx="1.5" fill="#60CDFF"/>
<path d="M17 217C17 216.266 17.0938 215.557 17.2812 214.875C17.474 214.193 17.7448 213.557 18.0938 212.969C18.4427 212.375 18.8594 211.836 19.3438 211.352C19.8333 210.862 20.3724 210.443 20.9609 210.094C21.5547 209.745 22.1927 209.477 22.875 209.289C23.5573 209.096 24.2656 209 25 209C25.7344 209 26.4427 209.096 27.125 209.289C27.8073 209.477 28.4427 209.745 29.0312 210.094C29.625 210.443 30.1641 210.862 30.6484 211.352C31.138 211.836 31.5573 212.375 31.9062 212.969C32.2552 213.557 32.5234 214.193 32.7109 214.875C32.9036 215.557 33 216.266 33 217C33 217.734 32.9036 218.443 32.7109 219.125C32.5234 219.807 32.2552 220.445 31.9062 221.039C31.5573 221.628 31.138 222.167 30.6484 222.656C30.1641 223.141 29.625 223.557 29.0312 223.906C28.4427 224.255 27.8073 224.526 27.125 224.719C26.4427 224.906 25.7344 225 25 225C24.2656 225 23.5573 224.906 22.875 224.719C22.1927 224.526 21.5547 224.255 20.9609 223.906C20.3724 223.557 19.8333 223.141 19.3438 222.656C18.8594 222.167 18.4427 221.628 18.0938 221.039C17.7448 220.445 17.474 219.807 17.2812 219.125C17.0938 218.443 17 217.734 17 217ZM32 217C32 216.359 31.9167 215.742 31.75 215.148C31.5833 214.549 31.3464 213.992 31.0391 213.477C30.737 212.956 30.3724 212.482 29.9453 212.055C29.5182 211.628 29.0443 211.263 28.5234 210.961C28.0078 210.654 27.4505 210.417 26.8516 210.25C26.2578 210.083 25.6406 210 25 210C24.3542 210 23.7318 210.083 23.1328 210.25C22.5391 210.417 21.9818 210.654 21.4609 210.961C20.9453 211.263 20.474 211.628 20.0469 212.055C19.625 212.477 19.2604 212.948 18.9531 213.469C18.651 213.984 18.4167 214.542 18.25 215.141C18.0833 215.734 18 216.354 18 217C18 217.646 18.0833 218.268 18.25 218.867C18.4167 219.461 18.651 220.018 18.9531 220.539C19.2604 221.055 19.625 221.526 20.0469 221.953C20.474 222.375 20.9453 222.74 21.4609 223.047C21.9818 223.349 22.5391 223.583 23.1328 223.75C23.7318 223.917 24.3542 224 25 224C25.6458 224 26.2656 223.917 26.8594 223.75C27.4583 223.583 28.0156 223.349 28.5312 223.047C29.0521 222.74 29.5234 222.375 29.9453 221.953C30.3724 221.526 30.737 221.055 31.0391 220.539C31.3464 220.018 31.5833 219.461 31.75 218.867C31.9167 218.268 32 217.646 32 217Z" fill="white"/>
<path d="M17 257C17 256.266 17.0938 255.557 17.2812 254.875C17.474 254.193 17.7448 253.557 18.0938 252.969C18.4427 252.375 18.8594 251.836 19.3438 251.352C19.8333 250.862 20.3724 250.443 20.9609 250.094C21.5547 249.745 22.1927 249.477 22.875 249.289C23.5573 249.096 24.2656 249 25 249C25.7344 249 26.4427 249.096 27.125 249.289C27.8073 249.477 28.4427 249.745 29.0312 250.094C29.625 250.443 30.1641 250.862 30.6484 251.352C31.138 251.836 31.5573 252.375 31.9062 252.969C32.2552 253.557 32.5234 254.193 32.7109 254.875C32.9036 255.557 33 256.266 33 257C33 257.734 32.9036 258.443 32.7109 259.125C32.5234 259.807 32.2552 260.445 31.9062 261.039C31.5573 261.628 31.138 262.167 30.6484 262.656C30.1641 263.141 29.625 263.557 29.0312 263.906C28.4427 264.255 27.8073 264.526 27.125 264.719C26.4427 264.906 25.7344 265 25 265C24.2656 265 23.5573 264.906 22.875 264.719C22.1927 264.526 21.5547 264.255 20.9609 263.906C20.3724 263.557 19.8333 263.141 19.3438 262.656C18.8594 262.167 18.4427 261.628 18.0938 261.039C17.7448 260.445 17.474 259.807 17.2812 259.125C17.0938 258.443 17 257.734 17 257ZM32 257C32 256.359 31.9167 255.742 31.75 255.148C31.5833 254.549 31.3464 253.992 31.0391 253.477C30.737 252.956 30.3724 252.482 29.9453 252.055C29.5182 251.628 29.0443 251.263 28.5234 250.961C28.0078 250.654 27.4505 250.417 26.8516 250.25C26.2578 250.083 25.6406 250 25 250C24.3542 250 23.7318 250.083 23.1328 250.25C22.5391 250.417 21.9818 250.654 21.4609 250.961C20.9453 251.263 20.474 251.628 20.0469 252.055C19.625 252.477 19.2604 252.948 18.9531 253.469C18.651 253.984 18.4167 254.542 18.25 255.141C18.0833 255.734 18 256.354 18 257C18 257.646 18.0833 258.268 18.25 258.867C18.4167 259.461 18.651 260.018 18.9531 260.539C19.2604 261.055 19.625 261.526 20.0469 261.953C20.474 262.375 20.9453 262.74 21.4609 263.047C21.9818 263.349 22.5391 263.583 23.1328 263.75C23.7318 263.917 24.3542 264 25 264C25.6458 264 26.2656 263.917 26.8594 263.75C27.4583 263.583 28.0156 263.349 28.5312 263.047C29.0521 262.74 29.5234 262.375 29.9453 261.953C30.3724 261.526 30.737 261.055 31.0391 260.539C31.3464 260.018 31.5833 259.461 31.75 258.867C31.9167 258.268 32 257.646 32 257Z" fill="white"/>
<path d="M17 297C17 296.266 17.0938 295.557 17.2812 294.875C17.474 294.193 17.7448 293.557 18.0938 292.969C18.4427 292.375 18.8594 291.836 19.3438 291.352C19.8333 290.862 20.3724 290.443 20.9609 290.094C21.5547 289.745 22.1927 289.477 22.875 289.289C23.5573 289.096 24.2656 289 25 289C25.7344 289 26.4427 289.096 27.125 289.289C27.8073 289.477 28.4427 289.745 29.0312 290.094C29.625 290.443 30.1641 290.862 30.6484 291.352C31.138 291.836 31.5573 292.375 31.9062 292.969C32.2552 293.557 32.5234 294.193 32.7109 294.875C32.9036 295.557 33 296.266 33 297C33 297.734 32.9036 298.443 32.7109 299.125C32.5234 299.807 32.2552 300.445 31.9062 301.039C31.5573 301.628 31.138 302.167 30.6484 302.656C30.1641 303.141 29.625 303.557 29.0312 303.906C28.4427 304.255 27.8073 304.526 27.125 304.719C26.4427 304.906 25.7344 305 25 305C24.2656 305 23.5573 304.906 22.875 304.719C22.1927 304.526 21.5547 304.255 20.9609 303.906C20.3724 303.557 19.8333 303.141 19.3438 302.656C18.8594 302.167 18.4427 301.628 18.0938 301.039C17.7448 300.445 17.474 299.807 17.2812 299.125C17.0938 298.443 17 297.734 17 297ZM32 297C32 296.359 31.9167 295.742 31.75 295.148C31.5833 294.549 31.3464 293.992 31.0391 293.477C30.737 292.956 30.3724 292.482 29.9453 292.055C29.5182 291.628 29.0443 291.263 28.5234 290.961C28.0078 290.654 27.4505 290.417 26.8516 290.25C26.2578 290.083 25.6406 290 25 290C24.3542 290 23.7318 290.083 23.1328 290.25C22.5391 290.417 21.9818 290.654 21.4609 290.961C20.9453 291.263 20.474 291.628 20.0469 292.055C19.625 292.477 19.2604 292.948 18.9531 293.469C18.651 293.984 18.4167 294.542 18.25 295.141C18.0833 295.734 18 296.354 18 297C18 297.646 18.0833 298.268 18.25 298.867C18.4167 299.461 18.651 300.018 18.9531 300.539C19.2604 301.055 19.625 301.526 20.0469 301.953C20.474 302.375 20.9453 302.74 21.4609 303.047C21.9818 303.349 22.5391 303.583 23.1328 303.75C23.7318 303.917 24.3542 304 25 304C25.6458 304 26.2656 303.917 26.8594 303.75C27.4583 303.583 28.0156 303.349 28.5312 303.047C29.0521 302.74 29.5234 302.375 29.9453 301.953C30.3724 301.526 30.737 301.055 31.0391 300.539C31.3464 300.018 31.5833 299.461 31.75 298.867C31.9167 298.268 32 297.646 32 297Z" fill="white"/>
<path d="M17 337C17 336.266 17.0938 335.557 17.2812 334.875C17.474 334.193 17.7448 333.557 18.0938 332.969C18.4427 332.375 18.8594 331.836 19.3438 331.352C19.8333 330.862 20.3724 330.443 20.9609 330.094C21.5547 329.745 22.1927 329.477 22.875 329.289C23.5573 329.096 24.2656 329 25 329C25.7344 329 26.4427 329.096 27.125 329.289C27.8073 329.477 28.4427 329.745 29.0312 330.094C29.625 330.443 30.1641 330.862 30.6484 331.352C31.138 331.836 31.5573 332.375 31.9062 332.969C32.2552 333.557 32.5234 334.193 32.7109 334.875C32.9036 335.557 33 336.266 33 337C33 337.734 32.9036 338.443 32.7109 339.125C32.5234 339.807 32.2552 340.445 31.9062 341.039C31.5573 341.628 31.138 342.167 30.6484 342.656C30.1641 343.141 29.625 343.557 29.0312 343.906C28.4427 344.255 27.8073 344.526 27.125 344.719C26.4427 344.906 25.7344 345 25 345C24.2656 345 23.5573 344.906 22.875 344.719C22.1927 344.526 21.5547 344.255 20.9609 343.906C20.3724 343.557 19.8333 343.141 19.3438 342.656C18.8594 342.167 18.4427 341.628 18.0938 341.039C17.7448 340.445 17.474 339.807 17.2812 339.125C17.0938 338.443 17 337.734 17 337ZM32 337C32 336.359 31.9167 335.742 31.75 335.148C31.5833 334.549 31.3464 333.992 31.0391 333.477C30.737 332.956 30.3724 332.482 29.9453 332.055C29.5182 331.628 29.0443 331.263 28.5234 330.961C28.0078 330.654 27.4505 330.417 26.8516 330.25C26.2578 330.083 25.6406 330 25 330C24.3542 330 23.7318 330.083 23.1328 330.25C22.5391 330.417 21.9818 330.654 21.4609 330.961C20.9453 331.263 20.474 331.628 20.0469 332.055C19.625 332.477 19.2604 332.948 18.9531 333.469C18.651 333.984 18.4167 334.542 18.25 335.141C18.0833 335.734 18 336.354 18 337C18 337.646 18.0833 338.268 18.25 338.867C18.4167 339.461 18.651 340.018 18.9531 340.539C19.2604 341.055 19.625 341.526 20.0469 341.953C20.474 342.375 20.9453 342.74 21.4609 343.047C21.9818 343.349 22.5391 343.583 23.1328 343.75C23.7318 343.917 24.3542 344 25 344C25.6458 344 26.2656 343.917 26.8594 343.75C27.4583 343.583 28.0156 343.349 28.5312 343.047C29.0521 342.74 29.5234 342.375 29.9453 341.953C30.3724 341.526 30.737 341.055 31.0391 340.539C31.3464 340.018 31.5833 339.461 31.75 338.867C31.9167 338.268 32 337.646 32 337Z" fill="white"/>
<path d="M17 577C17 576.266 17.0938 575.557 17.2812 574.875C17.474 574.193 17.7448 573.557 18.0938 572.969C18.4427 572.375 18.8594 571.836 19.3438 571.352C19.8333 570.862 20.3724 570.443 20.9609 570.094C21.5547 569.745 22.1927 569.477 22.875 569.289C23.5573 569.096 24.2656 569 25 569C25.7344 569 26.4427 569.096 27.125 569.289C27.8073 569.477 28.4427 569.745 29.0312 570.094C29.625 570.443 30.1641 570.862 30.6484 571.352C31.138 571.836 31.5573 572.375 31.9062 572.969C32.2552 573.557 32.5234 574.193 32.7109 574.875C32.9036 575.557 33 576.266 33 577C33 577.734 32.9036 578.443 32.7109 579.125C32.5234 579.807 32.2552 580.445 31.9062 581.039C31.5573 581.628 31.138 582.167 30.6484 582.656C30.1641 583.141 29.625 583.557 29.0312 583.906C28.4427 584.255 27.8073 584.526 27.125 584.719C26.4427 584.906 25.7344 585 25 585C24.2656 585 23.5573 584.906 22.875 584.719C22.1927 584.526 21.5547 584.255 20.9609 583.906C20.3724 583.557 19.8333 583.141 19.3438 582.656C18.8594 582.167 18.4427 581.628 18.0938 581.039C17.7448 580.445 17.474 579.807 17.2812 579.125C17.0938 578.443 17 577.734 17 577ZM32 577C32 576.359 31.9167 575.742 31.75 575.148C31.5833 574.549 31.3464 573.992 31.0391 573.477C30.737 572.956 30.3724 572.482 29.9453 572.055C29.5182 571.628 29.0443 571.263 28.5234 570.961C28.0078 570.654 27.4505 570.417 26.8516 570.25C26.2578 570.083 25.6406 570 25 570C24.3542 570 23.7318 570.083 23.1328 570.25C22.5391 570.417 21.9818 570.654 21.4609 570.961C20.9453 571.263 20.474 571.628 20.0469 572.055C19.625 572.477 19.2604 572.948 18.9531 573.469C18.651 573.984 18.4167 574.542 18.25 575.141C18.0833 575.734 18 576.354 18 577C18 577.646 18.0833 578.268 18.25 578.867C18.4167 579.461 18.651 580.018 18.9531 580.539C19.2604 581.055 19.625 581.526 20.0469 581.953C20.474 582.375 20.9453 582.74 21.4609 583.047C21.9818 583.349 22.5391 583.583 23.1328 583.75C23.7318 583.917 24.3542 584 25 584C25.6458 584 26.2656 583.917 26.8594 583.75C27.4583 583.583 28.0156 583.349 28.5312 583.047C29.0521 582.74 29.5234 582.375 29.9453 581.953C30.3724 581.526 30.737 581.055 31.0391 580.539C31.3464 580.018 31.5833 579.461 31.75 578.867C31.9167 578.268 32 577.646 32 577Z" fill="white"/>
<g>
<path d="M50 41C50 37.134 53.134 34 57 34H321V601H50V41Z" fill="#3A3A3A" fill-opacity="0.3"/>
<path d="M321.5 34V33.5H321H57C52.8579 33.5 49.5 36.8579 49.5 41V601V601.5H50H321H321.5V601V34Z" stroke="black" stroke-opacity="0.1"/>
<path d="M119.561 90.1562H114.078V107H110.824V90.1562H105.355V87.3945H119.561V90.1562ZM123.703 90.4434C123.102 90.4434 122.609 90.252 122.227 89.8691C121.853 89.4772 121.666 89.0078 121.666 88.4609C121.666 87.9049 121.853 87.4355 122.227 87.0527C122.609 86.6699 123.102 86.4785 123.703 86.4785C124.314 86.4785 124.806 86.6699 125.18 87.0527C125.562 87.4355 125.754 87.9049 125.754 88.4609C125.754 89.026 125.562 89.5 125.18 89.8828C124.806 90.2565 124.314 90.4434 123.703 90.4434ZM125.289 107H122.104V93H125.289V107ZM137.389 106.057C136.969 106.458 136.482 106.768 135.926 106.986C135.37 107.205 134.745 107.314 134.053 107.314C132.722 107.314 131.715 106.982 131.031 106.316C130.357 105.642 130.02 104.658 130.02 103.363V95.4883H127.668V93H130.02V89.5684L133.191 89.0078V93H136.76V95.4883H133.191V103.254C133.191 103.81 133.301 104.22 133.52 104.484C133.747 104.749 134.089 104.881 134.545 104.881C134.782 104.881 135.014 104.835 135.242 104.744C135.47 104.653 135.712 104.475 135.967 104.211L137.389 106.057ZM139.85 107V86.2734H143.035V107H139.85ZM158.881 100.779H149.215C149.242 102.128 149.607 103.145 150.309 103.828C151.02 104.503 151.89 104.84 152.92 104.84C153.649 104.84 154.296 104.671 154.861 104.334C155.426 103.988 155.905 103.477 156.297 102.803L158.744 104.129C158.106 105.15 157.29 105.938 156.297 106.494C155.312 107.05 154.15 107.328 152.811 107.328C150.751 107.328 149.101 106.708 147.861 105.469C146.622 104.229 146.002 102.447 146.002 100.123C146.002 97.9082 146.635 96.1126 147.902 94.7363C149.178 93.36 150.773 92.6719 152.688 92.6719C154.656 92.6719 156.178 93.2598 157.254 94.4355C158.339 95.6113 158.881 97.3158 158.881 99.5488V100.779ZM155.805 98.5098C155.805 97.416 155.531 96.5684 154.984 95.9668C154.438 95.3652 153.69 95.0645 152.742 95.0645C151.749 95.0645 150.942 95.3971 150.322 96.0625C149.702 96.7188 149.329 97.5345 149.201 98.5098H155.805Z" fill="white"/>
</g>
<path d="M1 8C1 4.13401 4.13401 1 8 1H314C317.866 1 321 4.13401 321 8V33H1V8Z" fill="#202020"/>
<path d="M200.598 17C200.516 17 200.438 16.9844 200.363 16.9531C200.293 16.9219 200.23 16.8789 200.176 16.8242C200.121 16.7695 200.078 16.707 200.047 16.6367C200.016 16.5625 200 16.4844 200 16.4023C200 16.3203 200.016 16.2441 200.047 16.1738C200.078 16.0996 200.121 16.0352 200.176 15.9805C200.23 15.9219 200.293 15.877 200.363 15.8457C200.438 15.8145 200.516 15.7988 200.598 15.7988H211.402C211.484 15.7988 211.561 15.8145 211.631 15.8457C211.705 15.877 211.77 15.9219 211.824 15.9805C211.879 16.0352 211.922 16.0996 211.953 16.1738C211.984 16.2441 212 16.3203 212 16.4023C212 16.4844 211.984 16.5625 211.953 16.6367C211.922 16.707 211.879 16.7695 211.824 16.8242C211.77 16.8789 211.705 16.9219 211.631 16.9531C211.561 16.9844 211.484 17 211.402 17H200.598Z" fill="white"/>
<path d="M247.77 23C247.535 23 247.311 22.9531 247.096 22.8594C246.881 22.7617 246.691 22.6328 246.527 22.4727C246.367 22.3086 246.238 22.1191 246.141 21.9043C246.047 21.6895 246 21.4648 246 21.2305V12.7695C246 12.5352 246.047 12.3105 246.141 12.0957C246.238 11.8809 246.367 11.6934 246.527 11.5332C246.691 11.3691 246.881 11.2402 247.096 11.1465C247.311 11.0488 247.535 11 247.77 11H256.23C256.465 11 256.689 11.0488 256.904 11.1465C257.119 11.2402 257.307 11.3691 257.467 11.5332C257.631 11.6934 257.76 11.8809 257.854 12.0957C257.951 12.3105 258 12.5352 258 12.7695V21.2305C258 21.4648 257.951 21.6895 257.854 21.9043C257.76 22.1191 257.631 22.3086 257.467 22.4727C257.307 22.6328 257.119 22.7617 256.904 22.8594C256.689 22.9531 256.465 23 256.23 23H247.77ZM256.201 21.7988C256.283 21.7988 256.359 21.7832 256.43 21.752C256.504 21.7207 256.568 21.6777 256.623 21.623C256.678 21.5684 256.721 21.5059 256.752 21.4355C256.783 21.3613 256.799 21.2832 256.799 21.2012V12.7988C256.799 12.7168 256.783 12.6406 256.752 12.5703C256.721 12.4961 256.678 12.4316 256.623 12.377C256.568 12.3223 256.504 12.2793 256.43 12.248C256.359 12.2168 256.283 12.2012 256.201 12.2012H247.799C247.717 12.2012 247.639 12.2168 247.564 12.248C247.494 12.2793 247.432 12.3223 247.377 12.377C247.322 12.4316 247.279 12.4961 247.248 12.5703C247.217 12.6406 247.201 12.7168 247.201 12.7988V21.2012C247.201 21.2832 247.217 21.3613 247.248 21.4355C247.279 21.5059 247.322 21.5684 247.377 21.623C247.432 21.6777 247.494 21.7207 247.564 21.752C247.639 21.7832 247.717 21.7988 247.799 21.7988H256.201Z" fill="white"/>
<path d="M298 18.8496L293.025 23.8242C292.908 23.9414 292.768 24 292.604 24C292.432 24 292.287 23.9434 292.17 23.8301C292.057 23.7129 292 23.5684 292 23.3965C292 23.2324 292.059 23.0918 292.176 22.9746L297.15 18L292.176 13.0254C292.059 12.9082 292 12.7656 292 12.5977C292 12.5156 292.016 12.4375 292.047 12.3633C292.078 12.2891 292.121 12.2266 292.176 12.1758C292.23 12.1211 292.295 12.0781 292.369 12.0469C292.443 12.0156 292.521 12 292.604 12C292.768 12 292.908 12.0586 293.025 12.1758L298 17.1504L302.975 12.1758C303.092 12.0586 303.234 12 303.402 12C303.484 12 303.561 12.0156 303.631 12.0469C303.705 12.0781 303.77 12.1211 303.824 12.1758C303.879 12.2305 303.922 12.2949 303.953 12.3691C303.984 12.4395 304 12.5156 304 12.5977C304 12.7656 303.941 12.9082 303.824 13.0254L298.85 18L303.824 22.9746C303.941 23.0918 304 23.2324 304 23.3965C304 23.4785 303.984 23.5566 303.953 23.6309C303.922 23.7051 303.879 23.7695 303.824 23.8242C303.773 23.8789 303.711 23.9219 303.637 23.9531C303.562 23.9844 303.484 24 303.402 24C303.234 24 303.092 23.9414 302.975 23.8242L298 18.8496Z" fill="white"/>
<path d="M23.1934 13.5469H20.7676V21H19.7012V13.5469H17.2812V12.5977H23.1934V13.5469ZM28.3086 18.1641H23.9844C24.0039 18.8438 24.1855 19.3672 24.5293 19.7344C24.873 20.0977 25.3555 20.2793 25.9766 20.2793C26.2461 20.2793 26.5215 20.2383 26.8027 20.1562C27.0879 20.0703 27.373 19.9316 27.6582 19.7402L28.1328 20.4668C27.7773 20.7012 27.4199 20.873 27.0605 20.9824C26.7012 21.0918 26.3066 21.1465 25.877 21.1465C24.9473 21.1465 24.2227 20.8711 23.7031 20.3203C23.1836 19.7656 22.9219 18.9922 22.918 18C22.9141 17.0117 23.1758 16.2168 23.7031 15.6152C24.2344 15.0098 24.9219 14.707 25.7656 14.707C26.5703 14.707 27.1953 14.9688 27.6406 15.4922C28.0859 16.0117 28.3086 16.7363 28.3086 17.666V18.1641ZM27.2598 17.3438C27.2559 16.7773 27.1191 16.3379 26.8496 16.0254C26.584 15.7129 26.2168 15.5566 25.748 15.5566C25.2871 15.5566 24.8965 15.7188 24.5762 16.043C24.2598 16.3633 24.0664 16.7969 23.9961 17.3438H27.2598ZM34.4609 14.8535L32.3984 17.9531L34.4199 21H33.207L32.0234 19.0312C31.9844 18.9648 31.9414 18.8945 31.8945 18.8203C31.8516 18.7422 31.8047 18.6523 31.7539 18.5508H31.7246C31.709 18.5781 31.6777 18.6328 31.6309 18.7148C31.5879 18.793 31.5254 18.8984 31.4434 19.0312L30.2422 21H29.0352L31.127 17.9824L29.1289 14.8535H30.3418L31.5078 16.9277C31.5547 17.0098 31.5996 17.0918 31.6426 17.1738C31.6855 17.2559 31.7285 17.3359 31.7715 17.4141H31.7949C31.8418 17.332 31.8887 17.252 31.9355 17.1738C31.9863 17.0918 32.0352 17.0098 32.082 16.9277L33.3066 14.8535H34.4609ZM38.6855 20.9238C38.5176 20.9941 38.3496 21.0449 38.1816 21.0762C38.0176 21.1113 37.832 21.1289 37.625 21.1289C37.1211 21.1289 36.7266 20.9844 36.4414 20.6953C36.1602 20.4062 36.0195 19.9785 36.0195 19.4121V15.7207H34.9707V14.8535H36.0195V13.4473L37.0684 13.1133V14.8535H38.6035V15.7207H37.0684V19.3008C37.0684 19.6484 37.1309 19.8984 37.2559 20.0508C37.3809 20.2031 37.5684 20.2793 37.8184 20.2793C37.9355 20.2793 38.0488 20.2656 38.1582 20.2383C38.2676 20.2109 38.3613 20.1777 38.4395 20.1387L38.6855 20.9238Z" fill="white"/>
<defs>
<clipPath id="clip0">
<path d="M49 33H321V594C321 597.866 317.866 601 314 601H49V33Z" fill="white"/>
</clipPath>
</defs>
</svg>
