<svg class="TeachingTip" width="320" height="316" viewBox="0 0 320 316" fill="none" xmlns="http://www.w3.org/2000/svg" xmlns:xlink="http://www.w3.org/1999/xlink">
<g style="mix-blend-mode:multiply">
<path fill-rule="evenodd" clip-rule="evenodd" d="M8 1C4.13401 1 1 4.13402 1 8.00001V300C1 303.866 4.13401 307 8 307H153L160 314L167 307H312C315.866 307 319 303.866 319 300V8C319 4.13401 315.866 1 312 1H8Z" fill="white"/>
</g>
<g filter="url(#filter0_b)">
<path fill-rule="evenodd" clip-rule="evenodd" d="M8 1C4.13401 1 1 4.13402 1 8.00001V300C1 303.866 4.13401 307 8 307H153L160 314L167 307H312C315.866 307 319 303.866 319 300V8C319 4.13401 315.866 1 312 1H8Z" fill="#2C2C2C" fill-opacity="0.96" style="mix-blend-mode:luminosity"/>
<path fill-rule="evenodd" clip-rule="evenodd" d="M8 1C4.13401 1 1 4.13402 1 8.00001V300C1 303.866 4.13401 307 8 307H153L160 314L167 307H312C315.866 307 319 303.866 319 300V8C319 4.13401 315.866 1 312 1H8Z" fill="#2C2C2C" fill-opacity="0.15" style="mix-blend-mode:color"/>
<path fill-rule="evenodd" clip-rule="evenodd" d="M8 1C4.13401 1 1 4.13402 1 8.00001V300C1 303.866 4.13401 307 8 307H153L160 314L167 307H312C315.866 307 319 303.866 319 300V8C319 4.13401 315.866 1 312 1H8Z" fill="url(#pattern0)" fill-opacity="0.02"/>
</g>
<mask id="path-3-outside-1" maskUnits="userSpaceOnUse" x="0" y="0" width="320" height="316" fill="black">
<rect fill="white" width="320" height="316"/>
<path fill-rule="evenodd" clip-rule="evenodd" d="M8 1C4.13401 1 1 4.13402 1 8.00001V300C1 303.866 4.13401 307 8 307H153L160 314L167 307H312C315.866 307 319 303.866 319 300V8C319 4.13401 315.866 1 312 1H8Z"/>
</mask>
<path d="M153 307L153.707 306.293L153.414 306H153V307ZM160 314L159.293 314.707L160 315.414L160.707 314.707L160 314ZM167 307V306H166.586L166.293 306.293L167 307ZM2 8.00001C2 4.6863 4.68629 2 8 2V0C3.58172 0 0 3.58173 0 8.00001H2ZM2 300V8.00001H0V300H2ZM8 306C4.68629 306 2 303.314 2 300H0C0 304.418 3.58173 308 8 308V306ZM153 306H8V308H153V306ZM152.293 307.707L159.293 314.707L160.707 313.293L153.707 306.293L152.293 307.707ZM160.707 314.707L167.707 307.707L166.293 306.293L159.293 313.293L160.707 314.707ZM312 306H167V308H312V306ZM318 300C318 303.314 315.314 306 312 306V308C316.418 308 320 304.418 320 300H318ZM318 8V300H320V8H318ZM312 2C315.314 2 318 4.68629 318 8H320C320 3.58172 316.418 0 312 0V2ZM8 2H312V0H8V2Z" fill="white" fill-opacity="0.0837" mask="url(#path-3-outside-1)"/>
<path d="M1 8C1 4.134 4.13401 1 8 1H312C315.866 1 319 4.13401 319 8V181H1V8Z" fill="url(#pattern1)"/>
<path d="M20.4854 198.578H17.6758V207H16.042V198.578H13.2393V197.197H20.4854V198.578ZM22.5635 198.646C22.2718 198.646 22.0303 198.553 21.8389 198.366C21.6475 198.179 21.5518 197.949 21.5518 197.676C21.5518 197.393 21.6475 197.161 21.8389 196.979C22.0303 196.796 22.2718 196.705 22.5635 196.705C22.8597 196.705 23.1035 196.796 23.2949 196.979C23.4863 197.161 23.582 197.393 23.582 197.676C23.582 197.954 23.4863 198.186 23.2949 198.373C23.1035 198.555 22.8597 198.646 22.5635 198.646ZM23.3496 207H21.7568V200H23.3496V207ZM29.2354 206.904C29.0303 206.991 28.8161 207.055 28.5928 207.096C28.3695 207.137 28.1302 207.157 27.875 207.157C27.2279 207.157 26.7288 206.986 26.3779 206.645C26.0316 206.298 25.8584 205.783 25.8584 205.1V201.244H24.6826V200H25.8584V198.298L27.4443 197.819V200H29.1191V201.244H27.4443V204.97C27.4443 205.312 27.5059 205.558 27.6289 205.708C27.7565 205.858 27.9525 205.934 28.2168 205.934C28.3444 205.934 28.4652 205.92 28.5791 205.893C28.6976 205.861 28.8024 205.822 28.8936 205.776L29.2354 206.904ZM30.4795 207V196.637H32.0723V207H30.4795ZM40.0703 203.917H35.292C35.3193 204.578 35.5107 205.081 35.8662 205.428C36.2217 205.77 36.7184 205.94 37.3564 205.94C37.6162 205.94 37.9124 205.888 38.2451 205.783C38.5778 205.678 38.9059 205.51 39.2295 205.277L39.9473 206.269C39.5143 206.583 39.0745 206.811 38.6279 206.952C38.1813 207.093 37.6891 207.164 37.1514 207.164C36.0622 207.164 35.2145 206.852 34.6084 206.228C34.0023 205.599 33.6969 204.721 33.6924 203.596C33.6924 202.475 34.0046 201.568 34.6289 200.875C35.2578 200.182 36.0622 199.836 37.042 199.836C37.9808 199.836 38.7191 200.132 39.2568 200.725C39.7992 201.312 40.0703 202.146 40.0703 203.227V203.917ZM38.5322 202.816C38.5322 202.215 38.4001 201.764 38.1357 201.463C37.876 201.158 37.5068 201.005 37.0283 201.005C36.5771 201.005 36.1921 201.169 35.873 201.497C35.5586 201.821 35.3649 202.26 35.292 202.816H38.5322Z" fill="white"/>
<path d="M19.3711 227H14.2852V217.197H15.4336V225.961H19.3711V227ZM23.6504 227.164C22.6159 227.164 21.7887 226.838 21.1689 226.187C20.5537 225.53 20.2461 224.662 20.2461 223.582C20.2461 222.411 20.5651 221.495 21.2031 220.834C21.8411 220.173 22.7116 219.84 23.8145 219.836C24.8581 219.831 25.6715 220.153 26.2549 220.8C26.8428 221.447 27.1367 222.338 27.1367 223.473C27.1367 224.594 26.82 225.489 26.1865 226.159C25.5576 226.829 24.7122 227.164 23.6504 227.164ZM23.7324 226.221C24.457 226.221 25.013 225.986 25.4004 225.517C25.7923 225.043 25.9883 224.375 25.9883 223.514C25.9883 222.634 25.7923 221.96 25.4004 221.49C25.0085 221.016 24.4525 220.779 23.7324 220.779C23.0124 220.779 22.4427 221.025 22.0234 221.518C21.6042 222.01 21.3945 222.684 21.3945 223.541C21.3945 224.37 21.6064 225.024 22.0303 225.503C22.4541 225.981 23.0215 226.221 23.7324 226.221ZM32.3799 220.957C32.2933 220.93 32.2158 220.911 32.1475 220.902C32.0791 220.889 31.9925 220.882 31.8877 220.882C31.318 220.882 30.8691 221.126 30.541 221.613C30.2129 222.096 30.0488 222.702 30.0488 223.432V227H28.9277V220H30.0488V221.388H30.0762C30.2357 220.896 30.4795 220.522 30.8076 220.267C31.1357 220.007 31.514 219.877 31.9424 219.877C32.0837 219.877 32.2021 219.884 32.2979 219.897C32.3981 219.911 32.487 219.932 32.5645 219.959L32.3799 220.957ZM39.4209 223.753H34.4717C34.4899 224.541 34.6973 225.15 35.0938 225.578C35.4948 226.002 36.0553 226.214 36.7754 226.214C37.0898 226.214 37.4043 226.168 37.7188 226.077C38.0378 225.981 38.3522 225.831 38.6621 225.626L39.1816 226.426C38.7852 226.681 38.3887 226.868 37.9922 226.986C37.5957 227.105 37.1605 227.164 36.6865 227.164C35.6292 227.164 34.8044 226.85 34.2119 226.221C33.6195 225.592 33.321 224.715 33.3164 223.589C33.3118 222.463 33.6081 221.556 34.2051 220.868C34.8066 220.18 35.5859 219.836 36.543 219.836C37.4544 219.836 38.1608 220.134 38.6621 220.731C39.168 221.324 39.4209 222.146 39.4209 223.199V223.753ZM38.2725 222.837C38.2679 222.19 38.1107 221.686 37.8008 221.326C37.4909 220.962 37.0648 220.779 36.5225 220.779C35.9893 220.779 35.5358 220.966 35.1621 221.34C34.793 221.709 34.5674 222.208 34.4854 222.837H38.2725ZM51.0625 227H49.9414V222.98C49.9414 222.206 49.8206 221.645 49.5791 221.299C49.3421 220.952 48.9411 220.779 48.376 220.779C47.8975 220.779 47.4896 220.998 47.1523 221.436C46.8197 221.873 46.6533 222.397 46.6533 223.008V227H45.5322V222.844C45.5322 222.156 45.4001 221.641 45.1357 221.299C44.8714 220.952 44.4727 220.779 43.9395 220.779C43.4473 220.779 43.0417 220.987 42.7227 221.401C42.4036 221.812 42.2441 222.347 42.2441 223.008V227H41.123V220H42.2441V221.107H42.2715C42.5221 220.684 42.8275 220.367 43.1875 220.157C43.5521 219.943 43.9714 219.836 44.4453 219.836C44.9238 219.836 45.3408 219.97 45.6963 220.239C46.0518 220.504 46.2956 220.852 46.4277 221.285C46.6875 220.802 47.0111 220.44 47.3984 220.198C47.7858 219.957 48.237 219.836 48.752 219.836C49.5221 219.836 50.0986 220.073 50.4814 220.547C50.8688 221.021 51.0625 221.734 51.0625 222.687V227ZM57.5977 218.325C57.3698 218.325 57.1784 218.25 57.0234 218.1C56.8685 217.945 56.791 217.756 56.791 217.532C56.791 217.309 56.8685 217.122 57.0234 216.972C57.1784 216.817 57.3698 216.739 57.5977 216.739C57.8255 216.739 58.0169 216.817 58.1719 216.972C58.3268 217.122 58.4043 217.309 58.4043 217.532C58.4043 217.756 58.3268 217.945 58.1719 218.1C58.0169 218.25 57.8255 218.325 57.5977 218.325ZM58.1445 227H57.0234V220H58.1445V227ZM61.5625 225.988H61.5352V230.22H60.4141V220H61.5352V221.23H61.5625C61.8405 220.766 62.18 220.417 62.5811 220.185C62.9867 219.952 63.4538 219.836 63.9824 219.836C64.8848 219.836 65.5889 220.15 66.0947 220.779C66.6006 221.404 66.8535 222.242 66.8535 223.295C66.8535 224.466 66.5687 225.405 65.999 226.111C65.4294 226.813 64.6501 227.164 63.6611 227.164C63.21 227.164 62.8089 227.066 62.458 226.87C62.1071 226.674 61.8086 226.38 61.5625 225.988ZM61.5352 223.165V224.143C61.5352 224.721 61.722 225.214 62.0957 225.619C62.474 226.02 62.9525 226.221 63.5312 226.221C64.2103 226.221 64.7412 225.961 65.124 225.441C65.5114 224.922 65.7051 224.2 65.7051 223.274C65.7051 222.495 65.5251 221.884 65.165 221.442C64.805 221 64.3174 220.779 63.7021 220.779C63.0505 220.779 62.5264 221.007 62.1299 221.463C61.7334 221.914 61.5352 222.481 61.5352 223.165ZM67.9883 226.474L68.5215 225.612C68.8268 225.813 69.1253 225.965 69.417 226.07C69.7087 226.171 70.0231 226.221 70.3604 226.221C70.8389 226.221 71.2012 226.132 71.4473 225.954C71.6979 225.776 71.8232 225.51 71.8232 225.154C71.8232 224.867 71.7116 224.626 71.4883 224.43C71.2695 224.229 70.9255 224.07 70.4561 223.951C69.5811 223.728 68.9818 223.448 68.6582 223.11C68.3346 222.769 68.1729 222.349 68.1729 221.853C68.1729 221.278 68.3893 220.8 68.8223 220.417C69.2552 220.03 69.859 219.836 70.6338 219.836C71.0075 219.836 71.363 219.884 71.7002 219.979C72.0374 220.075 72.3815 220.239 72.7324 220.472L72.2334 221.319C71.9144 221.119 71.6273 220.98 71.3721 220.902C71.1214 220.82 70.8662 220.779 70.6064 220.779C70.1553 220.779 69.8112 220.864 69.5742 221.032C69.3372 221.196 69.2188 221.436 69.2188 221.75C69.2188 222.064 69.3395 222.301 69.5811 222.461C69.8271 222.62 70.2214 222.771 70.7637 222.912C71.4746 223.104 72.0055 223.372 72.3564 223.719C72.7119 224.061 72.8896 224.509 72.8896 225.065C72.8896 225.713 72.6595 226.225 72.1992 226.604C71.7435 226.977 71.1169 227.164 70.3193 227.164C69.891 227.164 69.4785 227.105 69.082 226.986C68.6901 226.868 68.3255 226.697 67.9883 226.474ZM80.252 227H79.1309V225.893H79.1035C78.8711 226.316 78.5749 226.635 78.2148 226.85C77.8548 227.059 77.431 227.164 76.9434 227.164C76.1094 227.164 75.4827 226.916 75.0635 226.419C74.6488 225.922 74.4414 225.177 74.4414 224.184V220H75.5557V224.006C75.5557 224.744 75.6969 225.298 75.9795 225.667C76.262 226.036 76.6859 226.221 77.251 226.221C77.7979 226.221 78.2467 226.02 78.5977 225.619C78.9531 225.214 79.1309 224.685 79.1309 224.033V220H80.252V227ZM92.4609 227H91.3398V222.98C91.3398 222.206 91.2191 221.645 90.9775 221.299C90.7406 220.952 90.3395 220.779 89.7744 220.779C89.2959 220.779 88.888 220.998 88.5508 221.436C88.2181 221.873 88.0518 222.397 88.0518 223.008V227H86.9307V222.844C86.9307 222.156 86.7985 221.641 86.5342 221.299C86.2699 220.952 85.8711 220.779 85.3379 220.779C84.8457 220.779 84.4401 220.987 84.1211 221.401C83.8021 221.812 83.6426 222.347 83.6426 223.008V227H82.5215V220H83.6426V221.107H83.6699C83.9206 220.684 84.2259 220.367 84.5859 220.157C84.9505 219.943 85.3698 219.836 85.8438 219.836C86.3223 219.836 86.7393 219.97 87.0947 220.239C87.4502 220.504 87.694 220.852 87.8262 221.285C88.0859 220.802 88.4095 220.44 88.7969 220.198C89.1842 219.957 89.6354 219.836 90.1504 219.836C90.9206 219.836 91.4971 220.073 91.8799 220.547C92.2673 221.021 92.4609 221.734 92.4609 222.687V227ZM103.248 225.811C102.988 226.262 102.658 226.601 102.257 226.829C101.86 227.052 101.389 227.164 100.842 227.164C99.9622 227.164 99.2581 226.852 98.7295 226.228C98.2054 225.599 97.9434 224.744 97.9434 223.664C97.9434 222.507 98.235 221.579 98.8184 220.882C99.4017 220.185 100.179 219.836 101.149 219.836C101.632 219.836 102.047 219.932 102.394 220.123C102.744 220.31 103.029 220.592 103.248 220.971H103.275V216.637H104.396V227H103.275V225.811H103.248ZM99.0918 223.609C99.0918 224.416 99.2786 225.054 99.6523 225.523C100.031 225.988 100.536 226.221 101.17 226.221C101.799 226.221 102.307 225.995 102.694 225.544C103.082 225.093 103.275 224.523 103.275 223.835V222.803C103.275 222.238 103.086 221.759 102.708 221.367C102.334 220.975 101.863 220.779 101.293 220.779C100.609 220.779 100.072 221.03 99.6797 221.531C99.2878 222.033 99.0918 222.725 99.0918 223.609ZM112.326 227H111.205V225.893H111.178C110.945 226.316 110.649 226.635 110.289 226.85C109.929 227.059 109.505 227.164 109.018 227.164C108.184 227.164 107.557 226.916 107.138 226.419C106.723 225.922 106.516 225.177 106.516 224.184V220H107.63V224.006C107.63 224.744 107.771 225.298 108.054 225.667C108.336 226.036 108.76 226.221 109.325 226.221C109.872 226.221 110.321 226.02 110.672 225.619C111.027 225.214 111.205 224.685 111.205 224.033V220H112.326V227ZM115.17 218.325C114.942 218.325 114.751 218.25 114.596 218.1C114.441 217.945 114.363 217.756 114.363 217.532C114.363 217.309 114.441 217.122 114.596 216.972C114.751 216.817 114.942 216.739 115.17 216.739C115.398 216.739 115.589 216.817 115.744 216.972C115.899 217.122 115.977 217.309 115.977 217.532C115.977 217.756 115.899 217.945 115.744 218.1C115.589 218.25 115.398 218.325 115.17 218.325ZM115.717 227H114.596V220H115.717V227ZM117.33 226.474L117.863 225.612C118.169 225.813 118.467 225.965 118.759 226.07C119.05 226.171 119.365 226.221 119.702 226.221C120.181 226.221 120.543 226.132 120.789 225.954C121.04 225.776 121.165 225.51 121.165 225.154C121.165 224.867 121.053 224.626 120.83 224.43C120.611 224.229 120.267 224.07 119.798 223.951C118.923 223.728 118.324 223.448 118 223.11C117.676 222.769 117.515 222.349 117.515 221.853C117.515 221.278 117.731 220.8 118.164 220.417C118.597 220.03 119.201 219.836 119.976 219.836C120.349 219.836 120.705 219.884 121.042 219.979C121.379 220.075 121.723 220.239 122.074 220.472L121.575 221.319C121.256 221.119 120.969 220.98 120.714 220.902C120.463 220.82 120.208 220.779 119.948 220.779C119.497 220.779 119.153 220.864 118.916 221.032C118.679 221.196 118.561 221.436 118.561 221.75C118.561 222.064 118.681 222.301 118.923 222.461C119.169 222.62 119.563 222.771 120.105 222.912C120.816 223.104 121.347 223.372 121.698 223.719C122.054 224.061 122.231 224.509 122.231 225.065C122.231 225.713 122.001 226.225 121.541 226.604C121.085 226.977 120.459 227.164 119.661 227.164C119.233 227.164 118.82 227.105 118.424 226.986C118.032 226.868 117.667 226.697 117.33 226.474ZM137.715 227H136.594V222.98C136.594 222.206 136.473 221.645 136.231 221.299C135.994 220.952 135.593 220.779 135.028 220.779C134.55 220.779 134.142 220.998 133.805 221.436C133.472 221.873 133.306 222.397 133.306 223.008V227H132.185V222.844C132.185 222.156 132.052 221.641 131.788 221.299C131.524 220.952 131.125 220.779 130.592 220.779C130.1 220.779 129.694 220.987 129.375 221.401C129.056 221.812 128.896 222.347 128.896 223.008V227H127.775V220H128.896V221.107H128.924C129.174 220.684 129.48 220.367 129.84 220.157C130.204 219.943 130.624 219.836 131.098 219.836C131.576 219.836 131.993 219.97 132.349 220.239C132.704 220.504 132.948 220.852 133.08 221.285C133.34 220.802 133.663 220.44 134.051 220.198C134.438 219.957 134.889 219.836 135.404 219.836C136.174 219.836 136.751 220.073 137.134 220.547C137.521 221.021 137.715 221.734 137.715 222.687V227ZM142.76 227.164C141.725 227.164 140.898 226.838 140.278 226.187C139.663 225.53 139.355 224.662 139.355 223.582C139.355 222.411 139.674 221.495 140.312 220.834C140.951 220.173 141.821 219.84 142.924 219.836C143.967 219.831 144.781 220.153 145.364 220.8C145.952 221.447 146.246 222.338 146.246 223.473C146.246 224.594 145.929 225.489 145.296 226.159C144.667 226.829 143.822 227.164 142.76 227.164ZM142.842 226.221C143.566 226.221 144.122 225.986 144.51 225.517C144.902 225.043 145.098 224.375 145.098 223.514C145.098 222.634 144.902 221.96 144.51 221.49C144.118 221.016 143.562 220.779 142.842 220.779C142.122 220.779 141.552 221.025 141.133 221.518C140.714 222.01 140.504 222.684 140.504 223.541C140.504 224.37 140.716 225.024 141.14 225.503C141.563 225.981 142.131 226.221 142.842 226.221ZM148.037 227V216.637H149.158V227H148.037ZM151.428 227V216.637H152.549V227H151.428ZM155.393 218.325C155.165 218.325 154.973 218.25 154.818 218.1C154.663 217.945 154.586 217.756 154.586 217.532C154.586 217.309 154.663 217.122 154.818 216.972C154.973 216.817 155.165 216.739 155.393 216.739C155.62 216.739 155.812 216.817 155.967 216.972C156.122 217.122 156.199 217.309 156.199 217.532C156.199 217.756 156.122 217.945 155.967 218.1C155.812 218.25 155.62 218.325 155.393 218.325ZM155.939 227H154.818V220H155.939V227ZM157.553 226.474L158.086 225.612C158.391 225.813 158.69 225.965 158.981 226.07C159.273 226.171 159.588 226.221 159.925 226.221C160.403 226.221 160.766 226.132 161.012 225.954C161.262 225.776 161.388 225.51 161.388 225.154C161.388 224.867 161.276 224.626 161.053 224.43C160.834 224.229 160.49 224.07 160.021 223.951C159.146 223.728 158.546 223.448 158.223 223.11C157.899 222.769 157.737 222.349 157.737 221.853C157.737 221.278 157.954 220.8 158.387 220.417C158.82 220.03 159.424 219.836 160.198 219.836C160.572 219.836 160.927 219.884 161.265 219.979C161.602 220.075 161.946 220.239 162.297 220.472L161.798 221.319C161.479 221.119 161.192 220.98 160.937 220.902C160.686 220.82 160.431 220.779 160.171 220.779C159.72 220.779 159.376 220.864 159.139 221.032C158.902 221.196 158.783 221.436 158.783 221.75C158.783 222.064 158.904 222.301 159.146 222.461C159.392 222.62 159.786 222.771 160.328 222.912C161.039 223.104 161.57 223.372 161.921 223.719C162.276 224.061 162.454 224.509 162.454 225.065C162.454 225.713 162.224 226.225 161.764 226.604C161.308 226.977 160.681 227.164 159.884 227.164C159.455 227.164 159.043 227.105 158.646 226.986C158.255 226.868 157.89 226.697 157.553 226.474ZM165.175 225.441L164.088 228.805H163.288L164.088 225.441H165.175ZM176.659 223.753H171.71C171.728 224.541 171.936 225.15 172.332 225.578C172.733 226.002 173.294 226.214 174.014 226.214C174.328 226.214 174.643 226.168 174.957 226.077C175.276 225.981 175.59 225.831 175.9 225.626L176.42 226.426C176.023 226.681 175.627 226.868 175.23 226.986C174.834 227.105 174.399 227.164 173.925 227.164C172.868 227.164 172.043 226.85 171.45 226.221C170.858 225.592 170.559 224.715 170.555 223.589C170.55 222.463 170.846 221.556 171.443 220.868C172.045 220.18 172.824 219.836 173.781 219.836C174.693 219.836 175.399 220.134 175.9 220.731C176.406 221.324 176.659 222.146 176.659 223.199V223.753ZM175.511 222.837C175.506 222.19 175.349 221.686 175.039 221.326C174.729 220.962 174.303 220.779 173.761 220.779C173.228 220.779 172.774 220.966 172.4 221.34C172.031 221.709 171.806 222.208 171.724 222.837H175.511ZM177.705 226.474L178.238 225.612C178.544 225.813 178.842 225.965 179.134 226.07C179.425 226.171 179.74 226.221 180.077 226.221C180.556 226.221 180.918 226.132 181.164 225.954C181.415 225.776 181.54 225.51 181.54 225.154C181.54 224.867 181.428 224.626 181.205 224.43C180.986 224.229 180.642 224.07 180.173 223.951C179.298 223.728 178.699 223.448 178.375 223.11C178.051 222.769 177.89 222.349 177.89 221.853C177.89 221.278 178.106 220.8 178.539 220.417C178.972 220.03 179.576 219.836 180.351 219.836C180.724 219.836 181.08 219.884 181.417 219.979C181.754 220.075 182.098 220.239 182.449 220.472L181.95 221.319C181.631 221.119 181.344 220.98 181.089 220.902C180.838 220.82 180.583 220.779 180.323 220.779C179.872 220.779 179.528 220.864 179.291 221.032C179.054 221.196 178.936 221.436 178.936 221.75C178.936 222.064 179.056 222.301 179.298 222.461C179.544 222.62 179.938 222.771 180.48 222.912C181.191 223.104 181.722 223.372 182.073 223.719C182.429 224.061 182.606 224.509 182.606 225.065C182.606 225.713 182.376 226.225 181.916 226.604C181.46 226.977 180.834 227.164 180.036 227.164C179.608 227.164 179.195 227.105 178.799 226.986C178.407 226.868 178.042 226.697 177.705 226.474ZM187.645 226.918C187.453 226.995 187.264 227.052 187.077 227.089C186.895 227.13 186.688 227.15 186.455 227.15C185.899 227.15 185.462 226.989 185.143 226.665C184.828 226.337 184.671 225.854 184.671 225.216V220.957H183.468V220H184.671V218.291L185.792 217.929V220H187.556V220.957H185.792V225.086C185.792 225.487 185.863 225.776 186.004 225.954C186.15 226.132 186.366 226.221 186.653 226.221C186.79 226.221 186.922 226.205 187.05 226.173C187.177 226.141 187.285 226.104 187.371 226.063L187.645 226.918ZM198.705 227H197.584V223.008C197.584 222.265 197.447 221.709 197.174 221.34C196.905 220.966 196.499 220.779 195.957 220.779C195.396 220.779 194.932 220.991 194.562 221.415C194.198 221.834 194.016 222.365 194.016 223.008V227H192.895V220H194.016V221.162H194.043C194.307 220.72 194.631 220.39 195.014 220.171C195.396 219.948 195.839 219.836 196.34 219.836C197.105 219.836 197.691 220.084 198.097 220.581C198.502 221.073 198.705 221.786 198.705 222.721V227ZM203.75 227.164C202.715 227.164 201.888 226.838 201.269 226.187C200.653 225.53 200.346 224.662 200.346 223.582C200.346 222.411 200.665 221.495 201.303 220.834C201.941 220.173 202.811 219.84 203.914 219.836C204.958 219.831 205.771 220.153 206.354 220.8C206.942 221.447 207.236 222.338 207.236 223.473C207.236 224.594 206.92 225.489 206.286 226.159C205.657 226.829 204.812 227.164 203.75 227.164ZM203.832 226.221C204.557 226.221 205.113 225.986 205.5 225.517C205.892 225.043 206.088 224.375 206.088 223.514C206.088 222.634 205.892 221.96 205.5 221.49C205.108 221.016 204.552 220.779 203.832 220.779C203.112 220.779 202.542 221.025 202.123 221.518C201.704 222.01 201.494 222.684 201.494 223.541C201.494 224.37 201.706 225.024 202.13 225.503C202.554 225.981 203.121 226.221 203.832 226.221ZM214.838 227H213.717V223.008C213.717 222.265 213.58 221.709 213.307 221.34C213.038 220.966 212.632 220.779 212.09 220.779C211.529 220.779 211.064 220.991 210.695 221.415C210.331 221.834 210.148 222.365 210.148 223.008V227H209.027V220H210.148V221.162H210.176C210.44 220.72 210.764 220.39 211.146 220.171C211.529 219.948 211.971 219.836 212.473 219.836C213.238 219.836 213.824 220.084 214.229 220.581C214.635 221.073 214.838 221.786 214.838 222.721V227ZM225.721 226.583C225.397 226.784 225.074 226.929 224.75 227.021C224.426 227.116 224.073 227.164 223.69 227.164C222.706 227.164 221.897 226.859 221.264 226.248C220.635 225.637 220.32 224.771 220.32 223.65C220.32 222.511 220.637 221.59 221.271 220.889C221.909 220.187 222.784 219.836 223.896 219.836C224.256 219.836 224.597 219.879 224.921 219.966C225.249 220.052 225.579 220.194 225.912 220.39L225.44 221.21C225.181 221.064 224.925 220.957 224.675 220.889C224.424 220.82 224.151 220.786 223.854 220.786C223.084 220.786 222.494 221.044 222.084 221.559C221.674 222.074 221.469 222.728 221.469 223.521C221.469 224.396 221.683 225.063 222.111 225.523C222.544 225.984 223.103 226.214 223.786 226.214C224.009 226.214 224.242 226.18 224.483 226.111C224.729 226.038 224.976 225.927 225.222 225.776L225.721 226.583ZM230.191 227.164C229.157 227.164 228.33 226.838 227.71 226.187C227.095 225.53 226.787 224.662 226.787 223.582C226.787 222.411 227.106 221.495 227.744 220.834C228.382 220.173 229.253 219.84 230.355 219.836C231.399 219.831 232.213 220.153 232.796 220.8C233.384 221.447 233.678 222.338 233.678 223.473C233.678 224.594 233.361 225.489 232.728 226.159C232.099 226.829 231.253 227.164 230.191 227.164ZM230.273 226.221C230.998 226.221 231.554 225.986 231.941 225.517C232.333 225.043 232.529 224.375 232.529 223.514C232.529 222.634 232.333 221.96 231.941 221.49C231.549 221.016 230.993 220.779 230.273 220.779C229.553 220.779 228.984 221.025 228.564 221.518C228.145 222.01 227.936 222.684 227.936 223.541C227.936 224.37 228.147 225.024 228.571 225.503C228.995 225.981 229.562 226.221 230.273 226.221ZM245.408 227H244.287V222.98C244.287 222.206 244.166 221.645 243.925 221.299C243.688 220.952 243.287 220.779 242.722 220.779C242.243 220.779 241.835 220.998 241.498 221.436C241.165 221.873 240.999 222.397 240.999 223.008V227H239.878V222.844C239.878 222.156 239.746 221.641 239.481 221.299C239.217 220.952 238.818 220.779 238.285 220.779C237.793 220.779 237.387 220.987 237.068 221.401C236.749 221.812 236.59 222.347 236.59 223.008V227H235.469V220H236.59V221.107H236.617C236.868 220.684 237.173 220.367 237.533 220.157C237.898 219.943 238.317 219.836 238.791 219.836C239.27 219.836 239.687 219.97 240.042 220.239C240.397 220.504 240.641 220.852 240.773 221.285C241.033 220.802 241.357 220.44 241.744 220.198C242.132 219.957 242.583 219.836 243.098 219.836C243.868 219.836 244.444 220.073 244.827 220.547C245.215 221.021 245.408 221.734 245.408 222.687V227ZM257.467 227H256.346V222.98C256.346 222.206 256.225 221.645 255.983 221.299C255.746 220.952 255.345 220.779 254.78 220.779C254.302 220.779 253.894 220.998 253.557 221.436C253.224 221.873 253.058 222.397 253.058 223.008V227H251.937V222.844C251.937 222.156 251.804 221.641 251.54 221.299C251.276 220.952 250.877 220.779 250.344 220.779C249.852 220.779 249.446 220.987 249.127 221.401C248.808 221.812 248.648 222.347 248.648 223.008V227H247.527V220H248.648V221.107H248.676C248.926 220.684 249.232 220.367 249.592 220.157C249.956 219.943 250.376 219.836 250.85 219.836C251.328 219.836 251.745 219.97 252.101 220.239C252.456 220.504 252.7 220.852 252.832 221.285C253.092 220.802 253.415 220.44 253.803 220.198C254.19 219.957 254.641 219.836 255.156 219.836C255.926 219.836 256.503 220.073 256.886 220.547C257.273 221.021 257.467 221.734 257.467 222.687V227ZM262.512 227.164C261.477 227.164 260.65 226.838 260.03 226.187C259.415 225.53 259.107 224.662 259.107 223.582C259.107 222.411 259.426 221.495 260.064 220.834C260.702 220.173 261.573 219.84 262.676 219.836C263.719 219.831 264.533 220.153 265.116 220.8C265.704 221.447 265.998 222.338 265.998 223.473C265.998 224.594 265.681 225.489 265.048 226.159C264.419 226.829 263.574 227.164 262.512 227.164ZM262.594 226.221C263.318 226.221 263.874 225.986 264.262 225.517C264.654 225.043 264.85 224.375 264.85 223.514C264.85 222.634 264.654 221.96 264.262 221.49C263.87 221.016 263.314 220.779 262.594 220.779C261.874 220.779 261.304 221.025 260.885 221.518C260.465 222.01 260.256 222.684 260.256 223.541C260.256 224.37 260.468 225.024 260.892 225.503C261.315 225.981 261.883 226.221 262.594 226.221ZM272.615 225.811C272.355 226.262 272.025 226.601 271.624 226.829C271.228 227.052 270.756 227.164 270.209 227.164C269.329 227.164 268.625 226.852 268.097 226.228C267.573 225.599 267.311 224.744 267.311 223.664C267.311 222.507 267.602 221.579 268.186 220.882C268.769 220.185 269.546 219.836 270.517 219.836C271 219.836 271.414 219.932 271.761 220.123C272.112 220.31 272.396 220.592 272.615 220.971H272.643V216.637H273.764V227H272.643V225.811H272.615ZM268.459 223.609C268.459 224.416 268.646 225.054 269.02 225.523C269.398 225.988 269.904 226.221 270.537 226.221C271.166 226.221 271.674 225.995 272.062 225.544C272.449 225.093 272.643 224.523 272.643 223.835V222.803C272.643 222.238 272.453 221.759 272.075 221.367C271.701 220.975 271.23 220.779 270.66 220.779C269.977 220.779 269.439 221.03 269.047 221.531C268.655 222.033 268.459 222.725 268.459 223.609ZM278.959 227.164C277.924 227.164 277.097 226.838 276.478 226.187C275.862 225.53 275.555 224.662 275.555 223.582C275.555 222.411 275.874 221.495 276.512 220.834C277.15 220.173 278.02 219.84 279.123 219.836C280.167 219.831 280.98 220.153 281.563 220.8C282.151 221.447 282.445 222.338 282.445 223.473C282.445 224.594 282.129 225.489 281.495 226.159C280.866 226.829 280.021 227.164 278.959 227.164ZM279.041 226.221C279.766 226.221 280.322 225.986 280.709 225.517C281.101 225.043 281.297 224.375 281.297 223.514C281.297 222.634 281.101 221.96 280.709 221.49C280.317 221.016 279.761 220.779 279.041 220.779C278.321 220.779 277.751 221.025 277.332 221.518C276.913 222.01 276.703 222.684 276.703 223.541C276.703 224.37 276.915 225.024 277.339 225.503C277.763 225.981 278.33 226.221 279.041 226.221ZM14.1348 247V236.637H15.2559V247H14.1348ZM23.1855 247H22.0645V245.893H22.0371C21.8047 246.316 21.5085 246.635 21.1484 246.85C20.7884 247.059 20.3646 247.164 19.877 247.164C19.043 247.164 18.4163 246.916 17.9971 246.419C17.5824 245.922 17.375 245.177 17.375 244.184V240H18.4893V244.006C18.4893 244.744 18.6305 245.298 18.9131 245.667C19.1956 246.036 19.6195 246.221 20.1846 246.221C20.7314 246.221 21.1803 246.02 21.5312 245.619C21.8867 245.214 22.0645 244.685 22.0645 244.033V240H23.1855V247ZM30.377 246.583C30.0534 246.784 29.7298 246.929 29.4062 247.021C29.0827 247.116 28.7295 247.164 28.3467 247.164C27.3623 247.164 26.5534 246.859 25.9199 246.248C25.291 245.637 24.9766 244.771 24.9766 243.65C24.9766 242.511 25.2933 241.59 25.9268 240.889C26.5648 240.187 27.4398 239.836 28.5518 239.836C28.9118 239.836 29.2536 239.879 29.5771 239.966C29.9053 240.052 30.2357 240.194 30.5684 240.39L30.0967 241.21C29.8369 241.064 29.5817 240.957 29.3311 240.889C29.0804 240.82 28.807 240.786 28.5107 240.786C27.7406 240.786 27.1504 241.044 26.7402 241.559C26.3301 242.074 26.125 242.728 26.125 243.521C26.125 244.396 26.3392 245.063 26.7676 245.523C27.2005 245.984 27.7588 246.214 28.4424 246.214C28.6657 246.214 28.8981 246.18 29.1396 246.111C29.3857 246.038 29.6318 245.927 29.8779 245.776L30.377 246.583ZM35.2578 246.918C35.0664 246.995 34.8773 247.052 34.6904 247.089C34.5081 247.13 34.3008 247.15 34.0684 247.15C33.5124 247.15 33.0749 246.989 32.7559 246.665C32.4414 246.337 32.2842 245.854 32.2842 245.216V240.957H31.0811V240H32.2842V238.291L33.4053 237.929V240H35.1689V240.957H33.4053V245.086C33.4053 245.487 33.4759 245.776 33.6172 245.954C33.763 246.132 33.9795 246.221 34.2666 246.221C34.4033 246.221 34.5355 246.205 34.6631 246.173C34.7907 246.141 34.8978 246.104 34.9844 246.063L35.2578 246.918ZM42.3262 247H41.2051V245.893H41.1777C40.9453 246.316 40.6491 246.635 40.2891 246.85C39.929 247.059 39.5052 247.164 39.0176 247.164C38.1836 247.164 37.557 246.916 37.1377 246.419C36.723 245.922 36.5156 245.177 36.5156 244.184V240H37.6299V244.006C37.6299 244.744 37.7712 245.298 38.0537 245.667C38.3363 246.036 38.7601 246.221 39.3252 246.221C39.8721 246.221 40.321 246.02 40.6719 245.619C41.0273 245.214 41.2051 244.685 41.2051 244.033V240H42.3262V247ZM43.9395 246.474L44.4727 245.612C44.778 245.813 45.0765 245.965 45.3682 246.07C45.6598 246.171 45.9743 246.221 46.3115 246.221C46.79 246.221 47.1523 246.132 47.3984 245.954C47.6491 245.776 47.7744 245.51 47.7744 245.154C47.7744 244.867 47.6628 244.626 47.4395 244.43C47.2207 244.229 46.8766 244.07 46.4072 243.951C45.5322 243.728 44.9329 243.448 44.6094 243.11C44.2858 242.769 44.124 242.349 44.124 241.853C44.124 241.278 44.3405 240.8 44.7734 240.417C45.2064 240.03 45.8102 239.836 46.585 239.836C46.9587 239.836 47.3141 239.884 47.6514 239.979C47.9886 240.075 48.3327 240.239 48.6836 240.472L48.1846 241.319C47.8656 241.119 47.5785 240.98 47.3232 240.902C47.0726 240.82 46.8174 240.779 46.5576 240.779C46.1064 240.779 45.7624 240.864 45.5254 241.032C45.2884 241.196 45.1699 241.436 45.1699 241.75C45.1699 242.064 45.2907 242.301 45.5322 242.461C45.7783 242.62 46.1725 242.771 46.7148 242.912C47.4258 243.104 47.9567 243.372 48.3076 243.719C48.6631 244.061 48.8408 244.509 48.8408 245.065C48.8408 245.713 48.6107 246.225 48.1504 246.604C47.6947 246.977 47.068 247.164 46.2705 247.164C45.8421 247.164 45.4297 247.105 45.0332 246.986C44.6413 246.868 44.2767 246.697 43.9395 246.474ZM51.5615 245.441L50.4746 248.805H49.6748L50.4746 245.441H51.5615ZM63.2305 247H62.1094V243.008C62.1094 242.265 61.9727 241.709 61.6992 241.34C61.4303 240.966 61.0247 240.779 60.4824 240.779C59.9219 240.779 59.457 240.991 59.0879 241.415C58.7233 241.834 58.541 242.365 58.541 243.008V247H57.4199V240H58.541V241.162H58.5684C58.8327 240.72 59.1562 240.39 59.5391 240.171C59.9219 239.948 60.3639 239.836 60.8652 239.836C61.6309 239.836 62.2165 240.084 62.6221 240.581C63.0277 241.073 63.2305 241.786 63.2305 242.721V247ZM65.9238 238.325C65.696 238.325 65.5046 238.25 65.3496 238.1C65.1947 237.945 65.1172 237.756 65.1172 237.532C65.1172 237.309 65.1947 237.122 65.3496 236.972C65.5046 236.817 65.696 236.739 65.9238 236.739C66.1517 236.739 66.3431 236.817 66.498 236.972C66.653 237.122 66.7305 237.309 66.7305 237.532C66.7305 237.756 66.653 237.945 66.498 238.1C66.3431 238.25 66.1517 238.325 65.9238 238.325ZM66.4707 247H65.3496V240H66.4707V247ZM68.084 246.474L68.6172 245.612C68.9225 245.813 69.221 245.965 69.5127 246.07C69.8044 246.171 70.1188 246.221 70.4561 246.221C70.9346 246.221 71.2969 246.132 71.543 245.954C71.7936 245.776 71.9189 245.51 71.9189 245.154C71.9189 244.867 71.8073 244.626 71.584 244.43C71.3652 244.229 71.0212 244.07 70.5518 243.951C69.6768 243.728 69.0775 243.448 68.7539 243.11C68.4303 242.769 68.2686 242.349 68.2686 241.853C68.2686 241.278 68.485 240.8 68.918 240.417C69.3509 240.03 69.9548 239.836 70.7295 239.836C71.1032 239.836 71.4587 239.884 71.7959 239.979C72.1331 240.075 72.4772 240.239 72.8281 240.472L72.3291 241.319C72.0101 241.119 71.723 240.98 71.4678 240.902C71.2171 240.82 70.9619 240.779 70.7021 240.779C70.251 240.779 69.9069 240.864 69.6699 241.032C69.4329 241.196 69.3145 241.436 69.3145 241.75C69.3145 242.064 69.4352 242.301 69.6768 242.461C69.9229 242.62 70.3171 242.771 70.8594 242.912C71.5703 243.104 72.1012 243.372 72.4521 243.719C72.8076 244.061 72.9854 244.509 72.9854 245.065C72.9854 245.713 72.7552 246.225 72.2949 246.604C71.8392 246.977 71.2126 247.164 70.415 247.164C69.9867 247.164 69.5742 247.105 69.1777 246.986C68.7858 246.868 68.4212 246.697 68.084 246.474ZM75.2617 238.325C75.0339 238.325 74.8424 238.25 74.6875 238.1C74.5326 237.945 74.4551 237.756 74.4551 237.532C74.4551 237.309 74.5326 237.122 74.6875 236.972C74.8424 236.817 75.0339 236.739 75.2617 236.739C75.4896 236.739 75.681 236.817 75.8359 236.972C75.9909 237.122 76.0684 237.309 76.0684 237.532C76.0684 237.756 75.9909 237.945 75.8359 238.1C75.681 238.25 75.4896 238.325 75.2617 238.325ZM75.8086 247H74.6875V240H75.8086V247ZM87.5459 243.753H82.5967C82.6149 244.541 82.8223 245.15 83.2188 245.578C83.6198 246.002 84.1803 246.214 84.9004 246.214C85.2148 246.214 85.5293 246.168 85.8438 246.077C86.1628 245.981 86.4772 245.831 86.7871 245.626L87.3066 246.426C86.9102 246.681 86.5137 246.868 86.1172 246.986C85.7207 247.105 85.2855 247.164 84.8115 247.164C83.7542 247.164 82.9294 246.85 82.3369 246.221C81.7445 245.592 81.446 244.715 81.4414 243.589C81.4368 242.463 81.7331 241.556 82.3301 240.868C82.9316 240.18 83.7109 239.836 84.668 239.836C85.5794 239.836 86.2858 240.134 86.7871 240.731C87.293 241.324 87.5459 242.146 87.5459 243.199V243.753ZM86.3975 242.837C86.3929 242.19 86.2357 241.686 85.9258 241.326C85.6159 240.962 85.1898 240.779 84.6475 240.779C84.1143 240.779 83.6608 240.966 83.2871 241.34C82.918 241.709 82.6924 242.208 82.6104 242.837H86.3975ZM92.7002 240.957C92.6136 240.93 92.5361 240.911 92.4678 240.902C92.3994 240.889 92.3128 240.882 92.208 240.882C91.6383 240.882 91.1895 241.126 90.8613 241.613C90.5332 242.096 90.3691 242.702 90.3691 243.432V247H89.248V240H90.3691V241.388H90.3965C90.556 240.896 90.7998 240.522 91.1279 240.267C91.4561 240.007 91.8343 239.877 92.2627 239.877C92.404 239.877 92.5225 239.884 92.6182 239.897C92.7184 239.911 92.8073 239.932 92.8848 239.959L92.7002 240.957ZM99.0713 247H97.9502V245.906H97.9229C97.6813 246.326 97.3828 246.64 97.0273 246.85C96.6764 247.059 96.2663 247.164 95.7969 247.164C95.1406 247.164 94.6097 246.973 94.2041 246.59C93.7985 246.207 93.5957 245.699 93.5957 245.065C93.5957 244.468 93.8008 243.974 94.2109 243.582C94.6211 243.19 95.2021 242.939 95.9541 242.83L97.9502 242.563V242.406C97.9502 241.818 97.8135 241.401 97.54 241.155C97.2666 240.905 96.902 240.779 96.4463 240.779C96.0817 240.779 95.7308 240.848 95.3936 240.984C95.0563 241.121 94.7396 241.331 94.4434 241.613L93.7871 240.937C94.179 240.558 94.596 240.28 95.0381 240.103C95.4801 239.925 95.9723 239.836 96.5146 239.836C97.3623 239.836 98.0003 240.055 98.4287 240.492C98.8571 240.925 99.0713 241.577 99.0713 242.447V247ZM97.9502 244.156V243.459L96.2617 243.691C95.7467 243.764 95.3594 243.894 95.0996 244.081C94.8398 244.268 94.71 244.562 94.71 244.963C94.71 245.382 94.8307 245.703 95.0723 245.927C95.3184 246.146 95.6169 246.255 95.9678 246.255C96.5739 246.255 97.0547 246.057 97.4102 245.66C97.7702 245.264 97.9502 244.762 97.9502 244.156ZM104.574 246.918C104.383 246.995 104.194 247.052 104.007 247.089C103.825 247.13 103.617 247.15 103.385 247.15C102.829 247.15 102.391 246.989 102.072 246.665C101.758 246.337 101.601 245.854 101.601 245.216V240.957H100.397V240H101.601V238.291L102.722 237.929V240H104.485V240.957H102.722V245.086C102.722 245.487 102.792 245.776 102.934 245.954C103.079 246.132 103.296 246.221 103.583 246.221C103.72 246.221 103.852 246.205 103.979 246.173C104.107 246.141 104.214 246.104 104.301 246.063L104.574 246.918ZM110.973 245.988H110.945V250.22H109.824V240H110.945V241.23H110.973C111.251 240.766 111.59 240.417 111.991 240.185C112.397 239.952 112.864 239.836 113.393 239.836C114.295 239.836 114.999 240.15 115.505 240.779C116.011 241.404 116.264 242.242 116.264 243.295C116.264 244.466 115.979 245.405 115.409 246.111C114.84 246.813 114.06 247.164 113.071 247.164C112.62 247.164 112.219 247.066 111.868 246.87C111.517 246.674 111.219 246.38 110.973 245.988ZM110.945 243.165V244.143C110.945 244.721 111.132 245.214 111.506 245.619C111.884 246.02 112.363 246.221 112.941 246.221C113.62 246.221 114.151 245.961 114.534 245.441C114.922 244.922 115.115 244.2 115.115 243.274C115.115 242.495 114.935 241.884 114.575 241.442C114.215 241 113.728 240.779 113.112 240.779C112.461 240.779 111.937 241.007 111.54 241.463C111.144 241.914 110.945 242.481 110.945 243.165ZM120.98 247.164C119.946 247.164 119.119 246.838 118.499 246.187C117.884 245.53 117.576 244.662 117.576 243.582C117.576 242.411 117.895 241.495 118.533 240.834C119.171 240.173 120.042 239.84 121.145 239.836C122.188 239.831 123.002 240.153 123.585 240.8C124.173 241.447 124.467 242.338 124.467 243.473C124.467 244.594 124.15 245.489 123.517 246.159C122.888 246.829 122.042 247.164 120.98 247.164ZM121.062 246.221C121.787 246.221 122.343 245.986 122.73 245.517C123.122 245.043 123.318 244.375 123.318 243.514C123.318 242.634 123.122 241.96 122.73 241.49C122.339 241.016 121.783 240.779 121.062 240.779C120.342 240.779 119.773 241.025 119.354 241.518C118.934 242.01 118.725 242.684 118.725 243.541C118.725 244.37 118.937 245.024 119.36 245.503C119.784 245.981 120.352 246.221 121.062 246.221ZM129.71 240.957C129.623 240.93 129.546 240.911 129.478 240.902C129.409 240.889 129.323 240.882 129.218 240.882C128.648 240.882 128.199 241.126 127.871 241.613C127.543 242.096 127.379 242.702 127.379 243.432V247H126.258V240H127.379V241.388H127.406C127.566 240.896 127.81 240.522 128.138 240.267C128.466 240.007 128.844 239.877 129.272 239.877C129.414 239.877 129.532 239.884 129.628 239.897C129.728 239.911 129.817 239.932 129.895 239.959L129.71 240.957ZM134.461 246.918C134.27 246.995 134.08 247.052 133.894 247.089C133.711 247.13 133.504 247.15 133.271 247.15C132.715 247.15 132.278 246.989 131.959 246.665C131.645 246.337 131.487 245.854 131.487 245.216V240.957H130.284V240H131.487V238.291L132.608 237.929V240H134.372V240.957H132.608V245.086C132.608 245.487 132.679 245.776 132.82 245.954C132.966 246.132 133.183 246.221 133.47 246.221C133.606 246.221 133.739 246.205 133.866 246.173C133.994 246.141 134.101 246.104 134.188 246.063L134.461 246.918ZM139.205 246.918C139.014 246.995 138.825 247.052 138.638 247.089C138.455 247.13 138.248 247.15 138.016 247.15C137.46 247.15 137.022 246.989 136.703 246.665C136.389 246.337 136.231 245.854 136.231 245.216V240.957H135.028V240H136.231V238.291L137.353 237.929V240H139.116V240.957H137.353V245.086C137.353 245.487 137.423 245.776 137.564 245.954C137.71 246.132 137.927 246.221 138.214 246.221C138.351 246.221 138.483 246.205 138.61 246.173C138.738 246.141 138.845 246.104 138.932 246.063L139.205 246.918ZM141.188 238.325C140.96 238.325 140.768 238.25 140.613 238.1C140.458 237.945 140.381 237.756 140.381 237.532C140.381 237.309 140.458 237.122 140.613 236.972C140.768 236.817 140.96 236.739 141.188 236.739C141.415 236.739 141.607 236.817 141.762 236.972C141.917 237.122 141.994 237.309 141.994 237.532C141.994 237.756 141.917 237.945 141.762 238.1C141.607 238.25 141.415 238.325 141.188 238.325ZM141.734 247H140.613V240H141.734V247ZM147.34 246.918C147.148 246.995 146.959 247.052 146.772 247.089C146.59 247.13 146.383 247.15 146.15 247.15C145.594 247.15 145.157 246.989 144.838 246.665C144.523 246.337 144.366 245.854 144.366 245.216V240.957H143.163V240H144.366V238.291L145.487 237.929V240H147.251V240.957H145.487V245.086C145.487 245.487 145.558 245.776 145.699 245.954C145.845 246.132 146.062 246.221 146.349 246.221C146.485 246.221 146.618 246.205 146.745 246.173C146.873 246.141 146.98 246.104 147.066 246.063L147.34 246.918ZM151.674 247.164C150.639 247.164 149.812 246.838 149.192 246.187C148.577 245.53 148.27 244.662 148.27 243.582C148.27 242.411 148.589 241.495 149.227 240.834C149.865 240.173 150.735 239.84 151.838 239.836C152.882 239.831 153.695 240.153 154.278 240.8C154.866 241.447 155.16 242.338 155.16 243.473C155.16 244.594 154.843 245.489 154.21 246.159C153.581 246.829 152.736 247.164 151.674 247.164ZM151.756 246.221C152.48 246.221 153.036 245.986 153.424 245.517C153.816 245.043 154.012 244.375 154.012 243.514C154.012 242.634 153.816 241.96 153.424 241.49C153.032 241.016 152.476 240.779 151.756 240.779C151.036 240.779 150.466 241.025 150.047 241.518C149.628 242.01 149.418 242.684 149.418 243.541C149.418 244.37 149.63 245.024 150.054 245.503C150.478 245.981 151.045 246.221 151.756 246.221ZM160.403 240.957C160.317 240.93 160.239 240.911 160.171 240.902C160.103 240.889 160.016 240.882 159.911 240.882C159.341 240.882 158.893 241.126 158.564 241.613C158.236 242.096 158.072 242.702 158.072 243.432V247H156.951V240H158.072V241.388H158.1C158.259 240.896 158.503 240.522 158.831 240.267C159.159 240.007 159.537 239.877 159.966 239.877C160.107 239.877 160.226 239.884 160.321 239.897C160.422 239.911 160.51 239.932 160.588 239.959L160.403 240.957ZM165.66 247V236.637H166.781V247H165.66ZM169.625 238.325C169.397 238.325 169.206 238.25 169.051 238.1C168.896 237.945 168.818 237.756 168.818 237.532C168.818 237.309 168.896 237.122 169.051 236.972C169.206 236.817 169.397 236.739 169.625 236.739C169.853 236.739 170.044 236.817 170.199 236.972C170.354 237.122 170.432 237.309 170.432 237.532C170.432 237.756 170.354 237.945 170.199 238.1C170.044 238.25 169.853 238.325 169.625 238.325ZM170.172 247H169.051V240H170.172V247ZM178.416 246.624C178.416 247.85 178.102 248.768 177.473 249.379C176.848 249.99 175.992 250.295 174.902 250.295C174.424 250.295 173.977 250.249 173.562 250.158C173.152 250.067 172.729 249.919 172.291 249.714L172.701 248.853C173.066 249.021 173.421 249.144 173.768 249.222C174.118 249.299 174.492 249.338 174.889 249.338C175.636 249.338 176.224 249.126 176.652 248.702C177.081 248.278 177.295 247.636 177.295 246.774V245.824H177.268C177.003 246.271 176.671 246.606 176.27 246.829C175.868 247.052 175.399 247.164 174.861 247.164C173.991 247.164 173.289 246.854 172.756 246.234C172.227 245.61 171.963 244.774 171.963 243.726C171.963 242.577 172.255 241.643 172.838 240.923C173.426 240.198 174.203 239.836 175.169 239.836C175.643 239.836 176.053 239.932 176.399 240.123C176.75 240.31 177.04 240.592 177.268 240.971H177.295V240H178.416V246.624ZM177.295 243.835V242.803C177.295 242.247 177.106 241.771 176.728 241.374C176.354 240.978 175.887 240.779 175.326 240.779C174.638 240.779 174.096 241.016 173.699 241.49C173.307 241.964 173.111 242.684 173.111 243.65C173.111 244.48 173.294 245.116 173.658 245.558C174.023 246 174.526 246.221 175.169 246.221C175.798 246.221 176.308 245.997 176.7 245.551C177.097 245.104 177.295 244.532 177.295 243.835ZM186.346 247H185.225V245.893H185.197C184.965 246.316 184.669 246.635 184.309 246.85C183.949 247.059 183.525 247.164 183.037 247.164C182.203 247.164 181.576 246.916 181.157 246.419C180.743 245.922 180.535 245.177 180.535 244.184V240H181.649V244.006C181.649 244.744 181.791 245.298 182.073 245.667C182.356 246.036 182.78 246.221 183.345 246.221C183.892 246.221 184.34 246.02 184.691 245.619C185.047 245.214 185.225 244.685 185.225 244.033V240H186.346V247ZM188.615 247V236.637H189.736V247H188.615ZM196.962 247H195.841V245.906H195.813C195.572 246.326 195.273 246.64 194.918 246.85C194.567 247.059 194.157 247.164 193.688 247.164C193.031 247.164 192.5 246.973 192.095 246.59C191.689 246.207 191.486 245.699 191.486 245.065C191.486 244.468 191.691 243.974 192.102 243.582C192.512 243.19 193.093 242.939 193.845 242.83L195.841 242.563V242.406C195.841 241.818 195.704 241.401 195.431 241.155C195.157 240.905 194.793 240.779 194.337 240.779C193.972 240.779 193.621 240.848 193.284 240.984C192.947 241.121 192.63 241.331 192.334 241.613L191.678 240.937C192.07 240.558 192.487 240.28 192.929 240.103C193.371 239.925 193.863 239.836 194.405 239.836C195.253 239.836 195.891 240.055 196.319 240.492C196.748 240.925 196.962 241.577 196.962 242.447V247ZM195.841 244.156V243.459L194.152 243.691C193.637 243.764 193.25 243.894 192.99 244.081C192.73 244.268 192.601 244.562 192.601 244.963C192.601 245.382 192.721 245.703 192.963 245.927C193.209 246.146 193.507 246.255 193.858 246.255C194.465 246.255 194.945 246.057 195.301 245.66C195.661 245.264 195.841 244.762 195.841 244.156ZM199.512 247.15C199.293 247.15 199.106 247.075 198.951 246.925C198.796 246.77 198.719 246.585 198.719 246.371C198.719 246.161 198.796 245.979 198.951 245.824C199.106 245.669 199.293 245.592 199.512 245.592C199.73 245.592 199.917 245.669 200.072 245.824C200.227 245.979 200.305 246.161 200.305 246.371C200.305 246.585 200.227 246.77 200.072 246.925C199.917 247.075 199.73 247.15 199.512 247.15Z" fill="white"/>
<rect x="13.5" y="263.5" width="142" height="31" rx="3.5" fill="white" fill-opacity="0.0605"/>
<path d="M79.332 275.236H76.502V284H75.3535V275.236H72.5303V274.197H79.332V275.236ZM84.999 280.753H80.0498C80.068 281.541 80.2754 282.15 80.6719 282.578C81.0729 283.002 81.6335 283.214 82.3535 283.214C82.668 283.214 82.9824 283.168 83.2969 283.077C83.6159 282.981 83.9303 282.831 84.2402 282.626L84.7598 283.426C84.3633 283.681 83.9668 283.868 83.5703 283.986C83.1738 284.105 82.7386 284.164 82.2646 284.164C81.2074 284.164 80.3825 283.85 79.79 283.221C79.1976 282.592 78.8991 281.715 78.8945 280.589C78.89 279.463 79.1862 278.556 79.7832 277.868C80.3848 277.18 81.1641 276.836 82.1211 276.836C83.0326 276.836 83.7389 277.134 84.2402 277.731C84.7461 278.324 84.999 279.146 84.999 280.199V280.753ZM83.8506 279.837C83.846 279.19 83.6888 278.686 83.3789 278.326C83.069 277.962 82.6429 277.779 82.1006 277.779C81.5674 277.779 81.1139 277.966 80.7402 278.34C80.3711 278.709 80.1455 279.208 80.0635 279.837H83.8506ZM91.8145 277L89.4629 280.541L91.7734 284H90.4678L89.0938 281.73C89.0482 281.658 89.0003 281.578 88.9502 281.491C88.9001 281.405 88.8454 281.307 88.7861 281.197H88.7588C88.7451 281.215 88.7109 281.27 88.6562 281.361C88.6061 281.452 88.5332 281.576 88.4375 281.73L87.0361 284H85.7441L88.1299 280.568L85.8467 277H87.1523L88.5059 279.393C88.556 279.484 88.6038 279.575 88.6494 279.666C88.6995 279.757 88.7497 279.848 88.7998 279.939H88.8271C88.8818 279.848 88.9365 279.757 88.9912 279.666C89.0459 279.575 89.1006 279.484 89.1553 279.393L90.5771 277H91.8145ZM96.4629 283.918C96.2715 283.995 96.0824 284.052 95.8955 284.089C95.7132 284.13 95.5059 284.15 95.2734 284.15C94.7174 284.15 94.2799 283.989 93.9609 283.665C93.6465 283.337 93.4893 282.854 93.4893 282.216V277.957H92.2861V277H93.4893V275.291L94.6104 274.929V277H96.374V277.957H94.6104V282.086C94.6104 282.487 94.681 282.776 94.8223 282.954C94.9681 283.132 95.1846 283.221 95.4717 283.221C95.6084 283.221 95.7406 283.205 95.8682 283.173C95.9958 283.141 96.1029 283.104 96.1895 283.063L96.4629 283.918Z" fill="white"/>
<rect x="13.5" y="263.5" width="142" height="31" rx="3.5" stroke="url(#paint0_linear)"/>
<path d="M164 267C164 264.791 165.791 263 168 263H303C305.209 263 307 264.791 307 267V291C307 293.209 305.209 295 303 295H168C165.791 295 164 293.209 164 291V267Z" fill="#60CDFF"/>
<path d="M230.332 275.236H227.502V284H226.354V275.236H223.53V274.197H230.332V275.236ZM235.999 280.753H231.05C231.068 281.541 231.275 282.15 231.672 282.578C232.073 283.002 232.633 283.214 233.354 283.214C233.668 283.214 233.982 283.168 234.297 283.077C234.616 282.981 234.93 282.831 235.24 282.626L235.76 283.426C235.363 283.681 234.967 283.868 234.57 283.986C234.174 284.105 233.739 284.164 233.265 284.164C232.207 284.164 231.382 283.85 230.79 283.221C230.198 282.592 229.899 281.715 229.895 280.589C229.89 279.463 230.186 278.556 230.783 277.868C231.385 277.18 232.164 276.836 233.121 276.836C234.033 276.836 234.739 277.134 235.24 277.731C235.746 278.324 235.999 279.146 235.999 280.199V280.753ZM234.851 279.837C234.846 279.19 234.689 278.686 234.379 278.326C234.069 277.962 233.643 277.779 233.101 277.779C232.567 277.779 232.114 277.966 231.74 278.34C231.371 278.709 231.146 279.208 231.063 279.837H234.851ZM242.814 277L240.463 280.541L242.773 284H241.468L240.094 281.73C240.048 281.658 240 281.578 239.95 281.491C239.9 281.405 239.845 281.307 239.786 281.197H239.759C239.745 281.215 239.711 281.27 239.656 281.361C239.606 281.452 239.533 281.576 239.438 281.73L238.036 284H236.744L239.13 280.568L236.847 277H238.152L239.506 279.393C239.556 279.484 239.604 279.575 239.649 279.666C239.7 279.757 239.75 279.848 239.8 279.939H239.827C239.882 279.848 239.937 279.757 239.991 279.666C240.046 279.575 240.101 279.484 240.155 279.393L241.577 277H242.814ZM247.463 283.918C247.271 283.995 247.082 284.052 246.896 284.089C246.713 284.13 246.506 284.15 246.273 284.15C245.717 284.15 245.28 283.989 244.961 283.665C244.646 283.337 244.489 282.854 244.489 282.216V277.957H243.286V277H244.489V275.291L245.61 274.929V277H247.374V277.957H245.61V282.086C245.61 282.487 245.681 282.776 245.822 282.954C245.968 283.132 246.185 283.221 246.472 283.221C246.608 283.221 246.741 283.205 246.868 283.173C246.996 283.141 247.103 283.104 247.189 283.063L247.463 283.918Z" fill="black"/>
<path d="M168 264H303V262H168V264ZM306 267V291H308V267H306ZM303 294H168V296H303V294ZM165 291V267H163V291H165ZM168 294C166.343 294 165 292.657 165 291H163C163 293.761 165.239 296 168 296V294ZM306 291C306 292.657 304.657 294 303 294V296C305.761 296 308 293.761 308 291H306ZM303 264C304.657 264 306 265.343 306 267H308C308 264.239 305.761 262 303 262V264ZM168 262C165.239 262 163 264.239 163 267H165C165 265.343 166.343 264 168 264V262Z" fill="url(#paint1_linear)"/>
<defs>
<filter id="filter0_b" x="-239" y="-239" width="798" height="793" filterUnits="userSpaceOnUse" color-interpolation-filters="sRGB">
<feFlood flood-opacity="0" result="BackgroundImageFix"/>
<feGaussianBlur in="BackgroundImage" stdDeviation="120"/>
<feComposite in2="SourceAlpha" operator="in" result="effect1_backgroundBlur"/>
<feBlend mode="normal" in="SourceGraphic" in2="effect1_backgroundBlur" result="shape"/>
</filter>
<pattern id="pattern0" patternContentUnits="objectBoundingBox" width="0.805031" height="0.817891">
<use xlink:href="#image0" transform="scale(0.00314465)"/>
</pattern>
<pattern id="pattern1" patternContentUnits="objectBoundingBox" width="1" height="1">
<use xlink:href="#image1" transform="translate(-0.00314465) scale(0.000524109 0.000925926)"/>
</pattern>
<linearGradient id="paint0_linear" x1="84.5" y1="264" x2="84.5" y2="294" gradientUnits="userSpaceOnUse">
<stop stop-color="white" stop-opacity="0.093"/>
<stop offset="0.0957031" stop-color="white" stop-opacity="0.0698"/>
</linearGradient>
<linearGradient id="paint1_linear" x1="235.5" y1="263" x2="235.5" y2="295" gradientUnits="userSpaceOnUse">
<stop offset="0.906738" stop-color="white" stop-opacity="0.08"/>
<stop offset="1" stop-opacity="0.14"/>
</linearGradient>
<image id="image0" width="256" height="256" xlink:href="https://i.imgur.com/5hRlbaM.png"/>
<image id="image1" width="1920" height="1080" xlink:href="https://source.unsplash.com/random/1920x1080/?nature,water,mountains"/>
</defs>
</svg>
