<svg xmlns="http://www.w3.org/2000/svg" xmlns:svg="http://www.w3.org/2000/svg" xmlns:xlink="http://www.w3.org/1999/xlink" id="svg2" width="248" height="248" x="0" y="0" enable-background="new 0 0 248 248" version="1.1" viewBox="0 0 248 248" xml:space="preserve"><g><linearGradient id="SVGID_1_" x1="278.869" x2="321.294" y1="-211.285" y2="-369.903" gradientTransform="matrix(1 0 0 -1 -169.5 -139)" gradientUnits="userSpaceOnUse"><stop offset="0" style="stop-color:#0669bc"/><stop offset=".715" style="stop-color:#1b4779"/><stop offset="1" style="stop-color:#233b61"/></linearGradient><path fill="url(#SVGID_1_)" d="M248,42c0-5.523-4.477-10-10-10H10C4.477,32,0,36.477,0,42v166c0,22.091,17.909,40,40,40h168 c22.091,0,40-17.909,40-40V42z"/><path fill="#F25022" d="M120,88H72v48h48V88z"/><path fill="#7FBA00" d="M176,88h-48v48h48V88z"/><path fill="#00A4EF" d="M120,144H72v48h48V144z"/><path fill="#FFB900" d="M176,144h-48v48h48V144z"/><radialGradient id="SVGID_2_" cx="253.648" cy="210.709" r="1" gradientTransform="matrix(-21.6738 21.7564 22.8774 22.7906 740.863 -10280.6846)" gradientUnits="userSpaceOnUse"><stop offset="0" style="stop-color:#1b4779"/><stop offset="1" style="stop-color:#0669bc;stop-opacity:0"/></radialGradient><path fill="url(#SVGID_2_)" d="M111.336,32H16.664C16.227,34.602,16,37.274,16,40 c0,26.51,21.49,48,48,48s48-21.49,48-48C112,37.274,111.773,34.602,111.336,32z" enable-background="new" opacity=".873"/><radialGradient id="SVGID_3_" cx="253.648" cy="210.709" r="1" gradientTransform="matrix(-21.6738 21.7564 22.8774 22.7906 860.8625 -10280.6846)" gradientUnits="userSpaceOnUse"><stop offset="0" style="stop-color:#1b4779"/><stop offset="1" style="stop-color:#0669bc;stop-opacity:0"/></radialGradient><path fill="url(#SVGID_3_)" d="M231.336,32h-94.672 c-0.437,2.602-0.664,5.274-0.664,8c0,26.51,21.49,48,48,48s48-21.49,48-48C232,37.274,231.773,34.602,231.336,32z" enable-background="new" opacity=".873"/><linearGradient id="SVGID_4_" x1="293.5" x2="293.5" y1="-146.201" y2="-182.502" gradientTransform="matrix(1 0 0 -1 -169.5 -139)" gradientUnits="userSpaceOnUse"><stop offset="0" style="stop-color:#30daff"/><stop offset="1" style="stop-color:#0194d4"/></linearGradient><path fill="url(#SVGID_4_)" d="M56,16c0-8.837,7.163-16,16-16h104c8.837,0,16,7.163,16,16v24c0,4.418-3.582,8-8,8s-8-3.582-8-8V16 H72v24c0,4.418-3.582,8-8,8s-8-3.582-8-8V16z"/><linearGradient id="SVGID_5_" x1="293.5" x2="293.5" y1="-141.539" y2="-153.077" gradientTransform="matrix(1 0 0 -1 -169.5 -139)" gradientUnits="userSpaceOnUse"><stop offset="0" style="stop-color:#1fb8fd"/><stop offset="1" style="stop-color:#0591f2"/></linearGradient><path fill="url(#SVGID_5_)" d="M176,0H72v16h104V0z"/></g></svg>