<svg width="1024" height="1024" viewBox="0 0 1024 1024" fill="none" xmlns="http://www.w3.org/2000/svg">
<mask id="mask0_2946_27466" style="mask-type:luminance" maskUnits="userSpaceOnUse" x="0" y="64" width="1024" height="896">
<path d="M0 160C0 106.981 42.9807 64 96 64H330.981C364.928 64 397.486 77.4857 421.49 101.49L493.255 173.255C505.257 185.257 521.536 192 538.51 192H928C981.019 192 1024 234.981 1024 288V864C1024 917.019 981.019 960 928 960H96C42.9807 960 0 917.019 0 864V160Z" fill="white"/>
</mask>
<g mask="url(#mask0_2946_27466)">
<path d="M0 288C0 234.981 42.9807 192 96 192H928C981.019 192 1024 234.981 1024 288V864C1024 917.019 981.019 960 928 960H96C42.9807 960 0 917.019 0 864V288Z" fill="url(#paint0_linear_2946_27466)"/>
<mask id="mask1_2946_27466" style="mask-type:luminance" maskUnits="userSpaceOnUse" x="0" y="192" width="1024" height="768">
<path d="M0 288C0 234.981 42.9807 192 96 192H928C981.019 192 1024 234.981 1024 288V864C1024 917.019 981.019 960 928 960H96C42.9807 960 0 917.019 0 864V288Z" fill="white"/>
</mask>
<g mask="url(#mask1_2946_27466)">
<g filter="url(#filter0_f_2946_27466)">
<path d="M0 160C0 106.981 42.9807 64 96 64H330.981C364.928 64 397.486 77.4857 421.49 101.49L1005.25 685.255C1017.26 697.257 1024 713.536 1024 730.51V864C1024 917.019 981.019 960 928 960H96C42.9807 960 0 917.019 0 864V160Z" fill="black" fill-opacity="0.24"/>
</g>
<g filter="url(#filter1_f_2946_27466)">
<path d="M0 160C0 106.981 42.9807 64 96 64H330.981C364.928 64 397.486 77.4857 421.49 101.49L1005.25 685.255C1017.26 697.257 1024 713.536 1024 730.51V864C1024 917.019 981.019 960 928 960H96C42.9807 960 0 917.019 0 864V160Z" fill="black" fill-opacity="0.32"/>
</g>
</g>
<path d="M0 160C0 106.981 42.9807 64 96 64H330.981C364.928 64 397.486 77.4857 421.49 101.49L1005.25 685.255C1017.26 697.257 1024 713.536 1024 730.51V864C1024 917.019 981.019 960 928 960H96C42.9807 960 0 917.019 0 864V160Z" fill="url(#paint1_linear_2946_27466)"/>
<mask id="mask2_2946_27466" style="mask-type:luminance" maskUnits="userSpaceOnUse" x="0" y="64" width="1024" height="896">
<path d="M0 160C0 106.981 42.9807 64 96 64H330.981C364.928 64 397.486 77.4857 421.49 101.49L1005.25 685.255C1017.26 697.257 1024 713.536 1024 730.51V864C1024 917.019 981.019 960 928 960H96C42.9807 960 0 917.019 0 864V160Z" fill="white"/>
</mask>
<g mask="url(#mask2_2946_27466)">
<g filter="url(#filter2_f_2946_27466)">
<path d="M60.1178 515.882C97.6081 478.392 158.392 478.392 195.882 515.882L640 960H96C42.9807 960 0 917.019 0 864V576L60.1178 515.882Z" fill="black" fill-opacity="0.24"/>
</g>
<g filter="url(#filter3_f_2946_27466)">
<path d="M60.1178 515.882C97.6081 478.392 158.392 478.392 195.882 515.882L640 960H96C42.9807 960 0 917.019 0 864V576L60.1178 515.882Z" fill="black" fill-opacity="0.32"/>
</g>
</g>
<path d="M60.1178 515.882C97.6081 478.392 158.392 478.392 195.882 515.882L640 960H96C42.9807 960 0 917.019 0 864V576L60.1178 515.882Z" fill="url(#paint2_linear_2946_27466)"/>
</g>
<defs>
<filter id="filter0_f_2946_27466" x="-16" y="48" width="1056" height="928" filterUnits="userSpaceOnUse" color-interpolation-filters="sRGB">
<feFlood flood-opacity="0" result="BackgroundImageFix"/>
<feBlend mode="normal" in="SourceGraphic" in2="BackgroundImageFix" result="shape"/>
<feGaussianBlur stdDeviation="8" result="effect1_foregroundBlur_2946_27466"/>
</filter>
<filter id="filter1_f_2946_27466" x="-64" y="0" width="1152" height="1024" filterUnits="userSpaceOnUse" color-interpolation-filters="sRGB">
<feFlood flood-opacity="0" result="BackgroundImageFix"/>
<feBlend mode="normal" in="SourceGraphic" in2="BackgroundImageFix" result="shape"/>
<feGaussianBlur stdDeviation="32" result="effect1_foregroundBlur_2946_27466"/>
</filter>
<filter id="filter2_f_2946_27466" x="-16" y="471.765" width="672" height="504.235" filterUnits="userSpaceOnUse" color-interpolation-filters="sRGB">
<feFlood flood-opacity="0" result="BackgroundImageFix"/>
<feBlend mode="normal" in="SourceGraphic" in2="BackgroundImageFix" result="shape"/>
<feGaussianBlur stdDeviation="8" result="effect1_foregroundBlur_2946_27466"/>
</filter>
<filter id="filter3_f_2946_27466" x="-64" y="423.765" width="768" height="600.235" filterUnits="userSpaceOnUse" color-interpolation-filters="sRGB">
<feFlood flood-opacity="0" result="BackgroundImageFix"/>
<feBlend mode="normal" in="SourceGraphic" in2="BackgroundImageFix" result="shape"/>
<feGaussianBlur stdDeviation="32" result="effect1_foregroundBlur_2946_27466"/>
</filter>
<linearGradient id="paint0_linear_2946_27466" x1="216.5" y1="-8.72623e-06" x2="807" y2="1023" gradientUnits="userSpaceOnUse">
<stop offset="0.325174" stop-color="#1152D4"/>
<stop offset="0.842552" stop-color="#0D36A5"/>
</linearGradient>
<linearGradient id="paint1_linear_2946_27466" x1="217" y1="0.999999" x2="807.5" y2="1023.5" gradientUnits="userSpaceOnUse">
<stop stop-color="#61B1FB"/>
<stop offset="0.935639" stop-color="#3B90F5"/>
</linearGradient>
<linearGradient id="paint2_linear_2946_27466" x1="217" y1="0.999993" x2="807.5" y2="1023.5" gradientUnits="userSpaceOnUse">
<stop offset="0.502296" stop-color="#C2E2FF"/>
<stop offset="0.895399" stop-color="#61B1FB"/>
</linearGradient>
</defs>
</svg>
