<svg width="256" height="256" viewBox="0 0 256 256" fill="none" xmlns="http://www.w3.org/2000/svg">
<mask id="mask0_2946_27304" style="mask-type:luminance" maskUnits="userSpaceOnUse" x="0" y="16" width="256" height="224">
<path d="M0 40C0 26.7452 10.7452 16 24 16H82.7452C91.2321 16 99.3714 19.3714 105.373 25.3726L123.314 43.3137C126.314 46.3143 130.384 48 134.627 48H232C245.255 48 256 58.7452 256 72V216C256 229.255 245.255 240 232 240H24C10.7452 240 0 229.255 0 216V40Z" fill="white"/>
</mask>
<g mask="url(#mask0_2946_27304)">
<path d="M0 72C0 58.7452 10.7452 48 24 48H232C245.255 48 256 58.7452 256 72V216C256 229.255 245.255 240 232 240H24C10.7452 240 0 229.255 0 216V72Z" fill="url(#paint0_linear_2946_27304)"/>
<mask id="mask1_2946_27304" style="mask-type:luminance" maskUnits="userSpaceOnUse" x="0" y="48" width="256" height="192">
<path d="M0 72C0 58.7452 10.7452 48 24 48H232C245.255 48 256 58.7452 256 72V216C256 229.255 245.255 240 232 240H24C10.7452 240 0 229.255 0 216V72Z" fill="white"/>
</mask>
<g mask="url(#mask1_2946_27304)">
<g filter="url(#filter0_f_2946_27304)">
<path d="M0 40C0 26.7452 10.7452 16 24 16H82.7452C91.2321 16 99.3714 19.3714 105.373 25.3726L251.314 171.314C254.314 174.314 256 178.384 256 182.627V216C256 229.255 245.255 240 232 240H24C10.7452 240 0 229.255 0 216V40Z" fill="black" fill-opacity="0.24"/>
</g>
<g filter="url(#filter1_f_2946_27304)">
<path d="M0 40C0 26.7452 10.7452 16 24 16H82.7452C91.2321 16 99.3714 19.3714 105.373 25.3726L251.314 171.314C254.314 174.314 256 178.384 256 182.627V216C256 229.255 245.255 240 232 240H24C10.7452 240 0 229.255 0 216V40Z" fill="black" fill-opacity="0.32"/>
</g>
</g>
<path d="M0 40C0 26.7452 10.7452 16 24 16H82.7452C91.2321 16 99.3714 19.3714 105.373 25.3726L251.314 171.314C254.314 174.314 256 178.384 256 182.627V216C256 229.255 245.255 240 232 240H24C10.7452 240 0 229.255 0 216V40Z" fill="url(#paint1_linear_2946_27304)"/>
<mask id="mask2_2946_27304" style="mask-type:luminance" maskUnits="userSpaceOnUse" x="0" y="16" width="256" height="224">
<path d="M0 40C0 26.7452 10.7452 16 24 16H82.7452C91.2321 16 99.3714 19.3714 105.373 25.3726L251.314 171.314C254.314 174.314 256 178.384 256 182.627V216C256 229.255 245.255 240 232 240H24C10.7452 240 0 229.255 0 216V40Z" fill="white"/>
</mask>
<g mask="url(#mask2_2946_27304)">
<g filter="url(#filter2_f_2946_27304)">
<path d="M15.0294 128.971C24.402 119.598 39.598 119.598 48.9706 128.971L160 240H24C10.7452 240 0 229.255 0 216V144L15.0294 128.971Z" fill="black" fill-opacity="0.24"/>
</g>
<g filter="url(#filter3_f_2946_27304)">
<path d="M15.0294 128.971C24.402 119.598 39.598 119.598 48.9706 128.971L160 240H24C10.7452 240 0 229.255 0 216V144L15.0294 128.971Z" fill="black" fill-opacity="0.32"/>
</g>
</g>
<path d="M15.0294 128.971C24.402 119.598 39.598 119.598 48.9706 128.971L160 240H24C10.7452 240 0 229.255 0 216V144L15.0294 128.971Z" fill="url(#paint2_linear_2946_27304)"/>
</g>
<defs>
<filter id="filter0_f_2946_27304" x="-4" y="12" width="264" height="232" filterUnits="userSpaceOnUse" color-interpolation-filters="sRGB">
<feFlood flood-opacity="0" result="BackgroundImageFix"/>
<feBlend mode="normal" in="SourceGraphic" in2="BackgroundImageFix" result="shape"/>
<feGaussianBlur stdDeviation="2" result="effect1_foregroundBlur_2946_27304"/>
</filter>
<filter id="filter1_f_2946_27304" x="-16" y="0" width="288" height="256" filterUnits="userSpaceOnUse" color-interpolation-filters="sRGB">
<feFlood flood-opacity="0" result="BackgroundImageFix"/>
<feBlend mode="normal" in="SourceGraphic" in2="BackgroundImageFix" result="shape"/>
<feGaussianBlur stdDeviation="8" result="effect1_foregroundBlur_2946_27304"/>
</filter>
<filter id="filter2_f_2946_27304" x="-4" y="117.941" width="168" height="126.059" filterUnits="userSpaceOnUse" color-interpolation-filters="sRGB">
<feFlood flood-opacity="0" result="BackgroundImageFix"/>
<feBlend mode="normal" in="SourceGraphic" in2="BackgroundImageFix" result="shape"/>
<feGaussianBlur stdDeviation="2" result="effect1_foregroundBlur_2946_27304"/>
</filter>
<filter id="filter3_f_2946_27304" x="-16" y="105.941" width="192" height="150.059" filterUnits="userSpaceOnUse" color-interpolation-filters="sRGB">
<feFlood flood-opacity="0" result="BackgroundImageFix"/>
<feBlend mode="normal" in="SourceGraphic" in2="BackgroundImageFix" result="shape"/>
<feGaussianBlur stdDeviation="8" result="effect1_foregroundBlur_2946_27304"/>
</filter>
<linearGradient id="paint0_linear_2946_27304" x1="54.125" y1="-2.18156e-06" x2="201.75" y2="255.75" gradientUnits="userSpaceOnUse">
<stop offset="0.325174" stop-color="#1152D4"/>
<stop offset="0.842552" stop-color="#0D36A5"/>
</linearGradient>
<linearGradient id="paint1_linear_2946_27304" x1="54.25" y1="0.25" x2="201.875" y2="255.875" gradientUnits="userSpaceOnUse">
<stop stop-color="#61B1FB"/>
<stop offset="0.935639" stop-color="#3B90F5"/>
</linearGradient>
<linearGradient id="paint2_linear_2946_27304" x1="54.25" y1="0.249998" x2="201.875" y2="255.875" gradientUnits="userSpaceOnUse">
<stop offset="0.502296" stop-color="#C2E2FF"/>
<stop offset="0.895399" stop-color="#61B1FB"/>
</linearGradient>
</defs>
</svg>
