<svg xmlns="http://www.w3.org/2000/svg" xmlns:xlink="http://www.w3.org/1999/xlink" fill="none" viewBox="0 0 300 348"><style>.B{fill-opacity:.896}.C{fill-opacity:.606}.D{stroke:#000}.E{stroke-opacity:.058}</style><g filter="url(#A)"><rect width="298" height="346" x="1" y="1" fill="#ffda80" rx="7"/></g><rect width="299" height="347" x=".5" y=".5" class="D E" rx="7.5"/><g clip-path="url(#B)"><path fill="#ffda80" d="M1 49h298v291a7 7 0 0 1-7 7H8a7 7 0 0 1-7-7V49z"/><path d="M1 48.5H.5V340a7.5 7.5 0 0 0 7.5 7.5h284a7.5 7.5 0 0 0 7.5-7.5V48.5H1z" class="D E"/></g><g fill="#000"><path d="m16.48 77.296.725-1.251c.442.273.855.467 1.237.581s.811.164 1.285.164c.565 0 1.009-.121 1.333-.362s.492-.597.492-1.053c0-.415-.137-.741-.41-.978s-.727-.463-1.374-.663c-.998-.296-1.732-.663-2.201-1.101s-.704-1.03-.704-1.777a2.57 2.57 0 0 1 .909-2.017c.606-.538 1.429-.807 2.468-.807.456 0 .905.05 1.347.15a6.11 6.11 0 0 1 1.313.465l-.608 1.299a4.76 4.76 0 0 0-1.087-.417 4.46 4.46 0 0 0-1.046-.123c-.52 0-.93.114-1.23.342s-.444.549-.444.964a1.05 1.05 0 0 0 .41.875c.273.21.743.417 1.408.622 1.021.305 1.755.686 2.201 1.142s.677 1.082.677 1.88c0 .857-.305 1.561-.916 2.112s-1.481.82-2.611.82A6.495 6.495 0 0 1 18 77.951a5.75 5.75 0 0 1-1.517-.656zM30.87 78h-1.593v-1.087h-.027c-.246.415-.549.727-.909.936s-.775.314-1.244.314c-.82 0-1.438-.246-1.853-.738s-.615-1.237-.615-2.222V71h1.579v4.019c0 .624.121 1.094.362 1.408s.613.472 1.101.472c.474 0 .859-.171 1.155-.513s.451-.797.451-1.367V71h1.593v7zm36.217 0h-1.613v-6.255l.02-.923.068-1.073h-.041l-.157.67a3.23 3.23 0 0 1-.137.438L62.35 78h-1.121l-2.892-7.082-.137-.444-.164-.725h-.041l.055 1.046.014 1.155V78H56.56v-9.803h2.297l2.55 6.371.246.67a4.84 4.84 0 0 1 .157.561h.041l.232-.704.205-.547 2.584-6.351h2.215V78zm5.346.164c-1.094 0-1.962-.326-2.605-.978s-.957-1.534-.957-2.632c.005-1.162.337-2.071.998-2.728s1.561-.991 2.7-.991c1.098-.004 1.955.319 2.57.971s.93 1.525.93 2.632c0 1.139-.328 2.046-.984 2.721s-1.536 1.005-2.652 1.005zm.075-1.265c.633 0 1.114-.207 1.442-.622s.499-1.014.499-1.798c0-.775-.166-1.365-.499-1.77s-.816-.608-1.449-.608c-.624 0-1.117.214-1.477.643s-.533 1.021-.533 1.777.178 1.349.533 1.764.85.615 1.483.615zm35.582-7.321h-2.81V78h-1.633v-8.422h-2.803v-1.381h7.246v1.381zM114.365 78h-1.593v-1.087h-.027c-.246.415-.549.727-.909.936s-.775.314-1.244.314c-.82 0-1.438-.246-1.853-.738s-.615-1.237-.615-2.222V71h1.579v4.019c0 .624.121 1.094.362 1.408.247.314.613.472 1.101.472.474 0 .859-.171 1.155-.513s.451-.797.451-1.367V71h1.593v7zm38.695-9.803L150.373 78h-1.846l-1.838-6.768-.103-.499a5.35 5.35 0 0 1-.055-.547h-.027a5.044 5.044 0 0 1-.068.547 3.94 3.94 0 0 1-.11.492L144.46 78h-1.88l-2.741-9.803h1.784l1.771 7.075c.036.146.066.305.089.478l.054.567h.041c.009-.15.03-.312.062-.485l.143-.574 1.99-7.061h1.674l1.86 7.13c.036.123.068.267.095.431l.069.547h.027a4.35 4.35 0 0 1 .055-.472l.109-.54 1.709-7.096h1.689zm6.767 6.72h-4.778c.027.661.219 1.164.574 1.511s.852.513 1.49.513c.26 0 .556-.052.889-.157s.661-.273.984-.506l.718.991a4.63 4.63 0 0 1-1.319.683 4.88 4.88 0 0 1-1.477.212c-1.089 0-1.937-.312-2.543-.937s-.911-1.506-.916-2.632.312-2.028.937-2.721 1.433-1.039 2.413-1.039c.939 0 1.677.296 2.215.889s.813 1.422.813 2.502v.69zm-1.538-1.101c0-.602-.132-1.053-.396-1.353s-.629-.458-1.108-.458a1.55 1.55 0 0 0-1.155.492c-.314.323-.508.763-.581 1.319h3.24zm33.261-4.238h-2.81V78h-1.634v-8.422h-2.802v-1.381h7.246v1.381zM199.042 78h-1.586v-4.006c0-.633-.116-1.107-.349-1.422s-.583-.472-1.052-.472-.862.18-1.176.54-.465.82-.465 1.381V78h-1.593V67.637h1.593v4.471h.027c.265-.428.584-.747.957-.957a2.55 2.55 0 0 1 1.272-.314c.793 0 1.385.239 1.777.718s.595 1.187.595 2.14V78zm35.348-8.422h-3.664v2.946h3.377v1.374h-3.377V78h-1.627v-9.803h5.291v1.381zm5.468 2.755a1.677 1.677 0 0 0-.253-.048 1.58 1.58 0 0 0-.273-.021c-.57 0-1.007.21-1.312.629s-.458.966-.458 1.641V78h-1.593v-7h1.593v1.347h.027c.164-.483.405-.848.724-1.094a1.8 1.8 0 0 1 1.128-.376 2.47 2.47 0 0 1 .329.02 1.98 1.98 0 0 1 .287.061l-.199 1.374zm29.052 4.963.725-1.251c.442.273.854.467 1.237.581s.811.164 1.285.164c.565 0 1.01-.121 1.333-.362s.492-.597.492-1.053c0-.415-.136-.741-.41-.978s-.727-.463-1.374-.663c-.998-.296-1.732-.663-2.201-1.101s-.704-1.03-.704-1.777a2.57 2.57 0 0 1 .909-2.017c.606-.538 1.429-.807 2.468-.807a6.07 6.07 0 0 1 1.347.15 6.11 6.11 0 0 1 1.312.465l-.608 1.299a4.783 4.783 0 0 0-1.087-.417 4.5 4.5 0 0 0-1.046-.123c-.52 0-.93.114-1.231.342s-.444.549-.444.964c0 .369.137.661.41.875s.743.417 1.408.622c1.021.305 1.755.686 2.202 1.142s.676 1.082.676 1.88c0 .857-.305 1.561-.916 2.112s-1.481.82-2.611.82a6.49 6.49 0 0 1-1.654-.212 5.75 5.75 0 0 1-1.518-.656zm13.624.704h-1.538v-1.053h-.027c-.237.406-.531.711-.882.916s-.754.301-1.21.301c-.634 0-1.16-.187-1.579-.561s-.629-.893-.629-1.545c0-.62.21-1.128.629-1.524s1.041-.661 1.866-.779l1.839-.246v-.144c0-.474-.123-.818-.369-1.032s-.579-.321-.998-.321a3.14 3.14 0 0 0-1.019.178 3.51 3.51 0 0 0-.998.554l-.69-.95c.428-.328.87-.57 1.326-.725s.957-.233 1.504-.233c.939 0 1.636.233 2.092.697s.683 1.153.683 2.078V78zm-1.531-2.844v-.595l-1.497.198c-.442.064-.775.184-.998.362s-.328.428-.328.766.104.608.314.8.479.287.807.287c.515 0 .927-.171 1.237-.513s.465-.782.465-1.306z" class="B"/><path fill-opacity=".446" d="M272 22a.98.98 0 0 1 .078-.387.995.995 0 0 1 .211-.316 1.02 1.02 0 0 1 .316-.215.92.92 0 0 1 .387-.082h6.02c.135 0 .263.026.383.078a.99.99 0 0 1 .316.215 1.03 1.03 0 0 1 .211.32.95.95 0 0 1 .078.383.93.93 0 0 1-.047.301 1.11 1.11 0 0 1-.133.273l-2.601 3.785c-.138.201-.315.358-.531.473S276.245 27 276 27a1.45 1.45 0 0 1-.691-.172 1.48 1.48 0 0 1-.528-.473l-2.601-3.785a1.13 1.13 0 0 1-.137-.27.99.99 0 0 1-.043-.3zm-39.01 5a.96.96 0 0 1-.387-.078 1.12 1.12 0 0 1-.316-.215 1.06 1.06 0 0 1-.211-.316.99.99 0 0 1-.078-.391.99.99 0 0 1 .043-.301 1.13 1.13 0 0 1 .137-.27l2.601-3.785a1.27 1.27 0 0 1 .239-.262c.092-.076.188-.138.292-.187a1.52 1.52 0 0 1 .336-.117 1.63 1.63 0 0 1 .352-.039 1.63 1.63 0 0 1 .352.039c.117.026.227.065.332.117a1.37 1.37 0 0 1 .296.188 1.27 1.27 0 0 1 .239.262l2.601 3.785c.06.088.104.178.133.27a.93.93 0 0 1 .047.301.99.99 0 0 1-.078.391 1.06 1.06 0 0 1-.211.316 1.05 1.05 0 0 1-.316.215.91.91 0 0 1-.383.078h-6.02z"/><path d="M63.074 119v-.485a4.05 4.05 0 0 1 .137-1.108c.091-.319.242-.622.451-.909s.483-.574.82-.861l1.251-.971c.356-.255.652-.499.889-.731a3.9 3.9 0 0 0 .581-.698c.128-.191.226-.412.294-.663s.109-.508.109-.772c0-.538-.155-.976-.465-1.313s-.736-.506-1.278-.506a3.14 3.14 0 0 0-1.237.246 3.35 3.35 0 0 0-1.073.759l-.684-.656c.428-.442.891-.768 1.388-.978s1.053-.321 1.668-.321c.921 0 1.62.269 2.099.807s.725 1.16.725 1.866a3.65 3.65 0 0 1-.15 1.046 3.06 3.06 0 0 1-.41.889 4.8 4.8 0 0 1-.67.813 8.77 8.77 0 0 1-.943.793l-1.142.82c-.296.228-.531.44-.704.636s-.303.401-.376.602a2.01 2.01 0 0 0-.109.69h4.881V119h-6.05zm-38.09 0h-1.121v-8.395c-.169.151-.469.329-.902.534s-.809.351-1.142.437l-.321-.984a7.88 7.88 0 0 0 1.668-.67c.593-.31 1.057-.624 1.395-.943h.424V119zm44.154 36.51c0 1.864-.314 3.274-.943 4.231s-1.597 1.429-2.919 1.429a3.61 3.61 0 0 1-1.306-.226 3.604 3.604 0 0 1-1.114-.704l.656-.731c.26.232.531.403.814.512s.624.165 1.012.165c.857 0 1.515-.324 1.976-.971s.69-1.686.69-3.117h-.027c-.21.423-.497.74-.861.95s-.807.314-1.326.314c-.843 0-1.534-.285-2.071-.854s-.8-1.304-.8-2.201c0-.971.298-1.759.895-2.366s1.349-.909 2.256-.909c.989 0 1.748.39 2.276 1.169s.793 1.882.793 3.309zm-1.21-1.005c0-.752-.184-1.36-.554-1.825s-.832-.698-1.401-.698c-.538 0-.991.205-1.36.616s-.547.929-.547 1.558c0 .697.182 1.24.547 1.627s.841.581 1.429.581a1.84 1.84 0 0 0 1.333-.54 1.77 1.77 0 0 0 .554-1.319zM63.711 203H62.59v-8.395c-.169.151-.469.329-.902.534s-.809.351-1.142.437l-.321-.984a7.88 7.88 0 0 0 1.668-.67c.592-.31 1.057-.624 1.395-.943h.424V203zm8.552-3.11c0 .993-.294 1.788-.882 2.385s-1.317.896-2.201.896c-.98 0-1.75-.387-2.311-1.162s-.834-1.882-.834-3.322a11.9 11.9 0 0 1 .198-2.14 5.03 5.03 0 0 1 .841-1.989c.378-.534.804-.921 1.278-1.162s1.039-.363 1.682-.363a3.19 3.19 0 0 1 1.012.164 3.42 3.42 0 0 1 .964.499l-.561.773a2.41 2.41 0 0 0-.704-.369 2.48 2.48 0 0 0-.779-.117c-.406 0-.77.087-1.094.26s-.629.449-.916.841c-.246.337-.435.754-.567 1.251a6.62 6.62 0 0 0-.191 1.647h.027c.278-.373.613-.651 1.005-.834s.807-.28 1.231-.28c.848 0 1.527.283 2.037.848s.766 1.29.766 2.174zm-1.148.082c0-.716-.166-1.254-.499-1.614s-.763-.54-1.292-.54c-.629 0-1.13.194-1.504.581a1.95 1.95 0 0 0-.554 1.395c0 .711.18 1.292.54 1.743a1.74 1.74 0 0 0 1.422.677c.565 0 1.021-.192 1.367-.574.346-.388.52-.944.52-1.668zM59.301 245v-.485a4.05 4.05 0 0 1 .137-1.108 2.87 2.87 0 0 1 .451-.909 5.1 5.1 0 0 1 .82-.861l1.251-.971c.355-.255.652-.499.889-.731a3.74 3.74 0 0 0 .581-.698c.128-.191.226-.412.294-.663s.109-.508.109-.772c0-.538-.155-.976-.465-1.313s-.736-.506-1.278-.506a3.14 3.14 0 0 0-1.237.246 3.35 3.35 0 0 0-1.073.759l-.684-.656c.428-.442.891-.768 1.388-.978s1.053-.321 1.668-.321c.92 0 1.62.269 2.099.807s.725 1.16.725 1.866a3.65 3.65 0 0 1-.15 1.046 3.06 3.06 0 0 1-.41.889 4.8 4.8 0 0 1-.67.813 8.77 8.77 0 0 1-.943.793l-1.142.82c-.296.228-.531.44-.704.636s-.303.401-.376.602a2.01 2.01 0 0 0-.109.69h4.881V245h-6.05zm7.438-.663.519-.807a4.28 4.28 0 0 0 1.094.52 3.94 3.94 0 0 0 1.121.164c.729 0 1.274-.173 1.634-.52s.547-.788.547-1.326c0-.665-.228-1.157-.684-1.476-.456-.324-1.139-.486-2.051-.486h-.813v-.95h.772c.807 0 1.41-.15 1.812-.451s.608-.77.608-1.408c0-.52-.16-.919-.479-1.197s-.693-.417-1.135-.417a3.35 3.35 0 0 0-1.087.178 3.442 3.442 0 0 0-.998.554l-.588-.745c.415-.324.841-.561 1.278-.711s.918-.226 1.442-.226c.82 0 1.477.217 1.969.65s.745 1.025.745 1.777c0 .583-.164 1.085-.492 1.504s-.811.713-1.463.895v.028c.665.073 1.217.319 1.654.738s.656.964.656 1.647c0 .903-.301 1.611-.902 2.126s-1.376.773-2.338.773a5.24 5.24 0 0 1-1.477-.198 5.106 5.106 0 0 1-1.347-.636zm-7.548 42.003.52-.807a4.28 4.28 0 0 0 1.094.52 3.94 3.94 0 0 0 1.121.164c.729 0 1.274-.173 1.634-.52s.547-.788.547-1.326c0-.665-.228-1.157-.684-1.476s-1.139-.486-2.051-.486h-.813v-.95h.773c.807 0 1.41-.15 1.812-.451s.608-.77.608-1.408c0-.52-.16-.919-.478-1.197a1.66 1.66 0 0 0-1.135-.417 3.35 3.35 0 0 0-1.087.178 3.429 3.429 0 0 0-.998.554l-.588-.745a4.4 4.4 0 0 1 1.278-.711 4.396 4.396 0 0 1 1.442-.226c.82 0 1.477.217 1.969.65s.745 1.025.745 1.777c0 .583-.164 1.085-.492 1.504s-.811.713-1.463.895v.028c.665.073 1.217.319 1.654.738s.656.964.656 1.647c0 .903-.301 1.611-.902 2.126s-1.376.773-2.338.773a5.24 5.24 0 0 1-1.477-.198 5.106 5.106 0 0 1-1.347-.636zm10.486.834c-.984 0-1.748-.422-2.29-1.265s-.807-2.051-.807-3.609c0-1.709.282-3.012.848-3.91a2.72 2.72 0 0 1 2.454-1.354c1.03 0 1.8.419 2.311 1.258s.772 2.09.772 3.767c0 1.649-.289 2.914-.868 3.794s-1.385 1.319-2.42 1.319zm.15-9.188c-.697 0-1.221.356-1.572 1.067s-.526 1.77-.526 3.192c0 1.322.171 2.315.513 2.981.342.66.857.991 1.545.991.679 0 1.187-.337 1.524-1.012s.506-1.686.506-3.035c0-1.395-.166-2.44-.499-3.138s-.829-1.046-1.49-1.046z" class="B"/><path d="M69.117 319.85a47.05 47.05 0 0 0-2.174 4.313c-.652 1.486-1.11 3.099-1.374 4.84h-1.203c.251-1.641.72-3.229 1.408-4.765l2.023-4.026h-4.915V319.2h6.234v.65z" class="C"/><path d="M20.821 158.27c0-.515.157-1.019.472-1.511a2.633 2.633 0 0 1 1.34-1.073 2.916 2.916 0 0 1-1.012-.91 2.17 2.17 0 0 1-.376-1.237 2.31 2.31 0 0 1 .786-1.791c.529-.474 1.185-.711 1.969-.711.793 0 1.449.239 1.969.718a2.33 2.33 0 0 1 .786 1.784 2.17 2.17 0 0 1-.376 1.237 2.95 2.95 0 0 1-.998.91 2.64 2.64 0 0 1 1.326 1.073c.314.492.472.996.472 1.511 0 .847-.294 1.542-.882 2.085-.583.537-1.349.806-2.297.806-.934 0-1.698-.269-2.29-.806s-.889-1.233-.889-2.085zm1.217-.096c0 .615.18 1.103.54 1.463s.841.533 1.429.533c.57 0 1.041-.18 1.415-.54.374-.365.561-.85.561-1.456 0-.547-.18-1.014-.54-1.401s-.834-.588-1.436-.588c-.565 0-1.035.187-1.408.56s-.561.846-.561 1.429zm.349-4.546c0 .465.157.855.472 1.169a1.58 1.58 0 0 0 1.148.472 1.57 1.57 0 0 0 1.142-.472 1.58 1.58 0 0 0 .485-1.169c0-.474-.157-.866-.472-1.176a1.57 1.57 0 0 0-1.155-.471c-.483 0-.875.161-1.176.485a1.646 1.646 0 0 0-.444 1.162zM21.711 203H20.59v-8.395c-.169.151-.469.329-.902.534s-.809.351-1.142.437l-.321-.984a7.88 7.88 0 0 0 1.668-.67c.592-.31 1.057-.624 1.395-.943h.424V203zm2.358-.8.588-.759c.342.269.691.465 1.046.588s.752.185 1.176.185c.643 0 1.171-.198 1.586-.595s.622-.916.622-1.545c0-.638-.214-1.137-.643-1.497s-1.05-.547-1.866-.547l-.861.021-.8.061.335-4.915h4.532v1.012h-3.561l-.198 2.878.465-.021.438-.013c1.03 0 1.839.264 2.427.793s.882 1.244.882 2.16c0 .952-.314 1.718-.943 2.297s-1.429.868-2.399.868a4.647 4.647 0 0 1-1.504-.233 4.7 4.7 0 0 1-1.319-.738zM17.301 245v-.485a4.05 4.05 0 0 1 .137-1.108 2.87 2.87 0 0 1 .451-.909 5.1 5.1 0 0 1 .82-.861l1.251-.971c.355-.255.652-.499.889-.731a3.74 3.74 0 0 0 .581-.698c.128-.191.226-.412.294-.663s.109-.508.109-.772c0-.538-.155-.976-.465-1.313s-.736-.506-1.278-.506a3.14 3.14 0 0 0-1.237.246 3.35 3.35 0 0 0-1.073.759l-.684-.656c.428-.442.891-.768 1.388-.978s1.053-.321 1.668-.321c.921 0 1.62.269 2.099.807s.725 1.16.725 1.866a3.65 3.65 0 0 1-.15 1.046 3.06 3.06 0 0 1-.41.889 4.8 4.8 0 0 1-.67.813 8.77 8.77 0 0 1-.943.793l-1.142.82c-.296.228-.531.44-.704.636s-.303.401-.376.602a2.01 2.01 0 0 0-.109.69h4.881V245h-6.05zm7.547 0v-.485a4.05 4.05 0 0 1 .137-1.108c.091-.319.241-.622.451-.909s.483-.574.82-.861l1.251-.971c.355-.255.652-.499.889-.731a3.9 3.9 0 0 0 .581-.698c.128-.191.226-.412.294-.663s.109-.508.109-.772c0-.538-.155-.976-.465-1.313s-.736-.506-1.278-.506a3.14 3.14 0 0 0-1.237.246 3.35 3.35 0 0 0-1.073.759l-.684-.656c.428-.442.891-.768 1.388-.978s1.053-.321 1.668-.321c.921 0 1.62.269 2.099.807s.725 1.16.725 1.866a3.65 3.65 0 0 1-.15 1.046 3.06 3.06 0 0 1-.41.889 4.8 4.8 0 0 1-.67.813 8.78 8.78 0 0 1-.943.793l-1.142.82a5.07 5.07 0 0 0-.704.636 1.896 1.896 0 0 0-.376.602 2.01 2.01 0 0 0-.109.69H30.9V245h-6.05zm-7.547 42v-.485a4.05 4.05 0 0 1 .137-1.108 2.87 2.87 0 0 1 .451-.909 5.1 5.1 0 0 1 .82-.861l1.251-.971c.355-.255.652-.499.889-.731a3.74 3.74 0 0 0 .581-.698c.128-.191.226-.412.294-.663s.109-.508.109-.772c0-.538-.155-.976-.465-1.313s-.736-.506-1.278-.506a3.14 3.14 0 0 0-1.237.246 3.35 3.35 0 0 0-1.073.759l-.684-.656c.428-.442.891-.768 1.388-.978s1.053-.321 1.668-.321c.921 0 1.62.269 2.099.807s.725 1.16.725 1.866a3.65 3.65 0 0 1-.15 1.046 3.06 3.06 0 0 1-.41.889 4.8 4.8 0 0 1-.67.813 8.77 8.77 0 0 1-.943.793l-1.142.82c-.296.228-.531.44-.704.636s-.303.401-.376.602a2.01 2.01 0 0 0-.109.69h4.881V287h-6.05zm7.294-2.734c0-.515.157-1.019.472-1.511s.761-.855 1.34-1.073a2.916 2.916 0 0 1-1.012-.91 2.17 2.17 0 0 1-.376-1.237 2.31 2.31 0 0 1 .786-1.791c.529-.474 1.185-.711 1.969-.711.793 0 1.449.239 1.969.718a2.33 2.33 0 0 1 .786 1.784 2.17 2.17 0 0 1-.376 1.237 2.95 2.95 0 0 1-.998.91 2.64 2.64 0 0 1 1.326 1.073c.314.492.472.996.472 1.511 0 .847-.294 1.542-.882 2.085-.583.537-1.349.806-2.297.806-.934 0-1.698-.269-2.29-.806s-.889-1.233-.889-2.085zm1.217-.096c0 .615.18 1.103.54 1.463s.841.533 1.429.533c.57 0 1.041-.18 1.415-.54s.561-.85.561-1.456c0-.547-.18-1.014-.54-1.401s-.834-.588-1.436-.588c-.565 0-1.035.187-1.408.56s-.561.846-.561 1.429zm.349-4.546c0 .465.157.855.472 1.169a1.58 1.58 0 0 0 1.148.472 1.57 1.57 0 0 0 1.142-.472 1.58 1.58 0 0 0 .485-1.169c0-.474-.157-.866-.472-1.176a1.57 1.57 0 0 0-1.155-.471c-.483 0-.875.161-1.176.485s-.444.706-.444 1.162z" class="B"/><path d="M27.11 325.89c0 .993-.294 1.788-.882 2.385s-1.317.896-2.201.896c-.98 0-1.75-.387-2.311-1.162s-.834-1.882-.834-3.322a11.9 11.9 0 0 1 .198-2.14 5.03 5.03 0 0 1 .841-1.989c.378-.534.804-.921 1.278-1.162s1.039-.363 1.682-.363a3.19 3.19 0 0 1 1.012.164c.328.105.649.271.964.499l-.561.773a2.42 2.42 0 0 0-.704-.369 2.48 2.48 0 0 0-.779-.117c-.406 0-.77.087-1.094.26s-.629.449-.916.841c-.246.337-.435.754-.567 1.251a6.62 6.62 0 0 0-.191 1.647h.027c.278-.373.613-.651 1.005-.834s.807-.28 1.23-.28c.848 0 1.527.283 2.037.848s.766 1.29.766 2.174zm-1.148.082c0-.716-.166-1.254-.499-1.614s-.763-.54-1.292-.54c-.629 0-1.13.194-1.504.581a1.95 1.95 0 0 0-.554 1.395c0 .711.18 1.292.54 1.743a1.74 1.74 0 0 0 1.422.677c.565 0 1.021-.192 1.367-.574.346-.388.52-.944.52-1.668z" class="C"/><path d="m104.96 118.34.519-.807c.365.237.73.41 1.094.52a3.94 3.94 0 0 0 1.121.164c.729 0 1.274-.173 1.634-.52s.547-.788.547-1.326c0-.665-.228-1.157-.684-1.476s-1.139-.486-2.05-.486h-.814v-.95h.772c.807 0 1.411-.15 1.812-.451.406-.301.608-.77.608-1.408 0-.52-.159-.919-.478-1.197s-.693-.417-1.135-.417a3.35 3.35 0 0 0-1.087.178 3.518 3.518 0 0 0-.998.554l-.588-.745c.415-.324.841-.561 1.279-.711s.918-.226 1.442-.226c.82 0 1.477.217 1.969.65s.745 1.025.745 1.777c0 .583-.164 1.085-.492 1.504s-.812.713-1.463.895v.028c.665.073 1.217.319 1.654.738s.656.964.656 1.647c0 .903-.3 1.611-.902 2.126-.597.515-1.376.773-2.338.773a5.237 5.237 0 0 1-1.476-.198 5.06 5.06 0 0 1-1.347-.636zm.75 42.66h-1.121v-8.395c-.169.151-.47.329-.902.534s-.809.351-1.142.437l-.321-.984c.524-.137 1.08-.36 1.668-.67s1.057-.624 1.394-.943h.424V161zm5.346.171a2.57 2.57 0 0 1-2.29-1.265c-.538-.847-.807-2.051-.807-3.609 0-1.709.283-3.012.848-3.91a2.72 2.72 0 0 1 2.454-1.354c1.03 0 1.8.419 2.31 1.258s.773 2.09.773 3.767c0 1.649-.29 2.914-.868 3.794a2.74 2.74 0 0 1-2.42 1.319zm.15-9.188c-.697 0-1.221.356-1.572 1.067-.351.706-.527 1.77-.527 3.192 0 1.322.171 2.315.513 2.981.342.66.857.991 1.545.991.679 0 1.187-.337 1.524-1.012s.506-1.686.506-3.035c0-1.395-.166-2.44-.499-3.138s-.829-1.046-1.49-1.046zM105.71 203h-1.121v-8.395c-.169.151-.47.329-.902.534s-.809.351-1.142.437l-.321-.984c.524-.137 1.08-.36 1.668-.67s1.057-.624 1.394-.943h.424V203zm8.559-9.153a47 47 0 0 0-2.174 4.313c-.652 1.486-1.11 3.099-1.374 4.84h-1.203a18.38 18.38 0 0 1 1.408-4.765l2.023-4.026h-4.915v-1.012h6.235v.65zM101.3 245v-.485c0-.42.045-.789.137-1.108s.241-.622.451-.909.483-.574.82-.861l1.251-.971c.355-.255.652-.499.889-.731a3.77 3.77 0 0 0 .581-.698 2.28 2.28 0 0 0 .294-.663c.073-.25.109-.508.109-.772 0-.538-.155-.976-.465-1.313s-.736-.506-1.278-.506c-.438 0-.85.082-1.237.246s-.741.417-1.074.759l-.683-.656c.428-.442.891-.768 1.387-.978s1.053-.321 1.668-.321c.921 0 1.62.269 2.099.807s.725 1.16.725 1.866a3.66 3.66 0 0 1-.151 1.046 3.034 3.034 0 0 1-.41.889 4.8 4.8 0 0 1-.67.813c-.264.26-.579.524-.943.793l-1.142.82c-.296.228-.531.44-.704.636a1.896 1.896 0 0 0-.376.602 2.01 2.01 0 0 0-.109.69h4.881V245h-6.05zm12.831-9.885v6.59h1.053v1.046h-1.053v2.345h-1.114v-2.345h-4.656v-.991l1.313-1.572 1.271-1.703 1.115-1.722c.341-.575.631-1.124.868-1.648h1.203zm-4.491 6.59h3.377v-4.881l-.985 1.627-.875 1.299-.806 1.06-.711.895z" class="B"/><path d="M108.98 287h-1.121v-8.395c-.168.151-.469.329-.902.534a6.43 6.43 0 0 1-1.142.437l-.321-.984c.524-.137 1.08-.36 1.668-.67s1.057-.624 1.395-.943h.423V287zm-4.16 39.27c0-.515.158-1.019.472-1.511s.761-.855 1.34-1.073a2.916 2.916 0 0 1-1.012-.91 2.17 2.17 0 0 1-.376-1.237 2.31 2.31 0 0 1 .786-1.791c.529-.474 1.185-.711 1.969-.711.793 0 1.449.239 1.969.718a2.33 2.33 0 0 1 .786 1.784 2.17 2.17 0 0 1-.376 1.237 2.95 2.95 0 0 1-.998.91c.57.218 1.012.576 1.326 1.073s.472.996.472 1.511c0 .847-.294 1.542-.882 2.085-.583.537-1.349.806-2.297.806-.934 0-1.698-.269-2.29-.806s-.889-1.233-.889-2.085zm1.217-.096c0 .615.18 1.103.54 1.463s.841.533 1.429.533c.569 0 1.041-.18 1.415-.54s.56-.85.56-1.456c0-.547-.18-1.014-.54-1.401s-.834-.588-1.435-.588c-.565 0-1.035.187-1.408.56s-.561.846-.561 1.429zm.349-4.546c0 .465.157.855.471 1.169a1.58 1.58 0 0 0 1.149.472 1.57 1.57 0 0 0 1.141-.472c.324-.319.486-.709.486-1.169 0-.474-.157-.866-.472-1.176a1.57 1.57 0 0 0-1.155-.471c-.483 0-.875.161-1.176.485s-.444.706-.444 1.162z" class="C"/><use class="B" xlink:href="#C"/><rect width="39" height="39" x="130.5" y="136.5" class="D" rx="19.5"/></g><path fill="#fff" d="M148.83 161h-1.121v-8.395c-.169.151-.469.329-.902.534s-.809.351-1.142.437l-.321-.984c.524-.137 1.08-.36 1.668-.67s1.057-.624 1.394-.943h.424V161zm5.305 0h-1.121v-8.395c-.169.151-.47.329-.903.534s-.809.351-1.141.437l-.322-.984c.524-.137 1.08-.36 1.668-.67s1.058-.624 1.395-.943h.424V161z"/><g fill="#000"><path d="M147.71 203h-1.121v-8.395c-.169.151-.47.329-.902.534s-.809.351-1.142.437l-.321-.984c.524-.137 1.08-.36 1.668-.67s1.057-.624 1.394-.943h.424V203zm2.263-2.734c0-.515.157-1.019.471-1.511a2.637 2.637 0 0 1 1.34-1.073 2.916 2.916 0 0 1-1.012-.91 2.16 2.16 0 0 1-.376-1.237 2.31 2.31 0 0 1 .787-1.791c.528-.474 1.184-.711 1.968-.711.793 0 1.45.239 1.969.718s.786 1.073.786 1.784a2.17 2.17 0 0 1-.376 1.237 2.94 2.94 0 0 1-.998.91c.57.218 1.012.576 1.326 1.073.315.492.472.996.472 1.511 0 .847-.294 1.542-.882 2.085-.583.537-1.349.806-2.297.806-.934 0-1.697-.269-2.29-.806s-.888-1.233-.888-2.085zm1.216-.096c0 .615.18 1.103.54 1.463.365.355.841.533 1.429.533.57 0 1.042-.18 1.415-.54.374-.365.561-.85.561-1.456 0-.547-.18-1.014-.54-1.401s-.834-.588-1.436-.588c-.565 0-1.034.187-1.408.56s-.561.846-.561 1.429zm.349-4.546c0 .465.157.855.472 1.169a1.58 1.58 0 0 0 1.148.472 1.57 1.57 0 0 0 1.142-.472 1.58 1.58 0 0 0 .485-1.169c0-.474-.157-.866-.472-1.176a1.57 1.57 0 0 0-1.155-.471c-.483 0-.875.161-1.176.485a1.646 1.646 0 0 0-.444 1.162zM143.3 245v-.485c0-.42.045-.789.137-1.108s.241-.622.451-.909.483-.574.82-.861l1.251-.971c.355-.255.652-.499.889-.731a3.77 3.77 0 0 0 .581-.698 2.28 2.28 0 0 0 .294-.663c.073-.25.109-.508.109-.772 0-.538-.155-.976-.465-1.313s-.736-.506-1.278-.506c-.438 0-.85.082-1.237.246s-.741.417-1.074.759l-.683-.656c.428-.442.891-.768 1.387-.978s1.053-.321 1.668-.321c.921 0 1.62.269 2.099.807s.725 1.16.725 1.866a3.66 3.66 0 0 1-.151 1.046 3.034 3.034 0 0 1-.41.889 4.8 4.8 0 0 1-.67.813c-.264.26-.579.524-.943.793l-1.142.82c-.296.228-.531.44-.704.636s-.303.401-.376.602a2.01 2.01 0 0 0-.109.69h4.881V245h-6.05zm7.389-.8.588-.759c.342.269.691.465 1.046.588.36.123.752.185 1.176.185.643 0 1.171-.198 1.586-.595s.622-.916.622-1.545c0-.638-.214-1.137-.643-1.497s-1.05-.547-1.866-.547l-.861.021-.8.061.335-4.915h4.532v1.012h-3.561l-.198 2.878.464-.021.438-.013c1.03 0 1.839.264 2.427.793s.881 1.244.881 2.16c0 .952-.314 1.718-.943 2.297s-1.429.868-2.399.868c-.547 0-1.049-.078-1.504-.233s-.891-.405-1.32-.738z" class="B"/><path d="M147.07 287v-.485a4.05 4.05 0 0 1 .137-1.108c.091-.319.241-.622.451-.909s.483-.574.82-.861l1.251-.971c.356-.255.652-.499.889-.731a3.73 3.73 0 0 0 .581-.698c.128-.191.226-.412.294-.663s.109-.508.109-.772c0-.538-.155-.976-.464-1.313s-.736-.506-1.279-.506a3.14 3.14 0 0 0-1.237.246 3.339 3.339 0 0 0-1.073.759l-.684-.656c.429-.442.891-.768 1.388-.978s1.053-.321 1.668-.321c.92 0 1.62.269 2.098.807.484.538.725 1.16.725 1.866a3.66 3.66 0 0 1-.15 1.046 3.086 3.086 0 0 1-.41.889 4.847 4.847 0 0 1-.67.813 8.81 8.81 0 0 1-.944.793l-1.141.82c-.297.228-.531.44-.704.636s-.304.401-.376.602-.11.43-.11.69h4.881V287h-6.05zm6.07 36.51c0 1.864-.315 3.274-.944 4.231s-1.597 1.429-2.919 1.429c-.478 0-.913-.075-1.305-.226a3.62 3.62 0 0 1-1.115-.704l.657-.731c.259.232.531.403.813.512.287.11.625.165 1.012.165.857 0 1.515-.324 1.975-.971s.691-1.686.691-3.117h-.027c-.21.423-.497.74-.862.95s-.806.314-1.326.314c-.843 0-1.533-.285-2.071-.854-.533-.57-.8-1.304-.8-2.201 0-.971.298-1.759.895-2.366s1.349-.909 2.256-.909c.989 0 1.748.39 2.277 1.169s.793 1.882.793 3.309zm-1.21-1.005c0-.752-.185-1.36-.554-1.825s-.832-.698-1.401-.698c-.538 0-.992.205-1.361.616s-.547.929-.547 1.558c0 .697.183 1.24.547 1.627s.841.581 1.429.581a1.84 1.84 0 0 0 1.333-.54 1.77 1.77 0 0 0 .554-1.319z" class="C"/><path d="m188.92 118.2.588-.759c.342.269.69.465 1.046.588s.752.185 1.176.185c.642 0 1.171-.198 1.585-.595s.623-.916.623-1.545c0-.638-.215-1.137-.643-1.497s-1.05-.547-1.866-.547l-.862.021-.799.061.335-4.915h4.532v1.012h-3.562l-.198 2.878.465-.021.437-.013c1.03 0 1.839.264 2.427.793.588.524.882 1.244.882 2.16 0 .952-.314 1.718-.943 2.297s-1.429.868-2.4.868c-.547 0-1.048-.078-1.504-.233s-.891-.405-1.319-.738zm.79 42.8h-1.121v-8.395c-.169.151-.47.329-.902.534s-.809.351-1.142.437l-.321-.984c.524-.137 1.08-.36 1.668-.67s1.057-.624 1.394-.943h.424V161zm2.516 0v-.485c0-.42.045-.789.136-1.108s.242-.622.451-.909.484-.574.821-.861l1.251-.971c.355-.255.651-.499.888-.731s.436-.465.581-.698c.128-.191.226-.412.294-.663s.11-.508.11-.772c0-.538-.155-.976-.465-1.313s-.736-.506-1.278-.506c-.438 0-.85.082-1.238.246a3.36 3.36 0 0 0-1.073.759l-.684-.656c.429-.442.891-.768 1.388-.978s1.053-.321 1.668-.321c.921 0 1.62.269 2.099.807s.724 1.16.724 1.866a3.66 3.66 0 0 1-.15 1.046 3.06 3.06 0 0 1-.41.889 4.8 4.8 0 0 1-.67.813c-.264.26-.579.524-.943.793l-1.142.82c-.296.228-.531.44-.704.636s-.303.401-.376.602a2.01 2.01 0 0 0-.109.69h4.88V161h-6.049zm-2.516 42h-1.121v-8.395c-.169.151-.47.329-.902.534s-.809.351-1.142.437l-.321-.984c.524-.137 1.08-.36 1.668-.67s1.057-.624 1.394-.943h.424V203zm8.579-5.489c0 1.864-.314 3.274-.943 4.231s-1.598 1.429-2.919 1.429c-.479 0-.914-.075-1.306-.226a3.644 3.644 0 0 1-1.114-.704l.656-.731c.26.232.531.403.814.512s.624.165 1.011.165c.857 0 1.516-.324 1.976-.971s.69-1.686.69-3.117h-.027c-.21.423-.497.74-.861.95s-.807.314-1.327.314c-.843 0-1.533-.285-2.071-.854-.533-.57-.8-1.304-.8-2.201 0-.971.299-1.759.896-2.366s1.349-.909 2.256-.909c.989 0 1.747.39 2.276 1.169s.793 1.882.793 3.309zm-1.21-1.005c0-.752-.184-1.36-.554-1.825a1.7 1.7 0 0 0-1.401-.698c-.538 0-.991.205-1.36.616s-.547.929-.547 1.558c0 .697.182 1.24.547 1.627s.84.581 1.428.581a1.84 1.84 0 0 0 1.333-.54 1.77 1.77 0 0 0 .554-1.319z" class="B"/></g><rect width="39" height="39" x="172.5" y="220.5" class="D" rx="19.5"/><g fill="#000"><path d="M185.3 245v-.485c0-.42.045-.789.137-1.108s.241-.622.451-.909.483-.574.82-.861l1.251-.971c.355-.255.652-.499.889-.731a3.77 3.77 0 0 0 .581-.698 2.28 2.28 0 0 0 .294-.663c.073-.25.109-.508.109-.772 0-.538-.155-.976-.465-1.313s-.736-.506-1.278-.506c-.438 0-.85.082-1.237.246s-.741.417-1.074.759l-.683-.656c.428-.442.891-.768 1.387-.978s1.053-.321 1.668-.321c.921 0 1.62.269 2.099.807s.725 1.16.725 1.866a3.66 3.66 0 0 1-.151 1.046 3.034 3.034 0 0 1-.41.889 4.8 4.8 0 0 1-.67.813c-.264.26-.579.524-.943.793l-1.142.82c-.296.228-.531.44-.704.636s-.303.401-.376.602-.109.43-.109.69h4.881V245h-6.05zm13.583-3.11c0 .993-.294 1.788-.882 2.385s-1.317.896-2.201.896c-.98 0-1.75-.387-2.311-1.162s-.834-1.882-.834-3.322a11.92 11.92 0 0 1 .198-2.14 5.03 5.03 0 0 1 .841-1.989c.379-.534.805-.921 1.279-1.162s1.039-.363 1.681-.363c.347 0 .684.055 1.012.164s.649.271.964.499l-.561.773a2.408 2.408 0 0 0-.704-.369 2.48 2.48 0 0 0-.779-.117c-.406 0-.77.087-1.094.26s-.629.449-.916.841c-.246.337-.435.754-.567 1.251a6.6 6.6 0 0 0-.192 1.647h.028c.278-.373.613-.651 1.005-.834s.806-.28 1.23-.28c.848 0 1.527.283 2.037.848s.766 1.29.766 2.174zm-1.149.082c0-.716-.166-1.254-.499-1.614s-.763-.54-1.292-.54c-.629 0-1.13.194-1.504.581a1.95 1.95 0 0 0-.553 1.395c0 .711.18 1.292.54 1.743a1.74 1.74 0 0 0 1.422.677c.565 0 1.02-.192 1.367-.574.346-.388.519-.944.519-1.668z"/><path d="m188.96 286.34.519-.807c.365.237.73.41 1.094.52a3.94 3.94 0 0 0 1.121.164c.729 0 1.274-.173 1.634-.52.365-.346.547-.788.547-1.326 0-.665-.228-1.157-.684-1.476s-1.139-.486-2.05-.486h-.814v-.95h.772c.807 0 1.411-.15 1.812-.451s.608-.77.608-1.408c0-.52-.159-.919-.478-1.197s-.693-.417-1.135-.417a3.35 3.35 0 0 0-1.087.178 3.518 3.518 0 0 0-.998.554l-.588-.745c.415-.324.841-.561 1.279-.711s.918-.226 1.442-.226c.82 0 1.477.217 1.969.65s.745 1.025.745 1.777c0 .583-.164 1.085-.492 1.504s-.812.713-1.463.895v.028c.665.073 1.217.319 1.654.738s.656.964.656 1.647c0 .903-.3 1.611-.902 2.126s-1.376.773-2.338.773a5.237 5.237 0 0 1-1.476-.198 5.06 5.06 0 0 1-1.347-.636zm.75 42.66h-1.121v-8.395c-.169.151-.47.329-.902.534s-.809.351-1.142.437l-.321-.984c.524-.137 1.08-.36 1.668-.67s1.057-.624 1.394-.943h.424V329zm5.346.171a2.57 2.57 0 0 1-2.29-1.265c-.538-.847-.807-2.051-.807-3.609 0-1.709.283-3.012.848-3.91a2.72 2.72 0 0 1 2.454-1.354c1.03 0 1.8.419 2.31 1.258s.773 2.09.773 3.767c0 1.649-.29 2.914-.868 3.794a2.74 2.74 0 0 1-2.42 1.319zm.15-9.188c-.697 0-1.221.356-1.572 1.067s-.527 1.77-.527 3.192c0 1.322.171 2.315.513 2.981.342.66.857.991 1.545.991.679 0 1.187-.337 1.524-1.012s.506-1.686.506-3.035c0-1.395-.166-2.44-.499-3.138s-.829-1.046-1.49-1.046z" class="C"/><path d="M237.11 115.89c0 .993-.294 1.788-.881 2.385s-1.318.896-2.202.896c-.979 0-1.75-.387-2.31-1.162s-.834-1.882-.834-3.322a11.92 11.92 0 0 1 .198-2.14 5.03 5.03 0 0 1 .841-1.989c.378-.534.804-.921 1.278-1.162.479-.242 1.039-.363 1.682-.363.346 0 .683.055 1.012.164a3.41 3.41 0 0 1 .963.499l-.56.773a2.42 2.42 0 0 0-.704-.369 2.483 2.483 0 0 0-.78-.117 2.28 2.28 0 0 0-1.093.26c-.324.169-.629.449-.916.841-.246.337-.436.754-.568 1.251a6.65 6.65 0 0 0-.191 1.647h.027a2.636 2.636 0 0 1 1.005-.834 2.87 2.87 0 0 1 1.231-.28c.847 0 1.526.283 2.037.848s.765 1.29.765 2.174zm-1.148.082c0-.716-.166-1.254-.499-1.614s-.763-.54-1.292-.54c-.629 0-1.13.194-1.504.581a1.93 1.93 0 0 0-.554 1.395c0 .711.18 1.292.54 1.743.365.451.839.677 1.422.677.565 0 1.021-.192 1.367-.574.347-.388.52-.944.52-1.668zM231.71 161h-1.121v-8.395c-.169.151-.47.329-.902.534s-.809.351-1.142.437l-.321-.984c.524-.137 1.08-.36 1.668-.67s1.057-.624 1.394-.943h.424V161zm2.406-.663.52-.807c.364.237.729.41 1.093.52.37.109.743.164 1.122.164.729 0 1.273-.173 1.633-.52s.547-.788.547-1.326c0-.665-.228-1.157-.683-1.476-.456-.324-1.14-.486-2.051-.486h-.814v-.95h.773c.806 0 1.41-.15 1.811-.451s.609-.77.609-1.408c0-.52-.16-.919-.479-1.197a1.653 1.653 0 0 0-1.135-.417 3.34 3.34 0 0 0-1.086.178 3.505 3.505 0 0 0-.998.554l-.588-.745a4.38 4.38 0 0 1 1.278-.711 4.392 4.392 0 0 1 1.442-.226c.821 0 1.477.217 1.969.65.497.433.745 1.025.745 1.777 0 .583-.164 1.085-.492 1.504s-.811.713-1.463.895v.028c.665.073 1.217.319 1.654.738s.657.964.657 1.647c0 .903-.301 1.611-.903 2.126s-1.376.773-2.338.773c-.533 0-1.025-.066-1.476-.198s-.9-.344-1.347-.636zM227.3 203v-.485c0-.42.045-.789.137-1.108s.241-.622.451-.909.483-.574.82-.861l1.251-.971c.355-.255.652-.499.889-.731a3.77 3.77 0 0 0 .581-.698 2.28 2.28 0 0 0 .294-.663c.073-.25.109-.508.109-.772 0-.538-.155-.976-.465-1.313s-.736-.506-1.278-.506c-.438 0-.85.082-1.237.246s-.741.417-1.074.759l-.683-.656c.428-.442.891-.768 1.387-.978s1.053-.321 1.668-.321c.921 0 1.62.269 2.099.807s.725 1.16.725 1.866a3.66 3.66 0 0 1-.151 1.046 3.034 3.034 0 0 1-.41.889 4.8 4.8 0 0 1-.67.813c-.264.26-.579.524-.943.793l-1.142.82c-.296.228-.531.44-.704.636s-.303.401-.376.602a2.01 2.01 0 0 0-.109.69h4.881V203h-6.05zm10.377.171a2.57 2.57 0 0 1-2.29-1.265c-.538-.847-.807-2.051-.807-3.609 0-1.709.283-3.012.848-3.91a2.72 2.72 0 0 1 2.454-1.354c1.03 0 1.8.419 2.31 1.258s.773 2.09.773 3.767c0 1.649-.29 2.914-.868 3.794a2.74 2.74 0 0 1-2.42 1.319zm.15-9.188c-.697 0-1.221.356-1.572 1.067-.351.706-.527 1.77-.527 3.192 0 1.322.171 2.315.513 2.981.342.66.857.991 1.545.991.679 0 1.187-.337 1.525-1.012s.505-1.686.505-3.035c0-1.395-.166-2.44-.499-3.138s-.829-1.046-1.49-1.046zM227.3 245v-.485c0-.42.045-.789.137-1.108s.241-.622.451-.909.483-.574.82-.861l1.251-.971c.355-.255.652-.499.889-.731a3.77 3.77 0 0 0 .581-.698 2.28 2.28 0 0 0 .294-.663c.073-.25.109-.508.109-.772 0-.538-.155-.976-.465-1.313s-.736-.506-1.278-.506c-.438 0-.85.082-1.237.246s-.741.417-1.074.759l-.683-.656c.428-.442.891-.768 1.387-.978s1.053-.321 1.668-.321c.921 0 1.62.269 2.099.807s.725 1.16.725 1.866a3.66 3.66 0 0 1-.151 1.046 3.034 3.034 0 0 1-.41.889 4.8 4.8 0 0 1-.67.813c-.264.26-.579.524-.943.793l-1.142.82c-.296.228-.531.44-.704.636s-.303.401-.376.602a2.01 2.01 0 0 0-.109.69h4.881V245h-6.05zm13.59-9.153a47 47 0 0 0-2.174 4.313c-.652 1.486-1.11 3.099-1.374 4.84h-1.203a18.38 18.38 0 0 1 1.408-4.765l2.023-4.026h-4.915v-1.012h6.235v.65z" class="B"/><use x="84" y="168" class="C" xlink:href="#C"/><path d="M232.83 329h-1.121v-8.395c-.169.151-.469.329-.902.534s-.809.351-1.142.437l-.321-.984c.524-.137 1.08-.36 1.668-.67s1.057-.624 1.394-.943h.424V329zm5.305 0h-1.121v-8.395c-.169.151-.47.329-.903.534s-.809.351-1.141.437l-.322-.984c.524-.137 1.08-.36 1.668-.67s1.058-.624 1.395-.943h.424V329z" class="C"/><path d="M279.12 109.85a47.257 47.257 0 0 0-2.174 4.313c-.651 1.486-1.109 3.099-1.374 4.84h-1.203a18.42 18.42 0 0 1 1.408-4.765l2.024-4.026h-4.915V109.2h6.234v.65zM273.71 161h-1.121v-8.395c-.169.151-.47.329-.902.534s-.809.351-1.142.437l-.321-.984c.524-.137 1.08-.36 1.668-.67s1.057-.624 1.394-.943h.424V161zm7.8-9.885v6.59h1.052v1.046h-1.052v2.345h-1.115v-2.345h-4.655v-.991l1.313-1.572 1.271-1.703 1.114-1.722c.342-.575.632-1.124.869-1.648h1.203zm-4.491 6.59h3.376v-4.881l-.984 1.627-.875 1.299-.807 1.06-.71.895zM270.92 203v-.485c0-.42.045-.789.137-1.108s.241-.622.451-.909.483-.574.82-.861l1.251-.971c.356-.255.652-.499.889-.731a3.77 3.77 0 0 0 .581-.698 2.28 2.28 0 0 0 .294-.663c.073-.25.109-.508.109-.772 0-.538-.155-.976-.465-1.313s-.736-.506-1.278-.506c-.438 0-.85.082-1.237.246s-.741.417-1.074.759l-.683-.656c.428-.442.891-.768 1.387-.978s1.053-.321 1.668-.321c.921 0 1.621.269 2.099.807s.725 1.16.725 1.866c0 .36-.05.709-.151 1.046a3.034 3.034 0 0 1-.41.889 4.75 4.75 0 0 1-.67.813c-.264.26-.579.524-.943.793l-1.142.82c-.296.228-.531.44-.704.636s-.303.401-.376.602a2.01 2.01 0 0 0-.109.69h4.881V203h-6.05zm10.336 0h-1.121v-8.395c-.169.151-.47.329-.903.534s-.809.351-1.141.437l-.322-.984a7.843 7.843 0 0 0 1.668-.67c.593-.31 1.058-.624 1.395-.943h.424V203zM269.3 245v-.485c0-.42.045-.789.137-1.108s.241-.622.451-.909.483-.574.82-.861l1.251-.971c.355-.255.652-.499.889-.731a3.77 3.77 0 0 0 .581-.698 2.28 2.28 0 0 0 .294-.663c.073-.25.109-.508.109-.772 0-.538-.155-.976-.465-1.313s-.736-.506-1.278-.506c-.438 0-.85.082-1.237.246s-.741.417-1.074.759l-.683-.656c.428-.442.891-.768 1.387-.978s1.053-.321 1.668-.321c.921 0 1.62.269 2.099.807s.725 1.16.725 1.866a3.66 3.66 0 0 1-.151 1.046 3.034 3.034 0 0 1-.41.889 4.8 4.8 0 0 1-.67.813c-.264.26-.579.524-.943.793l-1.142.82c-.296.228-.531.44-.704.636s-.303.401-.376.602a2.01 2.01 0 0 0-.109.69h4.881V245h-6.05zm7.294-2.734c0-.515.157-1.019.471-1.511a2.637 2.637 0 0 1 1.34-1.073 2.904 2.904 0 0 1-1.011-.91 2.17 2.17 0 0 1-.376-1.237 2.31 2.31 0 0 1 .786-1.791c.528-.474 1.185-.711 1.968-.711.793 0 1.45.239 1.969.718s.786 1.073.786 1.784a2.17 2.17 0 0 1-.376 1.237 2.94 2.94 0 0 1-.998.91c.57.218 1.012.576 1.326 1.073.315.492.472.996.472 1.511 0 .847-.294 1.542-.882 2.085-.583.537-1.349.806-2.297.806-.934 0-1.697-.269-2.29-.806s-.888-1.233-.888-2.085zm1.217-.096c0 .615.18 1.103.54 1.463s.84.533 1.428.533c.57 0 1.042-.18 1.415-.54.374-.365.561-.85.561-1.456 0-.547-.18-1.014-.54-1.401s-.834-.588-1.436-.588c-.565 0-1.034.187-1.408.56s-.56.846-.56 1.429zm.348-4.546c0 .465.157.855.472 1.169a1.58 1.58 0 0 0 1.148.472 1.57 1.57 0 0 0 1.142-.472 1.58 1.58 0 0 0 .485-1.169c0-.474-.157-.866-.471-1.176s-.7-.471-1.156-.471c-.483 0-.875.161-1.176.485a1.646 1.646 0 0 0-.444 1.162z" class="B"/><path d="m272.92 286.2.588-.759c.342.269.69.465 1.046.588s.752.185 1.176.185c.642 0 1.171-.198 1.585-.595s.623-.916.623-1.545c0-.638-.215-1.137-.643-1.497s-1.05-.547-1.866-.547l-.862.021-.799.061.335-4.915h4.532v1.012h-3.562l-.198 2.878.465-.021.437-.013c1.03 0 1.839.264 2.427.793s.882 1.244.882 2.16c0 .952-.314 1.718-.943 2.297s-1.429.868-2.4.868c-.547 0-1.048-.078-1.504-.233s-.891-.405-1.319-.738zm.79 42.8h-1.121v-8.395c-.169.151-.47.329-.902.534s-.809.351-1.142.437l-.321-.984c.524-.137 1.08-.36 1.668-.67s1.057-.624 1.394-.943h.424V329zm2.516 0v-.485c0-.42.045-.789.136-1.108s.242-.622.451-.909.484-.574.821-.861l1.251-.971c.355-.255.651-.499.888-.731.242-.233.436-.465.581-.698.128-.191.226-.412.294-.663s.11-.508.11-.772c0-.538-.155-.976-.465-1.313s-.736-.506-1.278-.506c-.438 0-.85.082-1.238.246a3.36 3.36 0 0 0-1.073.759l-.684-.656c.429-.442.891-.768 1.388-.978s1.053-.321 1.668-.321c.921 0 1.62.269 2.099.807s.724 1.16.724 1.866a3.66 3.66 0 0 1-.15 1.046 3.06 3.06 0 0 1-.41.889 4.8 4.8 0 0 1-.67.813c-.264.26-.579.524-.943.793l-1.142.82c-.296.228-.531.44-.704.636s-.303.401-.376.602a2.01 2.01 0 0 0-.109.69h4.88V329h-6.049z" class="C"/><path d="M26.529 29h-1.784l-4.587-7.068-.232-.376-.164-.328h-.034c.018.137.032.326.041.567l.014.889V29H18.21v-9.803h1.893l4.45 6.911.253.403.185.321h.027a4.336 4.336 0 0 1-.048-.547l-.014-.855v-6.234h1.572V29zm5.359.164c-1.094 0-1.962-.326-2.604-.978s-.957-1.533-.957-2.632c.005-1.162.337-2.071.998-2.728s1.561-.991 2.7-.991c1.098-.005 1.955.319 2.57.971s.93 1.524.93 2.632c0 1.139-.328 2.046-.984 2.721s-1.536 1.005-2.652 1.005zm.075-1.265c.633 0 1.114-.207 1.442-.622s.499-1.014.499-1.798c0-.775-.166-1.365-.499-1.77s-.816-.608-1.449-.608c-.624 0-1.116.214-1.477.643s-.533 1.021-.533 1.777.178 1.349.533 1.764.85.615 1.483.615zM43.175 22l-2.707 7h-1.716l-2.577-7h1.723l1.524 4.737.157.595c.041.182.068.351.082.506h.027a4.12 4.12 0 0 1 .089-.52l.15-.547L41.507 22h1.668zm6.898 3.917h-4.778c.027.661.219 1.164.574 1.511s.852.513 1.49.513a3 3 0 0 0 .889-.157c.333-.105.661-.273.984-.506l.718.991c-.433.314-.873.542-1.319.683s-.939.212-1.477.212c-1.089 0-1.937-.312-2.543-.937s-.911-1.506-.916-2.632.312-2.028.937-2.721 1.433-1.039 2.413-1.039c.939 0 1.677.296 2.215.889s.813 1.422.813 2.502v.69zm-1.538-1.101c0-.602-.132-1.053-.397-1.354s-.629-.458-1.107-.458a1.55 1.55 0 0 0-1.155.492c-.315.323-.508.763-.581 1.319h3.24zM62.062 29h-1.586v-4.006c0-.656-.109-1.135-.328-1.436s-.56-.458-1.039-.458c-.424 0-.779.189-1.066.567s-.424.832-.424 1.374V29h-1.586v-4.102c0-.602-.116-1.05-.349-1.347s-.57-.451-1.025-.451c-.437 0-.793.18-1.066.54s-.41.827-.41 1.415V29H51.59v-7h1.593v1.101h.027c.237-.401.545-.711.923-.93s.813-.335 1.292-.335.898.121 1.244.362a2.01 2.01 0 0 1 .759 1.019c.264-.46.59-.804.978-1.032s.841-.349 1.36-.349c.766 0 1.34.237 1.723.711s.574 1.176.574 2.119V29zm3.541-.861h-.027V29h-1.593V18.637h1.593v4.512h.027c.269-.437.599-.766.991-.984s.845-.328 1.36-.328c.902 0 1.602.312 2.099.937s.752 1.461.752 2.522c0 1.171-.287 2.11-.861 2.816s-1.34 1.053-2.311 1.053c-.447 0-.841-.084-1.183-.253s-.62-.431-.848-.772zm-.048-2.939v.855c0 .524.162.964.485 1.319s.736.526 1.237.526c.597 0 1.062-.228 1.395-.684s.499-1.094.499-1.914c0-.693-.155-1.233-.465-1.62s-.736-.581-1.278-.581a1.71 1.71 0 0 0-1.353.595c-.346.392-.519.893-.519 1.504zm12.79.718h-4.778c.027.661.219 1.164.574 1.511s.852.513 1.49.513a3 3 0 0 0 .889-.157c.333-.105.661-.273.984-.506l.718.991c-.433.314-.873.542-1.319.683s-.939.212-1.477.212c-1.089 0-1.937-.312-2.543-.937s-.912-1.506-.916-2.632.312-2.028.936-2.721 1.433-1.039 2.413-1.039c.939 0 1.677.296 2.215.889s.814 1.422.814 2.502v.69zm-1.538-1.101c0-.602-.132-1.053-.397-1.354s-.629-.458-1.107-.458a1.55 1.55 0 0 0-1.155.492c-.314.323-.508.763-.581 1.319h3.24zm6.945-1.483a1.725 1.725 0 0 0-.253-.048 1.59 1.59 0 0 0-.273-.021c-.57 0-1.007.21-1.312.629s-.458.966-.458 1.641V29h-1.593v-7h1.593v1.347h.027c.164-.483.406-.848.725-1.094s.695-.376 1.128-.376c.123 0 .233.007.328.02a1.87 1.87 0 0 1 .287.061l-.198 1.374z" class="B"/></g><defs><clipPath id="B"><path fill="#fff" d="M1 48h298v292a7 7 0 0 1-7 7H8a7 7 0 0 1-7-7V48z"/></clipPath><filter id="A" width="418" height="466" x="-59" y="-59" color-interpolation-filters="sRGB" filterUnits="userSpaceOnUse"><feFlood flood-opacity="0"/><feGaussianBlur in="BackgroundImage" stdDeviation="30"/><feComposite in2="SourceAlpha" operator="in"/><feBlend in="SourceGraphic"/></filter><path id="C" d="M152.36 109.12v6.59h1.053v1.046h-1.053v2.345h-1.114v-2.345h-4.655v-.991l1.312-1.572 1.272-1.703 1.114-1.722c.342-.575.631-1.124.868-1.648h1.203zm-4.491 6.59h3.377v-4.881l-.984 1.627-.875 1.299-.807 1.06-.711.895z"/></defs></svg>