<svg xmlns="http://www.w3.org/2000/svg" fill="none" viewBox="0 0 270 270"><style>.B{fill-opacity:.896}.C{fill-opacity:.092}</style><rect width="268" height="268" x="1" y="1" fill="#ffda80" rx="7"/><rect width="269" height="269" x=".5" y=".5" stroke="#000" stroke-opacity=".058" rx="7.5"/><g fill="#000"><path d="M23.638 32H18.21v-9.803h1.627v8.422h3.801V32zm6.59 0H28.69v-1.053h-.027c-.237.406-.531.711-.882.916s-.754.301-1.21.301c-.634 0-1.16-.187-1.579-.561s-.629-.893-.629-1.545c0-.62.21-1.128.629-1.524s1.041-.661 1.866-.779l1.839-.246v-.144c0-.474-.123-.818-.369-1.032s-.579-.321-.998-.321c-.333 0-.672.059-1.019.178s-.674.303-.998.554l-.69-.95c.428-.328.87-.57 1.326-.725s.957-.233 1.504-.233c.939 0 1.636.233 2.092.697s.684 1.153.684 2.078V32zm-1.531-2.844v-.595l-1.497.198c-.442.064-.775.184-.998.362s-.328.428-.328.766.105.608.314.8.479.287.807.287c.515 0 .927-.171 1.237-.513s.465-.782.465-1.306zM38.26 25l-3.22 8.319c-.251.643-.592 1.133-1.025 1.47s-.941.506-1.538.506a3.38 3.38 0 0 1-.492-.034 3.62 3.62 0 0 1-.444-.082l.28-1.237a1.69 1.69 0 0 0 .267.068 1.63 1.63 0 0 0 .267.02c.26 0 .481-.066.663-.198s.328-.328.438-.588l.533-1.258L31.205 25h1.764l1.627 4.874.075.301.089.417h.034l.068-.308.109-.396L36.661 25h1.6zm4.06 7.164c-1.094 0-1.962-.326-2.605-.978s-.957-1.533-.957-2.632c.005-1.162.337-2.071.998-2.728s1.561-.991 2.7-.991c1.098-.005 1.955.319 2.57.971s.93 1.524.93 2.632c0 1.139-.328 2.046-.984 2.721s-1.536 1.005-2.652 1.005zm.075-1.265c.633 0 1.114-.207 1.442-.622s.499-1.014.499-1.798c0-.775-.166-1.365-.499-1.77s-.816-.608-1.449-.608c-.624 0-1.117.214-1.477.643s-.533 1.021-.533 1.777.178 1.349.533 1.764.85.615 1.483.615zM53.689 32h-1.593v-1.087h-.027c-.246.415-.549.727-.909.936s-.775.315-1.244.315c-.82 0-1.438-.246-1.852-.738s-.615-1.237-.615-2.222V25h1.579v4.02c0 .624.121 1.094.362 1.408s.613.472 1.101.472c.474 0 .859-.171 1.155-.513s.451-.797.451-1.367V25h1.593v7zm5.879-.096a3.04 3.04 0 0 1-.643.191 3.983 3.983 0 0 1-.718.062c-.647 0-1.146-.171-1.497-.513s-.52-.861-.52-1.545v-3.855h-1.176V25h1.176v-1.702l1.586-.479V25h1.675v1.244h-1.675v3.726c0 .342.062.588.184.738s.324.226.588.226a1.55 1.55 0 0 0 .362-.041c.118-.032.223-.071.315-.116l.342 1.128zM18.21 106v-9.803h3.056c1.732 0 3.031.399 3.896 1.196s1.299 1.987 1.299 3.582c0 1.517-.479 2.734-1.436 3.65S22.799 106 21.204 106H18.21zm1.627-8.422v7.041h1.299c1.135 0 2.021-.317 2.659-.95s.957-1.527.957-2.666c0-1.112-.305-1.96-.916-2.543s-1.497-.882-2.673-.882h-1.326zm9.051.068c-.292 0-.533-.093-.725-.28s-.287-.417-.287-.69a.92.92 0 0 1 .287-.697c.191-.182.433-.273.725-.273s.54.091.731.273a.92.92 0 0 1 .287.697c0 .278-.096.51-.287.697s-.435.273-.731.273zm.786 8.353h-1.593v-7h1.593v7zm1.395-.561.69-1.121a4.04 4.04 0 0 0 .868.465 2.89 2.89 0 0 0 1.005.171c.392 0 .695-.071.909-.212s.328-.362.328-.649c0-.228-.091-.417-.273-.568s-.483-.282-.916-.382c-.875-.205-1.49-.477-1.846-.814s-.526-.781-.526-1.333a1.91 1.91 0 0 1 .738-1.552c.492-.406 1.137-.608 1.935-.608a4.03 4.03 0 0 1 1.135.157 3.77 3.77 0 0 1 1.053.485l-.643 1.094a3.76 3.76 0 0 0-.827-.41 2.47 2.47 0 0 0-.772-.123c-.374 0-.665.071-.875.212a.65.65 0 0 0-.308.574c0 .26.105.454.314.581s.572.244 1.073.363c.757.182 1.31.446 1.661.793.351.341.526.799.526 1.374 0 .679-.248 1.221-.745 1.626s-1.16.602-2.003.602c-.456 0-.893-.059-1.312-.178s-.811-.305-1.189-.547zm8.34-.362h-.027v4.143h-1.593V99h1.593v1.148h.027c.269-.437.599-.765.991-.984s.841-.328 1.347-.328c.902 0 1.604.312 2.105.937s.759 1.466.759 2.522c0 1.171-.287 2.11-.861 2.816s-1.349 1.053-2.324 1.053c-.437 0-.825-.089-1.162-.267s-.622-.455-.855-.82zm-.048-2.844v.787c0 .537.162.986.485 1.346s.736.533 1.237.533c.597 0 1.062-.227 1.395-.683s.499-1.094.499-1.914c0-.707-.153-1.249-.458-1.627s-.734-.574-1.285-.574c-.56 0-1.014.2-1.36.601s-.513.907-.513 1.531zM46.224 106V95.637h1.593V106h-1.593zm9.01 0h-1.538v-1.053h-.027c-.237.406-.531.711-.882.916a2.39 2.39 0 0 1-1.21.301c-.633 0-1.16-.187-1.579-.56-.419-.379-.629-.894-.629-1.545 0-.62.21-1.128.629-1.525s1.041-.661 1.866-.779l1.839-.246v-.144c0-.474-.123-.818-.369-1.032s-.579-.321-.998-.321a3.15 3.15 0 0 0-1.019.177 3.54 3.54 0 0 0-.998.554l-.691-.95c.428-.328.87-.57 1.326-.725s.957-.233 1.504-.233c.939 0 1.636.233 2.092.697s.684 1.153.684 2.078V106zm-1.531-2.844v-.594l-1.497.198c-.442.064-.775.184-.998.362s-.328.428-.328.766.105.608.315.8.478.287.807.287c.515 0 .927-.171 1.237-.513s.465-.782.465-1.306zM63.266 99l-3.22 8.319c-.251.643-.592 1.133-1.025 1.47s-.941.506-1.538.506c-.173 0-.337-.011-.492-.034a3.69 3.69 0 0 1-.444-.082l.28-1.238a1.8 1.8 0 0 0 .267.069c.082.013.171.02.267.02a1.1 1.1 0 0 0 .663-.198c.182-.132.328-.328.438-.588l.533-1.258L56.211 99h1.764l1.627 4.874.075.301.089.417h.034l.068-.308.109-.396L61.666 99h1.6zm9.133 7.164c-1.399 0-2.527-.456-3.384-1.367s-1.285-2.108-1.285-3.575c0-1.564.435-2.819 1.306-3.767s2.049-1.422 3.52-1.422c1.376 0 2.486.458 3.329 1.374s1.265 2.11 1.265 3.596c0 1.572-.435 2.825-1.306 3.76s-2.014 1.401-3.445 1.401zm.02-1.422c.93 0 1.666-.317 2.208-.95s.813-1.518.813-2.652c0-1.167-.264-2.072-.793-2.714s-1.244-.964-2.16-.964-1.654.335-2.215 1.005-.834 1.552-.834 2.645c0 1.103.273 1.985.82 2.646s1.272.984 2.16.984zm7.964.335h-.027v4.143h-1.593V99h1.593v1.148h.027c.269-.437.599-.765.991-.984s.841-.328 1.347-.328c.902 0 1.604.312 2.106.937s.759 1.466.759 2.522c0 1.171-.287 2.11-.861 2.816s-1.349 1.053-2.324 1.053c-.437 0-.825-.089-1.162-.267s-.622-.455-.855-.82zm-.048-2.844v.787c0 .537.162.986.485 1.346s.736.533 1.237.533c.597 0 1.062-.227 1.394-.683s.499-1.094.499-1.914c0-.707-.153-1.249-.458-1.627s-.734-.574-1.285-.574c-.561 0-1.014.2-1.36.601s-.513.907-.513 1.531zm10.678 3.671a3.05 3.05 0 0 1-.643.192 3.98 3.98 0 0 1-.718.061c-.647 0-1.146-.171-1.497-.512-.346-.347-.52-.862-.52-1.545v-3.856H86.46V99h1.176v-1.702l1.586-.479V99h1.675v1.244h-1.675v3.726c0 .342.061.588.184.738s.324.226.588.226a1.56 1.56 0 0 0 .362-.041 1.45 1.45 0 0 0 .314-.117l.342 1.128zm2.051-8.258c-.292 0-.533-.093-.725-.28s-.287-.417-.287-.69a.92.92 0 0 1 .287-.697c.191-.182.433-.273.725-.273s.54.091.731.273a.92.92 0 0 1 .287.697c0 .278-.096.51-.287.697s-.435.273-.731.273zM93.85 106h-1.593v-7h1.593v7zm5.182.164c-1.094 0-1.962-.326-2.604-.977-.638-.657-.957-1.534-.957-2.632.005-1.162.337-2.072.998-2.728s1.561-.991 2.7-.991c1.098-.004 1.955.319 2.57.971.62.647.93 1.524.93 2.631 0 1.14-.328 2.047-.984 2.721s-1.536 1.005-2.653 1.005zm.075-1.265c.633 0 1.115-.207 1.443-.622s.499-1.014.499-1.798c0-.774-.166-1.364-.499-1.77s-.816-.608-1.449-.608c-.624 0-1.117.214-1.477.642s-.533 1.021-.533 1.778.178 1.348.533 1.763c.356.41.85.615 1.483.615zM110.53 106h-1.586v-3.944c0-.652-.118-1.14-.355-1.463-.237-.328-.593-.492-1.067-.492a1.48 1.48 0 0 0-1.175.54c-.31.36-.465.815-.465 1.367V106h-1.593v-7h1.593v1.135h.027c.26-.433.579-.757.957-.971s.818-.328 1.32-.328c.765 0 1.346.244 1.743.731s.601 1.206.601 2.154V106zm1.258-.561.691-1.121c.273.192.562.347.868.465a2.89 2.89 0 0 0 1.005.171c.392 0 .695-.071.909-.212s.328-.362.328-.649a.706.706 0 0 0-.274-.568c-.177-.155-.483-.282-.916-.382-.875-.205-1.49-.477-1.845-.814s-.527-.781-.527-1.333a1.91 1.91 0 0 1 .739-1.552c.493-.401 1.137-.608 1.934-.608a4.03 4.03 0 0 1 1.135.157c.36.105.711.262 1.053.485l-.643 1.094a3.757 3.757 0 0 0-.827-.41 2.47 2.47 0 0 0-.772-.123c-.374 0-.666.071-.875.212a.65.65 0 0 0-.308.574c0 .26.105.454.314.581.215.123.572.244 1.074.363.756.182 1.31.446 1.661.793.351.341.526.799.526 1.374 0 .679-.248 1.221-.745 1.626s-1.16.602-2.003.602c-.456 0-.893-.059-1.312-.178a4.65 4.65 0 0 1-1.19-.547zM17.438 136.25l.561-.861c.401.259.802.449 1.203.567s.868.178 1.401.178c.597 0 1.087-.139 1.47-.417s.581-.693.581-1.231c0-.478-.164-.861-.492-1.148s-.857-.565-1.6-.834c-.921-.333-1.604-.706-2.051-1.121s-.663-.971-.663-1.654c0-.803.287-1.452.861-1.949s1.337-.745 2.276-.745a5.74 5.74 0 0 1 1.285.144c.419.091.852.241 1.299.451l-.431.923a5.263 5.263 0 0 0-1.094-.376 5.26 5.26 0 0 0-1.142-.116c-.588 0-1.053.139-1.395.417s-.513.654-.513 1.141c0 .429.157.77.472 1.026s.838.515 1.572.779c.984.355 1.691.752 2.119 1.189s.643 1.028.643 1.771a2.6 2.6 0 0 1-.861 1.989c-.574.529-1.381.793-2.42.793-.583 0-1.121-.073-1.613-.219s-.982-.378-1.47-.697zm13.945.752h-1.121v-4.033c0-.729-.137-1.276-.41-1.641s-.674-.547-1.217-.547-1.007.212-1.381.636-.561.959-.561 1.62v3.965h-1.121v-10.363h1.121v4.525h.027c.269-.442.595-.772.977-.991s.823-.335 1.319-.335c.788 0 1.379.237 1.77.711s.595 1.187.595 2.14v4.313zm5.045.164c-1.035 0-1.862-.326-2.481-.977-.615-.657-.923-1.525-.923-2.605 0-1.171.319-2.087.957-2.748s1.508-.994 2.611-.998c1.044-.005 1.857.317 2.44.964s.882 1.538.882 2.673c0 1.121-.317 2.016-.95 2.686s-1.474 1.005-2.536 1.005zm.082-.943c.725 0 1.281-.235 1.668-.704s.588-1.142.588-2.003c0-.88-.196-1.554-.588-2.024s-.948-.711-1.668-.711-1.29.246-1.709.739-.629 1.166-.629 2.023c0 .829.212 1.483.636 1.962s.991.718 1.702.718zm14.014-6.221-2.099 7h-1.162l-1.449-5.024-.075-.322-.027-.314h-.027a1.71 1.71 0 0 1-.048.307l-.096.329-1.565 5.024h-1.121l-2.119-7h1.176l1.449 5.264c.023.077.041.168.055.273s.032.223.041.356h.055l.041-.308c.018-.109.046-.221.082-.335l1.613-5.25h1.025l1.449 5.277c.023.087.041.183.055.287l.048.342h.055a2.58 2.58 0 0 1 .034-.294l.082-.335 1.422-5.277h1.107zm10.951 7h-1.121v-4.033c0-.729-.137-1.276-.41-1.641s-.675-.547-1.217-.547-1.007.212-1.381.636-.56.959-.56 1.62v3.965h-1.121v-10.363h1.121v4.525h.027c.269-.442.595-.772.977-.991s.823-.335 1.319-.335c.788 0 1.379.237 1.77.711s.595 1.187.595 2.14v4.313zm2.693-8.675a.793.793 0 0 1-.574-.225.77.77 0 0 1-.233-.568c0-.223.078-.41.233-.56a.78.78 0 0 1 .574-.233.78.78 0 0 1 .574.233c.155.15.232.337.232.56a.77.77 0 0 1-.232.568.793.793 0 0 1-.574.225zm.547 8.675h-1.121v-7h1.121v7zm7.096-1.189c-.26.451-.59.79-.991 1.018s-.868.335-1.415.335c-.88 0-1.584-.312-2.112-.936s-.786-1.484-.786-2.564c0-1.157.292-2.085.875-2.782s1.36-1.046 2.331-1.046c.483 0 .898.096 1.244.287s.636.469.854.848h.027v-4.334h1.121v10.363h-1.121v-1.189h-.027zm-4.156-2.202c0 .807.187 1.445.561 1.914s.884.698 1.518.698 1.137-.226 1.524-.677.581-1.021.581-1.709v-1.032a1.99 1.99 0 0 0-.567-1.436 1.87 1.87 0 0 0-1.415-.588c-.684 0-1.221.251-1.613.752s-.588 1.194-.588 2.078zm12.4 2.202c-.26.451-.59.79-.991 1.018s-.868.335-1.415.335c-.879 0-1.584-.312-2.112-.936s-.786-1.484-.786-2.564c0-1.157.292-2.085.875-2.782s1.36-1.046 2.331-1.046c.483 0 .898.096 1.244.287s.636.469.855.848h.027v-4.334h1.121v10.363h-1.121v-1.189h-.027zm-4.156-2.202c0 .807.187 1.445.561 1.914s.884.698 1.518.698 1.137-.226 1.524-.677.581-1.021.581-1.709v-1.032a1.99 1.99 0 0 0-.567-1.436 1.87 1.87 0 0 0-1.415-.588c-.684 0-1.221.251-1.613.752s-.588 1.194-.588 2.078zm13.2.144H84.15c.018.788.226 1.397.622 1.825s.962.636 1.682.636a3.38 3.38 0 0 0 .943-.137 3.58 3.58 0 0 0 .943-.451l.52.8c-.397.255-.793.442-1.189.56s-.832.178-1.306.178c-1.057 0-1.882-.314-2.475-.943s-.891-1.506-.895-2.632.292-2.033.889-2.721 1.381-1.032 2.338-1.032c.912 0 1.618.298 2.119.895s.759 1.415.759 2.468v.554zm-1.148-.916c-.005-.647-.162-1.151-.472-1.511s-.736-.547-1.278-.547a1.85 1.85 0 0 0-1.36.561c-.369.369-.595.868-.677 1.497h3.787zm8.661 4.163H95.49v-3.992c0-.743-.137-1.299-.41-1.668s-.674-.561-1.217-.561a1.77 1.77 0 0 0-1.394.636c-.365.419-.547.95-.547 1.593v3.992h-1.121v-7h1.121v1.162h.027c.264-.442.588-.772.971-.991s.825-.335 1.326-.335c.766 0 1.351.248 1.757.745.406.492.608 1.205.608 2.14v4.279zm6.535-8.675a.795.795 0 0 1-.574-.225.77.77 0 0 1-.232-.568c0-.223.077-.41.232-.56a.78.78 0 0 1 .574-.233.78.78 0 0 1 .575.233c.155.15.232.337.232.56a.77.77 0 0 1-.232.568.795.795 0 0 1-.575.225zm.547 8.675h-1.121v-7h1.121v7zm5.606-.082a3.188 3.188 0 0 1-1.19.232c-.556 0-.993-.161-1.312-.485s-.472-.811-.472-1.449v-4.259h-1.203v-.957h1.203v-1.709l1.121-.362v2.071h1.764v.957h-1.764v4.129c0 .401.071.69.212.868s.363.267.65.267a1.727 1.727 0 0 0 .717-.158l.274.855zm7.034-3.165h-4.949c.018.788.225 1.397.622 1.825s.961.636 1.682.636c.314 0 .628-.046.943-.137a3.58 3.58 0 0 0 .943-.451l.52.8a4.67 4.67 0 0 1-1.19.56 4.52 4.52 0 0 1-1.305.178c-1.058 0-1.883-.314-2.475-.943s-.891-1.506-.895-2.632.291-2.033.888-2.721 1.381-1.032 2.338-1.032c.912 0 1.618.298 2.119.895s.759 1.415.759 2.468v.554zm-1.148-.916c-.005-.647-.162-1.151-.472-1.511s-.736-.547-1.278-.547a1.85 1.85 0 0 0-1.361.561c-.369.369-.595.868-.677 1.497h3.788zm12.79 4.163h-1.121v-4.02c0-.774-.121-1.335-.363-1.681-.237-.347-.638-.52-1.203-.52-.478 0-.886.219-1.224.657-.332.437-.499.961-.499 1.572v3.992h-1.121v-4.156c0-.688-.132-1.203-.396-1.545-.264-.347-.663-.52-1.196-.52-.493 0-.898.208-1.217.622s-.479.946-.479 1.607v3.992h-1.121v-7h1.121v1.107h.028c.25-.423.556-.74.916-.95s.783-.321 1.257-.321.896.134 1.251.403.6.613.732 1.046c.26-.483.583-.845.971-1.087s.838-.362 1.353-.362c.77 0 1.347.237 1.73.711s.581 1.187.581 2.14v4.313zm1.463-.526.533-.862c.305.201.604.353.895.458s.606.151.944.151c.478 0 .84-.089 1.086-.267s.376-.444.376-.8c0-.287-.111-.528-.334-.724s-.563-.36-1.033-.479c-.875-.223-1.474-.503-1.798-.841a1.76 1.76 0 0 1-.485-1.257 1.84 1.84 0 0 1 .649-1.436c.433-.387 1.037-.581 1.812-.581a3.91 3.91 0 0 1 1.066.143c.338.096.682.26 1.033.493l-.499.847c-.319-.2-.607-.339-.862-.417s-.506-.123-.765-.123c-.452 0-.796.085-1.033.253s-.355.404-.355.718.121.551.362.711c.246.159.641.31 1.183.451.711.192 1.242.46 1.593.807s.533.79.533 1.346c0 .648-.23 1.16-.691 1.539-.455.373-1.082.56-1.879.56-.429 0-.841-.059-1.238-.178s-.756-.289-1.093-.512zM17.438 204.25l.561-.861c.401.259.802.449 1.203.567s.868.178 1.401.178c.597 0 1.087-.139 1.47-.417s.581-.693.581-1.231c0-.478-.164-.861-.492-1.148s-.857-.565-1.6-.834c-.921-.333-1.604-.706-2.051-1.121s-.663-.971-.663-1.654c0-.803.287-1.452.861-1.949s1.337-.745 2.276-.745a5.74 5.74 0 0 1 1.285.144c.419.091.852.241 1.299.451l-.431.923a5.263 5.263 0 0 0-1.094-.376 5.26 5.26 0 0 0-1.142-.116c-.588 0-1.053.139-1.395.417s-.513.654-.513 1.141c0 .429.157.77.472 1.026s.838.515 1.572.779c.984.355 1.691.752 2.119 1.189s.643 1.028.643 1.771a2.6 2.6 0 0 1-.861 1.989c-.574.529-1.381.793-2.42.793-.583 0-1.121-.073-1.613-.219s-.982-.378-1.47-.697zm13.945.752h-1.121v-4.033c0-.729-.137-1.276-.41-1.641s-.674-.547-1.217-.547-1.007.212-1.381.636-.561.959-.561 1.62v3.965h-1.121v-10.363h1.121v4.525h.027c.269-.442.595-.772.977-.991s.823-.335 1.319-.335c.788 0 1.379.237 1.77.711s.595 1.187.595 2.14v4.313zm5.045.164c-1.035 0-1.862-.326-2.481-.977-.615-.657-.923-1.525-.923-2.605 0-1.171.319-2.087.957-2.748s1.508-.994 2.611-.998c1.044-.005 1.857.317 2.44.964s.882 1.538.882 2.673c0 1.121-.317 2.016-.95 2.686s-1.474 1.005-2.536 1.005zm.082-.943c.725 0 1.281-.235 1.668-.704s.588-1.142.588-2.003c0-.88-.196-1.554-.588-2.024s-.948-.711-1.668-.711-1.29.246-1.709.739-.629 1.166-.629 2.023c0 .829.212 1.483.636 1.962s.991.718 1.702.718zm14.014-6.221-2.099 7h-1.162l-1.449-5.024-.075-.322-.027-.314h-.027a1.71 1.71 0 0 1-.048.307l-.096.329-1.565 5.024h-1.121l-2.119-7h1.176l1.449 5.264c.023.077.041.168.055.273s.032.223.041.356h.055l.041-.308c.018-.109.046-.221.082-.335l1.613-5.25h1.025l1.449 5.277c.023.087.041.183.055.287l.048.342h.055a2.58 2.58 0 0 1 .034-.294l.082-.335 1.422-5.277h1.107zm8.483-2.447a2.599 2.599 0 0 0-.349-.089 1.82 1.82 0 0 0-.321-.027c-.383 0-.668.102-.855.307s-.28.506-.28.902v1.354h1.641v.957h-1.641v6.043h-1.114v-6.043h-1.196v-.957h1.196v-1.408c0-.661.203-1.176.608-1.545s.962-.561 1.668-.561a2.52 2.52 0 0 1 .472.041c.141.023.287.06.438.11l-.267.916zm1.62.772a.793.793 0 0 1-.574-.225.77.77 0 0 1-.232-.568c0-.223.078-.41.232-.56a.78.78 0 0 1 .574-.233.78.78 0 0 1 .574.233c.155.15.232.337.232.56a.77.77 0 0 1-.232.568.793.793 0 0 1-.574.225zm.547 8.675h-1.121v-7h1.121v7zm2.27 0v-10.363h1.121v10.363h-1.121zm9.017-3.247h-4.949c.018.788.226 1.397.622 1.825s.962.636 1.682.636a3.38 3.38 0 0 0 .943-.137 3.58 3.58 0 0 0 .943-.451l.519.8c-.397.255-.793.442-1.189.56s-.832.178-1.306.178c-1.057 0-1.882-.314-2.475-.943s-.891-1.506-.895-2.632.292-2.033.889-2.721 1.381-1.032 2.338-1.032c.912 0 1.618.298 2.119.895s.759 1.415.759 2.468v.554zm-1.148-.916c-.004-.647-.162-1.151-.472-1.511s-.736-.547-1.278-.547a1.85 1.85 0 0 0-1.36.561c-.369.369-.595.868-.677 1.497h3.787zm12.318.916h-4.949c.018.788.225 1.397.622 1.825s.962.636 1.682.636a3.38 3.38 0 0 0 .943-.137 3.58 3.58 0 0 0 .943-.451l.519.8c-.397.255-.793.442-1.189.56s-.832.178-1.306.178c-1.057 0-1.882-.314-2.475-.943s-.891-1.506-.895-2.632.292-2.033.889-2.721 1.381-1.032 2.338-1.032c.911 0 1.618.298 2.119.895s.759 1.415.759 2.468v.554zm-1.148-.916c-.004-.647-.162-1.151-.472-1.511s-.736-.547-1.278-.547a1.85 1.85 0 0 0-1.36.561c-.369.369-.595.868-.677 1.497h3.787zm7.964-2.837-2.352 3.541 2.311 3.459H89.1l-1.374-2.27-.144-.239-.164-.294h-.027a2.727 2.727 0 0 0-.103.164l-.219.369-1.401 2.27h-1.292l2.386-3.432-2.283-3.568h1.306l1.353 2.393.144.273.15.273h.027l.164-.273.164-.273 1.422-2.393h1.237zm4.648 6.918a3.203 3.203 0 0 1-.567.171 2.85 2.85 0 0 1-.622.061c-.556 0-.993-.161-1.312-.485s-.472-.811-.472-1.449v-4.259h-1.203v-.957h1.203v-1.709l1.121-.362v2.071h1.764v.957h-1.764v4.129c0 .401.071.69.212.868s.362.267.649.267a1.727 1.727 0 0 0 .718-.158l.273.855zm7.034-3.165H97.18c.018.788.226 1.397.622 1.825s.962.636 1.682.636c.314 0 .629-.046.944-.137a3.58 3.58 0 0 0 .943-.451l.52.8a4.67 4.67 0 0 1-1.19.56 4.525 4.525 0 0 1-1.305.178c-1.057 0-1.882-.314-2.475-.943s-.891-1.506-.895-2.632.292-2.033.889-2.721 1.381-1.032 2.338-1.032c.911 0 1.618.298 2.119.895s.759 1.415.759 2.468v.554zm-1.149-.916c-.004-.647-.161-1.151-.471-1.511s-.736-.547-1.278-.547a1.85 1.85 0 0 0-1.36.561c-.369.369-.595.868-.677 1.497h3.787zm8.662 4.163h-1.121v-3.992c0-.743-.137-1.299-.411-1.668s-.674-.561-1.216-.561a1.77 1.77 0 0 0-1.395.636c-.365.419-.547.95-.547 1.593v3.992h-1.121v-7h1.121v1.162h.028c.264-.442.587-.772.97-.991s.825-.335 1.326-.335c.766 0 1.352.248 1.757.745.406.492.609 1.205.609 2.14v4.279zm1.463-.526.533-.862c.305.201.604.353.895.458s.606.151.944.151c.478 0 .84-.089 1.086-.267.251-.178.376-.444.376-.8 0-.287-.111-.528-.334-.724s-.563-.36-1.033-.479c-.875-.223-1.474-.503-1.798-.841a1.76 1.76 0 0 1-.485-1.257c0-.575.217-1.053.65-1.436s1.036-.581 1.811-.581a3.91 3.91 0 0 1 1.066.143c.338.096.682.26 1.033.493l-.499.847a3.698 3.698 0 0 0-.862-.417 2.444 2.444 0 0 0-.765-.123c-.451 0-.796.085-1.033.253s-.355.404-.355.718.121.551.362.711.641.31 1.183.451c.711.192 1.242.46 1.593.807s.533.79.533 1.346c0 .648-.23 1.16-.691 1.539-.455.373-1.082.56-1.879.56-.429 0-.841-.059-1.238-.178a4.123 4.123 0 0 1-1.093-.512zm7.177-8.149a.793.793 0 0 1-.574-.225.77.77 0 0 1-.232-.568c0-.223.077-.41.232-.56a.78.78 0 0 1 .574-.233c.228 0 .42.078.574.233a.75.75 0 0 1 .233.56.77.77 0 0 1-.233.568.79.79 0 0 1-.574.225zm.547 8.675h-1.121v-7h1.121v7zm5.195.164c-1.034 0-1.861-.326-2.481-.977-.615-.657-.923-1.525-.923-2.605 0-1.171.319-2.087.957-2.748s1.509-.994 2.612-.998c1.043-.005 1.857.317 2.44.964s.882 1.538.882 2.673c0 1.121-.317 2.016-.95 2.686s-1.475 1.005-2.537 1.005zm.082-.943c.725 0 1.281-.235 1.668-.704s.588-1.142.588-2.003c0-.88-.196-1.554-.588-2.024s-.947-.711-1.668-.711-1.289.246-1.709.739-.628 1.166-.628 2.023c0 .829.211 1.483.635 1.962s.992.718 1.702.718zm11.006.779h-1.121v-3.992c0-.743-.136-1.299-.41-1.668s-.674-.561-1.217-.561a1.77 1.77 0 0 0-1.394.636c-.365.419-.547.95-.547 1.593v3.992h-1.121v-7h1.121v1.162h.027c.265-.442.588-.772.971-.991s.825-.335 1.326-.335c.766 0 1.351.248 1.757.745.406.492.608 1.205.608 2.14v4.279zm1.463-.526.533-.862c.306.201.604.353.896.458s.606.151.943.151c.479 0 .841-.089 1.087-.267.251-.178.376-.444.376-.8a.924.924 0 0 0-.335-.724c-.219-.201-.563-.36-1.032-.479-.875-.223-1.474-.503-1.798-.841a1.76 1.76 0 0 1-.485-1.257c0-.575.216-1.053.649-1.436s1.037-.581 1.812-.581c.373 0 .729.048 1.066.143s.681.26 1.032.493l-.499.847a3.712 3.712 0 0 0-.861-.417 2.45 2.45 0 0 0-.766-.123c-.451 0-.795.085-1.032.253s-.355.404-.355.718.12.551.362.711.64.31 1.183.451c.711.192 1.241.46 1.592.807s.534.79.534 1.346c0 .648-.231 1.16-.691 1.539-.456.373-1.082.56-1.88.56a4.28 4.28 0 0 1-1.237-.178 4.13 4.13 0 0 1-1.094-.512z" class="B"/><rect width="38" height="18" x="18" y="156" fill-opacity=".024" rx="9"/></g><rect width="39" height="19" x="17.5" y="155.5" stroke="#000" stroke-opacity=".446" rx="9.5"/><g fill="#000"><rect width="12" height="12" x="21" y="159" fill-opacity=".606" rx="6"/><path d="M74.236 170.16c-1.39 0-2.504-.458-3.343-1.374s-1.251-2.108-1.251-3.575c0-1.577.426-2.835 1.278-3.774s2.012-1.408 3.48-1.408c1.353 0 2.443.456 3.268 1.367s1.244 2.104 1.244 3.576c0 1.599-.424 2.864-1.272 3.794s-1.982 1.394-3.404 1.394zm0-1.032c1.076 0 1.923-.351 2.543-1.053s.93-1.684.93-2.946c0-1.294-.301-2.295-.902-3.001s-1.431-1.06-2.488-1.06c-1.03 0-1.866.372-2.509 1.115s-.964 1.718-.964 2.925.312 2.181.936 2.919 1.447 1.101 2.454 1.101zm9.796-8.579a2.599 2.599 0 0 0-.349-.089 1.82 1.82 0 0 0-.321-.027c-.383 0-.668.102-.855.307s-.28.506-.28.902v1.354h1.641v.957h-1.641v6.043h-1.114v-6.043h-1.196v-.957h1.196v-1.408c0-.661.203-1.176.608-1.545s.962-.561 1.668-.561a2.52 2.52 0 0 1 .472.041c.141.023.287.06.438.11l-.267.916zm4.389 0a2.599 2.599 0 0 0-.349-.089 1.82 1.82 0 0 0-.321-.027c-.383 0-.668.102-.855.307s-.28.506-.28.902v1.354h1.641v.957h-1.641v6.043h-1.114v-6.043h-1.196v-.957h1.196v-1.408c0-.661.203-1.176.608-1.545s.962-.561 1.668-.561a2.52 2.52 0 0 1 .472.041c.141.023.287.06.438.11l-.267.916z" class="B"/><rect width="39" height="19" x="17.5" y="222.5" stroke="#000" rx="9.5"/></g><rect width="13" height="13" x="40.5" y="225.5" fill="#fff" stroke="url(#A)" rx="6.5"/><g fill="#000"><path d="M74.236 237.16c-1.39 0-2.504-.458-3.343-1.374s-1.251-2.108-1.251-3.575c0-1.577.426-2.835 1.278-3.774s2.012-1.408 3.48-1.408c1.353 0 2.443.456 3.268 1.367s1.244 2.104 1.244 3.576c0 1.599-.424 2.864-1.272 3.794s-1.982 1.394-3.404 1.394zm0-1.032c1.076 0 1.923-.351 2.543-1.053s.93-1.684.93-2.946c0-1.294-.301-2.295-.902-3.001s-1.431-1.06-2.488-1.06c-1.03 0-1.866.372-2.509 1.115s-.964 1.718-.964 2.925.312 2.181.936 2.919 1.447 1.101 2.454 1.101zm12.264.868h-1.121v-3.992c0-.743-.137-1.299-.41-1.668s-.674-.561-1.217-.561a1.77 1.77 0 0 0-1.395.636c-.365.419-.547.95-.547 1.593v3.992h-1.12v-7h1.121v1.162h.027c.264-.442.588-.772.971-.991s.825-.335 1.326-.335c.766 0 1.351.248 1.757.745.406.492.608 1.205.608 2.14v4.279z" class="B"/><rect width="36" height="32" x="17" y="47" rx="4"/></g><path fill="#fff" d="M29 60c-.141 0-.273-.026-.398-.078a1 1 0 0 1-.523-.523A1.015 1.015 0 0 1 28 59v-2a.97.97 0 0 1 .078-.391 1 1 0 0 1 .211-.312 1.03 1.03 0 0 1 .32-.219A.97.97 0 0 1 29 56h2a.95.95 0 0 1 .383.078.92.92 0 0 1 .32.219.92.92 0 0 1 .219.32A.95.95 0 0 1 32 57v2a.97.97 0 0 1-.078.391 1.03 1.03 0 0 1-.219.32 1 1 0 0 1-.312.211A.97.97 0 0 1 31 60h-2zm0-3v2h2v-2h-2zm4.5 1a.48.48 0 0 1-.5-.5.48.48 0 0 1 .5-.5h8a.48.48 0 0 1 .5.5.48.48 0 0 1-.5.5h-8zM29 65c-.141 0-.273-.026-.398-.078a1 1 0 0 1-.523-.523A1.015 1.015 0 0 1 28 64v-2a.97.97 0 0 1 .078-.391 1 1 0 0 1 .211-.312 1.03 1.03 0 0 1 .32-.219A.97.97 0 0 1 29 61h2a.95.95 0 0 1 .383.078.92.92 0 0 1 .32.219.92.92 0 0 1 .219.32A.95.95 0 0 1 32 62v2a.97.97 0 0 1-.078.391 1.03 1.03 0 0 1-.219.32 1 1 0 0 1-.312.211A.97.97 0 0 1 31 65h-2zm0-3v2h2v-2h-2zm4.5 1a.48.48 0 0 1-.5-.5.48.48 0 0 1 .5-.5h8a.48.48 0 0 1 .5.5.48.48 0 0 1-.5.5h-8zM29 70c-.141 0-.273-.026-.398-.078a1 1 0 0 1-.523-.523A1.015 1.015 0 0 1 28 69v-2a.97.97 0 0 1 .078-.391 1 1 0 0 1 .211-.312 1.03 1.03 0 0 1 .32-.219A.97.97 0 0 1 29 66h2a.95.95 0 0 1 .383.078.92.92 0 0 1 .32.219.92.92 0 0 1 .219.32A.95.95 0 0 1 32 67v2a.97.97 0 0 1-.078.391 1.03 1.03 0 0 1-.219.32 1 1 0 0 1-.312.211A.97.97 0 0 1 31 70h-2zm0-3v2h2v-2h-2zm4.5 1a.48.48 0 0 1-.5-.5.48.48 0 0 1 .5-.5h8a.48.48 0 0 1 .5.5.48.48 0 0 1-.5.5h-8z"/><g fill="#000"><rect width="36" height="32" x="57" y="47" class="C" rx="4"/><path d="M67 57.5a.97.97 0 0 1 .078-.391 1 1 0 0 1 .211-.312 1.03 1.03 0 0 1 .32-.219A.97.97 0 0 1 68 56.5a.95.95 0 0 1 .383.078.92.92 0 0 1 .539.539.95.95 0 0 1 .078.383.97.97 0 0 1-.078.391 1.03 1.03 0 0 1-.219.32 1 1 0 0 1-.312.211.97.97 0 0 1-.391.078c-.141 0-.273-.026-.398-.078a1 1 0 0 1-.523-.523 1.027 1.027 0 0 1-.078-.398zm4.5.5a.48.48 0 0 1-.5-.5.48.48 0 0 1 .5-.5h11a.48.48 0 0 1 .5.5.48.48 0 0 1-.5.5h-11zm0 3a.48.48 0 0 1-.5-.5.48.48 0 0 1 .5-.5h11a.48.48 0 0 1 .5.5.48.48 0 0 1-.5.5h-11zM67 65.5a.97.97 0 0 1 .078-.391 1 1 0 0 1 .211-.312 1.03 1.03 0 0 1 .32-.219A.97.97 0 0 1 68 64.5a.95.95 0 0 1 .383.078.92.92 0 0 1 .539.539.95.95 0 0 1 .078.383.97.97 0 0 1-.078.391 1.03 1.03 0 0 1-.219.32 1 1 0 0 1-.312.211.97.97 0 0 1-.391.078c-.141 0-.273-.026-.398-.078a1 1 0 0 1-.523-.523 1.027 1.027 0 0 1-.078-.398zm4.5.5a.48.48 0 0 1-.5-.5.48.48 0 0 1 .5-.5h11a.48.48 0 0 1 .5.5.48.48 0 0 1-.5.5h-11zm0 3a.48.48 0 0 1-.5-.5.48.48 0 0 1 .5-.5h11a.48.48 0 0 1 .5.5.48.48 0 0 1-.5.5h-11z" class="B"/><rect width="36" height="32" x="97" y="47" class="C" rx="4"/><path d="M120.5 56a1.45 1.45 0 0 1 .578.117c.182.078.341.188.477.328a1.45 1.45 0 0 1 .328.477c.078.182.117.375.117.578v11c0 .203-.039.396-.117.578a1.54 1.54 0 0 1-.328.484 1.52 1.52 0 0 1-.477.32 1.45 1.45 0 0 1-.578.117h-11a1.45 1.45 0 0 1-.578-.117 1.6 1.6 0 0 1-.484-.32 1.59 1.59 0 0 1-.321-.484A1.453 1.453 0 0 1 108 68.5v-11a1.507 1.507 0 0 1 .438-1.055 1.53 1.53 0 0 1 .484-.328A1.45 1.45 0 0 1 109.5 56h11zm-11 1a.48.48 0 0 0-.5.5V60h3v-3h-2.5zm3.5 0v3h4v-3h-4zm8 .5a.48.48 0 0 0-.5-.5H118v3h3v-2.5zm-9 3.5h-3v4h3v-4zm1 0v4h4v-4h-4zm8 0h-3v4h3v-4zm-12 7.5a.48.48 0 0 0 .5.5h2.5v-3h-3v2.5zm8 .5v-3h-4v3h4zm3.5 0a.48.48 0 0 0 .5-.5V66h-3v3h2.5z" class="B"/><rect width="36" height="32" x="137" y="47" class="C" rx="4"/><path d="M149.5 62a1.45 1.45 0 0 1-.578-.117 1.6 1.6 0 0 1-.484-.32 1.59 1.59 0 0 1-.321-.484 1.453 1.453 0 0 1-.117-.578v-3a1.507 1.507 0 0 1 .438-1.055 1.53 1.53 0 0 1 .484-.328A1.45 1.45 0 0 1 149.5 56h3a1.45 1.45 0 0 1 .578.117c.182.078.341.188.477.328a1.45 1.45 0 0 1 .328.477c.078.182.117.375.117.578v3c0 .203-.039.396-.117.578a1.54 1.54 0 0 1-.328.484 1.52 1.52 0 0 1-.477.32 1.45 1.45 0 0 1-.578.117h-3zm8 0a1.45 1.45 0 0 1-.578-.117 1.6 1.6 0 0 1-.484-.32 1.59 1.59 0 0 1-.321-.484 1.453 1.453 0 0 1-.117-.578v-3a1.507 1.507 0 0 1 .438-1.055 1.53 1.53 0 0 1 .484-.328A1.45 1.45 0 0 1 157.5 56h3a1.45 1.45 0 0 1 .578.117c.182.078.341.188.477.328a1.45 1.45 0 0 1 .328.477c.078.182.117.375.117.578v3c0 .203-.039.396-.117.578a1.54 1.54 0 0 1-.328.484 1.52 1.52 0 0 1-.477.32 1.45 1.45 0 0 1-.578.117h-3zm-5-1a.48.48 0 0 0 .5-.5v-3a.48.48 0 0 0-.5-.5h-3a.48.48 0 0 0-.5.5v3a.48.48 0 0 0 .5.5h3zm8 0a.48.48 0 0 0 .5-.5v-3a.48.48 0 0 0-.5-.5h-3a.48.48 0 0 0-.5.5v3a.48.48 0 0 0 .5.5h3zm-11 9a1.45 1.45 0 0 1-.578-.117 1.6 1.6 0 0 1-.484-.32 1.59 1.59 0 0 1-.321-.484 1.453 1.453 0 0 1-.117-.578v-3a1.507 1.507 0 0 1 .438-1.055 1.53 1.53 0 0 1 .484-.328A1.45 1.45 0 0 1 149.5 64h3a1.45 1.45 0 0 1 .578.117c.182.078.341.188.477.328a1.45 1.45 0 0 1 .328.477c.078.182.117.375.117.578v3c0 .203-.039.396-.117.578a1.54 1.54 0 0 1-.328.484 1.52 1.52 0 0 1-.477.32 1.45 1.45 0 0 1-.578.117h-3zm8 0a1.45 1.45 0 0 1-.578-.117 1.6 1.6 0 0 1-.484-.32 1.59 1.59 0 0 1-.321-.484 1.453 1.453 0 0 1-.117-.578v-3a1.507 1.507 0 0 1 .438-1.055 1.53 1.53 0 0 1 .484-.328A1.45 1.45 0 0 1 157.5 64h3a1.45 1.45 0 0 1 .578.117c.182.078.341.188.477.328a1.45 1.45 0 0 1 .328.477c.078.182.117.375.117.578v3c0 .203-.039.396-.117.578a1.54 1.54 0 0 1-.328.484 1.52 1.52 0 0 1-.477.32 1.45 1.45 0 0 1-.578.117h-3zm-5-1a.48.48 0 0 0 .5-.5v-3a.48.48 0 0 0-.5-.5h-3a.48.48 0 0 0-.5.5v3a.48.48 0 0 0 .5.5h3zm8 0a.48.48 0 0 0 .5-.5v-3a.48.48 0 0 0-.5-.5h-3a.48.48 0 0 0-.5.5v3a.48.48 0 0 0 .5.5h3z" class="B"/><rect width="36" height="32" x="177" y="47" class="C" rx="4"/><path d="M188.96 71c-.26 0-.51-.052-.75-.156a2.26 2.26 0 0 1-.625-.43 2.28 2.28 0 0 1-.43-.625 1.867 1.867 0 0 1-.156-.75V56.961a1.81 1.81 0 0 1 .156-.742c.11-.24.253-.448.43-.625a2.06 2.06 0 0 1 .625-.43 1.79 1.79 0 0 1 .75-.164h12.078c.26 0 .508.055.742.164.24.104.448.247.625.43.183.177.326.385.43.625a1.74 1.74 0 0 1 .164.742v12.078a1.79 1.79 0 0 1-.164.75 2.047 2.047 0 0 1-.43.625c-.177.177-.385.32-.625.43a1.809 1.809 0 0 1-.742.156H188.96zm12.039-1a.97.97 0 0 0 .391-.078 1 1 0 0 0 .312-.211c.094-.094.167-.201.219-.32a.97.97 0 0 0 .078-.391V57a.95.95 0 0 0-.078-.383.92.92 0 0 0-.219-.32.972.972 0 0 0-.703-.297h-12a.97.97 0 0 0-.391.078 1.04 1.04 0 0 0-.32.219 1.01 1.01 0 0 0-.211.313.97.97 0 0 0-.078.391v12c0 .141.026.273.078.398a1.01 1.01 0 0 0 .211.313.998.998 0 0 0 .313.211 1.02 1.02 0 0 0 .398.078h12z" class="B"/><rect width="36" height="32" x="217" y="47" class="C" rx="4"/><path fill-rule="evenodd" d="M230.5 57a1.5 1.5 0 0 0-1.5 1.5v9a1.5 1.5 0 0 0 1.5 1.5h1.5V57h-1.5zm2.5 0v12h4V57h-4zm5 0v12h1.5a1.5 1.5 0 0 0 1.5-1.5v-9a1.5 1.5 0 0 0-1.5-1.5H238zm-10 1.5a2.5 2.5 0 0 1 2.5-2.5h9a2.5 2.5 0 0 1 2.5 2.5v9a2.5 2.5 0 0 1-2.5 2.5h-9a2.5 2.5 0 0 1-2.5-2.5v-9z" class="B"/></g><defs><linearGradient id="A" x1="47" x2="47" y1="226" y2="238" gradientUnits="userSpaceOnUse"><stop offset=".5" stop-opacity=".058"/><stop offset=".955" stop-opacity=".162"/></linearGradient></defs></svg>