<svg xmlns="http://www.w3.org/2000/svg" fill="none" viewBox="0 0 270 270"><rect width="268" height="268" x="1" y="1" fill="#F9F9F9" rx="7"/><rect width="269" height="269" x=".5" y=".5" stroke="#000" stroke-opacity=".058" rx="7.5"/><path fill="#000" fill-opacity=".896" d="M23.638 32H18.21v-9.803h1.627v8.422h3.801V32zm6.59 0H28.69v-1.053h-.028c-.237.406-.53.711-.881.916-.351.2-.755.301-1.21.301-.634 0-1.16-.187-1.58-.56-.419-.379-.628-.894-.628-1.545 0-.62.21-1.128.629-1.525.419-.4 1.04-.66 1.866-.78l1.839-.245v-.144c0-.474-.123-.818-.37-1.032-.246-.214-.578-.321-.998-.321-.332 0-.672.059-1.018.178a3.508 3.508 0 0 0-.998.553l-.69-.95c.428-.328.87-.57 1.325-.725a4.646 4.646 0 0 1 1.504-.232c.94 0 1.636.232 2.092.697.456.46.684 1.153.684 2.078V32zm-1.531-2.844v-.595l-1.497.199c-.442.064-.775.184-.998.362-.22.173-.329.428-.329.766 0 .341.105.608.315.8s.478.287.806.287c.515 0 .928-.171 1.238-.513.31-.346.465-.782.465-1.306zM38.26 25l-3.22 8.32c-.25.642-.592 1.132-1.025 1.47-.428.336-.941.505-1.538.505-.173 0-.337-.012-.492-.034a3.622 3.622 0 0 1-.445-.082l.28-1.238c.096.032.185.055.267.069.082.013.171.02.267.02.26 0 .48-.066.663-.198a1.35 1.35 0 0 0 .437-.588l.534-1.258L31.205 25h1.764l1.627 4.874c.023.077.048.178.075.3.027.12.057.258.09.418h.033a8.6 8.6 0 0 1 .069-.308c.027-.118.063-.25.109-.396L36.66 25h1.6zm4.06 7.164c-1.093 0-1.961-.326-2.604-.978-.638-.656-.957-1.533-.957-2.631.005-1.162.337-2.072.998-2.728.66-.66 1.561-.991 2.7-.991 1.099-.005 1.955.319 2.57.97.62.648.93 1.525.93 2.632 0 1.14-.328 2.047-.984 2.721-.652.67-1.536 1.005-2.652 1.005zm.076-1.265c.633 0 1.114-.207 1.442-.622.333-.414.5-1.014.5-1.798 0-.774-.167-1.364-.5-1.77s-.816-.608-1.449-.608c-.624 0-1.117.214-1.477.642-.355.429-.533 1.021-.533 1.778 0 .76.178 1.349.533 1.763.356.41.85.615 1.484.615zM53.689 32h-1.593v-1.087h-.027c-.246.415-.55.727-.91.937s-.774.314-1.244.314c-.82 0-1.437-.246-1.852-.738-.41-.497-.615-1.237-.615-2.222V25h1.579v4.02c0 .624.12 1.093.362 1.408.246.314.613.471 1.1.471.475 0 .86-.17 1.156-.512.3-.342.451-.798.451-1.367V25h1.593v7zm5.879-.096c-.205.087-.42.15-.643.192s-.462.061-.718.061c-.647 0-1.146-.17-1.497-.513-.346-.346-.52-.86-.52-1.544v-3.856h-1.175V25h1.176v-1.702l1.586-.479V25h1.675v1.244h-1.675v3.726c0 .342.061.588.184.738.128.15.324.226.588.226.128 0 .249-.014.362-.041.119-.032.224-.071.315-.117l.342 1.128zM18.21 106v-9.803h3.056c1.731 0 3.03.399 3.896 1.197.866.792 1.299 1.986 1.299 3.582 0 1.517-.479 2.734-1.436 3.65-.952.916-2.226 1.374-3.82 1.374H18.21zm1.627-8.422v7.041h1.299c1.135 0 2.02-.317 2.659-.95.638-.638.957-1.527.957-2.666 0-1.112-.305-1.96-.916-2.543-.606-.588-1.497-.882-2.673-.882h-1.326zm9.05.069a.995.995 0 0 1-.724-.28.927.927 0 0 1-.287-.691c0-.283.096-.515.287-.697s.433-.274.725-.274c.296 0 .54.091.731.274s.287.414.287.697c0 .278-.095.51-.287.697a1.018 1.018 0 0 1-.731.274zm.787 8.353H28.08v-7h1.593v7zm1.394-.561.69-1.121c.274.192.564.347.869.465.31.114.645.171 1.005.171.392 0 .695-.071.909-.212.219-.146.328-.362.328-.649a.707.707 0 0 0-.273-.568c-.178-.155-.483-.282-.916-.382-.875-.205-1.49-.477-1.846-.814-.35-.337-.526-.781-.526-1.333 0-.633.246-1.15.738-1.552.492-.405 1.137-.608 1.935-.608.396 0 .774.052 1.134.157.36.1.711.262 1.053.486l-.643 1.093a3.76 3.76 0 0 0-.827-.41 2.468 2.468 0 0 0-.772-.123c-.374 0-.666.071-.875.212a.652.652 0 0 0-.308.574c0 .26.105.454.315.581.214.123.572.244 1.073.363.756.182 1.31.446 1.661.793.35.341.526.799.526 1.374 0 .679-.248 1.221-.745 1.626-.492.402-1.16.602-2.003.602-.455 0-.893-.059-1.312-.178a4.654 4.654 0 0 1-1.19-.547zm8.34-.362h-.027v4.143h-1.593V99h1.593v1.148h.027c.27-.437.6-.765.991-.984.392-.219.841-.328 1.347-.328.902 0 1.604.312 2.106.936.505.625.758 1.466.758 2.523 0 1.171-.287 2.11-.861 2.816-.574.702-1.349 1.053-2.324 1.053-.438 0-.825-.089-1.162-.267a2.321 2.321 0 0 1-.855-.82zm-.048-2.844v.787c0 .537.162.986.486 1.346.323.356.736.533 1.237.533.597 0 1.062-.227 1.395-.683.332-.456.499-1.094.499-1.914 0-.707-.153-1.249-.458-1.627-.306-.383-.734-.574-1.286-.574-.56 0-1.014.2-1.36.601-.342.397-.513.907-.513 1.531zM46.224 106V95.637h1.592V106h-1.592zm9.01 0h-1.539v-1.053h-.027c-.237.406-.531.711-.882.916a2.39 2.39 0 0 1-1.21.301c-.633 0-1.16-.187-1.579-.56-.42-.379-.629-.894-.629-1.545 0-.62.21-1.128.63-1.525.418-.401 1.04-.661 1.865-.779l1.84-.246v-.144c0-.474-.124-.818-.37-1.032s-.579-.321-.998-.321c-.333 0-.672.059-1.019.177a3.539 3.539 0 0 0-.998.554l-.69-.95c.428-.328.87-.57 1.326-.725a4.646 4.646 0 0 1 1.504-.232c.939 0 1.636.232 2.092.697.456.46.683 1.153.683 2.078V106zm-1.532-2.844v-.594l-1.497.198c-.442.064-.775.184-.998.362-.219.173-.328.428-.328.766 0 .341.105.608.314.8.21.191.479.287.807.287.515 0 .927-.171 1.237-.513.31-.346.465-.782.465-1.306zM63.266 99l-3.22 8.319c-.25.643-.593 1.133-1.026 1.47-.428.337-.94.506-1.538.506-.173 0-.337-.011-.492-.034a3.674 3.674 0 0 1-.444-.082l.28-1.238c.096.032.185.055.267.069.082.013.17.02.266.02.26 0 .481-.066.663-.198s.329-.328.438-.588l.533-1.258L56.211 99h1.764l1.627 4.874c.022.077.047.178.075.301.027.118.057.257.089.417h.034c.018-.091.04-.194.068-.308.027-.118.064-.25.11-.396L61.665 99h1.6zm9.132 7.164c-1.399 0-2.527-.456-3.383-1.367-.857-.916-1.285-2.108-1.285-3.575 0-1.563.435-2.819 1.305-3.767.875-.948 2.049-1.422 3.52-1.422 1.377 0 2.487.458 3.33 1.374.843.912 1.264 2.11 1.264 3.596 0 1.572-.435 2.825-1.305 3.76-.866.934-2.015 1.401-3.446 1.401zm.02-1.422c.93 0 1.667-.317 2.209-.95s.813-1.518.813-2.652c0-1.167-.264-2.072-.793-2.714-.524-.643-1.244-.964-2.16-.964s-1.654.335-2.215 1.005c-.556.67-.834 1.552-.834 2.645 0 1.103.274 1.985.82 2.646.552.656 1.272.984 2.16.984zm7.965.335h-.028v4.143h-1.592V99h1.592v1.148h.028c.269-.437.6-.765.991-.984.392-.219.84-.328 1.347-.328.902 0 1.604.312 2.105.936.506.625.759 1.466.759 2.523 0 1.171-.287 2.11-.861 2.816-.575.702-1.35 1.053-2.325 1.053-.437 0-.825-.089-1.162-.267a2.321 2.321 0 0 1-.854-.82zm-.048-2.844v.787c0 .537.162.986.485 1.346.324.356.736.533 1.238.533.597 0 1.061-.227 1.394-.683.333-.456.5-1.094.5-1.914 0-.707-.154-1.249-.459-1.627-.305-.383-.734-.574-1.285-.574-.56 0-1.014.2-1.36.601-.342.397-.513.907-.513 1.531zm10.678 3.671c-.205.087-.42.151-.643.192s-.462.061-.717.061c-.648 0-1.147-.171-1.497-.512-.347-.347-.52-.862-.52-1.545v-3.856H86.46V99h1.176v-1.702l1.586-.479V99h1.675v1.244h-1.675v3.726c0 .342.061.588.184.738.128.15.324.226.588.226.128 0 .249-.014.363-.041.118-.032.223-.071.314-.117l.342 1.128zm2.05-8.257a.995.995 0 0 1-.724-.28.927.927 0 0 1-.287-.691c0-.283.096-.515.287-.697s.433-.274.725-.274c.296 0 .54.091.731.274s.287.414.287.697c0 .278-.095.51-.287.697a1.018 1.018 0 0 1-.731.274zM93.85 106h-1.593v-7h1.593v7zm5.181.164c-1.093 0-1.961-.326-2.604-.977-.638-.657-.957-1.534-.957-2.632.005-1.162.337-2.072.998-2.728.66-.66 1.56-.991 2.7-.991 1.098-.005 1.955.319 2.57.97.62.648.93 1.525.93 2.632 0 1.14-.328 2.047-.984 2.721-.652.67-1.536 1.005-2.653 1.005zm.076-1.265c.633 0 1.114-.207 1.442-.622.333-.414.5-1.014.5-1.798 0-.774-.167-1.364-.5-1.77s-.816-.608-1.45-.608c-.623 0-1.116.214-1.476.642-.355.429-.533 1.021-.533 1.778 0 .761.178 1.348.533 1.763.356.41.85.615 1.484.615zM110.53 106h-1.586v-3.944c0-.652-.118-1.14-.355-1.463-.237-.328-.593-.492-1.067-.492-.473 0-.865.18-1.175.54s-.465.815-.465 1.367V106h-1.593v-7h1.593v1.135h.027c.26-.433.579-.757.957-.97.378-.22.818-.33 1.32-.33.765 0 1.346.245 1.743.732.4.488.6 1.206.6 2.154V106zm1.258-.561.69-1.121c.274.192.563.347.869.465.31.114.645.171 1.005.171.392 0 .695-.071.909-.212.219-.146.328-.362.328-.649a.706.706 0 0 0-.274-.568c-.177-.155-.483-.282-.916-.382-.875-.205-1.49-.477-1.845-.814-.351-.337-.527-.781-.527-1.333 0-.633.246-1.15.739-1.552.492-.405 1.137-.608 1.934-.608.397 0 .775.052 1.135.157.36.1.71.262 1.053.486l-.643 1.093c-.301-.191-.576-.328-.827-.41s-.508-.123-.772-.123c-.374 0-.666.071-.875.212a.65.65 0 0 0-.308.574c0 .26.105.454.314.581.215.123.572.244 1.074.363.756.182 1.31.446 1.66.793.352.341.527.799.527 1.374 0 .679-.248 1.221-.745 1.626-.492.402-1.16.602-2.003.602-.456 0-.893-.059-1.312-.178a4.65 4.65 0 0 1-1.19-.547zM17.438 136.25l.56-.861c.402.259.803.449 1.204.567.4.119.868.178 1.401.178.597 0 1.087-.139 1.47-.417.387-.283.58-.693.58-1.231 0-.478-.163-.861-.491-1.148-.324-.287-.857-.565-1.6-.834-.92-.333-1.604-.706-2.05-1.121-.443-.419-.664-.971-.664-1.654 0-.803.287-1.452.861-1.949.58-.496 1.338-.745 2.277-.745.437 0 .866.048 1.285.144.42.091.852.241 1.299.451l-.43.923a5.265 5.265 0 0 0-1.095-.376 5.26 5.26 0 0 0-1.141-.116c-.588 0-1.053.139-1.395.417-.342.273-.512.654-.512 1.141 0 .429.157.77.471 1.026.315.255.839.515 1.572.779.985.355 1.691.752 2.12 1.189.428.438.642 1.028.642 1.771 0 .793-.287 1.456-.861 1.989-.574.529-1.38.793-2.42.793-.583 0-1.121-.073-1.613-.219s-.982-.378-1.47-.697zm13.945.752h-1.121v-4.033c0-.729-.137-1.276-.41-1.641-.27-.364-.675-.547-1.217-.547-.547 0-1.007.212-1.38.636-.375.419-.561.959-.561 1.62v3.965h-1.121v-10.363h1.12v4.525h.028c.269-.442.595-.772.977-.991a2.573 2.573 0 0 1 1.32-.335c.788 0 1.378.237 1.77.711.397.474.595 1.187.595 2.14v4.313zm5.045.164c-1.035 0-1.862-.326-2.481-.977-.616-.657-.923-1.525-.923-2.605 0-1.171.319-2.087.957-2.748.638-.661 1.508-.994 2.611-.998 1.044-.005 1.857.317 2.44.964.588.647.882 1.538.882 2.673 0 1.121-.317 2.016-.95 2.686-.629.67-1.474 1.005-2.536 1.005zm.082-.943c.725 0 1.28-.235 1.668-.704.392-.474.588-1.142.588-2.003 0-.88-.196-1.554-.588-2.024-.392-.474-.948-.711-1.668-.711s-1.29.246-1.709.739c-.42.492-.629 1.166-.629 2.023 0 .829.212 1.483.636 1.962.424.478.991.718 1.702.718zm14.014-6.221-2.099 7h-1.162l-1.449-5.024a2.803 2.803 0 0 1-.075-.322c-.01-.091-.018-.196-.027-.314h-.028c-.009.118-.025.221-.048.307a8.026 8.026 0 0 1-.095.329l-1.566 5.024h-1.12l-2.12-7h1.176l1.449 5.264c.023.077.041.168.055.273.018.105.032.223.04.356h.055a3.79 3.79 0 0 1 .041-.308c.019-.109.046-.221.082-.335l1.614-5.25h1.025l1.45 5.277c.022.087.04.183.054.287.018.101.034.215.048.342h.054c.005-.091.016-.189.035-.294.022-.105.05-.216.082-.335l1.422-5.277h1.107zm10.951 7h-1.121v-4.033c0-.729-.137-1.276-.41-1.641-.27-.364-.675-.547-1.217-.547-.547 0-1.007.212-1.38.636-.375.419-.561.959-.561 1.62v3.965h-1.121v-10.363h1.12v4.525h.028c.269-.442.595-.772.977-.991a2.573 2.573 0 0 1 1.32-.335c.788 0 1.378.237 1.77.711.397.474.595 1.187.595 2.14v4.313zm2.693-8.675a.793.793 0 0 1-.574-.225.772.772 0 0 1-.232-.568c0-.223.077-.41.232-.56a.78.78 0 0 1 .574-.233.78.78 0 0 1 .575.233c.155.15.232.337.232.56a.772.772 0 0 1-.232.568.794.794 0 0 1-.575.225zm.547 8.675h-1.12v-7h1.12v7zm7.096-1.189c-.26.451-.59.79-.991 1.018-.397.223-.868.335-1.415.335-.88 0-1.584-.312-2.113-.936-.524-.629-.786-1.484-.786-2.564 0-1.157.292-2.085.875-2.782.584-.697 1.36-1.046 2.331-1.046.483 0 .898.096 1.244.287.351.187.636.469.855.848h.027v-4.334h1.121v10.363h-1.12v-1.189h-.028zm-4.156-2.202c0 .807.187 1.445.56 1.914.379.465.884.698 1.518.698.629 0 1.137-.226 1.524-.677.388-.451.581-1.021.581-1.709v-1.032a1.99 1.99 0 0 0-.567-1.436c-.374-.392-.845-.588-1.415-.588-.684 0-1.221.251-1.613.752-.392.502-.588 1.194-.588 2.078zm12.4 2.202c-.26.451-.59.79-.991 1.018-.397.223-.869.335-1.416.335-.88 0-1.583-.312-2.112-.936-.524-.629-.786-1.484-.786-2.564 0-1.157.292-2.085.875-2.782s1.36-1.046 2.331-1.046c.483 0 .898.096 1.244.287.351.187.636.469.855.848h.027v-4.334h1.121v10.363h-1.121v-1.189h-.027zm-4.157-2.202c0 .807.187 1.445.561 1.914.378.465.884.698 1.518.698.629 0 1.137-.226 1.524-.677.387-.451.581-1.021.581-1.709v-1.032a1.99 1.99 0 0 0-.567-1.436c-.374-.392-.846-.588-1.415-.588-.684 0-1.222.251-1.614.752-.392.502-.588 1.194-.588 2.078zm13.2.144H84.15c.018.788.226 1.397.622 1.825.401.424.962.636 1.682.636.314 0 .629-.046.943-.137a3.58 3.58 0 0 0 .944-.451l.52.8a4.667 4.667 0 0 1-1.19.56 4.527 4.527 0 0 1-1.306.178c-1.057 0-1.882-.314-2.475-.943-.592-.629-.89-1.506-.895-2.632-.005-1.126.292-2.033.889-2.721.601-.688 1.38-1.032 2.338-1.032.911 0 1.617.298 2.119.895.506.593.758 1.415.758 2.468v.554zm-1.148-.916c-.005-.647-.162-1.151-.472-1.511-.31-.364-.736-.547-1.278-.547-.533 0-.987.187-1.36.561-.37.369-.595.868-.677 1.497h3.787zm8.661 4.163H95.49v-3.992c0-.743-.137-1.299-.41-1.668-.269-.374-.675-.561-1.217-.561a1.77 1.77 0 0 0-1.394.636c-.365.419-.547.95-.547 1.593v3.992H90.8v-7h1.12v1.162h.028c.264-.442.588-.772.97-.991.384-.223.826-.335 1.327-.335.766 0 1.351.248 1.757.745.405.492.608 1.205.608 2.14v4.279zm6.535-8.675a.795.795 0 0 1-.574-.225.772.772 0 0 1-.232-.568c0-.223.077-.41.232-.56a.781.781 0 0 1 .574-.233c.228 0 .42.078.575.233.155.15.232.337.232.56a.772.772 0 0 1-.232.568.795.795 0 0 1-.575.225zm.547 8.675h-1.121v-7h1.12v7zm5.606-.082a3.188 3.188 0 0 1-1.19.232c-.556 0-.993-.161-1.312-.485-.315-.328-.472-.811-.472-1.449v-4.259h-1.203v-.957h1.203v-1.709l1.12-.362v2.071h1.765v.957h-1.764v4.129c0 .401.07.69.212.868.146.178.363.267.65.267a1.727 1.727 0 0 0 .717-.158l.274.855zm7.034-3.165h-4.95c.019.788.226 1.397.623 1.825.4.424.96.636 1.682.636.314 0 .628-.046.943-.137a3.58 3.58 0 0 0 .943-.451l.52.8a4.67 4.67 0 0 1-1.19.56 4.52 4.52 0 0 1-1.305.178c-1.058 0-1.883-.314-2.475-.943s-.891-1.506-.895-2.632c-.005-1.126.29-2.033.888-2.721.602-.688 1.38-1.032 2.338-1.032.912 0 1.618.298 2.119.895.506.593.759 1.415.759 2.468v.554zm-1.148-.916c-.005-.647-.162-1.151-.472-1.511-.31-.364-.736-.547-1.278-.547-.534 0-.987.187-1.361.561-.37.369-.595.868-.677 1.497h3.788zm12.79 4.163h-1.121v-4.02c0-.774-.121-1.335-.363-1.681-.237-.347-.638-.52-1.203-.52-.478 0-.886.219-1.224.657-.332.437-.5.961-.5 1.572v3.992h-1.12v-4.156c0-.688-.132-1.203-.396-1.545-.264-.347-.663-.52-1.196-.52-.493 0-.898.208-1.217.622-.32.411-.48.946-.48 1.607v3.992h-1.12v-7h1.12v1.107h.029c.25-.423.556-.74.916-.95a2.434 2.434 0 0 1 1.257-.321c.479 0 .896.134 1.25.403.357.265.6.613.733 1.046.26-.483.583-.845.97-1.087.388-.241.839-.362 1.354-.362.77 0 1.347.237 1.73.711.387.474.58 1.187.58 2.14v4.313zm1.463-.526.533-.862c.305.201.604.353.895.458.292.101.606.151.944.151.478 0 .84-.089 1.086-.267.25-.178.376-.444.376-.8a.926.926 0 0 0-.334-.724c-.22-.201-.563-.36-1.033-.479-.875-.223-1.474-.503-1.798-.841a1.76 1.76 0 0 1-.485-1.257c0-.575.217-1.053.649-1.436.433-.387 1.037-.581 1.812-.581.374 0 .729.048 1.066.143.338.096.682.26 1.033.493l-.5.847a3.717 3.717 0 0 0-.861-.417 2.444 2.444 0 0 0-.765-.123c-.452 0-.796.085-1.033.253-.237.164-.355.404-.355.718s.12.551.362.711c.246.159.64.31 1.183.451.71.192 1.242.46 1.593.807.355.342.533.79.533 1.346 0 .648-.23 1.16-.691 1.539-.455.373-1.082.56-1.88.56-.428 0-.84-.059-1.237-.178a4.123 4.123 0 0 1-1.093-.512zM17.438 204.25l.56-.861c.402.259.803.449 1.204.567.4.119.868.178 1.401.178.597 0 1.087-.139 1.47-.417.387-.283.58-.693.58-1.231 0-.478-.163-.861-.491-1.148-.324-.287-.857-.565-1.6-.834-.92-.333-1.604-.706-2.05-1.121-.443-.419-.664-.971-.664-1.654 0-.803.287-1.452.861-1.949.58-.496 1.338-.745 2.277-.745.437 0 .866.048 1.285.144.42.091.852.241 1.299.451l-.43.923a5.265 5.265 0 0 0-1.095-.376 5.26 5.26 0 0 0-1.141-.116c-.588 0-1.053.139-1.395.417-.342.273-.512.654-.512 1.141 0 .429.157.77.471 1.026.315.255.839.515 1.572.779.985.355 1.691.752 2.12 1.189.428.438.642 1.028.642 1.771 0 .793-.287 1.456-.861 1.989-.574.529-1.38.793-2.42.793-.583 0-1.121-.073-1.613-.219s-.982-.378-1.47-.697zm13.945.752h-1.121v-4.033c0-.729-.137-1.276-.41-1.641-.27-.364-.675-.547-1.217-.547-.547 0-1.007.212-1.38.636-.375.419-.561.959-.561 1.62v3.965h-1.121v-10.363h1.12v4.525h.028c.269-.442.595-.772.977-.991a2.573 2.573 0 0 1 1.32-.335c.788 0 1.378.237 1.77.711.397.474.595 1.187.595 2.14v4.313zm5.045.164c-1.035 0-1.862-.326-2.481-.977-.616-.657-.923-1.525-.923-2.605 0-1.171.319-2.087.957-2.748.638-.661 1.508-.994 2.611-.998 1.044-.005 1.857.317 2.44.964.588.647.882 1.538.882 2.673 0 1.121-.317 2.016-.95 2.686-.629.67-1.474 1.005-2.536 1.005zm.082-.943c.725 0 1.28-.235 1.668-.704.392-.474.588-1.142.588-2.003 0-.88-.196-1.554-.588-2.024-.392-.474-.948-.711-1.668-.711s-1.29.246-1.709.739c-.42.492-.629 1.166-.629 2.023 0 .829.212 1.483.636 1.962.424.478.991.718 1.702.718zm14.014-6.221-2.099 7h-1.162l-1.449-5.024a2.803 2.803 0 0 1-.075-.322c-.01-.091-.018-.196-.027-.314h-.028c-.009.118-.025.221-.048.307a8.026 8.026 0 0 1-.095.329l-1.566 5.024h-1.12l-2.12-7h1.176l1.449 5.264c.023.077.041.168.055.273.018.105.032.223.04.356h.055a3.79 3.79 0 0 1 .041-.308c.019-.109.046-.221.082-.335l1.614-5.25h1.025l1.45 5.277c.022.087.04.183.054.287.018.101.034.215.048.342h.054c.005-.091.016-.189.035-.294.022-.105.05-.216.082-.335l1.422-5.277h1.107zm8.483-2.447a2.587 2.587 0 0 0-.348-.089 1.819 1.819 0 0 0-.321-.027c-.383 0-.668.102-.855.307-.187.205-.28.506-.28.902v1.354h1.64v.957h-1.64v6.043h-1.114v-6.043h-1.197v-.957h1.197v-1.408c0-.661.202-1.176.608-1.545.406-.374.962-.561 1.668-.561a2.833 2.833 0 0 1 .91.151l-.268.916zm1.62.772a.794.794 0 0 1-.574-.225.772.772 0 0 1-.232-.568c0-.223.077-.41.232-.56a.78.78 0 0 1 .575-.233.78.78 0 0 1 .574.233c.155.15.232.337.232.56a.772.772 0 0 1-.232.568.794.794 0 0 1-.574.225zm.547 8.675h-1.12v-7h1.12v7zm2.27 0v-10.363h1.121v10.363h-1.121zm9.017-3.247h-4.95c.019.788.226 1.397.622 1.825.402.424.962.636 1.682.636.315 0 .629-.046.943-.137a3.58 3.58 0 0 0 .944-.451l.52.8a4.667 4.667 0 0 1-1.19.56 4.527 4.527 0 0 1-1.306.178c-1.057 0-1.882-.314-2.474-.943-.593-.629-.891-1.506-.896-2.632-.004-1.126.292-2.033.889-2.721.601-.688 1.38-1.032 2.338-1.032.911 0 1.618.298 2.119.895.506.593.759 1.415.759 2.468v.554zm-1.149-.916c-.004-.647-.162-1.151-.472-1.511-.31-.364-.736-.547-1.278-.547-.533 0-.986.187-1.36.561-.37.369-.595.868-.677 1.497h3.787zm12.318.916h-4.95c.02.788.226 1.397.623 1.825.401.424.961.636 1.682.636.314 0 .629-.046.943-.137a3.58 3.58 0 0 0 .943-.451l.52.8a4.666 4.666 0 0 1-1.19.56 4.528 4.528 0 0 1-1.305.178c-1.058 0-1.883-.314-2.475-.943s-.89-1.506-.895-2.632c-.005-1.126.291-2.033.888-2.721.602-.688 1.381-1.032 2.338-1.032.912 0 1.618.298 2.12.895.505.593.758 1.415.758 2.468v.554zm-1.148-.916c-.005-.647-.162-1.151-.472-1.511-.31-.364-.736-.547-1.278-.547-.534 0-.987.187-1.36.561-.37.369-.595.868-.677 1.497h3.787zm7.964-2.837-2.352 3.541 2.31 3.459H89.1l-1.374-2.27a9.814 9.814 0 0 1-.308-.533h-.027a2.908 2.908 0 0 0-.103.164c-.05.091-.123.215-.218.369l-1.402 2.27h-1.292l2.386-3.432-2.283-3.568h1.305l1.354 2.393c.05.091.098.182.143.273l.15.273h.028l.164-.273.164-.273 1.422-2.393h1.238zm4.648 6.918a3.174 3.174 0 0 1-1.19.232c-.556 0-.993-.161-1.312-.485-.315-.328-.472-.811-.472-1.449v-4.259h-1.203v-.957h1.203v-1.709l1.121-.362v2.071h1.764v.957h-1.764v4.129c0 .401.071.69.212.868.146.178.363.267.65.267a1.773 1.773 0 0 0 .718-.158l.273.855zm7.034-3.165h-4.95c.02.788.227 1.397.623 1.825.401.424.962.636 1.682.636.314 0 .628-.046.943-.137a3.58 3.58 0 0 0 .943-.451l.52.8a4.67 4.67 0 0 1-1.19.56 4.524 4.524 0 0 1-1.305.178c-1.058 0-1.882-.314-2.475-.943-.592-.629-.89-1.506-.895-2.632-.005-1.126.291-2.033.888-2.721.602-.688 1.381-1.032 2.338-1.032.911 0 1.618.298 2.12.895.505.593.758 1.415.758 2.468v.554zm-1.149-.916c-.004-.647-.16-1.151-.47-1.511-.31-.364-.737-.547-1.28-.547-.533 0-.986.187-1.36.561-.369.369-.594.868-.676 1.497h3.786zm8.662 4.163h-1.12v-3.992c0-.743-.138-1.299-.412-1.668-.269-.374-.674-.561-1.216-.561a1.77 1.77 0 0 0-1.395.636c-.365.419-.547.95-.547 1.593v3.992h-1.12v-7h1.12v1.162h.028c.264-.442.587-.772.97-.991.383-.223.825-.335 1.326-.335.766 0 1.352.248 1.757.745.406.492.61 1.205.61 2.14v4.279zm1.463-.526.533-.862c.305.201.604.353.895.458.292.101.606.151.944.151.478 0 .84-.089 1.086-.267.251-.178.376-.444.376-.8a.926.926 0 0 0-.334-.724c-.219-.201-.563-.36-1.033-.479-.875-.223-1.474-.503-1.798-.841a1.76 1.76 0 0 1-.485-1.257c0-.575.217-1.053.65-1.436.432-.387 1.036-.581 1.811-.581.374 0 .73.048 1.066.143.338.096.682.26 1.033.493l-.499.847a3.698 3.698 0 0 0-.862-.417 2.444 2.444 0 0 0-.765-.123c-.45 0-.796.085-1.033.253-.237.164-.355.404-.355.718s.121.551.362.711c.246.159.641.31 1.183.451.711.192 1.242.46 1.593.807.355.342.533.79.533 1.346 0 .648-.23 1.16-.69 1.539-.456.373-1.083.56-1.88.56-.429 0-.84-.059-1.238-.178a4.123 4.123 0 0 1-1.093-.512zm7.177-8.149a.793.793 0 0 1-.574-.225.772.772 0 0 1-.232-.568c0-.223.077-.41.232-.56.155-.155.346-.233.574-.233s.42.078.574.233c.155.15.233.337.233.56a.773.773 0 0 1-.233.568.791.791 0 0 1-.574.225zm.547 8.675h-1.12v-7h1.12v7zm5.195.164c-1.034 0-1.86-.326-2.48-.977-.616-.657-.924-1.525-.924-2.605 0-1.171.32-2.087.957-2.748s1.51-.994 2.612-.998c1.043-.005 1.857.317 2.44.964.588.647.882 1.538.882 2.673 0 1.121-.317 2.016-.95 2.686-.629.67-1.475 1.005-2.537 1.005zm.082-.943c.725 0 1.281-.235 1.668-.704.392-.474.588-1.142.588-2.003 0-.88-.196-1.554-.588-2.024-.39-.474-.947-.711-1.668-.711-.72 0-1.289.246-1.709.739-.419.492-.628 1.166-.628 2.023 0 .829.211 1.483.635 1.962.424.478.992.718 1.702.718zm11.006.779h-1.12v-3.992c0-.743-.137-1.299-.41-1.668-.27-.374-.675-.561-1.218-.561a1.77 1.77 0 0 0-1.394.636c-.365.419-.547.95-.547 1.593v3.992h-1.12v-7h1.12v1.162h.027c.265-.442.588-.772.971-.991.383-.223.825-.335 1.326-.335.766 0 1.351.248 1.757.745.406.492.608 1.205.608 2.14v4.279zm1.463-.526.533-.862c.306.201.604.353.896.458.292.101.606.151.943.151.48 0 .841-.089 1.087-.267.251-.178.376-.444.376-.8a.924.924 0 0 0-.335-.724c-.219-.201-.563-.36-1.032-.479-.875-.223-1.474-.503-1.798-.841a1.76 1.76 0 0 1-.485-1.257c0-.575.216-1.053.65-1.436.432-.387 1.036-.581 1.811-.581.373 0 .73.048 1.066.143.337.096.681.26 1.032.493l-.499.847a3.712 3.712 0 0 0-.86-.417 2.45 2.45 0 0 0-.767-.123c-.45 0-.795.085-1.032.253-.237.164-.355.404-.355.718s.12.551.362.711c.246.159.64.31 1.183.451.711.192 1.241.46 1.592.807.356.342.534.79.534 1.346 0 .648-.23 1.16-.69 1.539-.457.373-1.083.56-1.88.56-.429 0-.842-.059-1.238-.178a4.13 4.13 0 0 1-1.094-.512z"/><rect width="38" height="18" x="18" y="156" fill="#000" fill-opacity=".024" rx="9"/><rect width="39" height="19" x="17.5" y="155.5" stroke="#000" stroke-opacity=".446" rx="9.5"/><rect width="12" height="12" x="21" y="159" fill="#000" fill-opacity=".606" rx="6"/><path fill="#000" fill-opacity=".896" d="M74.236 170.16c-1.39 0-2.504-.458-3.343-1.374-.834-.916-1.25-2.108-1.25-3.575 0-1.577.425-2.835 1.278-3.774.852-.938 2.012-1.408 3.48-1.408 1.353 0 2.442.456 3.267 1.367.83.912 1.244 2.104 1.244 3.576 0 1.599-.424 2.864-1.272 3.794-.847.929-1.982 1.394-3.404 1.394zm0-1.032c1.075 0 1.923-.351 2.543-1.053s.93-1.684.93-2.946c0-1.294-.301-2.295-.903-3.001-.601-.707-1.43-1.06-2.488-1.06-1.03 0-1.866.372-2.509 1.115-.642.742-.964 1.718-.964 2.925 0 1.208.313 2.181.937 2.919.629.734 1.447 1.101 2.454 1.101zm9.796-8.579a2.587 2.587 0 0 0-.349-.089 1.819 1.819 0 0 0-.321-.027c-.383 0-.668.102-.854.307-.187.205-.28.506-.28.902v1.354h1.64v.957h-1.64v6.043h-1.115v-6.043h-1.196v-.957h1.196v-1.408c0-.661.203-1.176.608-1.545.406-.374.962-.561 1.668-.561a2.833 2.833 0 0 1 .91.151l-.267.916zm4.389 0a2.587 2.587 0 0 0-.349-.089 1.819 1.819 0 0 0-.321-.027c-.383 0-.668.102-.855.307-.187.205-.28.506-.28.902v1.354h1.64v.957h-1.64v6.043h-1.114v-6.043h-1.197v-.957h1.197v-1.408c0-.661.203-1.176.608-1.545.406-.374.962-.561 1.668-.561a2.833 2.833 0 0 1 .91.151l-.267.916z"/><rect width="39" height="19" x="17.5" y="222.5" fill="#005FB8" stroke="#005FB8" rx="9.5"/><rect width="13" height="13" x="40.5" y="225.5" fill="#fff" stroke="url(#a)" rx="6.5"/><path fill="#000" fill-opacity=".896" d="M74.236 237.16c-1.39 0-2.504-.458-3.343-1.374-.834-.916-1.25-2.108-1.25-3.575 0-1.577.425-2.835 1.278-3.774.852-.938 2.012-1.408 3.48-1.408 1.353 0 2.442.456 3.267 1.367.83.912 1.244 2.104 1.244 3.576 0 1.599-.424 2.864-1.272 3.794-.847.929-1.982 1.394-3.404 1.394zm0-1.032c1.075 0 1.923-.351 2.543-1.053s.93-1.684.93-2.946c0-1.294-.301-2.295-.903-3.001-.601-.707-1.43-1.06-2.488-1.06-1.03 0-1.866.372-2.509 1.115-.642.742-.964 1.718-.964 2.925 0 1.208.313 2.181.937 2.919.629.734 1.447 1.101 2.454 1.101zm12.264.868h-1.121v-3.992c0-.743-.137-1.299-.41-1.668-.27-.374-.675-.561-1.217-.561a1.77 1.77 0 0 0-1.395.636c-.364.419-.547.95-.547 1.593v3.992h-1.12v-7h1.12v1.162h.028c.264-.442.588-.772.97-.991.383-.223.825-.335 1.327-.335.765 0 1.351.248 1.757.745.405.492.608 1.205.608 2.14v4.279z"/><rect width="36" height="32" x="17" y="47" fill="#005FB8" rx="4"/><path fill="#fff" d="M29 60c-.14 0-.273-.026-.398-.078a1.001 1.001 0 0 1-.524-.524A1.025 1.025 0 0 1 28 59v-2a.969.969 0 0 1 .29-.703A.971.971 0 0 1 29 56h2a.95.95 0 0 1 .383.078.922.922 0 0 1 .32.219.922.922 0 0 1 .219.32A.95.95 0 0 1 32 57v2c0 .14-.026.27-.078.39a1.026 1.026 0 0 1-.531.532A.969.969 0 0 1 31 60h-2zm0-3v2h2v-2h-2zm4.5 1a.48.48 0 0 1-.352-.148A.48.48 0 0 1 33 57.5a.48.48 0 0 1 .148-.352A.48.48 0 0 1 33.5 57h8a.48.48 0 0 1 .352.148c.099.1.148.217.148.352s-.05.253-.148.352A.48.48 0 0 1 41.5 58h-8zM29 65c-.14 0-.273-.026-.398-.078a1.001 1.001 0 0 1-.524-.524A1.025 1.025 0 0 1 28 64v-2a.969.969 0 0 1 .29-.703A.971.971 0 0 1 29 61h2a.95.95 0 0 1 .383.078.922.922 0 0 1 .32.219.922.922 0 0 1 .219.32A.95.95 0 0 1 32 62v2c0 .14-.026.27-.078.39a1.026 1.026 0 0 1-.531.532A.969.969 0 0 1 31 65h-2zm0-3v2h2v-2h-2zm4.5 1a.48.48 0 0 1-.352-.148A.48.48 0 0 1 33 62.5a.48.48 0 0 1 .148-.352A.48.48 0 0 1 33.5 62h8a.48.48 0 0 1 .352.148c.099.1.148.217.148.352s-.05.253-.148.352A.48.48 0 0 1 41.5 63h-8zM29 70c-.14 0-.273-.026-.398-.078a1.001 1.001 0 0 1-.524-.524A1.025 1.025 0 0 1 28 69v-2a.969.969 0 0 1 .29-.703A.971.971 0 0 1 29 66h2a.95.95 0 0 1 .383.078.922.922 0 0 1 .32.219.922.922 0 0 1 .219.32A.95.95 0 0 1 32 67v2c0 .14-.026.27-.078.39a1.026 1.026 0 0 1-.531.532A.969.969 0 0 1 31 70h-2zm0-3v2h2v-2h-2zm4.5 1a.48.48 0 0 1-.352-.148A.48.48 0 0 1 33 67.5a.48.48 0 0 1 .148-.352A.48.48 0 0 1 33.5 67h8a.48.48 0 0 1 .352.148c.099.1.148.217.148.352s-.05.253-.148.352A.48.48 0 0 1 41.5 68h-8z"/><rect width="36" height="32" x="57" y="47" fill="#000" fill-opacity=".092" rx="4"/><path fill="#000" fill-opacity=".896" d="M67 57.5a.969.969 0 0 1 .29-.703.971.971 0 0 1 .71-.297.95.95 0 0 1 .383.078.922.922 0 0 1 .32.219.922.922 0 0 1 .219.32.95.95 0 0 1 .078.383c0 .14-.026.27-.078.39a1.026 1.026 0 0 1-.531.532c-.12.052-.25.078-.391.078s-.273-.026-.398-.078a1.001 1.001 0 0 1-.524-.524A1.025 1.025 0 0 1 67 57.5zm4.5.5a.48.48 0 0 1-.352-.148A.48.48 0 0 1 71 57.5a.48.48 0 0 1 .148-.352A.48.48 0 0 1 71.5 57h11a.48.48 0 0 1 .352.148c.099.1.148.217.148.352s-.05.253-.148.352A.48.48 0 0 1 82.5 58h-11zm0 3a.48.48 0 0 1-.352-.148A.48.48 0 0 1 71 60.5a.48.48 0 0 1 .148-.352A.48.48 0 0 1 71.5 60h11a.48.48 0 0 1 .352.148c.099.1.148.217.148.352s-.05.253-.148.352A.48.48 0 0 1 82.5 61h-11zM67 65.5a.969.969 0 0 1 .29-.703.971.971 0 0 1 .71-.297.95.95 0 0 1 .383.078.922.922 0 0 1 .32.219.922.922 0 0 1 .219.32.95.95 0 0 1 .078.383c0 .14-.026.27-.078.39a1.026 1.026 0 0 1-.531.532c-.12.052-.25.078-.391.078s-.273-.026-.398-.078a1.001 1.001 0 0 1-.524-.524A1.025 1.025 0 0 1 67 65.5zm4.5.5a.48.48 0 0 1-.352-.148A.48.48 0 0 1 71 65.5a.48.48 0 0 1 .148-.352A.48.48 0 0 1 71.5 65h11a.48.48 0 0 1 .352.148c.099.1.148.217.148.352s-.05.253-.148.352A.48.48 0 0 1 82.5 66h-11zm0 3a.48.48 0 0 1-.352-.148A.48.48 0 0 1 71 68.5a.48.48 0 0 1 .148-.352A.48.48 0 0 1 71.5 68h11a.48.48 0 0 1 .352.148c.099.1.148.217.148.352s-.05.253-.148.352A.48.48 0 0 1 82.5 69h-11z"/><rect width="36" height="32" x="97" y="47" fill="#000" fill-opacity=".092" rx="4"/><path fill="#000" fill-opacity=".896" d="M120.5 56a1.451 1.451 0 0 1 1.055.445A1.451 1.451 0 0 1 122 57.5v11c0 .203-.039.396-.117.578s-.188.344-.328.485c-.136.135-.295.242-.477.32s-.375.117-.578.117h-11c-.203 0-.396-.04-.578-.117s-.344-.185-.484-.32c-.136-.141-.243-.303-.321-.485S108 68.703 108 68.5v-11a1.498 1.498 0 0 1 .438-1.055c.14-.14.302-.25.484-.328s.375-.117.578-.117h11zm-11 1a.482.482 0 0 0-.352.148.48.48 0 0 0-.148.352V60h3v-3h-2.5zm3.5 0v3h4v-3h-4zm8 .5a.48.48 0 0 0-.148-.352.482.482 0 0 0-.352-.148H118v3h3v-2.5zm-9 3.5h-3v4h3v-4zm1 0v4h4v-4h-4zm8 0h-3v4h3v-4zm-12 7.5a.48.48 0 0 0 .148.352.482.482 0 0 0 .352.148h2.5v-3h-3v2.5zm8 .5v-3h-4v3h4zm3.5 0c.135 0 .253-.05.352-.148A.48.48 0 0 0 121 68.5V66h-3v3h2.5z"/><rect width="36" height="32" x="137" y="47" fill="#000" fill-opacity=".092" rx="4"/><path fill="#000" fill-opacity=".896" d="M149.5 62c-.203 0-.396-.04-.578-.117s-.344-.185-.484-.32c-.136-.141-.243-.303-.321-.485S148 60.703 148 60.5v-3a1.498 1.498 0 0 1 .438-1.055c.14-.14.302-.25.484-.328s.375-.117.578-.117h3a1.451 1.451 0 0 1 1.055.445A1.451 1.451 0 0 1 154 57.5v3c0 .203-.039.396-.117.578s-.188.344-.328.484c-.136.136-.295.243-.477.32s-.375.118-.578.118h-3zm8 0c-.203 0-.396-.04-.578-.117s-.344-.185-.484-.32c-.136-.141-.243-.303-.321-.485S156 60.703 156 60.5v-3a1.498 1.498 0 0 1 .438-1.055c.14-.14.302-.25.484-.328s.375-.117.578-.117h3a1.451 1.451 0 0 1 1.055.445A1.451 1.451 0 0 1 162 57.5v3c0 .203-.039.396-.117.578s-.188.344-.328.484c-.136.136-.295.243-.477.32s-.375.118-.578.118h-3zm-5-1c.135 0 .253-.05.352-.148A.48.48 0 0 0 153 60.5v-3a.48.48 0 0 0-.148-.352.482.482 0 0 0-.352-.148h-3a.482.482 0 0 0-.352.148.48.48 0 0 0-.148.352v3a.48.48 0 0 0 .148.352.482.482 0 0 0 .352.148h3zm8 0c.135 0 .253-.05.352-.148A.48.48 0 0 0 161 60.5v-3a.48.48 0 0 0-.148-.352.482.482 0 0 0-.352-.148h-3a.482.482 0 0 0-.352.148.48.48 0 0 0-.148.352v3a.48.48 0 0 0 .148.352.482.482 0 0 0 .352.148h3zm-11 9c-.203 0-.396-.04-.578-.117s-.344-.185-.484-.32c-.136-.141-.243-.303-.321-.485S148 68.703 148 68.5v-3a1.498 1.498 0 0 1 .438-1.055c.14-.14.302-.25.484-.328s.375-.117.578-.117h3a1.451 1.451 0 0 1 1.055.445A1.451 1.451 0 0 1 154 65.5v3c0 .203-.039.396-.117.578s-.188.344-.328.485c-.136.135-.295.242-.477.32s-.375.117-.578.117h-3zm8 0c-.203 0-.396-.04-.578-.117s-.344-.185-.484-.32c-.136-.141-.243-.303-.321-.485S156 68.703 156 68.5v-3a1.498 1.498 0 0 1 .438-1.055c.14-.14.302-.25.484-.328s.375-.117.578-.117h3a1.451 1.451 0 0 1 1.055.445A1.451 1.451 0 0 1 162 65.5v3c0 .203-.039.396-.117.578s-.188.344-.328.485c-.136.135-.295.242-.477.32s-.375.117-.578.117h-3zm-5-1c.135 0 .253-.05.352-.148A.48.48 0 0 0 153 68.5v-3a.48.48 0 0 0-.148-.352.482.482 0 0 0-.352-.148h-3a.482.482 0 0 0-.352.148.48.48 0 0 0-.148.352v3a.48.48 0 0 0 .148.352.482.482 0 0 0 .352.148h3zm8 0c.135 0 .253-.05.352-.148A.48.48 0 0 0 161 68.5v-3a.48.48 0 0 0-.148-.352.482.482 0 0 0-.352-.148h-3a.482.482 0 0 0-.352.148.48.48 0 0 0-.148.352v3a.48.48 0 0 0 .148.352.482.482 0 0 0 .352.148h3z"/><rect width="36" height="32" x="177" y="47" fill="#000" fill-opacity=".092" rx="4"/><path fill="#000" fill-opacity=".896" d="M188.96 71c-.26 0-.51-.052-.75-.156a2.268 2.268 0 0 1-.625-.43 2.282 2.282 0 0 1-.43-.625 1.864 1.864 0 0 1-.156-.75V56.961c0-.26.052-.508.156-.742.11-.24.253-.448.43-.625a2.06 2.06 0 0 1 .625-.43c.24-.11.49-.164.75-.164h12.078c.26 0 .508.055.742.164.24.104.448.248.625.43.183.177.326.385.43.625.109.234.164.482.164.742V69.04c0 .26-.055.51-.164.75a2.047 2.047 0 0 1-.43.625c-.177.177-.385.32-.625.43a1.808 1.808 0 0 1-.742.156H188.96zm12.039-1a.97.97 0 0 0 .703-.29.971.971 0 0 0 .297-.71V57a.951.951 0 0 0-.078-.383.918.918 0 0 0-.219-.32.916.916 0 0 0-.32-.219.952.952 0 0 0-.383-.078h-12a.97.97 0 0 0-.711.297.968.968 0 0 0-.289.703v12c0 .14.026.273.078.398.052.12.123.224.211.313.089.088.193.159.313.21.125.053.257.079.398.079h12z"/><rect width="36" height="32" x="217" y="47" fill="#000" fill-opacity=".092" rx="4"/><path fill="#000" fill-opacity=".896" fill-rule="evenodd" d="M230.5 57a1.5 1.5 0 0 0-1.5 1.5v9a1.5 1.5 0 0 0 1.5 1.5h1.5V57h-1.5zm2.5 0v12h4V57h-4zm5 0v12h1.5a1.5 1.5 0 0 0 1.5-1.5v-9a1.5 1.5 0 0 0-1.5-1.5H238zm-10 1.5a2.5 2.5 0 0 1 2.5-2.5h9a2.5 2.5 0 0 1 2.5 2.5v9a2.5 2.5 0 0 1-2.5 2.5h-9a2.5 2.5 0 0 1-2.5-2.5v-9z" clip-rule="evenodd"/><defs><linearGradient id="a" x1="47" x2="47" y1="226" y2="238" gradientUnits="userSpaceOnUse"><stop offset=".5" stop-opacity=".058"/><stop offset=".955" stop-opacity=".162"/></linearGradient></defs></svg>